<?xml version="1.0" encoding="UTF-8"?>
<svg xmlns="http://www.w3.org/2000/svg" xmlns:xlink="http://www.w3.org/1999/xlink" width="720" height="400" viewBox="0 0 720 400">
<defs>
<g>
<g id="glyph-0-0-46e82409">
<path d="M 2.078125 -4.53125 L 2.078125 0 L 0.828125 0 L 0.828125 -8.703125 L 2.078125 -8.703125 L 2.078125 -4.90625 L 4.84375 -8.703125 L 6.3125 -8.703125 L 3.34375 -4.78125 L 6.640625 0 L 5.109375 0 Z M 2.078125 -4.53125 "/>
</g>
<g id="glyph-0-1-46e82409">
<path d="M 0.828125 1.078125 C 0.984375 1.128906 1.195312 1.175781 1.46875 1.21875 C 1.738281 1.257812 1.925781 1.28125 2.03125 1.28125 C 2.25 1.28125 2.4375 1.21875 2.59375 1.09375 C 2.75 0.976562 2.863281 0.828125 2.9375 0.640625 C 3.019531 0.460938 3.0625 0.285156 3.0625 0.109375 C 3.0625 -0.0429688 2.988281 -0.359375 2.84375 -0.828125 C 2.707031 -1.296875 2.546875 -1.789062 2.359375 -2.3125 C 2.335938 -2.382812 2.132812 -2.96875 1.75 -4.0625 C 1.3125 -5.320312 1.015625 -6.164062 0.859375 -6.59375 L 2.125 -6.59375 L 3.703125 -1.671875 L 5.1875 -6.59375 L 6.359375 -6.59375 L 5.234375 -3.046875 C 5.160156 -2.804688 5 -2.265625 4.75 -1.421875 C 4.445312 -0.367188 4.257812 0.25 4.1875 0.4375 C 3.976562 0.988281 3.75 1.40625 3.5 1.6875 C 3.25 1.976562 3.015625 2.160156 2.796875 2.234375 C 2.578125 2.316406 2.351562 2.363281 2.125 2.375 C 2.039062 2.375 1.84375 2.347656 1.53125 2.296875 C 1.226562 2.242188 0.992188 2.203125 0.828125 2.171875 Z M 0.828125 1.078125 "/>
</g>
<g id="glyph-0-2-46e82409">
</g>
<g id="glyph-0-3-46e82409">
<path d="M 2.046875 -3.609375 C 2.046875 -4.179688 2.03125 -4.59375 2 -4.84375 C 1.976562 -5.09375 1.941406 -5.359375 1.890625 -5.640625 L 0.75 -5.640625 L 0.75 -6.59375 L 2.859375 -6.59375 L 3.015625 -5.4375 C 3.203125 -5.894531 3.460938 -6.222656 3.796875 -6.421875 C 4.140625 -6.628906 4.492188 -6.734375 4.859375 -6.734375 C 5.140625 -6.734375 5.4375 -6.664062 5.75 -6.53125 C 6.070312 -6.394531 6.332031 -6.234375 6.53125 -6.046875 L 5.84375 -5.203125 C 5.726562 -5.316406 5.566406 -5.421875 5.359375 -5.515625 C 5.148438 -5.609375 4.910156 -5.65625 4.640625 -5.65625 C 4.179688 -5.65625 3.832031 -5.429688 3.59375 -4.984375 C 3.363281 -4.535156 3.25 -3.863281 3.25 -2.96875 L 3.25 0 L 2.03125 0 Z M 2.046875 -3.609375 "/>
</g>
<g id="glyph-0-4-46e82409">
<path d="M 2.859375 0.125 C 2.421875 0.125 2.039062 0.0429688 1.71875 -0.109375 C 1.40625 -0.265625 1.164062 -0.484375 1 -0.765625 C 0.832031 -1.046875 0.75 -1.382812 0.75 -1.78125 C 0.75 -2.625 1.078125 -3.203125 1.734375 -3.515625 C 2.398438 -3.828125 3.222656 -3.984375 4.203125 -3.984375 L 4.90625 -3.984375 L 4.90625 -4.296875 C 4.90625 -4.648438 4.8125 -4.972656 4.625 -5.265625 C 4.445312 -5.554688 4.085938 -5.703125 3.546875 -5.703125 C 3.296875 -5.703125 3.0625 -5.664062 2.84375 -5.59375 C 2.632812 -5.53125 2.453125 -5.453125 2.296875 -5.359375 C 2.140625 -5.273438 1.941406 -5.148438 1.703125 -4.984375 L 1.125 -5.796875 C 1.5 -6.066406 1.878906 -6.28125 2.265625 -6.4375 C 2.648438 -6.601562 3.117188 -6.6875 3.671875 -6.6875 C 4.628906 -6.6875 5.273438 -6.445312 5.609375 -5.96875 C 5.941406 -5.5 6.109375 -4.941406 6.109375 -4.296875 L 6.109375 -1.875 C 6.109375 -1.34375 6.144531 -0.71875 6.21875 0 L 5.015625 0 C 5.003906 -0.175781 4.988281 -0.398438 4.96875 -0.671875 L 4.96875 -0.875 C 4.757812 -0.53125 4.46875 -0.273438 4.09375 -0.109375 C 3.71875 0.0429688 3.304688 0.125 2.859375 0.125 Z M 3.15625 -0.796875 C 3.757812 -0.796875 4.203125 -1 4.484375 -1.40625 C 4.765625 -1.8125 4.90625 -2.363281 4.90625 -3.0625 L 4.453125 -3.078125 C 3.859375 -3.078125 3.378906 -3.035156 3.015625 -2.953125 C 2.648438 -2.867188 2.378906 -2.734375 2.203125 -2.546875 C 2.023438 -2.367188 1.9375 -2.132812 1.9375 -1.84375 C 1.9375 -1.476562 2.046875 -1.210938 2.265625 -1.046875 C 2.484375 -0.878906 2.78125 -0.796875 3.15625 -0.796875 Z M 3.15625 -0.796875 "/>
</g>
<g id="glyph-0-5-46e82409">
<path d="M 4.5625 0.078125 C 3.925781 0.078125 3.460938 -0.0507812 3.171875 -0.3125 C 2.878906 -0.582031 2.734375 -0.976562 2.734375 -1.5 L 2.734375 -5.609375 L 0.90625 -5.609375 L 0.90625 -6.59375 L 2.734375 -6.59375 L 2.734375 -8.796875 L 3.9375 -8.796875 L 3.9375 -6.59375 L 5.78125 -6.59375 L 5.78125 -5.609375 L 3.9375 -5.609375 L 3.9375 -1.984375 C 3.9375 -1.703125 3.96875 -1.488281 4.03125 -1.34375 C 4.101562 -1.195312 4.210938 -1.09375 4.359375 -1.03125 C 4.503906 -0.976562 4.710938 -0.953125 4.984375 -0.953125 C 5.117188 -0.953125 5.304688 -0.96875 5.546875 -1 C 5.796875 -1.039062 6.007812 -1.082031 6.1875 -1.125 L 6.1875 -0.109375 C 5.988281 -0.0546875 5.722656 -0.0117188 5.390625 0.015625 C 5.066406 0.0546875 4.789062 0.078125 4.5625 0.078125 Z M 4.5625 0.078125 "/>
</g>
<g id="glyph-0-6-46e82409">
<path d="M 3.8125 0.109375 C 3.257812 0.109375 2.753906 -0.0234375 2.296875 -0.296875 C 1.847656 -0.566406 1.488281 -0.957031 1.21875 -1.46875 C 0.945312 -1.976562 0.8125 -2.578125 0.8125 -3.265625 C 0.8125 -3.929688 0.9375 -4.523438 1.1875 -5.046875 C 1.4375 -5.578125 1.78125 -5.988281 2.21875 -6.28125 C 2.664062 -6.570312 3.164062 -6.71875 3.71875 -6.71875 C 4.582031 -6.71875 5.238281 -6.390625 5.6875 -5.734375 C 6.144531 -5.085938 6.375 -4.164062 6.375 -2.96875 L 2.046875 -2.96875 C 2.054688 -2.3125 2.21875 -1.8125 2.53125 -1.46875 C 2.84375 -1.132812 3.285156 -0.96875 3.859375 -0.96875 C 4.242188 -0.96875 4.609375 -1.03125 4.953125 -1.15625 C 5.296875 -1.28125 5.550781 -1.410156 5.71875 -1.546875 L 6.25 -0.671875 C 6.09375 -0.535156 5.882812 -0.40625 5.625 -0.28125 C 5.363281 -0.164062 5.070312 -0.0703125 4.75 0 C 4.4375 0.0703125 4.125 0.109375 3.8125 0.109375 Z M 5.25 -3.953125 C 5.25 -4.296875 5.179688 -4.597656 5.046875 -4.859375 C 4.910156 -5.117188 4.726562 -5.320312 4.5 -5.46875 C 4.269531 -5.613281 4.007812 -5.6875 3.71875 -5.6875 C 3.414062 -5.6875 3.140625 -5.613281 2.890625 -5.46875 C 2.648438 -5.320312 2.453125 -5.117188 2.296875 -4.859375 C 2.148438 -4.597656 2.078125 -4.296875 2.078125 -3.953125 Z M 5.25 -3.953125 "/>
</g>
<g id="glyph-0-7-46e82409">
<path d="M 4.8125 2.921875 C 4.257812 2.160156 3.796875 1.460938 3.421875 0.828125 C 3.054688 0.191406 2.765625 -0.457031 2.546875 -1.125 C 2.328125 -1.789062 2.21875 -2.476562 2.21875 -3.1875 C 2.21875 -4.300781 2.453125 -5.460938 2.921875 -6.671875 C 3.390625 -7.878906 4.023438 -9.007812 4.828125 -10.0625 L 5.875 -10.0625 C 5.132812 -8.96875 4.5625 -7.851562 4.15625 -6.71875 C 3.75 -5.582031 3.546875 -4.472656 3.546875 -3.390625 C 3.546875 -2.753906 3.644531 -2.066406 3.84375 -1.328125 C 4.050781 -0.597656 4.328125 0.128906 4.671875 0.859375 C 5.023438 1.597656 5.425781 2.285156 5.875 2.921875 Z M 4.8125 2.921875 "/>
</g>
<g id="glyph-0-8-46e82409">
<path d="M 3.625 0.0625 C 3.039062 0.0625 2.539062 -0.0351562 2.125 -0.234375 C 1.71875 -0.429688 1.347656 -0.726562 1.015625 -1.125 L 1.71875 -1.875 C 1.9375 -1.664062 2.132812 -1.5 2.3125 -1.375 C 2.488281 -1.25 2.6875 -1.148438 2.90625 -1.078125 C 3.132812 -1.003906 3.394531 -0.96875 3.6875 -0.96875 C 4.039062 -0.96875 4.359375 -1.035156 4.640625 -1.171875 C 4.921875 -1.316406 5.0625 -1.550781 5.0625 -1.875 C 5.0625 -2.050781 5.007812 -2.1875 4.90625 -2.28125 C 4.8125 -2.382812 4.6875 -2.460938 4.53125 -2.515625 C 4.375 -2.578125 4.140625 -2.644531 3.828125 -2.71875 C 3.660156 -2.757812 3.5 -2.800781 3.34375 -2.84375 C 2.875 -2.96875 2.488281 -3.097656 2.1875 -3.234375 C 1.894531 -3.378906 1.65625 -3.570312 1.46875 -3.8125 C 1.28125 -4.0625 1.1875 -4.378906 1.1875 -4.765625 C 1.1875 -5.179688 1.289062 -5.535156 1.5 -5.828125 C 1.71875 -6.117188 2.007812 -6.335938 2.375 -6.484375 C 2.738281 -6.640625 3.15625 -6.71875 3.625 -6.71875 C 4.582031 -6.71875 5.335938 -6.441406 5.890625 -5.890625 L 5.171875 -5.09375 C 4.734375 -5.457031 4.226562 -5.640625 3.65625 -5.640625 C 3.269531 -5.640625 2.953125 -5.5625 2.703125 -5.40625 C 2.460938 -5.257812 2.34375 -5.0625 2.34375 -4.8125 C 2.34375 -4.601562 2.425781 -4.425781 2.59375 -4.28125 C 2.757812 -4.144531 2.960938 -4.035156 3.203125 -3.953125 C 3.441406 -3.878906 3.75 -3.796875 4.125 -3.703125 L 4.34375 -3.640625 C 4.65625 -3.554688 4.9375 -3.457031 5.1875 -3.34375 C 5.4375 -3.238281 5.660156 -3.0625 5.859375 -2.8125 C 6.066406 -2.570312 6.171875 -2.253906 6.171875 -1.859375 C 6.171875 -1.398438 6.050781 -1.023438 5.8125 -0.734375 C 5.582031 -0.453125 5.273438 -0.25 4.890625 -0.125 C 4.515625 0 4.09375 0.0625 3.625 0.0625 Z M 3.625 0.0625 "/>
</g>
<g id="glyph-0-9-46e82409">
<path d="M 1.640625 2.921875 C 2.085938 2.285156 2.484375 1.597656 2.828125 0.859375 C 3.179688 0.128906 3.457031 -0.597656 3.65625 -1.328125 C 3.863281 -2.066406 3.96875 -2.753906 3.96875 -3.390625 C 3.96875 -4.472656 3.765625 -5.582031 3.359375 -6.71875 C 2.953125 -7.851562 2.378906 -8.96875 1.640625 -10.0625 L 2.6875 -10.0625 C 3.5 -9.007812 4.132812 -7.878906 4.59375 -6.671875 C 5.0625 -5.460938 5.296875 -4.300781 5.296875 -3.1875 C 5.296875 -2.476562 5.1875 -1.789062 4.96875 -1.125 C 4.757812 -0.457031 4.46875 0.191406 4.09375 0.828125 C 3.726562 1.460938 3.265625 2.160156 2.703125 2.921875 Z M 1.640625 2.921875 "/>
</g>
<g id="glyph-1-0-46e82409">
<path d="M 3.8125 0.109375 C 3.257812 0.109375 2.753906 -0.0234375 2.296875 -0.296875 C 1.847656 -0.566406 1.488281 -0.957031 1.21875 -1.46875 C 0.945312 -1.976562 0.8125 -2.578125 0.8125 -3.265625 C 0.8125 -3.929688 0.9375 -4.523438 1.1875 -5.046875 C 1.4375 -5.578125 1.78125 -5.988281 2.21875 -6.28125 C 2.664062 -6.570312 3.164062 -6.71875 3.71875 -6.71875 C 4.582031 -6.71875 5.238281 -6.390625 5.6875 -5.734375 C 6.144531 -5.085938 6.375 -4.164062 6.375 -2.96875 L 2.046875 -2.96875 C 2.054688 -2.3125 2.21875 -1.8125 2.53125 -1.46875 C 2.84375 -1.132812 3.285156 -0.96875 3.859375 -0.96875 C 4.242188 -0.96875 4.609375 -1.03125 4.953125 -1.15625 C 5.296875 -1.28125 5.550781 -1.410156 5.71875 -1.546875 L 6.25 -0.671875 C 6.09375 -0.535156 5.882812 -0.40625 5.625 -0.28125 C 5.363281 -0.164062 5.070312 -0.0703125 4.75 0 C 4.4375 0.0703125 4.125 0.109375 3.8125 0.109375 Z M 5.25 -3.953125 C 5.25 -4.296875 5.179688 -4.597656 5.046875 -4.859375 C 4.910156 -5.117188 4.726562 -5.320312 4.5 -5.46875 C 4.269531 -5.613281 4.007812 -5.6875 3.71875 -5.6875 C 3.414062 -5.6875 3.140625 -5.613281 2.890625 -5.46875 C 2.648438 -5.320312 2.453125 -5.117188 2.296875 -4.859375 C 2.148438 -4.597656 2.078125 -4.296875 2.078125 -3.953125 Z M 5.25 -3.953125 "/>
</g>
<g id="glyph-2-0-46e82409">
<path d="M 1.015625 -0.9375 L 2.9375 -0.9375 L 2.9375 -6.390625 C 2.613281 -6.078125 2.265625 -5.789062 1.890625 -5.53125 C 1.515625 -5.28125 1.164062 -5.109375 0.84375 -5.015625 L 0.84375 -6.078125 C 1.226562 -6.234375 1.625 -6.492188 2.03125 -6.859375 C 2.4375 -7.234375 2.78125 -7.601562 3.0625 -7.96875 L 4 -7.96875 L 4 -0.9375 L 5.765625 -0.9375 L 5.765625 0 L 1.015625 0 Z M 1.015625 -0.9375 "/>
</g>
<g id="glyph-3-0-46e82409">
<path d="M 1.25 -1.53125 C 1.894531 -2.101562 2.4375 -2.609375 2.875 -3.046875 C 3.3125 -3.492188 3.691406 -3.96875 4.015625 -4.46875 C 4.347656 -4.96875 4.515625 -5.429688 4.515625 -5.859375 C 4.515625 -6.109375 4.460938 -6.328125 4.359375 -6.515625 C 4.265625 -6.703125 4.125 -6.847656 3.9375 -6.953125 C 3.75 -7.054688 3.546875 -7.109375 3.328125 -7.109375 C 3.066406 -7.109375 2.835938 -7.050781 2.640625 -6.9375 C 2.441406 -6.820312 2.285156 -6.65625 2.171875 -6.4375 C 2.054688 -6.21875 2 -5.972656 2 -5.703125 L 0.875 -5.703125 C 0.882812 -6.222656 1 -6.660156 1.21875 -7.015625 C 1.4375 -7.367188 1.726562 -7.632812 2.09375 -7.8125 C 2.46875 -7.988281 2.890625 -8.078125 3.359375 -8.078125 C 3.785156 -8.078125 4.171875 -8 4.515625 -7.84375 C 4.867188 -7.695312 5.15625 -7.457031 5.375 -7.125 C 5.59375 -6.800781 5.703125 -6.398438 5.703125 -5.921875 C 5.703125 -5.429688 5.535156 -4.910156 5.203125 -4.359375 C 4.878906 -3.816406 4.5 -3.3125 4.0625 -2.84375 C 3.632812 -2.382812 3.109375 -1.859375 2.484375 -1.265625 L 2.09375 -0.890625 L 5.78125 -0.890625 L 5.78125 0.046875 L 0.796875 0.046875 L 0.796875 -1.140625 Z M 1.25 -1.53125 "/>
</g>
<g id="glyph-3-1-46e82409">
<path d="M 3.28125 0.109375 C 2.832031 0.109375 2.421875 0.0273438 2.046875 -0.125 C 1.671875 -0.28125 1.375 -0.515625 1.15625 -0.828125 C 0.9375 -1.140625 0.828125 -1.535156 0.828125 -2.015625 L 1.9375 -2.015625 C 1.945312 -1.628906 2.070312 -1.335938 2.3125 -1.140625 C 2.5625 -0.941406 2.863281 -0.84375 3.21875 -0.84375 C 3.507812 -0.84375 3.765625 -0.921875 3.984375 -1.078125 C 4.203125 -1.234375 4.367188 -1.453125 4.484375 -1.734375 C 4.609375 -2.015625 4.671875 -2.328125 4.671875 -2.671875 C 4.671875 -2.992188 4.613281 -3.285156 4.5 -3.546875 C 4.394531 -3.804688 4.238281 -4.007812 4.03125 -4.15625 C 3.832031 -4.300781 3.597656 -4.375 3.328125 -4.375 C 3.003906 -4.375 2.722656 -4.28125 2.484375 -4.09375 C 2.253906 -3.90625 2.097656 -3.648438 2.015625 -3.328125 L 0.90625 -3.328125 L 1.484375 -7.96875 L 5.5625 -7.96875 L 5.5625 -7 L 2.453125 -7 L 2.109375 -4.5625 C 2.316406 -4.820312 2.535156 -5.019531 2.765625 -5.15625 C 3.003906 -5.289062 3.273438 -5.359375 3.578125 -5.359375 C 4.035156 -5.359375 4.429688 -5.238281 4.765625 -5 C 5.109375 -4.757812 5.367188 -4.4375 5.546875 -4.03125 C 5.722656 -3.625 5.8125 -3.164062 5.8125 -2.65625 C 5.8125 -2.113281 5.703125 -1.632812 5.484375 -1.21875 C 5.273438 -0.800781 4.976562 -0.472656 4.59375 -0.234375 C 4.21875 -0.00390625 3.78125 0.109375 3.28125 0.109375 Z M 3.28125 0.109375 "/>
</g>
<g id="glyph-3-2-46e82409">
<path d="M 1.015625 -0.9375 L 2.9375 -0.9375 L 2.9375 -6.390625 C 2.613281 -6.078125 2.265625 -5.789062 1.890625 -5.53125 C 1.515625 -5.28125 1.164062 -5.109375 0.84375 -5.015625 L 0.84375 -6.078125 C 1.226562 -6.234375 1.625 -6.492188 2.03125 -6.859375 C 2.4375 -7.234375 2.78125 -7.601562 3.0625 -7.96875 L 4 -7.96875 L 4 -0.9375 L 5.765625 -0.9375 L 5.765625 0 L 1.015625 0 Z M 1.015625 -0.9375 "/>
</g>
<g id="glyph-3-3-46e82409">
<path d="M 3.3125 0.109375 C 2.550781 0.109375 1.972656 -0.0507812 1.578125 -0.375 C 1.191406 -0.707031 0.9375 -1.160156 0.8125 -1.734375 C 0.6875 -2.304688 0.625 -3.066406 0.625 -4.015625 C 0.625 -4.941406 0.6875 -5.691406 0.8125 -6.265625 C 0.945312 -6.835938 1.207031 -7.28125 1.59375 -7.59375 C 1.976562 -7.914062 2.550781 -8.078125 3.3125 -8.078125 C 4.0625 -8.078125 4.628906 -7.921875 5.015625 -7.609375 C 5.410156 -7.296875 5.671875 -6.851562 5.796875 -6.28125 C 5.929688 -5.707031 6 -4.953125 6 -4.015625 C 6 -3.066406 5.929688 -2.304688 5.796875 -1.734375 C 5.671875 -1.160156 5.414062 -0.707031 5.03125 -0.375 C 4.644531 -0.0507812 4.070312 0.109375 3.3125 0.109375 Z M 2.59375 -4.015625 L 3.3125 -4.828125 L 4.015625 -4.015625 L 3.3125 -3.28125 Z M 3.3125 -0.8125 C 3.769531 -0.8125 4.113281 -0.929688 4.34375 -1.171875 C 4.582031 -1.421875 4.738281 -1.765625 4.8125 -2.203125 C 4.882812 -2.648438 4.921875 -3.253906 4.921875 -4.015625 C 4.921875 -4.742188 4.882812 -5.328125 4.8125 -5.765625 C 4.738281 -6.203125 4.585938 -6.539062 4.359375 -6.78125 C 4.128906 -7.03125 3.78125 -7.15625 3.3125 -7.15625 C 2.84375 -7.15625 2.488281 -7.03125 2.25 -6.78125 C 2.019531 -6.539062 1.867188 -6.203125 1.796875 -5.765625 C 1.734375 -5.328125 1.703125 -4.742188 1.703125 -4.015625 C 1.703125 -3.265625 1.738281 -2.664062 1.8125 -2.21875 C 1.882812 -1.769531 2.035156 -1.421875 2.265625 -1.171875 C 2.503906 -0.929688 2.851562 -0.8125 3.3125 -0.8125 Z M 3.3125 -0.8125 "/>
</g>
<g id="glyph-3-4-46e82409">
<path d="M 1.828125 -2.234375 C 1.828125 -1.929688 1.894531 -1.671875 2.03125 -1.453125 C 2.175781 -1.242188 2.359375 -1.082031 2.578125 -0.96875 C 2.796875 -0.851562 3.019531 -0.796875 3.25 -0.796875 C 3.5 -0.796875 3.738281 -0.851562 3.96875 -0.96875 C 4.207031 -1.082031 4.394531 -1.25 4.53125 -1.46875 C 4.675781 -1.6875 4.75 -1.941406 4.75 -2.234375 C 4.75 -2.617188 4.648438 -2.945312 4.453125 -3.21875 C 4.265625 -3.5 3.984375 -3.71875 3.609375 -3.875 C 3.242188 -4.03125 2.8125 -4.109375 2.3125 -4.109375 L 2.3125 -5 L 4.515625 -7.046875 L 0.953125 -7.046875 L 0.953125 -7.96875 L 5.796875 -7.96875 L 5.796875 -6.828125 L 3.703125 -4.796875 C 4.203125 -4.710938 4.613281 -4.546875 4.9375 -4.296875 C 5.269531 -4.046875 5.515625 -3.742188 5.671875 -3.390625 C 5.828125 -3.035156 5.90625 -2.648438 5.90625 -2.234375 C 5.90625 -1.742188 5.773438 -1.316406 5.515625 -0.953125 C 5.265625 -0.597656 4.929688 -0.332031 4.515625 -0.15625 C 4.109375 0.0195312 3.6875 0.109375 3.25 0.109375 C 2.800781 0.109375 2.382812 0.0234375 2 -0.140625 C 1.613281 -0.304688 1.300781 -0.566406 1.0625 -0.921875 C 0.820312 -1.273438 0.703125 -1.710938 0.703125 -2.234375 Z M 1.828125 -2.234375 "/>
</g>
<g id="glyph-3-5-46e82409">
<path d="M 0.765625 -2.734375 L 0.703125 -3.03125 L 0.765625 -3.3125 L 0.765625 -3.59375 L 5.84375 -3.59375 L 5.84375 -3.3125 L 5.90625 -3.03125 L 5.84375 -2.734375 L 5.84375 -2.453125 L 0.765625 -2.453125 Z M 0.765625 -2.734375 "/>
</g>
<g id="glyph-3-6-46e82409">
<path d="M 3.296875 0.234375 C 2.960938 0.234375 2.703125 0.144531 2.515625 -0.03125 C 2.335938 -0.21875 2.25 -0.476562 2.25 -0.8125 C 2.25 -1.144531 2.335938 -1.398438 2.515625 -1.578125 C 2.703125 -1.765625 2.960938 -1.859375 3.296875 -1.859375 C 3.640625 -1.859375 3.898438 -1.765625 4.078125 -1.578125 C 4.253906 -1.398438 4.34375 -1.144531 4.34375 -0.8125 C 4.34375 -0.476562 4.25 -0.21875 4.0625 -0.03125 C 3.882812 0.144531 3.628906 0.234375 3.296875 0.234375 Z M 3.296875 0.234375 "/>
</g>
<g id="glyph-3-7-46e82409">
<path d="M 0.796875 -7.96875 L 2.921875 -7.96875 C 3.617188 -7.96875 4.179688 -7.800781 4.609375 -7.46875 C 5.046875 -7.144531 5.265625 -6.632812 5.265625 -5.9375 C 5.265625 -5.59375 5.226562 -5.304688 5.15625 -5.078125 C 5.082031 -4.859375 4.972656 -4.679688 4.828125 -4.546875 C 4.679688 -4.410156 4.5 -4.289062 4.28125 -4.1875 C 4.789062 -4.09375 5.195312 -3.890625 5.5 -3.578125 C 5.8125 -3.265625 5.96875 -2.800781 5.96875 -2.1875 C 5.96875 -1.394531 5.703125 -0.832031 5.171875 -0.5 C 4.640625 -0.164062 3.96875 0 3.15625 0 L 0.796875 0 Z M 2.9375 -0.9375 C 3.28125 -0.9375 3.582031 -0.960938 3.84375 -1.015625 C 4.101562 -1.078125 4.316406 -1.207031 4.484375 -1.40625 C 4.660156 -1.601562 4.75 -1.890625 4.75 -2.265625 C 4.75 -3.179688 4.210938 -3.640625 3.140625 -3.640625 L 1.9375 -3.640625 L 1.9375 -0.9375 Z M 2.65625 -4.546875 C 3.113281 -4.546875 3.46875 -4.640625 3.71875 -4.828125 C 3.976562 -5.015625 4.109375 -5.34375 4.109375 -5.8125 C 4.109375 -6.601562 3.671875 -7 2.796875 -7 L 1.921875 -7 L 1.921875 -4.546875 Z M 2.65625 -4.546875 "/>
</g>
<g id="glyph-3-8-46e82409">
<path d="M 3.296875 0.09375 C 2.765625 0.09375 2.304688 -0.03125 1.921875 -0.28125 C 1.535156 -0.539062 1.238281 -0.90625 1.03125 -1.375 C 0.832031 -1.84375 0.734375 -2.390625 0.734375 -3.015625 C 0.734375 -3.660156 0.835938 -4.21875 1.046875 -4.6875 C 1.253906 -5.164062 1.550781 -5.53125 1.9375 -5.78125 C 2.320312 -6.03125 2.78125 -6.15625 3.3125 -6.15625 C 3.832031 -6.15625 4.285156 -6.03125 4.671875 -5.78125 C 5.054688 -5.53125 5.351562 -5.164062 5.5625 -4.6875 C 5.769531 -4.21875 5.875 -3.660156 5.875 -3.015625 C 5.875 -2.390625 5.769531 -1.84375 5.5625 -1.375 C 5.363281 -0.90625 5.070312 -0.539062 4.6875 -0.28125 C 4.300781 -0.03125 3.835938 0.09375 3.296875 0.09375 Z M 3.28125 -0.875 C 3.582031 -0.875 3.84375 -0.957031 4.0625 -1.125 C 4.28125 -1.300781 4.445312 -1.550781 4.5625 -1.875 C 4.675781 -2.195312 4.734375 -2.578125 4.734375 -3.015625 C 4.734375 -3.460938 4.671875 -3.847656 4.546875 -4.171875 C 4.429688 -4.503906 4.265625 -4.757812 4.046875 -4.9375 C 3.828125 -5.113281 3.570312 -5.203125 3.28125 -5.203125 C 2.988281 -5.203125 2.738281 -5.113281 2.53125 -4.9375 C 2.320312 -4.757812 2.160156 -4.503906 2.046875 -4.171875 C 1.929688 -3.847656 1.875 -3.460938 1.875 -3.015625 C 1.875 -2.578125 1.925781 -2.195312 2.03125 -1.875 C 2.144531 -1.550781 2.304688 -1.300781 2.515625 -1.125 C 2.734375 -0.957031 2.988281 -0.875 3.28125 -0.875 Z M 3.28125 -0.875 "/>
</g>
<g id="glyph-3-9-46e82409">
<path d="M 0.90625 -4.546875 C 0.90625 -4.796875 0.894531 -5.015625 0.875 -5.203125 C 0.863281 -5.398438 0.84375 -5.679688 0.8125 -6.046875 L 1.859375 -6.046875 L 1.96875 -5.046875 C 2.175781 -5.410156 2.4375 -5.6875 2.75 -5.875 C 3.070312 -6.0625 3.429688 -6.15625 3.828125 -6.15625 C 4.460938 -6.15625 4.941406 -5.9375 5.265625 -5.5 C 5.597656 -5.0625 5.765625 -4.453125 5.765625 -3.671875 L 5.765625 0 L 4.640625 0 L 4.640625 -3.234375 C 4.640625 -3.828125 4.550781 -4.304688 4.375 -4.671875 C 4.207031 -5.035156 3.890625 -5.21875 3.421875 -5.21875 C 3.078125 -5.21875 2.800781 -5.101562 2.59375 -4.875 C 2.382812 -4.644531 2.234375 -4.351562 2.140625 -4 C 2.046875 -3.644531 2 -3.265625 2 -2.859375 L 2 0 L 0.90625 0 Z M 0.90625 -4.546875 "/>
</g>
<g id="glyph-3-10-46e82409">
<path d="M 3.03125 0.078125 C 2.519531 0.078125 2.09375 -0.0703125 1.75 -0.375 C 1.40625 -0.675781 1.148438 -1.066406 0.984375 -1.546875 C 0.816406 -2.035156 0.734375 -2.554688 0.734375 -3.109375 C 0.734375 -3.628906 0.820312 -4.117188 1 -4.578125 C 1.1875 -5.046875 1.457031 -5.421875 1.8125 -5.703125 C 2.164062 -5.984375 2.578125 -6.125 3.046875 -6.125 C 3.847656 -6.125 4.398438 -5.84375 4.703125 -5.28125 L 4.703125 -8.6875 L 5.796875 -8.6875 L 5.796875 -1.3125 C 5.796875 -1.175781 5.796875 -1.035156 5.796875 -0.890625 C 5.796875 -0.753906 5.800781 -0.617188 5.8125 -0.484375 L 5.828125 0 L 4.796875 0 L 4.703125 -0.765625 C 4.492188 -0.460938 4.257812 -0.242188 4 -0.109375 C 3.75 0.0117188 3.425781 0.078125 3.03125 0.078125 Z M 3.328125 -0.75 C 3.660156 -0.75 3.925781 -0.867188 4.125 -1.109375 C 4.332031 -1.347656 4.476562 -1.640625 4.5625 -1.984375 C 4.65625 -2.335938 4.703125 -2.695312 4.703125 -3.0625 C 4.703125 -3.425781 4.648438 -3.773438 4.546875 -4.109375 C 4.453125 -4.453125 4.289062 -4.734375 4.0625 -4.953125 C 3.84375 -5.171875 3.566406 -5.28125 3.234375 -5.28125 C 2.921875 -5.28125 2.660156 -5.164062 2.453125 -4.9375 C 2.242188 -4.71875 2.085938 -4.4375 1.984375 -4.09375 C 1.878906 -3.757812 1.828125 -3.421875 1.828125 -3.078125 C 1.828125 -2.710938 1.882812 -2.347656 2 -1.984375 C 2.113281 -1.628906 2.28125 -1.332031 2.5 -1.09375 C 2.726562 -0.863281 3.003906 -0.75 3.328125 -0.75 Z M 3.328125 -0.75 "/>
</g>
<g id="glyph-3-11-46e82409">
</g>
<g id="glyph-3-12-46e82409">
<path d="M 4.40625 2.671875 C 3.894531 1.972656 3.46875 1.332031 3.125 0.75 C 2.789062 0.175781 2.523438 -0.414062 2.328125 -1.03125 C 2.128906 -1.644531 2.03125 -2.273438 2.03125 -2.921875 C 2.03125 -3.941406 2.242188 -5.003906 2.671875 -6.109375 C 3.097656 -7.222656 3.679688 -8.257812 4.421875 -9.21875 L 5.390625 -9.21875 C 4.710938 -8.21875 4.1875 -7.195312 3.8125 -6.15625 C 3.4375 -5.113281 3.25 -4.097656 3.25 -3.109375 C 3.25 -2.523438 3.34375 -1.894531 3.53125 -1.21875 C 3.71875 -0.539062 3.972656 0.128906 4.296875 0.796875 C 4.617188 1.460938 4.984375 2.085938 5.390625 2.671875 Z M 4.40625 2.671875 "/>
</g>
<g id="glyph-3-13-46e82409">
<path d="M 2.625 0.109375 C 2.21875 0.109375 1.867188 0.0390625 1.578125 -0.09375 C 1.285156 -0.238281 1.0625 -0.441406 0.90625 -0.703125 C 0.757812 -0.960938 0.6875 -1.273438 0.6875 -1.640625 C 0.6875 -2.410156 0.988281 -2.9375 1.59375 -3.21875 C 2.207031 -3.507812 2.957031 -3.65625 3.84375 -3.65625 L 4.5 -3.65625 L 4.5 -3.9375 C 4.5 -4.257812 4.414062 -4.550781 4.25 -4.8125 C 4.082031 -5.082031 3.75 -5.21875 3.25 -5.21875 C 3.019531 -5.21875 2.804688 -5.1875 2.609375 -5.125 C 2.421875 -5.070312 2.253906 -5.003906 2.109375 -4.921875 C 1.960938 -4.835938 1.78125 -4.722656 1.5625 -4.578125 L 1.03125 -5.3125 C 1.375 -5.5625 1.71875 -5.757812 2.0625 -5.90625 C 2.414062 -6.050781 2.847656 -6.125 3.359375 -6.125 C 4.242188 -6.125 4.835938 -5.90625 5.140625 -5.46875 C 5.441406 -5.039062 5.59375 -4.53125 5.59375 -3.9375 L 5.59375 -1.71875 C 5.59375 -1.226562 5.628906 -0.65625 5.703125 0 L 4.609375 0 C 4.585938 -0.15625 4.570312 -0.363281 4.5625 -0.625 L 4.546875 -0.796875 C 4.359375 -0.484375 4.09375 -0.253906 3.75 -0.109375 C 3.40625 0.0351562 3.03125 0.109375 2.625 0.109375 Z M 2.90625 -0.734375 C 3.457031 -0.734375 3.859375 -0.914062 4.109375 -1.28125 C 4.367188 -1.65625 4.5 -2.164062 4.5 -2.8125 L 4.078125 -2.828125 C 3.535156 -2.828125 3.097656 -2.785156 2.765625 -2.703125 C 2.429688 -2.628906 2.179688 -2.507812 2.015625 -2.34375 C 1.859375 -2.175781 1.78125 -1.957031 1.78125 -1.6875 C 1.78125 -1.351562 1.878906 -1.109375 2.078125 -0.953125 C 2.273438 -0.804688 2.550781 -0.734375 2.90625 -0.734375 Z M 2.90625 -0.734375 "/>
</g>
<g id="glyph-3-14-46e82409">
<path d="M 3.328125 0.0625 C 2.785156 0.0625 2.328125 -0.0234375 1.953125 -0.203125 C 1.578125 -0.390625 1.234375 -0.664062 0.921875 -1.03125 L 1.578125 -1.71875 C 1.773438 -1.53125 1.953125 -1.378906 2.109375 -1.265625 C 2.273438 -1.148438 2.457031 -1.054688 2.65625 -0.984375 C 2.863281 -0.921875 3.101562 -0.890625 3.375 -0.890625 C 3.707031 -0.890625 4 -0.953125 4.25 -1.078125 C 4.507812 -1.210938 4.640625 -1.425781 4.640625 -1.71875 C 4.640625 -1.875 4.59375 -2 4.5 -2.09375 C 4.414062 -2.1875 4.300781 -2.257812 4.15625 -2.3125 C 4.007812 -2.363281 3.796875 -2.421875 3.515625 -2.484375 C 3.359375 -2.523438 3.207031 -2.566406 3.0625 -2.609375 C 2.632812 -2.722656 2.28125 -2.84375 2 -2.96875 C 1.726562 -3.09375 1.507812 -3.269531 1.34375 -3.5 C 1.175781 -3.726562 1.09375 -4.019531 1.09375 -4.375 C 1.09375 -4.75 1.1875 -5.070312 1.375 -5.34375 C 1.570312 -5.613281 1.835938 -5.816406 2.171875 -5.953125 C 2.515625 -6.085938 2.894531 -6.15625 3.3125 -6.15625 C 4.195312 -6.15625 4.890625 -5.898438 5.390625 -5.390625 L 4.734375 -4.671875 C 4.335938 -5.003906 3.878906 -5.171875 3.359375 -5.171875 C 2.992188 -5.171875 2.695312 -5.097656 2.46875 -4.953125 C 2.25 -4.816406 2.140625 -4.632812 2.140625 -4.40625 C 2.140625 -4.21875 2.21875 -4.054688 2.375 -3.921875 C 2.53125 -3.796875 2.71875 -3.695312 2.9375 -3.625 C 3.15625 -3.550781 3.4375 -3.472656 3.78125 -3.390625 L 3.984375 -3.34375 C 4.265625 -3.257812 4.519531 -3.164062 4.75 -3.0625 C 4.976562 -2.96875 5.1875 -2.804688 5.375 -2.578125 C 5.5625 -2.359375 5.65625 -2.066406 5.65625 -1.703125 C 5.65625 -1.285156 5.546875 -0.945312 5.328125 -0.6875 C 5.117188 -0.425781 4.835938 -0.234375 4.484375 -0.109375 C 4.140625 0.00390625 3.753906 0.0625 3.328125 0.0625 Z M 3.328125 0.0625 "/>
</g>
<g id="glyph-3-15-46e82409">
<path d="M 3.5 0.09375 C 2.988281 0.09375 2.523438 -0.0234375 2.109375 -0.265625 C 1.691406 -0.515625 1.359375 -0.875 1.109375 -1.34375 C 0.867188 -1.8125 0.75 -2.359375 0.75 -2.984375 C 0.75 -3.597656 0.863281 -4.144531 1.09375 -4.625 C 1.320312 -5.113281 1.632812 -5.488281 2.03125 -5.75 C 2.4375 -6.019531 2.898438 -6.15625 3.421875 -6.15625 C 4.210938 -6.15625 4.8125 -5.851562 5.21875 -5.25 C 5.632812 -4.65625 5.84375 -3.8125 5.84375 -2.71875 L 1.875 -2.71875 C 1.882812 -2.113281 2.03125 -1.65625 2.3125 -1.34375 C 2.601562 -1.039062 3.007812 -0.890625 3.53125 -0.890625 C 3.882812 -0.890625 4.21875 -0.941406 4.53125 -1.046875 C 4.851562 -1.160156 5.09375 -1.285156 5.25 -1.421875 L 5.734375 -0.609375 C 5.585938 -0.492188 5.394531 -0.378906 5.15625 -0.265625 C 4.914062 -0.160156 4.648438 -0.0703125 4.359375 0 C 4.066406 0.0625 3.78125 0.09375 3.5 0.09375 Z M 4.8125 -3.625 C 4.8125 -3.9375 4.75 -4.210938 4.625 -4.453125 C 4.5 -4.691406 4.332031 -4.878906 4.125 -5.015625 C 3.914062 -5.148438 3.675781 -5.21875 3.40625 -5.21875 C 3.132812 -5.21875 2.882812 -5.148438 2.65625 -5.015625 C 2.425781 -4.878906 2.242188 -4.691406 2.109375 -4.453125 C 1.972656 -4.210938 1.90625 -3.9375 1.90625 -3.625 Z M 4.8125 -3.625 "/>
</g>
<g id="glyph-3-16-46e82409">
<path d="M 4.1875 0.078125 C 3.601562 0.078125 3.175781 -0.0390625 2.90625 -0.28125 C 2.644531 -0.53125 2.515625 -0.894531 2.515625 -1.375 L 2.515625 -5.140625 L 0.828125 -5.140625 L 0.828125 -6.046875 L 2.515625 -6.046875 L 2.515625 -8.0625 L 3.609375 -8.0625 L 3.609375 -6.046875 L 5.296875 -6.046875 L 5.296875 -5.140625 L 3.609375 -5.140625 L 3.609375 -1.8125 C 3.609375 -1.5625 3.640625 -1.367188 3.703125 -1.234375 C 3.765625 -1.097656 3.863281 -1.003906 4 -0.953125 C 4.132812 -0.898438 4.328125 -0.875 4.578125 -0.875 C 4.691406 -0.875 4.859375 -0.890625 5.078125 -0.921875 C 5.304688 -0.953125 5.503906 -0.988281 5.671875 -1.03125 L 5.671875 -0.09375 C 5.492188 -0.0507812 5.253906 -0.0117188 4.953125 0.015625 C 4.648438 0.0546875 4.394531 0.078125 4.1875 0.078125 Z M 4.1875 0.078125 "/>
</g>
<g id="glyph-3-17-46e82409">
<path d="M 1.5 2.671875 C 1.914062 2.085938 2.28125 1.460938 2.59375 0.796875 C 2.914062 0.128906 3.171875 -0.539062 3.359375 -1.21875 C 3.546875 -1.894531 3.640625 -2.523438 3.640625 -3.109375 C 3.640625 -4.097656 3.453125 -5.113281 3.078125 -6.15625 C 2.703125 -7.195312 2.175781 -8.21875 1.5 -9.21875 L 2.46875 -9.21875 C 3.207031 -8.257812 3.789062 -7.222656 4.21875 -6.109375 C 4.644531 -5.003906 4.859375 -3.941406 4.859375 -2.921875 C 4.859375 -2.273438 4.757812 -1.644531 4.5625 -1.03125 C 4.363281 -0.414062 4.09375 0.175781 3.75 0.75 C 3.414062 1.332031 2.992188 1.972656 2.484375 2.671875 Z M 1.5 2.671875 "/>
</g>
<g id="glyph-3-18-46e82409">
<path d="M 2.5625 -7.96875 L 4.046875 -7.96875 L 6.140625 0 L 4.9375 0 L 4.40625 -2.078125 L 2.140625 -2.078125 L 1.625 0 L 0.46875 0 Z M 4.203125 -3.03125 L 3.34375 -6.8125 L 3.25 -6.8125 L 2.40625 -3.03125 Z M 4.203125 -3.03125 "/>
</g>
<g id="glyph-3-19-46e82409">
<path d="M 2.765625 0.078125 C 2.140625 0.078125 1.671875 -0.109375 1.359375 -0.484375 C 1.046875 -0.867188 0.890625 -1.414062 0.890625 -2.125 L 0.890625 -6.046875 L 2 -6.046875 L 2 -2.390625 C 2 -2.046875 2.023438 -1.757812 2.078125 -1.53125 C 2.128906 -1.3125 2.234375 -1.132812 2.390625 -1 C 2.554688 -0.863281 2.800781 -0.796875 3.125 -0.796875 C 3.445312 -0.796875 3.710938 -0.878906 3.921875 -1.046875 C 4.140625 -1.222656 4.296875 -1.453125 4.390625 -1.734375 C 4.492188 -2.015625 4.546875 -2.320312 4.546875 -2.65625 L 4.546875 -6.046875 L 5.671875 -6.046875 L 5.671875 -1.3125 C 5.671875 -1.070312 5.679688 -0.785156 5.703125 -0.453125 L 5.71875 0 L 4.640625 0 L 4.59375 -0.734375 C 4.382812 -0.441406 4.128906 -0.234375 3.828125 -0.109375 C 3.535156 0.0117188 3.179688 0.078125 2.765625 0.078125 Z M 2.765625 0.078125 "/>
</g>
<g id="glyph-3-20-46e82409">
<path d="M 1.109375 -6.046875 L 3.9375 -6.046875 L 3.9375 -0.890625 L 5.609375 -0.890625 L 5.609375 0 L 1.015625 0 L 1.015625 -0.890625 L 2.828125 -0.890625 L 2.828125 -5.203125 L 1.109375 -5.203125 Z M 3.265625 -7.15625 C 2.972656 -7.15625 2.765625 -7.210938 2.640625 -7.328125 C 2.523438 -7.453125 2.46875 -7.65625 2.46875 -7.9375 C 2.46875 -8.226562 2.523438 -8.429688 2.640625 -8.546875 C 2.765625 -8.671875 2.972656 -8.734375 3.265625 -8.734375 C 3.546875 -8.734375 3.742188 -8.671875 3.859375 -8.546875 C 3.984375 -8.429688 4.046875 -8.226562 4.046875 -7.9375 C 4.046875 -7.65625 3.984375 -7.453125 3.859375 -7.328125 C 3.742188 -7.210938 3.546875 -7.15625 3.265625 -7.15625 Z M 3.265625 -7.15625 "/>
</g>
<g id="glyph-3-21-46e82409">
<path d="M 0.765625 0.984375 C 0.898438 1.035156 1.09375 1.078125 1.34375 1.109375 C 1.59375 1.148438 1.765625 1.171875 1.859375 1.171875 C 2.066406 1.171875 2.238281 1.113281 2.375 1 C 2.519531 0.894531 2.628906 0.757812 2.703125 0.59375 C 2.773438 0.425781 2.8125 0.265625 2.8125 0.109375 C 2.8125 -0.0429688 2.742188 -0.332031 2.609375 -0.75 C 2.484375 -1.175781 2.335938 -1.632812 2.171875 -2.125 C 2.140625 -2.1875 1.945312 -2.722656 1.59375 -3.734375 C 1.195312 -4.878906 0.925781 -5.648438 0.78125 -6.046875 L 1.953125 -6.046875 L 3.390625 -1.53125 L 4.75 -6.046875 L 5.828125 -6.046875 L 4.796875 -2.796875 C 4.722656 -2.578125 4.578125 -2.078125 4.359375 -1.296875 C 4.078125 -0.335938 3.90625 0.226562 3.84375 0.40625 C 3.65625 0.914062 3.441406 1.296875 3.203125 1.546875 C 2.972656 1.804688 2.757812 1.972656 2.5625 2.046875 C 2.363281 2.117188 2.160156 2.160156 1.953125 2.171875 C 1.878906 2.179688 1.695312 2.160156 1.40625 2.109375 C 1.125 2.066406 0.910156 2.023438 0.765625 1.984375 Z M 0.765625 0.984375 "/>
</g>
<g id="glyph-3-22-46e82409">
<path d="M 4.515625 0.125 C 3.828125 0.125 3.3125 -0.0390625 2.96875 -0.375 C 2.632812 -0.707031 2.46875 -1.210938 2.46875 -1.890625 L 2.46875 -7.78125 L 0.578125 -7.78125 L 0.578125 -8.6875 L 3.5625 -8.6875 L 3.5625 -2.171875 C 3.5625 -1.742188 3.65625 -1.425781 3.84375 -1.21875 C 4.03125 -1.007812 4.273438 -0.90625 4.578125 -0.90625 C 4.785156 -0.90625 4.96875 -0.953125 5.125 -1.046875 C 5.289062 -1.148438 5.460938 -1.296875 5.640625 -1.484375 L 6.296875 -0.71875 C 6.078125 -0.476562 5.816406 -0.273438 5.515625 -0.109375 C 5.222656 0.0429688 4.890625 0.125 4.515625 0.125 Z M 4.515625 0.125 "/>
</g>
<g id="glyph-3-23-46e82409">
<path d="M 3.609375 0.109375 C 3.242188 0.109375 2.929688 0.0429688 2.671875 -0.078125 C 2.421875 -0.203125 2.191406 -0.414062 1.984375 -0.71875 L 1.953125 0 L 0.875 0 C 0.894531 -0.5 0.90625 -0.941406 0.90625 -1.328125 L 0.90625 -8.6875 L 2.03125 -8.6875 L 2.03125 -5.0625 C 2.226562 -5.394531 2.46875 -5.648438 2.75 -5.828125 C 3.03125 -6.003906 3.335938 -6.09375 3.671875 -6.09375 C 4.171875 -6.09375 4.582031 -5.953125 4.90625 -5.671875 C 5.226562 -5.390625 5.460938 -5.003906 5.609375 -4.515625 C 5.753906 -4.035156 5.828125 -3.488281 5.828125 -2.875 C 5.828125 -2.351562 5.742188 -1.863281 5.578125 -1.40625 C 5.410156 -0.957031 5.160156 -0.59375 4.828125 -0.3125 C 4.492188 -0.03125 4.085938 0.109375 3.609375 0.109375 Z M 3.328125 -0.71875 C 3.660156 -0.71875 3.929688 -0.820312 4.140625 -1.03125 C 4.347656 -1.238281 4.492188 -1.5 4.578125 -1.8125 C 4.671875 -2.132812 4.71875 -2.472656 4.71875 -2.828125 C 4.71875 -3.515625 4.613281 -4.070312 4.40625 -4.5 C 4.207031 -4.9375 3.878906 -5.15625 3.421875 -5.15625 C 3.085938 -5.15625 2.8125 -5.050781 2.59375 -4.84375 C 2.375 -4.632812 2.210938 -4.351562 2.109375 -4 C 2.015625 -3.644531 1.96875 -3.25 1.96875 -2.8125 C 1.96875 -2.46875 2.015625 -2.140625 2.109375 -1.828125 C 2.203125 -1.515625 2.347656 -1.25 2.546875 -1.03125 C 2.742188 -0.820312 3.003906 -0.71875 3.328125 -0.71875 Z M 3.328125 -0.71875 "/>
</g>
<g id="glyph-3-24-46e82409">
<path d="M 0.890625 -7.96875 L 2.4375 -7.96875 L 4.125 -3 L 4.515625 -1.796875 L 4.515625 -7.96875 L 5.671875 -7.96875 L 5.671875 0 L 4.1875 0 L 2.015625 -6.0625 L 2.015625 0 L 0.890625 0 Z M 0.890625 -7.96875 "/>
</g>
<g id="glyph-4-0-46e82409">
<path d="M -8.703125 -0.921875 L -8.703125 -2.65625 C -8.703125 -3.5625 -8.5625 -4.296875 -8.28125 -4.859375 C -8.007812 -5.429688 -7.554688 -5.859375 -6.921875 -6.140625 C -6.296875 -6.421875 -5.457031 -6.5625 -4.40625 -6.5625 C -3.351562 -6.5625 -2.503906 -6.425781 -1.859375 -6.15625 C -1.222656 -5.894531 -0.753906 -5.472656 -0.453125 -4.890625 C -0.148438 -4.316406 0 -3.539062 0 -2.5625 L 0 -0.921875 Z M -1.0625 -2.6875 C -1.0625 -3.289062 -1.171875 -3.773438 -1.390625 -4.140625 C -1.617188 -4.503906 -1.972656 -4.769531 -2.453125 -4.9375 C -2.941406 -5.113281 -3.59375 -5.203125 -4.40625 -5.203125 C -5.144531 -5.203125 -5.75 -5.117188 -6.21875 -4.953125 C -6.695312 -4.785156 -7.050781 -4.523438 -7.28125 -4.171875 C -7.507812 -3.828125 -7.625 -3.367188 -7.625 -2.796875 L -7.625 -2.203125 L -1.0625 -2.203125 Z M -1.0625 -2.6875 "/>
</g>
<g id="glyph-5-0-46e82409">
<path d="M -8.703125 -0.53125 L -8.703125 -1.78125 L -1.59375 -3.609375 L -8.703125 -5.40625 L -8.703125 -6.65625 L 0 -4.234375 L 0 -2.921875 Z M -8.703125 -0.53125 "/>
</g>
<g id="glyph-6-0-46e82409">
<path d="M 0.125 -3.609375 C 0.125 -2.773438 -0.0507812 -2.144531 -0.40625 -1.71875 C -0.769531 -1.300781 -1.265625 -1.019531 -1.890625 -0.875 C -2.523438 -0.738281 -3.359375 -0.671875 -4.390625 -0.671875 C -5.398438 -0.671875 -6.21875 -0.742188 -6.84375 -0.890625 C -7.46875 -1.035156 -7.953125 -1.316406 -8.296875 -1.734375 C -8.640625 -2.160156 -8.8125 -2.785156 -8.8125 -3.609375 C -8.8125 -4.429688 -8.640625 -5.050781 -8.296875 -5.46875 C -7.953125 -5.894531 -7.46875 -6.179688 -6.84375 -6.328125 C -6.21875 -6.472656 -5.398438 -6.546875 -4.390625 -6.546875 C -3.359375 -6.546875 -2.523438 -6.472656 -1.890625 -6.328125 C -1.265625 -6.191406 -0.769531 -5.910156 -0.40625 -5.484375 C -0.0507812 -5.066406 0.125 -4.441406 0.125 -3.609375 Z M -4.390625 -2.84375 L -5.28125 -3.609375 L -4.390625 -4.390625 L -3.578125 -3.609375 Z M -0.875 -3.609375 C -0.875 -4.117188 -1.007812 -4.5 -1.28125 -4.75 C -1.550781 -5 -1.925781 -5.164062 -2.40625 -5.25 C -2.894531 -5.332031 -3.554688 -5.375 -4.390625 -5.375 C -5.179688 -5.375 -5.8125 -5.332031 -6.28125 -5.25 C -6.757812 -5.175781 -7.132812 -5.007812 -7.40625 -4.75 C -7.675781 -4.5 -7.8125 -4.117188 -7.8125 -3.609375 C -7.8125 -3.097656 -7.675781 -2.710938 -7.40625 -2.453125 C -7.132812 -2.203125 -6.757812 -2.039062 -6.28125 -1.96875 C -5.8125 -1.894531 -5.179688 -1.859375 -4.390625 -1.859375 C -3.566406 -1.859375 -2.910156 -1.894531 -2.421875 -1.96875 C -1.929688 -2.050781 -1.550781 -2.21875 -1.28125 -2.46875 C -1.007812 -2.726562 -0.875 -3.109375 -0.875 -3.609375 Z M -0.875 -3.609375 "/>
</g>
<g id="glyph-7-0-46e82409">
<path d="M -1.03125 -1.109375 L -1.03125 -3.203125 L -6.984375 -3.203125 C -6.640625 -2.847656 -6.328125 -2.46875 -6.046875 -2.0625 C -5.765625 -1.65625 -5.570312 -1.273438 -5.46875 -0.921875 L -6.625 -0.921875 C -6.800781 -1.335938 -7.085938 -1.765625 -7.484375 -2.203125 C -7.890625 -2.648438 -8.296875 -3.03125 -8.703125 -3.34375 L -8.703125 -4.359375 L -1.03125 -4.359375 L -1.03125 -6.28125 L 0 -6.28125 L 0 -1.109375 Z M -1.03125 -1.109375 "/>
</g>
<g id="glyph-8-0-46e82409">
<path d="M 3.3125 0.109375 C 2.550781 0.109375 1.972656 -0.0507812 1.578125 -0.375 C 1.191406 -0.707031 0.9375 -1.160156 0.8125 -1.734375 C 0.6875 -2.304688 0.625 -3.066406 0.625 -4.015625 C 0.625 -4.941406 0.6875 -5.691406 0.8125 -6.265625 C 0.945312 -6.835938 1.207031 -7.28125 1.59375 -7.59375 C 1.976562 -7.914062 2.550781 -8.078125 3.3125 -8.078125 C 4.0625 -8.078125 4.628906 -7.921875 5.015625 -7.609375 C 5.410156 -7.296875 5.671875 -6.851562 5.796875 -6.28125 C 5.929688 -5.707031 6 -4.953125 6 -4.015625 C 6 -3.066406 5.929688 -2.304688 5.796875 -1.734375 C 5.671875 -1.160156 5.414062 -0.707031 5.03125 -0.375 C 4.644531 -0.0507812 4.070312 0.109375 3.3125 0.109375 Z M 2.59375 -4.015625 L 3.3125 -4.828125 L 4.015625 -4.015625 L 3.3125 -3.28125 Z M 3.3125 -0.8125 C 3.769531 -0.8125 4.113281 -0.929688 4.34375 -1.171875 C 4.582031 -1.421875 4.738281 -1.765625 4.8125 -2.203125 C 4.882812 -2.648438 4.921875 -3.253906 4.921875 -4.015625 C 4.921875 -4.742188 4.882812 -5.328125 4.8125 -5.765625 C 4.738281 -6.203125 4.585938 -6.539062 4.359375 -6.78125 C 4.128906 -7.03125 3.78125 -7.15625 3.3125 -7.15625 C 2.84375 -7.15625 2.488281 -7.03125 2.25 -6.78125 C 2.019531 -6.539062 1.867188 -6.203125 1.796875 -5.765625 C 1.734375 -5.328125 1.703125 -4.742188 1.703125 -4.015625 C 1.703125 -3.265625 1.738281 -2.664062 1.8125 -2.21875 C 1.882812 -1.769531 2.035156 -1.421875 2.265625 -1.171875 C 2.503906 -0.929688 2.851562 -0.8125 3.3125 -0.8125 Z M 3.3125 -0.8125 "/>
</g>
<g id="glyph-9-0-46e82409">
<path d="M 2.59375 -5.671875 L 2.59375 0 L 1.03125 0 L 1.03125 -10.875 L 2.59375 -10.875 L 2.59375 -6.140625 L 6.0625 -10.875 L 7.875 -10.875 L 4.171875 -5.984375 L 8.3125 0 L 6.390625 0 Z M 2.59375 -5.671875 "/>
</g>
<g id="glyph-9-1-46e82409">
<path d="M 4.765625 0.140625 C 4.078125 0.140625 3.445312 -0.0234375 2.875 -0.359375 C 2.3125 -0.703125 1.859375 -1.191406 1.515625 -1.828125 C 1.179688 -2.472656 1.015625 -3.222656 1.015625 -4.078125 C 1.015625 -4.910156 1.171875 -5.65625 1.484375 -6.3125 C 1.796875 -6.96875 2.226562 -7.476562 2.78125 -7.84375 C 3.332031 -8.207031 3.957031 -8.390625 4.65625 -8.390625 C 5.738281 -8.390625 6.5625 -7.984375 7.125 -7.171875 C 7.6875 -6.359375 7.96875 -5.203125 7.96875 -3.703125 L 2.546875 -3.703125 C 2.566406 -2.878906 2.769531 -2.257812 3.15625 -1.84375 C 3.550781 -1.425781 4.101562 -1.21875 4.8125 -1.21875 C 5.300781 -1.21875 5.757812 -1.289062 6.1875 -1.4375 C 6.625 -1.59375 6.945312 -1.757812 7.15625 -1.9375 L 7.8125 -0.828125 C 7.613281 -0.671875 7.351562 -0.515625 7.03125 -0.359375 C 6.707031 -0.210938 6.34375 -0.09375 5.9375 0 C 5.539062 0.09375 5.148438 0.140625 4.765625 0.140625 Z M 6.5625 -4.953125 C 6.5625 -5.367188 6.476562 -5.738281 6.3125 -6.0625 C 6.144531 -6.394531 5.914062 -6.648438 5.625 -6.828125 C 5.332031 -7.015625 5.003906 -7.109375 4.640625 -7.109375 C 4.273438 -7.109375 3.9375 -7.015625 3.625 -6.828125 C 3.3125 -6.648438 3.0625 -6.398438 2.875 -6.078125 C 2.695312 -5.753906 2.609375 -5.378906 2.609375 -4.953125 Z M 6.5625 -4.953125 "/>
</g>
<g id="glyph-9-2-46e82409">
<path d="M 1.046875 1.34375 C 1.234375 1.40625 1.492188 1.460938 1.828125 1.515625 C 2.171875 1.578125 2.410156 1.609375 2.546875 1.609375 C 2.816406 1.609375 3.050781 1.53125 3.25 1.375 C 3.445312 1.21875 3.59375 1.023438 3.6875 0.796875 C 3.78125 0.578125 3.828125 0.359375 3.828125 0.140625 C 3.828125 -0.0664062 3.738281 -0.457031 3.5625 -1.03125 C 3.394531 -1.613281 3.191406 -2.234375 2.953125 -2.890625 C 2.921875 -2.984375 2.664062 -3.710938 2.1875 -5.078125 C 1.644531 -6.648438 1.273438 -7.707031 1.078125 -8.25 L 2.65625 -8.25 L 4.625 -2.078125 L 6.484375 -8.25 L 7.953125 -8.25 L 6.546875 -3.8125 C 6.441406 -3.507812 6.238281 -2.832031 5.9375 -1.78125 C 5.5625 -0.46875 5.328125 0.3125 5.234375 0.5625 C 4.984375 1.25 4.695312 1.765625 4.375 2.109375 C 4.0625 2.460938 3.765625 2.691406 3.484375 2.796875 C 3.210938 2.898438 2.9375 2.957031 2.65625 2.96875 C 2.550781 2.976562 2.304688 2.945312 1.921875 2.875 C 1.535156 2.8125 1.242188 2.753906 1.046875 2.703125 Z M 1.046875 1.34375 "/>
</g>
<g id="glyph-9-3-46e82409">
<path d="M 1.5 -3.734375 L 1.421875 -4.125 L 1.5 -4.5 L 1.5 -4.90625 L 7.515625 -4.90625 L 7.515625 -4.5 L 7.59375 -4.125 L 7.515625 -3.734375 L 7.515625 -3.34375 L 1.5 -3.34375 Z M 1.5 -3.734375 "/>
</g>
<g id="glyph-9-4-46e82409">
<path d="M 2.546875 -4.5 C 2.546875 -5.21875 2.53125 -5.734375 2.5 -6.046875 C 2.46875 -6.367188 2.425781 -6.703125 2.375 -7.046875 L 0.9375 -7.046875 L 0.9375 -8.25 L 3.5625 -8.25 L 3.765625 -6.796875 C 4.003906 -7.367188 4.332031 -7.78125 4.75 -8.03125 C 5.175781 -8.289062 5.617188 -8.421875 6.078125 -8.421875 C 6.421875 -8.421875 6.789062 -8.332031 7.1875 -8.15625 C 7.59375 -7.988281 7.914062 -7.785156 8.15625 -7.546875 L 7.3125 -6.5 C 7.164062 -6.65625 6.960938 -6.785156 6.703125 -6.890625 C 6.441406 -7.003906 6.140625 -7.0625 5.796875 -7.0625 C 5.234375 -7.0625 4.800781 -6.78125 4.5 -6.21875 C 4.207031 -5.664062 4.0625 -4.832031 4.0625 -3.71875 L 4.0625 0 L 2.546875 0 Z M 2.546875 -4.5 "/>
</g>
<g id="glyph-9-5-46e82409">
<path d="M 3.5625 0.15625 C 3.019531 0.15625 2.550781 0.0585938 2.15625 -0.125 C 1.757812 -0.320312 1.457031 -0.597656 1.25 -0.953125 C 1.039062 -1.316406 0.9375 -1.742188 0.9375 -2.234375 C 0.9375 -3.285156 1.347656 -4.003906 2.171875 -4.390625 C 3.003906 -4.785156 4.03125 -4.984375 5.25 -4.984375 L 6.140625 -4.984375 L 6.140625 -5.359375 C 6.140625 -5.804688 6.023438 -6.210938 5.796875 -6.578125 C 5.566406 -6.941406 5.109375 -7.125 4.421875 -7.125 C 4.117188 -7.125 3.832031 -7.082031 3.5625 -7 C 3.300781 -6.914062 3.070312 -6.816406 2.875 -6.703125 C 2.6875 -6.597656 2.441406 -6.441406 2.140625 -6.234375 L 1.40625 -7.25 C 1.863281 -7.59375 2.332031 -7.863281 2.8125 -8.0625 C 3.300781 -8.257812 3.890625 -8.359375 4.578125 -8.359375 C 5.773438 -8.359375 6.582031 -8.0625 7 -7.46875 C 7.414062 -6.875 7.625 -6.175781 7.625 -5.375 L 7.625 -2.34375 C 7.625 -1.675781 7.671875 -0.894531 7.765625 0 L 6.28125 0 C 6.257812 -0.21875 6.238281 -0.5 6.21875 -0.84375 L 6.203125 -1.09375 C 5.941406 -0.65625 5.578125 -0.335938 5.109375 -0.140625 C 4.648438 0.0546875 4.132812 0.15625 3.5625 0.15625 Z M 3.953125 -1 C 4.703125 -1 5.253906 -1.25 5.609375 -1.75 C 5.960938 -2.257812 6.140625 -2.953125 6.140625 -3.828125 L 5.5625 -3.84375 C 4.820312 -3.84375 4.222656 -3.789062 3.765625 -3.6875 C 3.304688 -3.582031 2.96875 -3.414062 2.75 -3.1875 C 2.539062 -2.96875 2.4375 -2.671875 2.4375 -2.296875 C 2.4375 -1.847656 2.570312 -1.519531 2.84375 -1.3125 C 3.113281 -1.101562 3.484375 -1 3.953125 -1 Z M 3.953125 -1 "/>
</g>
<g id="glyph-9-6-46e82409">
<path d="M 5.703125 0.109375 C 4.910156 0.109375 4.332031 -0.0546875 3.96875 -0.390625 C 3.601562 -0.734375 3.421875 -1.226562 3.421875 -1.875 L 3.421875 -7 L 1.125 -7 L 1.125 -8.25 L 3.421875 -8.25 L 3.421875 -10.984375 L 4.921875 -10.984375 L 4.921875 -8.25 L 7.21875 -8.25 L 7.21875 -7 L 4.921875 -7 L 4.921875 -2.46875 C 4.921875 -2.125 4.960938 -1.859375 5.046875 -1.671875 C 5.128906 -1.492188 5.257812 -1.367188 5.4375 -1.296875 C 5.625 -1.222656 5.890625 -1.1875 6.234375 -1.1875 C 6.398438 -1.1875 6.632812 -1.207031 6.9375 -1.25 C 7.238281 -1.300781 7.5 -1.351562 7.71875 -1.40625 L 7.71875 -0.125 C 7.488281 -0.0703125 7.164062 -0.0195312 6.75 0.03125 C 6.34375 0.0820312 5.992188 0.109375 5.703125 0.109375 Z M 5.703125 0.109375 "/>
</g>
<g id="glyph-9-7-46e82409">
</g>
<g id="glyph-9-8-46e82409">
<path d="M 1.15625 -10.875 L 3.328125 -10.875 C 4.453125 -10.875 5.367188 -10.703125 6.078125 -10.359375 C 6.785156 -10.015625 7.316406 -9.445312 7.671875 -8.65625 C 8.023438 -7.875 8.203125 -6.820312 8.203125 -5.5 C 8.203125 -4.1875 8.035156 -3.128906 7.703125 -2.328125 C 7.378906 -1.523438 6.851562 -0.9375 6.125 -0.5625 C 5.394531 -0.1875 4.421875 0 3.203125 0 L 1.15625 0 Z M 3.359375 -1.328125 C 4.109375 -1.328125 4.710938 -1.46875 5.171875 -1.75 C 5.628906 -2.03125 5.960938 -2.472656 6.171875 -3.078125 C 6.390625 -3.679688 6.5 -4.488281 6.5 -5.5 C 6.5 -6.425781 6.394531 -7.179688 6.1875 -7.765625 C 5.988281 -8.359375 5.664062 -8.800781 5.21875 -9.09375 C 4.78125 -9.382812 4.207031 -9.53125 3.5 -9.53125 L 2.75 -9.53125 L 2.75 -1.328125 Z M 3.359375 -1.328125 "/>
</g>
<g id="glyph-9-9-46e82409">
<path d="M 0.671875 -10.875 L 2.234375 -10.875 L 4.515625 -1.984375 L 6.75 -10.875 L 8.3125 -10.875 L 5.296875 0 L 3.65625 0 Z M 0.671875 -10.875 "/>
</g>
<g id="glyph-9-10-46e82409">
<path d="M 4.515625 0.15625 C 3.472656 0.15625 2.6875 -0.0664062 2.15625 -0.515625 C 1.625 -0.960938 1.269531 -1.578125 1.09375 -2.359375 C 0.925781 -3.148438 0.84375 -4.191406 0.84375 -5.484375 C 0.84375 -6.742188 0.929688 -7.765625 1.109375 -8.546875 C 1.285156 -9.328125 1.640625 -9.9375 2.171875 -10.375 C 2.703125 -10.8125 3.484375 -11.03125 4.515625 -11.03125 C 5.535156 -11.03125 6.3125 -10.8125 6.84375 -10.375 C 7.375 -9.945312 7.726562 -9.34375 7.90625 -8.5625 C 8.082031 -7.78125 8.171875 -6.753906 8.171875 -5.484375 C 8.171875 -4.191406 8.082031 -3.148438 7.90625 -2.359375 C 7.738281 -1.578125 7.390625 -0.960938 6.859375 -0.515625 C 6.335938 -0.0664062 5.554688 0.15625 4.515625 0.15625 Z M 3.546875 -5.484375 L 4.515625 -6.59375 L 5.484375 -5.484375 L 4.515625 -4.484375 Z M 4.515625 -1.109375 C 5.140625 -1.109375 5.609375 -1.273438 5.921875 -1.609375 C 6.242188 -1.941406 6.457031 -2.410156 6.5625 -3.015625 C 6.664062 -3.628906 6.71875 -4.453125 6.71875 -5.484375 C 6.71875 -6.472656 6.664062 -7.265625 6.5625 -7.859375 C 6.46875 -8.453125 6.257812 -8.914062 5.9375 -9.25 C 5.625 -9.59375 5.148438 -9.765625 4.515625 -9.765625 C 3.878906 -9.765625 3.398438 -9.59375 3.078125 -9.25 C 2.765625 -8.914062 2.554688 -8.453125 2.453125 -7.859375 C 2.359375 -7.265625 2.3125 -6.472656 2.3125 -5.484375 C 2.3125 -4.453125 2.363281 -3.628906 2.46875 -3.015625 C 2.570312 -2.410156 2.78125 -1.941406 3.09375 -1.609375 C 3.414062 -1.273438 3.890625 -1.109375 4.515625 -1.109375 Z M 4.515625 -1.109375 "/>
</g>
<g id="glyph-9-11-46e82409">
<path d="M 1.375 -1.28125 L 4 -1.28125 L 4 -8.71875 C 3.5625 -8.289062 3.085938 -7.898438 2.578125 -7.546875 C 2.066406 -7.203125 1.59375 -6.96875 1.15625 -6.84375 L 1.15625 -8.28125 C 1.675781 -8.5 2.210938 -8.859375 2.765625 -9.359375 C 3.316406 -9.867188 3.785156 -10.375 4.171875 -10.875 L 5.4375 -10.875 L 5.4375 -1.28125 L 7.859375 -1.28125 L 7.859375 0 L 1.375 0 Z M 1.375 -1.28125 "/>
</g>
<g id="glyph-9-12-46e82409">
<path d="M 4.5 0 C 4.050781 0 3.703125 -0.125 3.453125 -0.375 C 3.203125 -0.625 3.078125 -0.976562 3.078125 -1.4375 C 3.078125 -1.894531 3.195312 -2.242188 3.4375 -2.484375 C 3.6875 -2.734375 4.039062 -2.859375 4.5 -2.859375 C 4.96875 -2.859375 5.320312 -2.734375 5.5625 -2.484375 C 5.8125 -2.242188 5.9375 -1.894531 5.9375 -1.4375 C 5.9375 -0.976562 5.8125 -0.625 5.5625 -0.375 C 5.3125 -0.125 4.957031 0 4.5 0 Z M 4.5 -5.390625 C 4.050781 -5.390625 3.703125 -5.515625 3.453125 -5.765625 C 3.203125 -6.015625 3.078125 -6.367188 3.078125 -6.828125 C 3.078125 -7.285156 3.195312 -7.632812 3.4375 -7.875 C 3.6875 -8.125 4.039062 -8.25 4.5 -8.25 C 4.96875 -8.25 5.320312 -8.125 5.5625 -7.875 C 5.8125 -7.632812 5.9375 -7.285156 5.9375 -6.828125 C 5.9375 -6.367188 5.8125 -6.015625 5.5625 -5.765625 C 5.3125 -5.515625 4.957031 -5.390625 4.5 -5.390625 Z M 4.5 -5.390625 "/>
</g>
<g id="glyph-9-13-46e82409">
<path d="M 4.90625 0.15625 C 4.414062 0.15625 4 0.0703125 3.65625 -0.09375 C 3.3125 -0.269531 2.992188 -0.566406 2.703125 -0.984375 L 2.65625 0 L 1.1875 0 C 1.226562 -0.675781 1.25 -1.28125 1.25 -1.8125 L 1.25 -11.84375 L 2.765625 -11.84375 L 2.765625 -6.90625 C 3.035156 -7.363281 3.363281 -7.710938 3.75 -7.953125 C 4.132812 -8.191406 4.554688 -8.3125 5.015625 -8.3125 C 5.679688 -8.3125 6.234375 -8.117188 6.671875 -7.734375 C 7.117188 -7.347656 7.441406 -6.828125 7.640625 -6.171875 C 7.847656 -5.515625 7.953125 -4.769531 7.953125 -3.9375 C 7.953125 -3.21875 7.835938 -2.546875 7.609375 -1.921875 C 7.390625 -1.304688 7.046875 -0.804688 6.578125 -0.421875 C 6.117188 -0.0351562 5.5625 0.15625 4.90625 0.15625 Z M 4.53125 -0.984375 C 4.988281 -0.984375 5.359375 -1.125 5.640625 -1.40625 C 5.921875 -1.6875 6.125 -2.046875 6.25 -2.484375 C 6.375 -2.921875 6.4375 -3.378906 6.4375 -3.859375 C 6.4375 -4.796875 6.296875 -5.554688 6.015625 -6.140625 C 5.742188 -6.734375 5.289062 -7.03125 4.65625 -7.03125 C 4.207031 -7.03125 3.832031 -6.882812 3.53125 -6.59375 C 3.238281 -6.3125 3.023438 -5.925781 2.890625 -5.4375 C 2.753906 -4.957031 2.6875 -4.421875 2.6875 -3.828125 C 2.6875 -3.367188 2.75 -2.921875 2.875 -2.484375 C 3 -2.054688 3.195312 -1.695312 3.46875 -1.40625 C 3.75 -1.125 4.101562 -0.984375 4.53125 -0.984375 Z M 4.53125 -0.984375 "/>
</g>
<g id="glyph-9-14-46e82409">
<path d="M 4.5 0.125 C 3.769531 0.125 3.140625 -0.046875 2.609375 -0.390625 C 2.085938 -0.742188 1.6875 -1.238281 1.40625 -1.875 C 1.132812 -2.507812 1 -3.257812 1 -4.125 C 1 -5 1.140625 -5.753906 1.421875 -6.390625 C 1.710938 -7.035156 2.117188 -7.53125 2.640625 -7.875 C 3.171875 -8.226562 3.789062 -8.40625 4.5 -8.40625 C 5.21875 -8.40625 5.835938 -8.226562 6.359375 -7.875 C 6.890625 -7.53125 7.296875 -7.035156 7.578125 -6.390625 C 7.859375 -5.753906 8 -5 8 -4.125 C 8 -3.257812 7.859375 -2.507812 7.578125 -1.875 C 7.304688 -1.238281 6.90625 -0.742188 6.375 -0.390625 C 5.851562 -0.046875 5.226562 0.125 4.5 0.125 Z M 4.46875 -1.1875 C 4.875 -1.1875 5.226562 -1.300781 5.53125 -1.53125 C 5.832031 -1.769531 6.0625 -2.109375 6.21875 -2.546875 C 6.375 -2.992188 6.453125 -3.519531 6.453125 -4.125 C 6.453125 -4.726562 6.367188 -5.253906 6.203125 -5.703125 C 6.046875 -6.148438 5.816406 -6.492188 5.515625 -6.734375 C 5.222656 -6.972656 4.875 -7.09375 4.46875 -7.09375 C 4.070312 -7.09375 3.726562 -6.972656 3.4375 -6.734375 C 3.15625 -6.492188 2.9375 -6.148438 2.78125 -5.703125 C 2.625 -5.253906 2.546875 -4.726562 2.546875 -4.125 C 2.546875 -3.507812 2.617188 -2.984375 2.765625 -2.546875 C 2.921875 -2.109375 3.144531 -1.769531 3.4375 -1.53125 C 3.726562 -1.300781 4.070312 -1.1875 4.46875 -1.1875 Z M 4.46875 -1.1875 "/>
</g>
<g id="glyph-9-15-46e82409">
<path d="M 1.234375 -6.203125 C 1.234375 -6.535156 1.222656 -6.832031 1.203125 -7.09375 C 1.179688 -7.363281 1.148438 -7.75 1.109375 -8.25 L 2.546875 -8.25 L 2.6875 -6.890625 C 2.96875 -7.378906 3.320312 -7.75 3.75 -8 C 4.1875 -8.257812 4.679688 -8.390625 5.234375 -8.390625 C 6.085938 -8.390625 6.738281 -8.09375 7.1875 -7.5 C 7.632812 -6.90625 7.859375 -6.078125 7.859375 -5.015625 L 7.859375 0 L 6.328125 0 L 6.328125 -4.421875 C 6.328125 -5.222656 6.207031 -5.867188 5.96875 -6.359375 C 5.738281 -6.859375 5.304688 -7.109375 4.671875 -7.109375 C 4.203125 -7.109375 3.820312 -6.953125 3.53125 -6.640625 C 3.25 -6.335938 3.046875 -5.941406 2.921875 -5.453125 C 2.796875 -4.972656 2.734375 -4.457031 2.734375 -3.90625 L 2.734375 0 L 1.234375 0 Z M 1.234375 -6.203125 "/>
</g>
<g id="glyph-9-16-46e82409">
<path d="M 4.125 0.109375 C 3.4375 0.109375 2.859375 -0.09375 2.390625 -0.5 C 1.921875 -0.914062 1.570312 -1.453125 1.34375 -2.109375 C 1.113281 -2.773438 1 -3.484375 1 -4.234375 C 1 -4.941406 1.125 -5.609375 1.375 -6.234375 C 1.625 -6.867188 1.988281 -7.378906 2.46875 -7.765625 C 2.945312 -8.160156 3.507812 -8.359375 4.15625 -8.359375 C 5.257812 -8.359375 6.007812 -7.972656 6.40625 -7.203125 L 6.40625 -11.84375 L 7.890625 -11.84375 L 7.890625 -1.796875 C 7.890625 -1.597656 7.890625 -1.40625 7.890625 -1.21875 C 7.898438 -1.03125 7.910156 -0.84375 7.921875 -0.65625 L 7.9375 0 L 6.546875 0 L 6.40625 -1.046875 C 6.125 -0.628906 5.804688 -0.332031 5.453125 -0.15625 C 5.109375 0.0195312 4.664062 0.109375 4.125 0.109375 Z M 4.53125 -1.03125 C 4.988281 -1.03125 5.351562 -1.191406 5.625 -1.515625 C 5.90625 -1.835938 6.109375 -2.238281 6.234375 -2.71875 C 6.359375 -3.195312 6.421875 -3.679688 6.421875 -4.171875 C 6.421875 -4.660156 6.347656 -5.140625 6.203125 -5.609375 C 6.066406 -6.078125 5.847656 -6.457031 5.546875 -6.75 C 5.242188 -7.050781 4.863281 -7.203125 4.40625 -7.203125 C 3.976562 -7.203125 3.617188 -7.046875 3.328125 -6.734375 C 3.046875 -6.429688 2.832031 -6.046875 2.6875 -5.578125 C 2.550781 -5.117188 2.484375 -4.660156 2.484375 -4.203125 C 2.484375 -3.703125 2.5625 -3.207031 2.71875 -2.71875 C 2.875 -2.226562 3.109375 -1.820312 3.421875 -1.5 C 3.734375 -1.1875 4.101562 -1.03125 4.53125 -1.03125 Z M 4.53125 -1.03125 "/>
</g>
<g id="glyph-9-17-46e82409">
<path d="M 4.03125 3.15625 C 3.113281 3.15625 2.351562 2.957031 1.75 2.5625 C 1.4375 2.363281 1.191406 2.132812 1.015625 1.875 C 0.847656 1.613281 0.765625 1.316406 0.765625 0.984375 C 0.765625 0.617188 0.851562 0.28125 1.03125 -0.03125 C 1.21875 -0.351562 1.445312 -0.640625 1.71875 -0.890625 C 1.507812 -1.054688 1.351562 -1.238281 1.25 -1.4375 C 1.144531 -1.644531 1.09375 -1.878906 1.09375 -2.140625 C 1.09375 -2.441406 1.160156 -2.71875 1.296875 -2.96875 C 1.429688 -3.21875 1.632812 -3.472656 1.90625 -3.734375 L 1.90625 -3.75 C 1.8125 -3.800781 1.703125 -3.898438 1.578125 -4.046875 C 1.460938 -4.203125 1.359375 -4.410156 1.265625 -4.671875 C 1.171875 -4.941406 1.125 -5.265625 1.125 -5.640625 C 1.125 -6.203125 1.265625 -6.691406 1.546875 -7.109375 C 1.828125 -7.523438 2.203125 -7.84375 2.671875 -8.0625 C 3.148438 -8.28125 3.679688 -8.390625 4.265625 -8.390625 C 4.628906 -8.390625 4.921875 -8.347656 5.140625 -8.265625 L 8.234375 -8.265625 L 8.234375 -6.984375 L 6.703125 -6.984375 C 6.835938 -6.816406 6.9375 -6.613281 7 -6.375 C 7.0625 -6.144531 7.09375 -5.90625 7.09375 -5.65625 C 7.09375 -5.144531 6.96875 -4.664062 6.71875 -4.21875 C 6.46875 -3.78125 6.125 -3.429688 5.6875 -3.171875 C 5.257812 -2.910156 4.78125 -2.78125 4.25 -2.78125 C 3.738281 -2.78125 3.269531 -2.875 2.84375 -3.0625 C 2.664062 -2.96875 2.539062 -2.863281 2.46875 -2.75 C 2.40625 -2.632812 2.375 -2.484375 2.375 -2.296875 C 2.375 -2.066406 2.492188 -1.898438 2.734375 -1.796875 C 2.972656 -1.691406 3.28125 -1.640625 3.65625 -1.640625 C 3.945312 -1.640625 4.234375 -1.644531 4.515625 -1.65625 L 5.140625 -1.65625 C 5.898438 -1.65625 6.5 -1.507812 6.9375 -1.21875 C 7.195312 -1.03125 7.398438 -0.796875 7.546875 -0.515625 C 7.703125 -0.234375 7.78125 0.078125 7.78125 0.421875 C 7.78125 0.796875 7.6875 1.15625 7.5 1.5 C 7.3125 1.84375 7.046875 2.144531 6.703125 2.40625 C 6.378906 2.632812 5.972656 2.816406 5.484375 2.953125 C 5.003906 3.085938 4.519531 3.15625 4.03125 3.15625 Z M 4.09375 1.875 C 4.84375 1.875 5.410156 1.738281 5.796875 1.46875 C 6.128906 1.238281 6.296875 0.9375 6.296875 0.5625 C 6.296875 0.238281 6.171875 0.0078125 5.921875 -0.125 C 5.671875 -0.257812 5.375 -0.328125 5.03125 -0.328125 L 4.484375 -0.3125 C 4.160156 -0.289062 3.921875 -0.28125 3.765625 -0.28125 C 3.660156 -0.28125 3.523438 -0.289062 3.359375 -0.3125 C 3.191406 -0.34375 3.035156 -0.378906 2.890625 -0.421875 C 2.703125 -0.273438 2.550781 -0.101562 2.4375 0.09375 C 2.332031 0.300781 2.28125 0.515625 2.28125 0.734375 C 2.28125 1.160156 2.457031 1.457031 2.8125 1.625 C 3.164062 1.789062 3.59375 1.875 4.09375 1.875 Z M 4.109375 -4 C 4.585938 -4 4.957031 -4.140625 5.21875 -4.421875 C 5.488281 -4.703125 5.625 -5.097656 5.625 -5.609375 C 5.625 -6.117188 5.488281 -6.523438 5.21875 -6.828125 C 4.957031 -7.128906 4.59375 -7.28125 4.125 -7.28125 C 3.820312 -7.28125 3.550781 -7.210938 3.3125 -7.078125 C 3.082031 -6.941406 2.898438 -6.75 2.765625 -6.5 C 2.640625 -6.25 2.578125 -5.953125 2.578125 -5.609375 C 2.578125 -5.097656 2.710938 -4.703125 2.984375 -4.421875 C 3.265625 -4.140625 3.640625 -4 4.109375 -4 Z M 4.109375 -4 "/>
</g>
<g id="glyph-9-18-46e82409">
<path d="M 1.515625 -8.25 L 5.375 -8.25 L 5.375 -1.21875 L 7.65625 -1.21875 L 7.65625 0 L 1.390625 0 L 1.390625 -1.21875 L 3.859375 -1.21875 L 3.859375 -7.09375 L 1.515625 -7.09375 Z M 4.453125 -9.75 C 4.054688 -9.75 3.773438 -9.832031 3.609375 -10 C 3.453125 -10.164062 3.375 -10.441406 3.375 -10.828125 C 3.375 -11.222656 3.453125 -11.5 3.609375 -11.65625 C 3.773438 -11.820312 4.054688 -11.90625 4.453125 -11.90625 C 4.835938 -11.90625 5.109375 -11.820312 5.265625 -11.65625 C 5.429688 -11.5 5.515625 -11.222656 5.515625 -10.828125 C 5.515625 -10.441406 5.429688 -10.164062 5.265625 -10 C 5.109375 -9.832031 4.835938 -9.75 4.453125 -9.75 Z M 4.453125 -9.75 "/>
</g>
<g id="glyph-9-19-46e82409">
<path d="M 4.53125 0.078125 C 3.800781 0.078125 3.175781 -0.0390625 2.65625 -0.28125 C 2.144531 -0.53125 1.679688 -0.90625 1.265625 -1.40625 L 2.140625 -2.34375 C 2.421875 -2.082031 2.671875 -1.875 2.890625 -1.71875 C 3.109375 -1.570312 3.359375 -1.453125 3.640625 -1.359375 C 3.921875 -1.265625 4.242188 -1.21875 4.609375 -1.21875 C 5.054688 -1.21875 5.457031 -1.304688 5.8125 -1.484375 C 6.164062 -1.660156 6.34375 -1.945312 6.34375 -2.34375 C 6.34375 -2.5625 6.28125 -2.734375 6.15625 -2.859375 C 6.03125 -2.984375 5.867188 -3.078125 5.671875 -3.140625 C 5.472656 -3.210938 5.179688 -3.296875 4.796875 -3.390625 C 4.585938 -3.441406 4.378906 -3.5 4.171875 -3.5625 C 3.597656 -3.707031 3.125 -3.867188 2.75 -4.046875 C 2.375 -4.222656 2.066406 -4.460938 1.828125 -4.765625 C 1.597656 -5.078125 1.484375 -5.476562 1.484375 -5.96875 C 1.484375 -6.476562 1.613281 -6.914062 1.875 -7.28125 C 2.144531 -7.65625 2.507812 -7.9375 2.96875 -8.125 C 3.425781 -8.3125 3.941406 -8.40625 4.515625 -8.40625 C 5.722656 -8.40625 6.671875 -8.054688 7.359375 -7.359375 L 6.46875 -6.375 C 5.914062 -6.820312 5.285156 -7.046875 4.578125 -7.046875 C 4.085938 -7.046875 3.6875 -6.953125 3.375 -6.765625 C 3.070312 -6.578125 2.921875 -6.328125 2.921875 -6.015625 C 2.921875 -5.753906 3.023438 -5.535156 3.234375 -5.359375 C 3.453125 -5.179688 3.707031 -5.039062 4 -4.9375 C 4.300781 -4.84375 4.6875 -4.738281 5.15625 -4.625 L 5.4375 -4.546875 C 5.820312 -4.441406 6.171875 -4.316406 6.484375 -4.171875 C 6.796875 -4.035156 7.078125 -3.816406 7.328125 -3.515625 C 7.578125 -3.210938 7.703125 -2.8125 7.703125 -2.3125 C 7.703125 -1.75 7.554688 -1.285156 7.265625 -0.921875 C 6.984375 -0.566406 6.601562 -0.3125 6.125 -0.15625 C 5.65625 0 5.125 0.078125 4.53125 0.078125 Z M 4.53125 0.078125 "/>
</g>
<g id="glyph-9-20-46e82409">
<path d="M 1.703125 -2.09375 C 2.578125 -2.875 3.316406 -3.566406 3.921875 -4.171875 C 4.523438 -4.773438 5.050781 -5.414062 5.5 -6.09375 C 5.945312 -6.769531 6.171875 -7.398438 6.171875 -7.984375 C 6.171875 -8.328125 6.097656 -8.628906 5.953125 -8.890625 C 5.816406 -9.148438 5.625 -9.347656 5.375 -9.484375 C 5.125 -9.628906 4.84375 -9.703125 4.53125 -9.703125 C 4.1875 -9.703125 3.875 -9.617188 3.59375 -9.453125 C 3.320312 -9.296875 3.109375 -9.070312 2.953125 -8.78125 C 2.796875 -8.488281 2.71875 -8.15625 2.71875 -7.78125 L 1.203125 -7.78125 C 1.210938 -8.476562 1.363281 -9.070312 1.65625 -9.5625 C 1.957031 -10.050781 2.359375 -10.414062 2.859375 -10.65625 C 3.367188 -10.90625 3.945312 -11.03125 4.59375 -11.03125 C 5.15625 -11.03125 5.675781 -10.921875 6.15625 -10.703125 C 6.644531 -10.492188 7.035156 -10.164062 7.328125 -9.71875 C 7.617188 -9.28125 7.765625 -8.734375 7.765625 -8.078125 C 7.765625 -7.410156 7.539062 -6.703125 7.09375 -5.953125 C 6.65625 -5.210938 6.140625 -4.523438 5.546875 -3.890625 C 4.960938 -3.265625 4.242188 -2.546875 3.390625 -1.734375 L 2.84375 -1.21875 L 7.875 -1.21875 L 7.875 0.0625 L 1.09375 0.0625 L 1.09375 -1.546875 Z M 1.703125 -2.09375 "/>
</g>
<g id="glyph-9-21-46e82409">
<path d="M 4.484375 0.140625 C 3.867188 0.140625 3.304688 0.0351562 2.796875 -0.171875 C 2.285156 -0.378906 1.878906 -0.695312 1.578125 -1.125 C 1.273438 -1.5625 1.125 -2.101562 1.125 -2.75 L 2.625 -2.75 C 2.644531 -2.21875 2.820312 -1.816406 3.15625 -1.546875 C 3.488281 -1.285156 3.898438 -1.15625 4.390625 -1.15625 C 4.796875 -1.15625 5.144531 -1.257812 5.4375 -1.46875 C 5.738281 -1.6875 5.96875 -1.984375 6.125 -2.359375 C 6.28125 -2.742188 6.359375 -3.175781 6.359375 -3.65625 C 6.359375 -4.09375 6.285156 -4.488281 6.140625 -4.84375 C 6.003906 -5.195312 5.796875 -5.472656 5.515625 -5.671875 C 5.234375 -5.867188 4.90625 -5.96875 4.53125 -5.96875 C 4.101562 -5.96875 3.726562 -5.835938 3.40625 -5.578125 C 3.082031 -5.328125 2.863281 -4.976562 2.75 -4.53125 L 1.234375 -4.53125 L 2.015625 -10.875 L 7.578125 -10.875 L 7.578125 -9.5625 L 3.359375 -9.5625 L 2.875 -6.21875 C 3.15625 -6.570312 3.457031 -6.84375 3.78125 -7.03125 C 4.101562 -7.21875 4.46875 -7.3125 4.875 -7.3125 C 5.5 -7.3125 6.039062 -7.148438 6.5 -6.828125 C 6.96875 -6.503906 7.320312 -6.0625 7.5625 -5.5 C 7.800781 -4.945312 7.921875 -4.320312 7.921875 -3.625 C 7.921875 -2.882812 7.773438 -2.226562 7.484375 -1.65625 C 7.191406 -1.09375 6.785156 -0.648438 6.265625 -0.328125 C 5.742188 -0.015625 5.148438 0.140625 4.484375 0.140625 Z M 4.484375 0.140625 "/>
</g>
<g id="glyph-9-22-46e82409">
<path d="M 3.78125 0.109375 C 2.914062 0.109375 2.269531 -0.144531 1.84375 -0.65625 C 1.414062 -1.175781 1.203125 -1.921875 1.203125 -2.890625 L 1.203125 -8.25 L 2.71875 -8.25 L 2.71875 -3.265625 C 2.71875 -2.796875 2.753906 -2.40625 2.828125 -2.09375 C 2.898438 -1.789062 3.046875 -1.546875 3.265625 -1.359375 C 3.484375 -1.171875 3.8125 -1.078125 4.25 -1.078125 C 4.695312 -1.078125 5.066406 -1.191406 5.359375 -1.421875 C 5.660156 -1.660156 5.875 -1.972656 6 -2.359375 C 6.132812 -2.742188 6.203125 -3.160156 6.203125 -3.609375 L 6.203125 -8.25 L 7.734375 -8.25 L 7.734375 -1.78125 C 7.734375 -1.46875 7.742188 -1.078125 7.765625 -0.609375 L 7.796875 0 L 6.328125 0 L 6.265625 -1 C 5.984375 -0.59375 5.640625 -0.304688 5.234375 -0.140625 C 4.828125 0.0234375 4.34375 0.109375 3.78125 0.109375 Z M 3.78125 0.109375 "/>
</g>
</g>
<clipPath id="clip-0-46e82409">
<path clip-rule="nonzero" d="M 80 219 L 516 219 L 516 222 L 80 222 Z M 80 219 "/>
</clipPath>
</defs>
<rect x="-72" y="-40" width="864" height="480" fill="rgb(94.117647%, 92.941177%, 89.019608%)" fill-opacity="1"/>
<path fill-rule="nonzero" fill="rgb(94.117647%, 92.941177%, 89.019608%)" fill-opacity="1" d="M 80 342 L 516 342 L 516 44 L 80 44 Z M 80 342 "/>
<path fill="none" stroke-width="1" stroke-linecap="butt" stroke-linejoin="miter" stroke="rgb(71.372551%, 67.843139%, 56.470591%)" stroke-opacity="0.3" stroke-miterlimit="1.154701" d="M 127.742188 342 L 127.742188 44 "/>
<path fill="none" stroke-width="1" stroke-linecap="butt" stroke-linejoin="miter" stroke="rgb(71.372551%, 67.843139%, 56.470591%)" stroke-opacity="0.3" stroke-miterlimit="1.154701" d="M 195.84375 342 L 195.84375 44 "/>
<path fill="none" stroke-width="1" stroke-linecap="butt" stroke-linejoin="miter" stroke="rgb(71.372551%, 67.843139%, 56.470591%)" stroke-opacity="0.3" stroke-miterlimit="1.154701" d="M 263.949219 342 L 263.949219 44 "/>
<path fill="none" stroke-width="1" stroke-linecap="butt" stroke-linejoin="miter" stroke="rgb(71.372551%, 67.843139%, 56.470591%)" stroke-opacity="0.3" stroke-miterlimit="1.154701" d="M 332.050781 342 L 332.050781 44 "/>
<path fill="none" stroke-width="1" stroke-linecap="butt" stroke-linejoin="miter" stroke="rgb(71.372551%, 67.843139%, 56.470591%)" stroke-opacity="0.3" stroke-miterlimit="1.154701" d="M 400.15625 342 L 400.15625 44 "/>
<path fill="none" stroke-width="1" stroke-linecap="butt" stroke-linejoin="miter" stroke="rgb(71.372551%, 67.843139%, 56.470591%)" stroke-opacity="0.3" stroke-miterlimit="1.154701" d="M 468.257812 342 L 468.257812 44 "/>
<path fill="none" stroke-width="1" stroke-linecap="butt" stroke-linejoin="miter" stroke="rgb(71.372551%, 67.843139%, 56.470591%)" stroke-opacity="0.12" stroke-miterlimit="1.154701" d="M 93.6875 342 L 93.6875 44 "/>
<path fill="none" stroke-width="1" stroke-linecap="butt" stroke-linejoin="miter" stroke="rgb(71.372551%, 67.843139%, 56.470591%)" stroke-opacity="0.12" stroke-miterlimit="1.154701" d="M 161.792969 342 L 161.792969 44 "/>
<path fill="none" stroke-width="1" stroke-linecap="butt" stroke-linejoin="miter" stroke="rgb(71.372551%, 67.843139%, 56.470591%)" stroke-opacity="0.12" stroke-miterlimit="1.154701" d="M 229.894531 342 L 229.894531 44 "/>
<path fill="none" stroke-width="1" stroke-linecap="butt" stroke-linejoin="miter" stroke="rgb(71.372551%, 67.843139%, 56.470591%)" stroke-opacity="0.12" stroke-miterlimit="1.154701" d="M 298 342 L 298 44 "/>
<path fill="none" stroke-width="1" stroke-linecap="butt" stroke-linejoin="miter" stroke="rgb(71.372551%, 67.843139%, 56.470591%)" stroke-opacity="0.12" stroke-miterlimit="1.154701" d="M 366.105469 342 L 366.105469 44 "/>
<path fill="none" stroke-width="1" stroke-linecap="butt" stroke-linejoin="miter" stroke="rgb(71.372551%, 67.843139%, 56.470591%)" stroke-opacity="0.12" stroke-miterlimit="1.154701" d="M 434.207031 342 L 434.207031 44 "/>
<path fill="none" stroke-width="1" stroke-linecap="butt" stroke-linejoin="miter" stroke="rgb(71.372551%, 67.843139%, 56.470591%)" stroke-opacity="0.12" stroke-miterlimit="1.154701" d="M 502.3125 342 L 502.3125 44 "/>
<path fill="none" stroke-width="1" stroke-linecap="butt" stroke-linejoin="miter" stroke="rgb(71.372551%, 67.843139%, 56.470591%)" stroke-opacity="0.3" stroke-miterlimit="1.154701" d="M 80 336.417969 L 516 336.417969 "/>
<path fill="none" stroke-width="1" stroke-linecap="butt" stroke-linejoin="miter" stroke="rgb(71.372551%, 67.843139%, 56.470591%)" stroke-opacity="0.3" stroke-miterlimit="1.154701" d="M 80 220.46875 L 516 220.46875 "/>
<path fill="none" stroke-width="1" stroke-linecap="butt" stroke-linejoin="miter" stroke="rgb(71.372551%, 67.843139%, 56.470591%)" stroke-opacity="0.3" stroke-miterlimit="1.154701" d="M 80 104.515625 L 516 104.515625 "/>
<path fill="none" stroke-width="1" stroke-linecap="butt" stroke-linejoin="miter" stroke="rgb(71.372551%, 67.843139%, 56.470591%)" stroke-opacity="0.12" stroke-miterlimit="1.154701" d="M 80 278.445312 L 516 278.445312 "/>
<path fill="none" stroke-width="1" stroke-linecap="butt" stroke-linejoin="miter" stroke="rgb(71.372551%, 67.843139%, 56.470591%)" stroke-opacity="0.12" stroke-miterlimit="1.154701" d="M 80 162.492188 L 516 162.492188 "/>
<path fill="none" stroke-width="1" stroke-linecap="butt" stroke-linejoin="miter" stroke="rgb(71.372551%, 67.843139%, 56.470591%)" stroke-opacity="0.12" stroke-miterlimit="1.154701" d="M 80 46.542969 L 516 46.542969 "/>
<g fill="rgb(10.588235%, 16.470589%, 22.745098%)" fill-opacity="1">
<use xlink:href="#glyph-0-0-46e82409" x="240.400015" y="380.425"/>
</g>
<g fill="rgb(10.588235%, 16.470589%, 22.745098%)" fill-opacity="1">
<use xlink:href="#glyph-1-0-46e82409" x="247.600016" y="380.425"/>
</g>
<g fill="rgb(10.588235%, 16.470589%, 22.745098%)" fill-opacity="1">
<use xlink:href="#glyph-0-1-46e82409" x="254.800017" y="380.425"/>
<use xlink:href="#glyph-0-2-46e82409" x="262.000014" y="380.425"/>
<use xlink:href="#glyph-0-3-46e82409" x="269.200017" y="380.425"/>
<use xlink:href="#glyph-0-4-46e82409" x="276.400016" y="380.425"/>
<use xlink:href="#glyph-0-5-46e82409" x="283.600017" y="380.425"/>
<use xlink:href="#glyph-0-6-46e82409" x="290.800018" y="380.425"/>
<use xlink:href="#glyph-0-2-46e82409" x="298.000019" y="380.425"/>
<use xlink:href="#glyph-0-7-46e82409" x="305.20002" y="380.425"/>
<use xlink:href="#glyph-0-1-46e82409" x="312.400017" y="380.425"/>
<use xlink:href="#glyph-0-6-46e82409" x="319.600014" y="380.425"/>
<use xlink:href="#glyph-0-4-46e82409" x="326.800011" y="380.425"/>
<use xlink:href="#glyph-0-3-46e82409" x="334.000008" y="380.425"/>
<use xlink:href="#glyph-0-8-46e82409" x="341.200005" y="380.425"/>
<use xlink:href="#glyph-0-9-46e82409" x="348.400002" y="380.425"/>
</g>
<g fill="rgb(10.588235%, 16.470589%, 22.745098%)" fill-opacity="1">
<use xlink:href="#glyph-2-0-46e82409" x="124.44071" y="360.549999"/>
</g>
<g fill="rgb(10.588235%, 16.470589%, 22.745098%)" fill-opacity="1">
<use xlink:href="#glyph-3-0-46e82409" x="192.544426" y="360.549999"/>
</g>
<g fill="rgb(10.588235%, 16.470589%, 22.745098%)" fill-opacity="1">
<use xlink:href="#glyph-3-1-46e82409" x="260.648157" y="360.549999"/>
</g>
<g fill="rgb(10.588235%, 16.470589%, 22.745098%)" fill-opacity="1">
<use xlink:href="#glyph-3-2-46e82409" x="325.451857" y="360.549999"/>
<use xlink:href="#glyph-3-3-46e82409" x="332.051857" y="360.549999"/>
</g>
<g fill="rgb(10.588235%, 16.470589%, 22.745098%)" fill-opacity="1">
<use xlink:href="#glyph-3-0-46e82409" x="393.555588" y="360.549999"/>
<use xlink:href="#glyph-3-3-46e82409" x="400.155588" y="360.549999"/>
</g>
<g fill="rgb(10.588235%, 16.470589%, 22.745098%)" fill-opacity="1">
<use xlink:href="#glyph-3-4-46e82409" x="461.659319" y="360.549999"/>
<use xlink:href="#glyph-3-3-46e82409" x="468.259319" y="360.549999"/>
</g>
<g fill="rgb(10.588235%, 16.470589%, 22.745098%)" fill-opacity="1">
<use xlink:href="#glyph-4-0-46e82409" x="28.200002" y="207.400004"/>
</g>
<g fill="rgb(10.588235%, 16.470589%, 22.745098%)" fill-opacity="1">
<use xlink:href="#glyph-5-0-46e82409" x="28.200002" y="200.200004"/>
</g>
<g fill="rgb(10.588235%, 16.470589%, 22.745098%)" fill-opacity="1">
<use xlink:href="#glyph-6-0-46e82409" x="28.200003" y="193.000004"/>
</g>
<g fill="rgb(10.588235%, 16.470589%, 22.745098%)" fill-opacity="1">
<use xlink:href="#glyph-7-0-46e82409" x="28.200003" y="185.800005"/>
</g>
<g fill="rgb(10.588235%, 16.470589%, 22.745098%)" fill-opacity="1">
<use xlink:href="#glyph-3-5-46e82409" x="36.900002" y="340.407057"/>
<use xlink:href="#glyph-3-3-46e82409" x="43.500003" y="340.407057"/>
<use xlink:href="#glyph-3-6-46e82409" x="50.100004" y="340.407057"/>
<use xlink:href="#glyph-3-3-46e82409" x="56.700004" y="340.407057"/>
<use xlink:href="#glyph-3-1-46e82409" x="63.300005" y="340.407057"/>
</g>
<g fill="rgb(10.588235%, 16.470589%, 22.745098%)" fill-opacity="1">
<use xlink:href="#glyph-3-3-46e82409" x="43.500001" y="224.455979"/>
<use xlink:href="#glyph-3-6-46e82409" x="50.100002" y="224.455979"/>
</g>
<g fill="rgb(10.588235%, 16.470589%, 22.745098%)" fill-opacity="1">
<use xlink:href="#glyph-8-0-46e82409" x="56.700002" y="224.455979"/>
</g>
<g fill="rgb(10.588235%, 16.470589%, 22.745098%)" fill-opacity="1">
<use xlink:href="#glyph-3-3-46e82409" x="63.300003" y="224.455979"/>
</g>
<g fill="rgb(10.588235%, 16.470589%, 22.745098%)" fill-opacity="1">
<use xlink:href="#glyph-3-3-46e82409" x="43.500001" y="108.504901"/>
<use xlink:href="#glyph-3-6-46e82409" x="50.100002" y="108.504901"/>
</g>
<g fill="rgb(10.588235%, 16.470589%, 22.745098%)" fill-opacity="1">
<use xlink:href="#glyph-8-0-46e82409" x="56.700002" y="108.504901"/>
</g>
<g fill="rgb(10.588235%, 16.470589%, 22.745098%)" fill-opacity="1">
<use xlink:href="#glyph-3-1-46e82409" x="63.300003" y="108.504901"/>
</g>
<g fill="rgb(10.588235%, 16.470589%, 22.745098%)" fill-opacity="1">
<use xlink:href="#glyph-9-0-46e82409" x="80.000002" y="32.625008"/>
<use xlink:href="#glyph-9-1-46e82409" x="89.000002" y="32.625008"/>
<use xlink:href="#glyph-9-2-46e82409" x="98.000002" y="32.625008"/>
<use xlink:href="#glyph-9-3-46e82409" x="107.000003" y="32.625008"/>
<use xlink:href="#glyph-9-4-46e82409" x="116.000003" y="32.625008"/>
<use xlink:href="#glyph-9-5-46e82409" x="125.000003" y="32.625008"/>
<use xlink:href="#glyph-9-6-46e82409" x="134.000003" y="32.625008"/>
<use xlink:href="#glyph-9-1-46e82409" x="143.000003" y="32.625008"/>
<use xlink:href="#glyph-9-7-46e82409" x="152.000004" y="32.625008"/>
<use xlink:href="#glyph-9-8-46e82409" x="161.000004" y="32.625008"/>
<use xlink:href="#glyph-9-9-46e82409" x="170.000004" y="32.625008"/>
<use xlink:href="#glyph-9-10-46e82409" x="179.000004" y="32.625008"/>
<use xlink:href="#glyph-9-11-46e82409" x="188.000005" y="32.625008"/>
<use xlink:href="#glyph-9-12-46e82409" x="197.000005" y="32.625008"/>
<use xlink:href="#glyph-9-7-46e82409" x="206.000005" y="32.625008"/>
<use xlink:href="#glyph-9-5-46e82409" x="215.000005" y="32.625008"/>
<use xlink:href="#glyph-9-7-46e82409" x="224.000005" y="32.625008"/>
<use xlink:href="#glyph-9-11-46e82409" x="233.000006" y="32.625008"/>
<use xlink:href="#glyph-9-10-46e82409" x="242.000006" y="32.625008"/>
<use xlink:href="#glyph-9-3-46e82409" x="251.000006" y="32.625008"/>
<use xlink:href="#glyph-9-2-46e82409" x="260.000006" y="32.625008"/>
<use xlink:href="#glyph-9-1-46e82409" x="269.000007" y="32.625008"/>
<use xlink:href="#glyph-9-5-46e82409" x="278.000007" y="32.625008"/>
<use xlink:href="#glyph-9-4-46e82409" x="287.000007" y="32.625008"/>
<use xlink:href="#glyph-9-7-46e82409" x="296.000007" y="32.625008"/>
<use xlink:href="#glyph-9-13-46e82409" x="305.000007" y="32.625008"/>
<use xlink:href="#glyph-9-14-46e82409" x="314.000008" y="32.625008"/>
<use xlink:href="#glyph-9-15-46e82409" x="323.000008" y="32.625008"/>
<use xlink:href="#glyph-9-16-46e82409" x="332.000008" y="32.625008"/>
<use xlink:href="#glyph-9-7-46e82409" x="341.000008" y="32.625008"/>
<use xlink:href="#glyph-9-5-46e82409" x="350.000008" y="32.625008"/>
<use xlink:href="#glyph-9-17-46e82409" x="359.000009" y="32.625008"/>
<use xlink:href="#glyph-9-5-46e82409" x="368.000009" y="32.625008"/>
<use xlink:href="#glyph-9-18-46e82409" x="377.000009" y="32.625008"/>
<use xlink:href="#glyph-9-15-46e82409" x="386.000009" y="32.625008"/>
<use xlink:href="#glyph-9-19-46e82409" x="395.00001" y="32.625008"/>
<use xlink:href="#glyph-9-6-46e82409" x="404.00001" y="32.625008"/>
<use xlink:href="#glyph-9-7-46e82409" x="413.00001" y="32.625008"/>
<use xlink:href="#glyph-9-5-46e82409" x="422.00001" y="32.625008"/>
<use xlink:href="#glyph-9-7-46e82409" x="431.00001" y="32.625008"/>
<use xlink:href="#glyph-9-20-46e82409" x="440.000011" y="32.625008"/>
<use xlink:href="#glyph-9-21-46e82409" x="449.000011" y="32.625008"/>
<use xlink:href="#glyph-9-3-46e82409" x="458.000011" y="32.625008"/>
<use xlink:href="#glyph-9-2-46e82409" x="467.000011" y="32.625008"/>
<use xlink:href="#glyph-9-1-46e82409" x="476.000012" y="32.625008"/>
<use xlink:href="#glyph-9-5-46e82409" x="485.000012" y="32.625008"/>
<use xlink:href="#glyph-9-4-46e82409" x="494.000012" y="32.625008"/>
<use xlink:href="#glyph-9-7-46e82409" x="503.000012" y="32.625008"/>
<use xlink:href="#glyph-9-5-46e82409" x="512.000012" y="32.625008"/>
<use xlink:href="#glyph-9-15-46e82409" x="521.000013" y="32.625008"/>
<use xlink:href="#glyph-9-15-46e82409" x="530.000013" y="32.625008"/>
<use xlink:href="#glyph-9-22-46e82409" x="539.000013" y="32.625008"/>
<use xlink:href="#glyph-9-18-46e82409" x="548.000013" y="32.625008"/>
<use xlink:href="#glyph-9-6-46e82409" x="557.000013" y="32.625008"/>
<use xlink:href="#glyph-9-2-46e82409" x="566.000014" y="32.625008"/>
</g>
<path fill-rule="nonzero" fill="rgb(12.156863%, 30.588236%, 47.450981%)" fill-opacity="1" stroke-width="0.8" stroke-linecap="butt" stroke-linejoin="miter" stroke="rgb(10.588235%, 16.470589%, 22.745098%)" stroke-opacity="1" stroke-miterlimit="2" d="M 99.816406 220.46875 L 117.316406 220.46875 L 117.316406 219.464844 L 99.816406 219.464844 Z M 99.816406 220.46875 "/>
<path fill-rule="nonzero" fill="rgb(12.156863%, 30.588236%, 47.450981%)" fill-opacity="1" stroke-width="0.8" stroke-linecap="butt" stroke-linejoin="miter" stroke="rgb(10.588235%, 16.470589%, 22.745098%)" stroke-opacity="1" stroke-miterlimit="2" d="M 167.921875 220.46875 L 185.421875 220.46875 L 185.421875 215.550781 L 167.921875 215.550781 Z M 167.921875 220.46875 "/>
<path fill-rule="nonzero" fill="rgb(12.156863%, 30.588236%, 47.450981%)" fill-opacity="1" stroke-width="0.8" stroke-linecap="butt" stroke-linejoin="miter" stroke="rgb(10.588235%, 16.470589%, 22.745098%)" stroke-opacity="1" stroke-miterlimit="2" d="M 236.027344 220.46875 L 253.527344 220.46875 L 253.527344 202.527344 L 236.027344 202.527344 Z M 236.027344 220.46875 "/>
<path fill-rule="nonzero" fill="rgb(12.156863%, 30.588236%, 47.450981%)" fill-opacity="1" stroke-width="0.8" stroke-linecap="butt" stroke-linejoin="miter" stroke="rgb(10.588235%, 16.470589%, 22.745098%)" stroke-opacity="1" stroke-miterlimit="2" d="M 304.128906 220.46875 L 321.628906 220.46875 L 321.628906 57.546875 L 304.128906 57.546875 Z M 304.128906 220.46875 "/>
<path fill="none" stroke-width="0.8" stroke-linecap="butt" stroke-linejoin="miter" stroke="rgb(10.588235%, 16.470589%, 22.745098%)" stroke-opacity="1" stroke-miterlimit="2" d="M 372.234375 220.46875 L 389.734375 220.46875 Z M 372.234375 220.46875 "/>
<path fill="none" stroke-width="0.8" stroke-linecap="butt" stroke-linejoin="miter" stroke="rgb(10.588235%, 16.470589%, 22.745098%)" stroke-opacity="1" stroke-miterlimit="2" d="M 440.335938 220.46875 L 457.835938 220.46875 Z M 440.335938 220.46875 "/>
<path fill-rule="nonzero" fill="rgb(78.431374%, 20.784314%, 10.980392%)" fill-opacity="1" stroke-width="0.8" stroke-linecap="butt" stroke-linejoin="miter" stroke="rgb(10.588235%, 16.470589%, 22.745098%)" stroke-opacity="1" stroke-miterlimit="2" d="M 118.992188 222.027344 L 136.492188 222.027344 L 136.492188 220.46875 L 118.992188 220.46875 Z M 118.992188 222.027344 "/>
<path fill-rule="nonzero" fill="rgb(78.431374%, 20.784314%, 10.980392%)" fill-opacity="1" stroke-width="0.8" stroke-linecap="butt" stroke-linejoin="miter" stroke="rgb(10.588235%, 16.470589%, 22.745098%)" stroke-opacity="1" stroke-miterlimit="2" d="M 187.09375 228.117188 L 204.59375 228.117188 L 204.59375 220.46875 L 187.09375 220.46875 Z M 187.09375 228.117188 "/>
<path fill-rule="nonzero" fill="rgb(78.431374%, 20.784314%, 10.980392%)" fill-opacity="1" stroke-width="0.8" stroke-linecap="butt" stroke-linejoin="miter" stroke="rgb(10.588235%, 16.470589%, 22.745098%)" stroke-opacity="1" stroke-miterlimit="2" d="M 255.199219 248.375 L 272.699219 248.375 L 272.699219 220.46875 L 255.199219 220.46875 Z M 255.199219 248.375 "/>
<path fill-rule="nonzero" fill="rgb(78.431374%, 20.784314%, 10.980392%)" fill-opacity="1" stroke-width="0.8" stroke-linecap="butt" stroke-linejoin="miter" stroke="rgb(10.588235%, 16.470589%, 22.745098%)" stroke-opacity="1" stroke-miterlimit="2" d="M 323.304688 299.757812 L 340.804688 299.757812 L 340.804688 220.46875 L 323.304688 220.46875 Z M 323.304688 299.757812 "/>
<path fill-rule="nonzero" fill="rgb(78.431374%, 20.784314%, 10.980392%)" fill-opacity="1" stroke-width="0.8" stroke-linecap="butt" stroke-linejoin="miter" stroke="rgb(10.588235%, 16.470589%, 22.745098%)" stroke-opacity="1" stroke-miterlimit="2" d="M 391.40625 328.453125 L 408.90625 328.453125 L 408.90625 220.46875 L 391.40625 220.46875 Z M 391.40625 328.453125 "/>
<path fill-rule="nonzero" fill="rgb(78.431374%, 20.784314%, 10.980392%)" fill-opacity="1" stroke-width="0.8" stroke-linecap="butt" stroke-linejoin="miter" stroke="rgb(10.588235%, 16.470589%, 22.745098%)" stroke-opacity="1" stroke-miterlimit="2" d="M 459.511719 238.363281 L 477.011719 238.363281 L 477.011719 220.46875 L 459.511719 220.46875 Z M 459.511719 238.363281 "/>
<path fill-rule="nonzero" fill="rgb(83.137256%, 62.7451%, 9.019608%)" fill-opacity="1" stroke-width="0.8" stroke-linecap="butt" stroke-linejoin="miter" stroke="rgb(10.588235%, 16.470589%, 22.745098%)" stroke-opacity="1" stroke-miterlimit="2" d="M 138.164062 221.027344 L 155.664062 221.027344 L 155.664062 220.46875 L 138.164062 220.46875 Z M 138.164062 221.027344 "/>
<path fill-rule="nonzero" fill="rgb(83.137256%, 62.7451%, 9.019608%)" fill-opacity="1" stroke-width="0.8" stroke-linecap="butt" stroke-linejoin="miter" stroke="rgb(10.588235%, 16.470589%, 22.745098%)" stroke-opacity="1" stroke-miterlimit="2" d="M 206.269531 223.199219 L 223.769531 223.199219 L 223.769531 220.46875 L 206.269531 220.46875 Z M 206.269531 223.199219 "/>
<path fill-rule="nonzero" fill="rgb(83.137256%, 62.7451%, 9.019608%)" fill-opacity="1" stroke-width="0.8" stroke-linecap="butt" stroke-linejoin="miter" stroke="rgb(10.588235%, 16.470589%, 22.745098%)" stroke-opacity="1" stroke-miterlimit="2" d="M 274.371094 230.433594 L 291.871094 230.433594 L 291.871094 220.46875 L 274.371094 220.46875 Z M 274.371094 230.433594 "/>
<path fill-rule="nonzero" fill="rgb(83.137256%, 62.7451%, 9.019608%)" fill-opacity="1" stroke-width="0.8" stroke-linecap="butt" stroke-linejoin="miter" stroke="rgb(10.588235%, 16.470589%, 22.745098%)" stroke-opacity="1" stroke-miterlimit="2" d="M 342.476562 220.46875 L 359.976562 220.46875 L 359.976562 136.835938 L 342.476562 136.835938 Z M 342.476562 220.46875 "/>
<path fill-rule="nonzero" fill="rgb(83.137256%, 62.7451%, 9.019608%)" fill-opacity="1" stroke-width="0.8" stroke-linecap="butt" stroke-linejoin="miter" stroke="rgb(10.588235%, 16.470589%, 22.745098%)" stroke-opacity="1" stroke-miterlimit="2" d="M 410.578125 328.453125 L 428.078125 328.453125 L 428.078125 220.46875 L 410.578125 220.46875 Z M 410.578125 328.453125 "/>
<path fill-rule="nonzero" fill="rgb(83.137256%, 62.7451%, 9.019608%)" fill-opacity="1" stroke-width="0.8" stroke-linecap="butt" stroke-linejoin="miter" stroke="rgb(10.588235%, 16.470589%, 22.745098%)" stroke-opacity="1" stroke-miterlimit="2" d="M 478.683594 238.363281 L 496.183594 238.363281 L 496.183594 220.46875 L 478.683594 220.46875 Z M 478.683594 238.363281 "/>
<g clip-path="url(#clip-0-46e82409)">
<path fill="none" stroke-width="1.6" stroke-linecap="butt" stroke-linejoin="miter" stroke="rgb(50.196081%, 50.196081%, 50.196081%)" stroke-opacity="1" stroke-miterlimit="1.154701" d="M 80 220.46875 L 516 220.46875 "/>
</g>
<path fill-rule="nonzero" fill="rgb(90.196079%, 88.627452%, 83.529413%)" fill-opacity="1" stroke-width="0.9" stroke-linecap="butt" stroke-linejoin="miter" stroke="rgb(10.588235%, 16.470589%, 22.745098%)" stroke-opacity="1" stroke-miterlimit="2" d="M 534 223 L 702 223 L 702 162 L 534 162 Z M 534 223 "/>
<path fill="none" stroke-width="0.9" stroke-linecap="butt" stroke-linejoin="miter" stroke="rgb(10.588235%, 16.470589%, 22.745098%)" stroke-opacity="1" stroke-miterlimit="1.154701" d="M 127.742188 342.550781 L 127.742188 347.550781 "/>
<path fill="none" stroke-width="0.9" stroke-linecap="butt" stroke-linejoin="miter" stroke="rgb(10.588235%, 16.470589%, 22.745098%)" stroke-opacity="1" stroke-miterlimit="1.154701" d="M 195.84375 342.550781 L 195.84375 347.550781 "/>
<path fill="none" stroke-width="0.9" stroke-linecap="butt" stroke-linejoin="miter" stroke="rgb(10.588235%, 16.470589%, 22.745098%)" stroke-opacity="1" stroke-miterlimit="1.154701" d="M 263.949219 342.550781 L 263.949219 347.550781 "/>
<path fill="none" stroke-width="0.9" stroke-linecap="butt" stroke-linejoin="miter" stroke="rgb(10.588235%, 16.470589%, 22.745098%)" stroke-opacity="1" stroke-miterlimit="1.154701" d="M 332.050781 342.550781 L 332.050781 347.550781 "/>
<path fill="none" stroke-width="0.9" stroke-linecap="butt" stroke-linejoin="miter" stroke="rgb(10.588235%, 16.470589%, 22.745098%)" stroke-opacity="1" stroke-miterlimit="1.154701" d="M 400.15625 342.550781 L 400.15625 347.550781 "/>
<path fill="none" stroke-width="0.9" stroke-linecap="butt" stroke-linejoin="miter" stroke="rgb(10.588235%, 16.470589%, 22.745098%)" stroke-opacity="1" stroke-miterlimit="1.154701" d="M 468.257812 342.550781 L 468.257812 347.550781 "/>
<path fill="none" stroke-width="1" stroke-linecap="butt" stroke-linejoin="miter" stroke="rgb(23.529412%, 29.019609%, 36.078432%)" stroke-opacity="1" stroke-miterlimit="1.154701" d="M 93.6875 342.550781 L 93.6875 345.550781 "/>
<path fill="none" stroke-width="1" stroke-linecap="butt" stroke-linejoin="miter" stroke="rgb(23.529412%, 29.019609%, 36.078432%)" stroke-opacity="1" stroke-miterlimit="1.154701" d="M 161.792969 342.550781 L 161.792969 345.550781 "/>
<path fill="none" stroke-width="1" stroke-linecap="butt" stroke-linejoin="miter" stroke="rgb(23.529412%, 29.019609%, 36.078432%)" stroke-opacity="1" stroke-miterlimit="1.154701" d="M 229.894531 342.550781 L 229.894531 345.550781 "/>
<path fill="none" stroke-width="1" stroke-linecap="butt" stroke-linejoin="miter" stroke="rgb(23.529412%, 29.019609%, 36.078432%)" stroke-opacity="1" stroke-miterlimit="1.154701" d="M 298 342.550781 L 298 345.550781 "/>
<path fill="none" stroke-width="1" stroke-linecap="butt" stroke-linejoin="miter" stroke="rgb(23.529412%, 29.019609%, 36.078432%)" stroke-opacity="1" stroke-miterlimit="1.154701" d="M 366.105469 342.550781 L 366.105469 345.550781 "/>
<path fill="none" stroke-width="1" stroke-linecap="butt" stroke-linejoin="miter" stroke="rgb(23.529412%, 29.019609%, 36.078432%)" stroke-opacity="1" stroke-miterlimit="1.154701" d="M 434.207031 342.550781 L 434.207031 345.550781 "/>
<path fill="none" stroke-width="1" stroke-linecap="butt" stroke-linejoin="miter" stroke="rgb(23.529412%, 29.019609%, 36.078432%)" stroke-opacity="1" stroke-miterlimit="1.154701" d="M 502.3125 342.550781 L 502.3125 345.550781 "/>
<path fill="none" stroke-width="0.9" stroke-linecap="butt" stroke-linejoin="miter" stroke="rgb(10.588235%, 16.470589%, 22.745098%)" stroke-opacity="1" stroke-miterlimit="1.154701" d="M 79.449219 336.417969 L 74.449219 336.417969 "/>
<path fill="none" stroke-width="0.9" stroke-linecap="butt" stroke-linejoin="miter" stroke="rgb(10.588235%, 16.470589%, 22.745098%)" stroke-opacity="1" stroke-miterlimit="1.154701" d="M 79.449219 220.46875 L 74.449219 220.46875 "/>
<path fill="none" stroke-width="0.9" stroke-linecap="butt" stroke-linejoin="miter" stroke="rgb(10.588235%, 16.470589%, 22.745098%)" stroke-opacity="1" stroke-miterlimit="1.154701" d="M 79.449219 104.515625 L 74.449219 104.515625 "/>
<path fill="none" stroke-width="1" stroke-linecap="butt" stroke-linejoin="miter" stroke="rgb(23.529412%, 29.019609%, 36.078432%)" stroke-opacity="1" stroke-miterlimit="1.154701" d="M 79.449219 278.445312 L 76.449219 278.445312 "/>
<path fill="none" stroke-width="1" stroke-linecap="butt" stroke-linejoin="miter" stroke="rgb(23.529412%, 29.019609%, 36.078432%)" stroke-opacity="1" stroke-miterlimit="1.154701" d="M 79.449219 162.492188 L 76.449219 162.492188 "/>
<path fill="none" stroke-width="1" stroke-linecap="butt" stroke-linejoin="miter" stroke="rgb(23.529412%, 29.019609%, 36.078432%)" stroke-opacity="1" stroke-miterlimit="1.154701" d="M 79.449219 46.542969 L 76.449219 46.542969 "/>
<path fill-rule="nonzero" fill="rgb(12.156863%, 30.588236%, 47.450981%)" fill-opacity="1" d="M 543.800781 182.574219 L 561.800781 182.574219 L 561.800781 170.574219 L 543.800781 170.574219 Z M 543.800781 182.574219 "/>
<path fill-rule="nonzero" fill="rgb(78.431374%, 20.784314%, 10.980392%)" fill-opacity="1" d="M 543.800781 198.5 L 561.800781 198.5 L 561.800781 186.5 L 543.800781 186.5 Z M 543.800781 198.5 "/>
<path fill-rule="nonzero" fill="rgb(83.137256%, 62.7451%, 9.019608%)" fill-opacity="1" d="M 543.800781 214.425781 L 561.800781 214.425781 L 561.800781 202.425781 L 543.800781 202.425781 Z M 543.800781 214.425781 "/>
<g fill="rgb(10.588235%, 16.470589%, 22.745098%)" fill-opacity="1">
<use xlink:href="#glyph-3-7-46e82409" x="566.799982" y="180.562517"/>
<use xlink:href="#glyph-3-8-46e82409" x="573.399985" y="180.562517"/>
<use xlink:href="#glyph-3-9-46e82409" x="579.999984" y="180.562517"/>
<use xlink:href="#glyph-3-10-46e82409" x="586.599984" y="180.562517"/>
<use xlink:href="#glyph-3-11-46e82409" x="593.199985" y="180.562517"/>
<use xlink:href="#glyph-3-12-46e82409" x="599.799983" y="180.562517"/>
<use xlink:href="#glyph-3-13-46e82409" x="606.399982" y="180.562517"/>
<use xlink:href="#glyph-3-14-46e82409" x="612.999981" y="180.562517"/>
<use xlink:href="#glyph-3-14-46e82409" x="619.599979" y="180.562517"/>
<use xlink:href="#glyph-3-15-46e82409" x="626.199978" y="180.562517"/>
<use xlink:href="#glyph-3-16-46e82409" x="632.799976" y="180.562517"/>
<use xlink:href="#glyph-3-17-46e82409" x="639.399975" y="180.562517"/>
</g>
<g fill="rgb(10.588235%, 16.470589%, 22.745098%)" fill-opacity="1">
<use xlink:href="#glyph-3-18-46e82409" x="566.800024" y="196.48752"/>
<use xlink:href="#glyph-3-9-46e82409" x="573.400023" y="196.48752"/>
<use xlink:href="#glyph-3-9-46e82409" x="580.000025" y="196.48752"/>
<use xlink:href="#glyph-3-19-46e82409" x="586.600028" y="196.48752"/>
<use xlink:href="#glyph-3-20-46e82409" x="593.200027" y="196.48752"/>
<use xlink:href="#glyph-3-16-46e82409" x="599.800025" y="196.48752"/>
<use xlink:href="#glyph-3-21-46e82409" x="606.400024" y="196.48752"/>
<use xlink:href="#glyph-3-11-46e82409" x="613.000022" y="196.48752"/>
<use xlink:href="#glyph-3-12-46e82409" x="619.600021" y="196.48752"/>
<use xlink:href="#glyph-3-22-46e82409" x="626.20002" y="196.48752"/>
<use xlink:href="#glyph-3-20-46e82409" x="632.800018" y="196.48752"/>
<use xlink:href="#glyph-3-13-46e82409" x="639.400017" y="196.48752"/>
<use xlink:href="#glyph-3-23-46e82409" x="646.000016" y="196.48752"/>
<use xlink:href="#glyph-3-20-46e82409" x="652.600014" y="196.48752"/>
<use xlink:href="#glyph-3-22-46e82409" x="659.200013" y="196.48752"/>
<use xlink:href="#glyph-3-20-46e82409" x="665.800012" y="196.48752"/>
<use xlink:href="#glyph-3-16-46e82409" x="672.40001" y="196.48752"/>
<use xlink:href="#glyph-3-21-46e82409" x="679.000009" y="196.48752"/>
<use xlink:href="#glyph-3-17-46e82409" x="685.600007" y="196.48752"/>
</g>
<g fill="rgb(10.588235%, 16.470589%, 22.745098%)" fill-opacity="1">
<use xlink:href="#glyph-3-24-46e82409" x="566.800025" y="212.412507"/>
<use xlink:href="#glyph-3-15-46e82409" x="573.400026" y="212.412507"/>
<use xlink:href="#glyph-3-16-46e82409" x="580.000026" y="212.412507"/>
</g>
<path fill="none" stroke-width="1.1" stroke-linecap="butt" stroke-linejoin="miter" stroke="rgb(10.588235%, 16.470589%, 22.745098%)" stroke-opacity="1" stroke-miterlimit="1.154701" d="M 79.449219 342 L 516.550781 342 "/>
<path fill="none" stroke-width="1.1" stroke-linecap="butt" stroke-linejoin="miter" stroke="rgb(10.588235%, 16.470589%, 22.745098%)" stroke-opacity="1" stroke-miterlimit="1.154701" d="M 80 342.550781 L 80 43.449219 "/>
<path fill="none" stroke-width="1.1" stroke-linecap="butt" stroke-linejoin="miter" stroke="rgb(10.588235%, 16.470589%, 22.745098%)" stroke-opacity="1" stroke-miterlimit="1.154701" d="M 79.449219 44 L 516.550781 44 "/>
<path fill="none" stroke-width="1.1" stroke-linecap="butt" stroke-linejoin="miter" stroke="rgb(10.588235%, 16.470589%, 22.745098%)" stroke-opacity="1" stroke-miterlimit="1.154701" d="M 516 342.550781 L 516 43.449219 "/>
</svg>
