<?xml version="1.0" encoding="UTF-8"?>
<svg xmlns="http://www.w3.org/2000/svg" xmlns:xlink="http://www.w3.org/1999/xlink" width="600" height="450" viewBox="0 0 600 450">
<defs>
<g>
<g id="glyph-0-0-51df0e13">
<path d="M 4.5625 0.078125 C 3.925781 0.078125 3.460938 -0.0507812 3.171875 -0.3125 C 2.878906 -0.582031 2.734375 -0.976562 2.734375 -1.5 L 2.734375 -5.609375 L 0.90625 -5.609375 L 0.90625 -6.59375 L 2.734375 -6.59375 L 2.734375 -8.796875 L 3.9375 -8.796875 L 3.9375 -6.59375 L 5.78125 -6.59375 L 5.78125 -5.609375 L 3.9375 -5.609375 L 3.9375 -1.984375 C 3.9375 -1.703125 3.96875 -1.488281 4.03125 -1.34375 C 4.101562 -1.195312 4.210938 -1.09375 4.359375 -1.03125 C 4.503906 -0.976562 4.710938 -0.953125 4.984375 -0.953125 C 5.117188 -0.953125 5.304688 -0.96875 5.546875 -1 C 5.796875 -1.039062 6.007812 -1.082031 6.1875 -1.125 L 6.1875 -0.109375 C 5.988281 -0.0546875 5.722656 -0.0117188 5.390625 0.015625 C 5.066406 0.0546875 4.789062 0.078125 4.5625 0.078125 Z M 4.5625 0.078125 "/>
</g>
<g id="glyph-0-1-51df0e13">
<path d="M 1.21875 -6.59375 L 4.296875 -6.59375 L 4.296875 -0.96875 L 6.125 -0.96875 L 6.125 0 L 1.109375 0 L 1.109375 -0.96875 L 3.078125 -0.96875 L 3.078125 -5.671875 L 1.21875 -5.671875 Z M 3.5625 -7.796875 C 3.25 -7.796875 3.023438 -7.863281 2.890625 -8 C 2.753906 -8.132812 2.6875 -8.351562 2.6875 -8.65625 C 2.6875 -8.976562 2.753906 -9.203125 2.890625 -9.328125 C 3.023438 -9.460938 3.25 -9.53125 3.5625 -9.53125 C 3.875 -9.53125 4.09375 -9.460938 4.21875 -9.328125 C 4.351562 -9.203125 4.421875 -8.976562 4.421875 -8.65625 C 4.421875 -8.351562 4.351562 -8.132812 4.21875 -8 C 4.09375 -7.863281 3.875 -7.796875 3.5625 -7.796875 Z M 3.5625 -7.796875 "/>
</g>
<g id="glyph-0-2-51df0e13">
<path d="M 0.5625 -5.125 C 0.5625 -5.507812 0.535156 -6 0.484375 -6.59375 L 1.609375 -6.59375 L 1.6875 -5.859375 C 1.800781 -6.140625 1.953125 -6.347656 2.140625 -6.484375 C 2.328125 -6.628906 2.550781 -6.703125 2.8125 -6.703125 C 3.382812 -6.703125 3.726562 -6.335938 3.84375 -5.609375 C 3.9375 -6.015625 4.109375 -6.296875 4.359375 -6.453125 C 4.609375 -6.617188 4.898438 -6.703125 5.234375 -6.703125 C 5.515625 -6.703125 5.765625 -6.625 5.984375 -6.46875 C 6.203125 -6.3125 6.375 -6.082031 6.5 -5.78125 C 6.632812 -5.476562 6.703125 -5.113281 6.703125 -4.6875 L 6.703125 0 L 5.484375 0 L 5.484375 -4.484375 C 5.484375 -4.910156 5.4375 -5.21875 5.34375 -5.40625 C 5.257812 -5.59375 5.117188 -5.6875 4.921875 -5.6875 C 4.484375 -5.6875 4.265625 -5.316406 4.265625 -4.578125 L 4.265625 0 L 3.03125 0 L 3.03125 -4.484375 C 3.03125 -5.285156 2.816406 -5.6875 2.390625 -5.6875 C 2.191406 -5.6875 2.046875 -5.601562 1.953125 -5.4375 C 1.859375 -5.269531 1.8125 -4.984375 1.8125 -4.578125 L 1.8125 0 L 0.5625 0 Z M 0.5625 -5.125 "/>
</g>
<g id="glyph-0-3-51df0e13">
<path d="M 3.8125 0.109375 C 3.257812 0.109375 2.753906 -0.0234375 2.296875 -0.296875 C 1.847656 -0.566406 1.488281 -0.957031 1.21875 -1.46875 C 0.945312 -1.976562 0.8125 -2.578125 0.8125 -3.265625 C 0.8125 -3.929688 0.9375 -4.523438 1.1875 -5.046875 C 1.4375 -5.578125 1.78125 -5.988281 2.21875 -6.28125 C 2.664062 -6.570312 3.164062 -6.71875 3.71875 -6.71875 C 4.582031 -6.71875 5.238281 -6.390625 5.6875 -5.734375 C 6.144531 -5.085938 6.375 -4.164062 6.375 -2.96875 L 2.046875 -2.96875 C 2.054688 -2.3125 2.21875 -1.8125 2.53125 -1.46875 C 2.84375 -1.132812 3.285156 -0.96875 3.859375 -0.96875 C 4.242188 -0.96875 4.609375 -1.03125 4.953125 -1.15625 C 5.296875 -1.28125 5.550781 -1.410156 5.71875 -1.546875 L 6.25 -0.671875 C 6.09375 -0.535156 5.882812 -0.40625 5.625 -0.28125 C 5.363281 -0.164062 5.070312 -0.0703125 4.75 0 C 4.4375 0.0703125 4.125 0.109375 3.8125 0.109375 Z M 5.25 -3.953125 C 5.25 -4.296875 5.179688 -4.597656 5.046875 -4.859375 C 4.910156 -5.117188 4.726562 -5.320312 4.5 -5.46875 C 4.269531 -5.613281 4.007812 -5.6875 3.71875 -5.6875 C 3.414062 -5.6875 3.140625 -5.613281 2.890625 -5.46875 C 2.648438 -5.320312 2.453125 -5.117188 2.296875 -4.859375 C 2.148438 -4.597656 2.078125 -4.296875 2.078125 -3.953125 Z M 5.25 -3.953125 "/>
</g>
<g id="glyph-1-0-51df0e13">
<path d="M 1.25 -1.53125 C 1.894531 -2.101562 2.4375 -2.609375 2.875 -3.046875 C 3.3125 -3.492188 3.691406 -3.96875 4.015625 -4.46875 C 4.347656 -4.96875 4.515625 -5.429688 4.515625 -5.859375 C 4.515625 -6.109375 4.460938 -6.328125 4.359375 -6.515625 C 4.265625 -6.703125 4.125 -6.847656 3.9375 -6.953125 C 3.75 -7.054688 3.546875 -7.109375 3.328125 -7.109375 C 3.066406 -7.109375 2.835938 -7.050781 2.640625 -6.9375 C 2.441406 -6.820312 2.285156 -6.65625 2.171875 -6.4375 C 2.054688 -6.21875 2 -5.972656 2 -5.703125 L 0.875 -5.703125 C 0.882812 -6.222656 1 -6.660156 1.21875 -7.015625 C 1.4375 -7.367188 1.726562 -7.632812 2.09375 -7.8125 C 2.46875 -7.988281 2.890625 -8.078125 3.359375 -8.078125 C 3.785156 -8.078125 4.171875 -8 4.515625 -7.84375 C 4.867188 -7.695312 5.15625 -7.457031 5.375 -7.125 C 5.59375 -6.800781 5.703125 -6.398438 5.703125 -5.921875 C 5.703125 -5.429688 5.535156 -4.910156 5.203125 -4.359375 C 4.878906 -3.816406 4.5 -3.3125 4.0625 -2.84375 C 3.632812 -2.382812 3.109375 -1.859375 2.484375 -1.265625 L 2.09375 -0.890625 L 5.78125 -0.890625 L 5.78125 0.046875 L 0.796875 0.046875 L 0.796875 -1.140625 Z M 1.25 -1.53125 "/>
</g>
<g id="glyph-1-1-51df0e13">
<path d="M 3.296875 0.234375 C 2.960938 0.234375 2.703125 0.144531 2.515625 -0.03125 C 2.335938 -0.21875 2.25 -0.476562 2.25 -0.8125 C 2.25 -1.144531 2.335938 -1.398438 2.515625 -1.578125 C 2.703125 -1.765625 2.960938 -1.859375 3.296875 -1.859375 C 3.640625 -1.859375 3.898438 -1.765625 4.078125 -1.578125 C 4.253906 -1.398438 4.34375 -1.144531 4.34375 -0.8125 C 4.34375 -0.476562 4.25 -0.21875 4.0625 -0.03125 C 3.882812 0.144531 3.628906 0.234375 3.296875 0.234375 Z M 3.296875 0.234375 "/>
</g>
<g id="glyph-1-2-51df0e13">
<path d="M 3.28125 0.109375 C 2.832031 0.109375 2.421875 0.0273438 2.046875 -0.125 C 1.671875 -0.28125 1.375 -0.515625 1.15625 -0.828125 C 0.9375 -1.140625 0.828125 -1.535156 0.828125 -2.015625 L 1.9375 -2.015625 C 1.945312 -1.628906 2.070312 -1.335938 2.3125 -1.140625 C 2.5625 -0.941406 2.863281 -0.84375 3.21875 -0.84375 C 3.507812 -0.84375 3.765625 -0.921875 3.984375 -1.078125 C 4.203125 -1.234375 4.367188 -1.453125 4.484375 -1.734375 C 4.609375 -2.015625 4.671875 -2.328125 4.671875 -2.671875 C 4.671875 -2.992188 4.613281 -3.285156 4.5 -3.546875 C 4.394531 -3.804688 4.238281 -4.007812 4.03125 -4.15625 C 3.832031 -4.300781 3.597656 -4.375 3.328125 -4.375 C 3.003906 -4.375 2.722656 -4.28125 2.484375 -4.09375 C 2.253906 -3.90625 2.097656 -3.648438 2.015625 -3.328125 L 0.90625 -3.328125 L 1.484375 -7.96875 L 5.5625 -7.96875 L 5.5625 -7 L 2.453125 -7 L 2.109375 -4.5625 C 2.316406 -4.820312 2.535156 -5.019531 2.765625 -5.15625 C 3.003906 -5.289062 3.273438 -5.359375 3.578125 -5.359375 C 4.035156 -5.359375 4.429688 -5.238281 4.765625 -5 C 5.109375 -4.757812 5.367188 -4.4375 5.546875 -4.03125 C 5.722656 -3.625 5.8125 -3.164062 5.8125 -2.65625 C 5.8125 -2.113281 5.703125 -1.632812 5.484375 -1.21875 C 5.273438 -0.800781 4.976562 -0.472656 4.59375 -0.234375 C 4.21875 -0.00390625 3.78125 0.109375 3.28125 0.109375 Z M 3.28125 0.109375 "/>
</g>
<g id="glyph-1-3-51df0e13">
<path d="M 3.3125 0.109375 C 2.550781 0.109375 1.972656 -0.0507812 1.578125 -0.375 C 1.191406 -0.707031 0.9375 -1.160156 0.8125 -1.734375 C 0.6875 -2.304688 0.625 -3.066406 0.625 -4.015625 C 0.625 -4.941406 0.6875 -5.691406 0.8125 -6.265625 C 0.945312 -6.835938 1.207031 -7.28125 1.59375 -7.59375 C 1.976562 -7.914062 2.550781 -8.078125 3.3125 -8.078125 C 4.0625 -8.078125 4.628906 -7.921875 5.015625 -7.609375 C 5.410156 -7.296875 5.671875 -6.851562 5.796875 -6.28125 C 5.929688 -5.707031 6 -4.953125 6 -4.015625 C 6 -3.066406 5.929688 -2.304688 5.796875 -1.734375 C 5.671875 -1.160156 5.414062 -0.707031 5.03125 -0.375 C 4.644531 -0.0507812 4.070312 0.109375 3.3125 0.109375 Z M 2.59375 -4.015625 L 3.3125 -4.828125 L 4.015625 -4.015625 L 3.3125 -3.28125 Z M 3.3125 -0.8125 C 3.769531 -0.8125 4.113281 -0.929688 4.34375 -1.171875 C 4.582031 -1.421875 4.738281 -1.765625 4.8125 -2.203125 C 4.882812 -2.648438 4.921875 -3.253906 4.921875 -4.015625 C 4.921875 -4.742188 4.882812 -5.328125 4.8125 -5.765625 C 4.738281 -6.203125 4.585938 -6.539062 4.359375 -6.78125 C 4.128906 -7.03125 3.78125 -7.15625 3.3125 -7.15625 C 2.84375 -7.15625 2.488281 -7.03125 2.25 -6.78125 C 2.019531 -6.539062 1.867188 -6.203125 1.796875 -5.765625 C 1.734375 -5.328125 1.703125 -4.742188 1.703125 -4.015625 C 1.703125 -3.265625 1.738281 -2.664062 1.8125 -2.21875 C 1.882812 -1.769531 2.035156 -1.421875 2.265625 -1.171875 C 2.503906 -0.929688 2.851562 -0.8125 3.3125 -0.8125 Z M 3.3125 -0.8125 "/>
</g>
<g id="glyph-1-4-51df0e13">
<path d="M 4.671875 -6.96875 L 0.796875 -6.96875 L 0.796875 -7.96875 L 5.859375 -7.96875 L 5.859375 -6.96875 L 2.71875 0 L 1.546875 0 Z M 4.671875 -6.96875 "/>
</g>
<g id="glyph-1-5-51df0e13">
<path d="M 1.015625 -0.9375 L 2.9375 -0.9375 L 2.9375 -6.390625 C 2.613281 -6.078125 2.265625 -5.789062 1.890625 -5.53125 C 1.515625 -5.28125 1.164062 -5.109375 0.84375 -5.015625 L 0.84375 -6.078125 C 1.226562 -6.234375 1.625 -6.492188 2.03125 -6.859375 C 2.4375 -7.234375 2.78125 -7.601562 3.0625 -7.96875 L 4 -7.96875 L 4 -0.9375 L 5.765625 -0.9375 L 5.765625 0 L 1.015625 0 Z M 1.015625 -0.9375 "/>
</g>
<g id="glyph-1-6-51df0e13">
<path d="M 0.875 -7.96875 L 5.65625 -7.96875 L 5.65625 -6.984375 L 2.046875 -6.984375 L 2.046875 -4.625 L 5.484375 -4.625 L 5.484375 -3.640625 L 2.046875 -3.640625 L 2.046875 -0.984375 L 5.796875 -0.984375 L 5.796875 0 L 0.875 0 Z M 0.875 -7.96875 "/>
</g>
<g id="glyph-1-7-51df0e13">
<path d="M 0.515625 -4.703125 C 0.515625 -5.054688 0.492188 -5.503906 0.453125 -6.046875 L 1.484375 -6.046875 L 1.546875 -5.375 C 1.648438 -5.632812 1.785156 -5.828125 1.953125 -5.953125 C 2.128906 -6.085938 2.335938 -6.15625 2.578125 -6.15625 C 3.097656 -6.15625 3.410156 -5.816406 3.515625 -5.140625 C 3.609375 -5.515625 3.765625 -5.773438 3.984375 -5.921875 C 4.210938 -6.066406 4.484375 -6.140625 4.796875 -6.140625 C 5.054688 -6.140625 5.285156 -6.066406 5.484375 -5.921875 C 5.691406 -5.785156 5.851562 -5.578125 5.96875 -5.296875 C 6.09375 -5.023438 6.15625 -4.691406 6.15625 -4.296875 L 6.15625 0 L 5.015625 0 L 5.015625 -4.109375 C 5.015625 -4.492188 4.972656 -4.773438 4.890625 -4.953125 C 4.816406 -5.128906 4.691406 -5.21875 4.515625 -5.21875 C 4.109375 -5.21875 3.90625 -4.878906 3.90625 -4.203125 L 3.90625 0 L 2.78125 0 L 2.78125 -4.109375 C 2.78125 -4.847656 2.582031 -5.21875 2.1875 -5.21875 C 2.007812 -5.21875 1.875 -5.140625 1.78125 -4.984375 C 1.695312 -4.828125 1.65625 -4.566406 1.65625 -4.203125 L 1.65625 0 L 0.515625 0 Z M 0.515625 -4.703125 "/>
</g>
<g id="glyph-1-8-51df0e13">
<path d="M 0.8125 -4.71875 C 0.8125 -5.101562 0.796875 -5.503906 0.765625 -5.921875 L 0.765625 -6.046875 L 1.828125 -6.046875 L 1.875 -5.109375 C 2.28125 -5.804688 2.84375 -6.15625 3.5625 -6.15625 C 4.082031 -6.15625 4.507812 -6 4.84375 -5.6875 C 5.1875 -5.382812 5.4375 -4.992188 5.59375 -4.515625 C 5.75 -4.035156 5.828125 -3.539062 5.828125 -3.03125 C 5.828125 -2.519531 5.742188 -2.03125 5.578125 -1.5625 C 5.421875 -1.09375 5.160156 -0.703125 4.796875 -0.390625 C 4.429688 -0.0859375 3.972656 0.0625 3.421875 0.0625 C 3.085938 0.0625 2.800781 0 2.5625 -0.125 C 2.320312 -0.257812 2.109375 -0.457031 1.921875 -0.71875 L 1.921875 2.09375 L 0.8125 2.09375 Z M 3.296875 -0.8125 C 3.609375 -0.8125 3.875 -0.910156 4.09375 -1.109375 C 4.3125 -1.316406 4.472656 -1.585938 4.578125 -1.921875 C 4.679688 -2.253906 4.734375 -2.601562 4.734375 -2.96875 C 4.734375 -3.320312 4.6875 -3.675781 4.59375 -4.03125 C 4.5 -4.394531 4.347656 -4.695312 4.140625 -4.9375 C 3.929688 -5.175781 3.671875 -5.296875 3.359375 -5.296875 C 3.046875 -5.296875 2.773438 -5.171875 2.546875 -4.921875 C 2.328125 -4.679688 2.160156 -4.378906 2.046875 -4.015625 C 1.929688 -3.648438 1.875 -3.289062 1.875 -2.9375 C 1.875 -2.601562 1.921875 -2.273438 2.015625 -1.953125 C 2.117188 -1.628906 2.273438 -1.359375 2.484375 -1.140625 C 2.703125 -0.921875 2.972656 -0.8125 3.296875 -0.8125 Z M 3.296875 -0.8125 "/>
</g>
<g id="glyph-1-9-51df0e13">
<path d="M 1.109375 -6.046875 L 3.9375 -6.046875 L 3.9375 -0.890625 L 5.609375 -0.890625 L 5.609375 0 L 1.015625 0 L 1.015625 -0.890625 L 2.828125 -0.890625 L 2.828125 -5.203125 L 1.109375 -5.203125 Z M 3.265625 -7.15625 C 2.972656 -7.15625 2.765625 -7.210938 2.640625 -7.328125 C 2.523438 -7.453125 2.46875 -7.65625 2.46875 -7.9375 C 2.46875 -8.226562 2.523438 -8.429688 2.640625 -8.546875 C 2.765625 -8.671875 2.972656 -8.734375 3.265625 -8.734375 C 3.546875 -8.734375 3.742188 -8.671875 3.859375 -8.546875 C 3.984375 -8.429688 4.046875 -8.226562 4.046875 -7.9375 C 4.046875 -7.65625 3.984375 -7.453125 3.859375 -7.328125 C 3.742188 -7.210938 3.546875 -7.15625 3.265625 -7.15625 Z M 3.265625 -7.15625 "/>
</g>
<g id="glyph-1-10-51df0e13">
<path d="M 1.875 -3.3125 C 1.875 -3.832031 1.859375 -4.207031 1.828125 -4.4375 C 1.804688 -4.675781 1.773438 -4.921875 1.734375 -5.171875 L 0.6875 -5.171875 L 0.6875 -6.046875 L 2.625 -6.046875 L 2.765625 -4.984375 C 2.929688 -5.398438 3.171875 -5.703125 3.484375 -5.890625 C 3.796875 -6.078125 4.117188 -6.171875 4.453125 -6.171875 C 4.703125 -6.171875 4.972656 -6.109375 5.265625 -5.984375 C 5.566406 -5.859375 5.804688 -5.707031 5.984375 -5.53125 L 5.359375 -4.765625 C 5.253906 -4.878906 5.101562 -4.976562 4.90625 -5.0625 C 4.71875 -5.144531 4.5 -5.1875 4.25 -5.1875 C 3.832031 -5.1875 3.515625 -4.976562 3.296875 -4.5625 C 3.078125 -4.15625 2.96875 -3.539062 2.96875 -2.71875 L 2.96875 0 L 1.859375 0 Z M 1.875 -3.3125 "/>
</g>
<g id="glyph-1-11-51df0e13">
<path d="M 3.59375 0.078125 C 3.03125 0.078125 2.53125 -0.0390625 2.09375 -0.28125 C 1.664062 -0.53125 1.328125 -0.890625 1.078125 -1.359375 C 0.828125 -1.828125 0.703125 -2.378906 0.703125 -3.015625 C 0.703125 -3.640625 0.828125 -4.1875 1.078125 -4.65625 C 1.328125 -5.132812 1.675781 -5.5 2.125 -5.75 C 2.582031 -6 3.097656 -6.125 3.671875 -6.125 C 4.140625 -6.125 4.546875 -6.03125 4.890625 -5.84375 C 5.234375 -5.664062 5.507812 -5.441406 5.71875 -5.171875 L 5.015625 -4.484375 C 4.816406 -4.691406 4.617188 -4.851562 4.421875 -4.96875 C 4.222656 -5.082031 3.984375 -5.140625 3.703125 -5.140625 C 3.335938 -5.140625 3.015625 -5.050781 2.734375 -4.875 C 2.460938 -4.695312 2.25 -4.445312 2.09375 -4.125 C 1.9375 -3.8125 1.859375 -3.453125 1.859375 -3.046875 C 1.859375 -2.628906 1.9375 -2.257812 2.09375 -1.9375 C 2.25 -1.613281 2.460938 -1.363281 2.734375 -1.1875 C 3.003906 -1.007812 3.300781 -0.921875 3.625 -0.921875 C 3.90625 -0.921875 4.171875 -0.992188 4.421875 -1.140625 C 4.671875 -1.296875 4.894531 -1.484375 5.09375 -1.703125 L 5.78125 -1.015625 C 5.507812 -0.691406 5.203125 -0.425781 4.859375 -0.21875 C 4.515625 -0.0195312 4.09375 0.078125 3.59375 0.078125 Z M 3.59375 0.078125 "/>
</g>
<g id="glyph-1-12-51df0e13">
<path d="M 2.625 0.109375 C 2.21875 0.109375 1.867188 0.0390625 1.578125 -0.09375 C 1.285156 -0.238281 1.0625 -0.441406 0.90625 -0.703125 C 0.757812 -0.960938 0.6875 -1.273438 0.6875 -1.640625 C 0.6875 -2.410156 0.988281 -2.9375 1.59375 -3.21875 C 2.207031 -3.507812 2.957031 -3.65625 3.84375 -3.65625 L 4.5 -3.65625 L 4.5 -3.9375 C 4.5 -4.257812 4.414062 -4.550781 4.25 -4.8125 C 4.082031 -5.082031 3.75 -5.21875 3.25 -5.21875 C 3.019531 -5.21875 2.804688 -5.1875 2.609375 -5.125 C 2.421875 -5.070312 2.253906 -5.003906 2.109375 -4.921875 C 1.960938 -4.835938 1.78125 -4.722656 1.5625 -4.578125 L 1.03125 -5.3125 C 1.375 -5.5625 1.71875 -5.757812 2.0625 -5.90625 C 2.414062 -6.050781 2.847656 -6.125 3.359375 -6.125 C 4.242188 -6.125 4.835938 -5.90625 5.140625 -5.46875 C 5.441406 -5.039062 5.59375 -4.53125 5.59375 -3.9375 L 5.59375 -1.71875 C 5.59375 -1.226562 5.628906 -0.65625 5.703125 0 L 4.609375 0 C 4.585938 -0.15625 4.570312 -0.363281 4.5625 -0.625 L 4.546875 -0.796875 C 4.359375 -0.484375 4.09375 -0.253906 3.75 -0.109375 C 3.40625 0.0351562 3.03125 0.109375 2.625 0.109375 Z M 2.90625 -0.734375 C 3.457031 -0.734375 3.859375 -0.914062 4.109375 -1.28125 C 4.367188 -1.65625 4.5 -2.164062 4.5 -2.8125 L 4.078125 -2.828125 C 3.535156 -2.828125 3.097656 -2.785156 2.765625 -2.703125 C 2.429688 -2.628906 2.179688 -2.507812 2.015625 -2.34375 C 1.859375 -2.175781 1.78125 -1.957031 1.78125 -1.6875 C 1.78125 -1.351562 1.878906 -1.109375 2.078125 -0.953125 C 2.273438 -0.804688 2.550781 -0.734375 2.90625 -0.734375 Z M 2.90625 -0.734375 "/>
</g>
<g id="glyph-1-13-51df0e13">
<path d="M 4.515625 0.125 C 3.828125 0.125 3.3125 -0.0390625 2.96875 -0.375 C 2.632812 -0.707031 2.46875 -1.210938 2.46875 -1.890625 L 2.46875 -7.78125 L 0.578125 -7.78125 L 0.578125 -8.6875 L 3.5625 -8.6875 L 3.5625 -2.171875 C 3.5625 -1.742188 3.65625 -1.425781 3.84375 -1.21875 C 4.03125 -1.007812 4.273438 -0.90625 4.578125 -0.90625 C 4.785156 -0.90625 4.96875 -0.953125 5.125 -1.046875 C 5.289062 -1.148438 5.460938 -1.296875 5.640625 -1.484375 L 6.296875 -0.71875 C 6.078125 -0.476562 5.816406 -0.273438 5.515625 -0.109375 C 5.222656 0.0429688 4.890625 0.125 4.515625 0.125 Z M 4.515625 0.125 "/>
</g>
<g id="glyph-1-14-51df0e13">
</g>
<g id="glyph-1-15-51df0e13">
<path d="M 4.40625 2.671875 C 3.894531 1.972656 3.46875 1.332031 3.125 0.75 C 2.789062 0.175781 2.523438 -0.414062 2.328125 -1.03125 C 2.128906 -1.644531 2.03125 -2.273438 2.03125 -2.921875 C 2.03125 -3.941406 2.242188 -5.003906 2.671875 -6.109375 C 3.097656 -7.222656 3.679688 -8.257812 4.421875 -9.21875 L 5.390625 -9.21875 C 4.710938 -8.21875 4.1875 -7.195312 3.8125 -6.15625 C 3.4375 -5.113281 3.25 -4.097656 3.25 -3.109375 C 3.25 -2.523438 3.34375 -1.894531 3.53125 -1.21875 C 3.71875 -0.539062 3.972656 0.128906 4.296875 0.796875 C 4.617188 1.460938 4.984375 2.085938 5.390625 2.671875 Z M 4.40625 2.671875 "/>
</g>
<g id="glyph-1-16-51df0e13">
<path d="M 1.90625 -4.15625 L 1.90625 0 L 0.765625 0 L 0.765625 -7.96875 L 1.90625 -7.96875 L 1.90625 -4.5 L 4.4375 -7.96875 L 5.78125 -7.96875 L 3.0625 -4.390625 L 6.09375 0 L 4.6875 0 Z M 1.90625 -4.15625 "/>
</g>
<g id="glyph-1-17-51df0e13">
<path d="M 0.90625 -4.546875 C 0.90625 -4.796875 0.894531 -5.015625 0.875 -5.203125 C 0.863281 -5.398438 0.84375 -5.679688 0.8125 -6.046875 L 1.859375 -6.046875 L 1.96875 -5.046875 C 2.175781 -5.410156 2.4375 -5.6875 2.75 -5.875 C 3.070312 -6.0625 3.429688 -6.15625 3.828125 -6.15625 C 4.460938 -6.15625 4.941406 -5.9375 5.265625 -5.5 C 5.597656 -5.0625 5.765625 -4.453125 5.765625 -3.671875 L 5.765625 0 L 4.640625 0 L 4.640625 -3.234375 C 4.640625 -3.828125 4.550781 -4.304688 4.375 -4.671875 C 4.207031 -5.035156 3.890625 -5.21875 3.421875 -5.21875 C 3.078125 -5.21875 2.800781 -5.101562 2.59375 -4.875 C 2.382812 -4.644531 2.234375 -4.351562 2.140625 -4 C 2.046875 -3.644531 2 -3.265625 2 -2.859375 L 2 0 L 0.90625 0 Z M 0.90625 -4.546875 "/>
</g>
<g id="glyph-1-18-51df0e13">
<path d="M 0.84375 -3.609375 L 5.984375 -3.609375 L 5.765625 -2.46875 L 0.625 -2.46875 Z M 0.84375 -3.609375 "/>
</g>
<g id="glyph-1-19-51df0e13">
<path d="M 0.65625 -7.96875 L 2.34375 -7.96875 L 3.296875 -4.046875 L 4.25 -7.96875 L 5.9375 -7.96875 L 5.9375 0 L 4.8125 0 L 4.8125 -6.0625 L 4.71875 -5.9375 L 3.703125 -2.171875 L 2.890625 -2.171875 L 1.890625 -5.9375 L 1.546875 -6.375 L 1.78125 -6.0625 L 1.78125 0 L 0.65625 0 Z M 0.65625 -7.96875 "/>
</g>
<g id="glyph-1-20-51df0e13">
<path d="M 3.5 0.09375 C 2.988281 0.09375 2.523438 -0.0234375 2.109375 -0.265625 C 1.691406 -0.515625 1.359375 -0.875 1.109375 -1.34375 C 0.867188 -1.8125 0.75 -2.359375 0.75 -2.984375 C 0.75 -3.597656 0.863281 -4.144531 1.09375 -4.625 C 1.320312 -5.113281 1.632812 -5.488281 2.03125 -5.75 C 2.4375 -6.019531 2.898438 -6.15625 3.421875 -6.15625 C 4.210938 -6.15625 4.8125 -5.851562 5.21875 -5.25 C 5.632812 -4.65625 5.84375 -3.8125 5.84375 -2.71875 L 1.875 -2.71875 C 1.882812 -2.113281 2.03125 -1.65625 2.3125 -1.34375 C 2.601562 -1.039062 3.007812 -0.890625 3.53125 -0.890625 C 3.882812 -0.890625 4.21875 -0.941406 4.53125 -1.046875 C 4.851562 -1.160156 5.09375 -1.285156 5.25 -1.421875 L 5.734375 -0.609375 C 5.585938 -0.492188 5.394531 -0.378906 5.15625 -0.265625 C 4.914062 -0.160156 4.648438 -0.0703125 4.359375 0 C 4.066406 0.0625 3.78125 0.09375 3.5 0.09375 Z M 4.8125 -3.625 C 4.8125 -3.9375 4.75 -4.210938 4.625 -4.453125 C 4.5 -4.691406 4.332031 -4.878906 4.125 -5.015625 C 3.914062 -5.148438 3.675781 -5.21875 3.40625 -5.21875 C 3.132812 -5.21875 2.882812 -5.148438 2.65625 -5.015625 C 2.425781 -4.878906 2.242188 -4.691406 2.109375 -4.453125 C 1.972656 -4.210938 1.90625 -3.9375 1.90625 -3.625 Z M 4.8125 -3.625 "/>
</g>
<g id="glyph-1-21-51df0e13">
<path d="M 1.5 2.671875 C 1.914062 2.085938 2.28125 1.460938 2.59375 0.796875 C 2.914062 0.128906 3.171875 -0.539062 3.359375 -1.21875 C 3.546875 -1.894531 3.640625 -2.523438 3.640625 -3.109375 C 3.640625 -4.097656 3.453125 -5.113281 3.078125 -6.15625 C 2.703125 -7.195312 2.175781 -8.21875 1.5 -9.21875 L 2.46875 -9.21875 C 3.207031 -8.257812 3.789062 -7.222656 4.21875 -6.109375 C 4.644531 -5.003906 4.859375 -3.941406 4.859375 -2.921875 C 4.859375 -2.273438 4.757812 -1.644531 4.5625 -1.03125 C 4.363281 -0.414062 4.09375 0.175781 3.75 0.75 C 3.414062 1.332031 2.992188 1.972656 2.484375 2.671875 Z M 1.5 2.671875 "/>
</g>
<g id="glyph-2-0-51df0e13">
<path d="M 3.28125 0.109375 C 2.832031 0.109375 2.421875 0.0273438 2.046875 -0.125 C 1.671875 -0.28125 1.375 -0.515625 1.15625 -0.828125 C 0.9375 -1.140625 0.828125 -1.535156 0.828125 -2.015625 L 1.9375 -2.015625 C 1.945312 -1.628906 2.070312 -1.335938 2.3125 -1.140625 C 2.5625 -0.941406 2.863281 -0.84375 3.21875 -0.84375 C 3.507812 -0.84375 3.765625 -0.921875 3.984375 -1.078125 C 4.203125 -1.234375 4.367188 -1.453125 4.484375 -1.734375 C 4.609375 -2.015625 4.671875 -2.328125 4.671875 -2.671875 C 4.671875 -2.992188 4.613281 -3.285156 4.5 -3.546875 C 4.394531 -3.804688 4.238281 -4.007812 4.03125 -4.15625 C 3.832031 -4.300781 3.597656 -4.375 3.328125 -4.375 C 3.003906 -4.375 2.722656 -4.28125 2.484375 -4.09375 C 2.253906 -3.90625 2.097656 -3.648438 2.015625 -3.328125 L 0.90625 -3.328125 L 1.484375 -7.96875 L 5.5625 -7.96875 L 5.5625 -7 L 2.453125 -7 L 2.109375 -4.5625 C 2.316406 -4.820312 2.535156 -5.019531 2.765625 -5.15625 C 3.003906 -5.289062 3.273438 -5.359375 3.578125 -5.359375 C 4.035156 -5.359375 4.429688 -5.238281 4.765625 -5 C 5.109375 -4.757812 5.367188 -4.4375 5.546875 -4.03125 C 5.722656 -3.625 5.8125 -3.164062 5.8125 -2.65625 C 5.8125 -2.113281 5.703125 -1.632812 5.484375 -1.21875 C 5.273438 -0.800781 4.976562 -0.472656 4.59375 -0.234375 C 4.21875 -0.00390625 3.78125 0.109375 3.28125 0.109375 Z M 3.28125 0.109375 "/>
</g>
<g id="glyph-2-1-51df0e13">
<path d="M 4.515625 0.125 C 3.828125 0.125 3.3125 -0.0390625 2.96875 -0.375 C 2.632812 -0.707031 2.46875 -1.210938 2.46875 -1.890625 L 2.46875 -7.78125 L 0.578125 -7.78125 L 0.578125 -8.6875 L 3.5625 -8.6875 L 3.5625 -2.171875 C 3.5625 -1.742188 3.65625 -1.425781 3.84375 -1.21875 C 4.03125 -1.007812 4.273438 -0.90625 4.578125 -0.90625 C 4.785156 -0.90625 4.96875 -0.953125 5.125 -1.046875 C 5.289062 -1.148438 5.460938 -1.296875 5.640625 -1.484375 L 6.296875 -0.71875 C 6.078125 -0.476562 5.816406 -0.273438 5.515625 -0.109375 C 5.222656 0.0429688 4.890625 0.125 4.515625 0.125 Z M 4.515625 0.125 "/>
</g>
<g id="glyph-2-2-51df0e13">
<path d="M 2.625 0.109375 C 2.21875 0.109375 1.867188 0.0390625 1.578125 -0.09375 C 1.285156 -0.238281 1.0625 -0.441406 0.90625 -0.703125 C 0.757812 -0.960938 0.6875 -1.273438 0.6875 -1.640625 C 0.6875 -2.410156 0.988281 -2.9375 1.59375 -3.21875 C 2.207031 -3.507812 2.957031 -3.65625 3.84375 -3.65625 L 4.5 -3.65625 L 4.5 -3.9375 C 4.5 -4.257812 4.414062 -4.550781 4.25 -4.8125 C 4.082031 -5.082031 3.75 -5.21875 3.25 -5.21875 C 3.019531 -5.21875 2.804688 -5.1875 2.609375 -5.125 C 2.421875 -5.070312 2.253906 -5.003906 2.109375 -4.921875 C 1.960938 -4.835938 1.78125 -4.722656 1.5625 -4.578125 L 1.03125 -5.3125 C 1.375 -5.5625 1.71875 -5.757812 2.0625 -5.90625 C 2.414062 -6.050781 2.847656 -6.125 3.359375 -6.125 C 4.242188 -6.125 4.835938 -5.90625 5.140625 -5.46875 C 5.441406 -5.039062 5.59375 -4.53125 5.59375 -3.9375 L 5.59375 -1.71875 C 5.59375 -1.226562 5.628906 -0.65625 5.703125 0 L 4.609375 0 C 4.585938 -0.15625 4.570312 -0.363281 4.5625 -0.625 L 4.546875 -0.796875 C 4.359375 -0.484375 4.09375 -0.253906 3.75 -0.109375 C 3.40625 0.0351562 3.03125 0.109375 2.625 0.109375 Z M 2.90625 -0.734375 C 3.457031 -0.734375 3.859375 -0.914062 4.109375 -1.28125 C 4.367188 -1.65625 4.5 -2.164062 4.5 -2.8125 L 4.078125 -2.828125 C 3.535156 -2.828125 3.097656 -2.785156 2.765625 -2.703125 C 2.429688 -2.628906 2.179688 -2.507812 2.015625 -2.34375 C 1.859375 -2.175781 1.78125 -1.957031 1.78125 -1.6875 C 1.78125 -1.351562 1.878906 -1.109375 2.078125 -0.953125 C 2.273438 -0.804688 2.550781 -0.734375 2.90625 -0.734375 Z M 2.90625 -0.734375 "/>
</g>
<g id="glyph-3-0-51df0e13">
<path d="M 0.0625 -3.625 C 0.0625 -3.039062 -0.0351562 -2.539062 -0.234375 -2.125 C -0.429688 -1.71875 -0.726562 -1.347656 -1.125 -1.015625 L -1.875 -1.71875 C -1.664062 -1.9375 -1.5 -2.132812 -1.375 -2.3125 C -1.25 -2.488281 -1.148438 -2.6875 -1.078125 -2.90625 C -1.003906 -3.132812 -0.96875 -3.394531 -0.96875 -3.6875 C -0.96875 -4.039062 -1.035156 -4.359375 -1.171875 -4.640625 C -1.316406 -4.921875 -1.550781 -5.0625 -1.875 -5.0625 C -2.050781 -5.0625 -2.1875 -5.007812 -2.28125 -4.90625 C -2.382812 -4.8125 -2.460938 -4.6875 -2.515625 -4.53125 C -2.578125 -4.375 -2.644531 -4.140625 -2.71875 -3.828125 C -2.757812 -3.660156 -2.800781 -3.5 -2.84375 -3.34375 C -2.96875 -2.875 -3.097656 -2.488281 -3.234375 -2.1875 C -3.378906 -1.894531 -3.570312 -1.65625 -3.8125 -1.46875 C -4.0625 -1.28125 -4.378906 -1.1875 -4.765625 -1.1875 C -5.179688 -1.1875 -5.535156 -1.289062 -5.828125 -1.5 C -6.117188 -1.71875 -6.335938 -2.007812 -6.484375 -2.375 C -6.640625 -2.738281 -6.71875 -3.15625 -6.71875 -3.625 C -6.71875 -4.582031 -6.441406 -5.335938 -5.890625 -5.890625 L -5.09375 -5.171875 C -5.457031 -4.734375 -5.640625 -4.226562 -5.640625 -3.65625 C -5.640625 -3.269531 -5.5625 -2.953125 -5.40625 -2.703125 C -5.257812 -2.460938 -5.0625 -2.34375 -4.8125 -2.34375 C -4.601562 -2.34375 -4.425781 -2.425781 -4.28125 -2.59375 C -4.144531 -2.757812 -4.035156 -2.960938 -3.953125 -3.203125 C -3.878906 -3.441406 -3.796875 -3.75 -3.703125 -4.125 L -3.640625 -4.34375 C -3.554688 -4.65625 -3.457031 -4.9375 -3.34375 -5.1875 C -3.238281 -5.4375 -3.0625 -5.660156 -2.8125 -5.859375 C -2.570312 -6.066406 -2.253906 -6.171875 -1.859375 -6.171875 C -1.398438 -6.171875 -1.023438 -6.050781 -0.734375 -5.8125 C -0.453125 -5.582031 -0.25 -5.273438 -0.125 -4.890625 C 0 -4.515625 0.0625 -4.09375 0.0625 -3.625 Z M 0.0625 -3.625 "/>
</g>
<g id="glyph-3-1-51df0e13">
<path d="M -6.625 -0.875 L -6.625 -2.21875 L -1.625 -3.609375 L -6.625 -5.046875 L -6.625 -6.328125 L 0 -4.296875 L 0 -2.90625 Z M -6.625 -0.875 "/>
</g>
<g id="glyph-4-0-51df0e13">
<path d="M 0.09375 -3.03125 C 0.09375 -2.332031 -0.113281 -1.8125 -0.53125 -1.46875 C -0.945312 -1.132812 -1.539062 -0.96875 -2.3125 -0.96875 L -6.59375 -0.96875 L -6.59375 -2.171875 L -2.609375 -2.171875 C -2.234375 -2.171875 -1.921875 -2.195312 -1.671875 -2.25 C -1.429688 -2.3125 -1.234375 -2.429688 -1.078125 -2.609375 C -0.929688 -2.785156 -0.859375 -3.050781 -0.859375 -3.40625 C -0.859375 -3.757812 -0.953125 -4.050781 -1.140625 -4.28125 C -1.328125 -4.519531 -1.570312 -4.691406 -1.875 -4.796875 C -2.1875 -4.910156 -2.523438 -4.96875 -2.890625 -4.96875 L -6.59375 -4.96875 L -6.59375 -6.1875 L -1.421875 -6.1875 C -1.171875 -6.1875 -0.859375 -6.195312 -0.484375 -6.21875 L 0 -6.234375 L 0 -5.0625 L -0.796875 -5.015625 C -0.472656 -4.785156 -0.242188 -4.507812 -0.109375 -4.1875 C 0.0234375 -3.863281 0.09375 -3.476562 0.09375 -3.03125 Z M 0.09375 -3.03125 "/>
</g>
<g id="glyph-5-0-51df0e13">
<path d="M -3.609375 -2.046875 C -4.179688 -2.046875 -4.59375 -2.03125 -4.84375 -2 C -5.09375 -1.976562 -5.359375 -1.941406 -5.640625 -1.890625 L -5.640625 -0.75 L -6.59375 -0.75 L -6.59375 -2.859375 L -5.4375 -3.015625 C -5.894531 -3.203125 -6.222656 -3.460938 -6.421875 -3.796875 C -6.628906 -4.140625 -6.734375 -4.492188 -6.734375 -4.859375 C -6.734375 -5.140625 -6.664062 -5.4375 -6.53125 -5.75 C -6.394531 -6.070312 -6.234375 -6.332031 -6.046875 -6.53125 L -5.203125 -5.84375 C -5.316406 -5.726562 -5.421875 -5.566406 -5.515625 -5.359375 C -5.609375 -5.148438 -5.65625 -4.910156 -5.65625 -4.640625 C -5.65625 -4.179688 -5.429688 -3.832031 -4.984375 -3.59375 C -4.535156 -3.363281 -3.863281 -3.25 -2.96875 -3.25 L 0 -3.25 L 0 -2.03125 Z M -3.609375 -2.046875 "/>
</g>
<g id="glyph-6-0-51df0e13">
<path d="M -6.59375 -1.21875 L -6.59375 -4.296875 L -0.96875 -4.296875 L -0.96875 -6.125 L 0 -6.125 L 0 -1.109375 L -0.96875 -1.109375 L -0.96875 -3.078125 L -5.671875 -3.078125 L -5.671875 -1.21875 Z M -7.796875 -3.5625 C -7.796875 -3.25 -7.863281 -3.023438 -8 -2.890625 C -8.132812 -2.753906 -8.351562 -2.6875 -8.65625 -2.6875 C -8.976562 -2.6875 -9.203125 -2.753906 -9.328125 -2.890625 C -9.460938 -3.023438 -9.53125 -3.25 -9.53125 -3.5625 C -9.53125 -3.875 -9.460938 -4.09375 -9.328125 -4.21875 C -9.203125 -4.351562 -8.976562 -4.421875 -8.65625 -4.421875 C -8.351562 -4.421875 -8.132812 -4.351562 -8 -4.21875 C -7.863281 -4.09375 -7.796875 -3.875 -7.796875 -3.5625 Z M -7.796875 -3.5625 "/>
</g>
<g id="glyph-6-1-51df0e13">
<path d="M 0.140625 -4.921875 C 0.140625 -4.171875 -0.0390625 -3.609375 -0.40625 -3.234375 C -0.769531 -2.867188 -1.320312 -2.6875 -2.0625 -2.6875 L -8.484375 -2.6875 L -8.484375 -0.625 L -9.484375 -0.625 L -9.484375 -3.890625 L -2.375 -3.890625 C -1.894531 -3.890625 -1.539062 -3.988281 -1.3125 -4.1875 C -1.09375 -4.394531 -0.984375 -4.660156 -0.984375 -4.984375 C -0.984375 -5.210938 -1.035156 -5.414062 -1.140625 -5.59375 C -1.253906 -5.769531 -1.410156 -5.957031 -1.609375 -6.15625 L -0.78125 -6.875 C -0.519531 -6.625 -0.300781 -6.335938 -0.125 -6.015625 C 0.0507812 -5.691406 0.140625 -5.328125 0.140625 -4.921875 Z M 0.140625 -4.921875 "/>
</g>
<g id="glyph-7-0-51df0e13">
<path d="M 0.125 -2.859375 C 0.125 -2.421875 0.0429688 -2.039062 -0.109375 -1.71875 C -0.265625 -1.40625 -0.484375 -1.164062 -0.765625 -1 C -1.046875 -0.832031 -1.382812 -0.75 -1.78125 -0.75 C -2.625 -0.75 -3.203125 -1.078125 -3.515625 -1.734375 C -3.828125 -2.398438 -3.984375 -3.222656 -3.984375 -4.203125 L -3.984375 -4.90625 L -4.296875 -4.90625 C -4.648438 -4.90625 -4.972656 -4.8125 -5.265625 -4.625 C -5.554688 -4.445312 -5.703125 -4.085938 -5.703125 -3.546875 C -5.703125 -3.296875 -5.664062 -3.0625 -5.59375 -2.84375 C -5.53125 -2.632812 -5.453125 -2.453125 -5.359375 -2.296875 C -5.273438 -2.140625 -5.148438 -1.941406 -4.984375 -1.703125 L -5.796875 -1.125 C -6.066406 -1.5 -6.28125 -1.878906 -6.4375 -2.265625 C -6.601562 -2.648438 -6.6875 -3.117188 -6.6875 -3.671875 C -6.6875 -4.628906 -6.445312 -5.273438 -5.96875 -5.609375 C -5.5 -5.941406 -4.941406 -6.109375 -4.296875 -6.109375 L -1.875 -6.109375 C -1.34375 -6.109375 -0.71875 -6.144531 0 -6.21875 L 0 -5.015625 C -0.175781 -5.003906 -0.398438 -4.988281 -0.671875 -4.96875 L -0.875 -4.96875 C -0.53125 -4.757812 -0.273438 -4.46875 -0.109375 -4.09375 C 0.0429688 -3.71875 0.125 -3.304688 0.125 -2.859375 Z M -0.796875 -3.15625 C -0.796875 -3.757812 -1 -4.203125 -1.40625 -4.484375 C -1.8125 -4.765625 -2.363281 -4.90625 -3.0625 -4.90625 L -3.078125 -4.453125 C -3.078125 -3.859375 -3.035156 -3.378906 -2.953125 -3.015625 C -2.867188 -2.648438 -2.734375 -2.378906 -2.546875 -2.203125 C -2.367188 -2.023438 -2.132812 -1.9375 -1.84375 -1.9375 C -1.476562 -1.9375 -1.210938 -2.046875 -1.046875 -2.265625 C -0.878906 -2.484375 -0.796875 -2.78125 -0.796875 -3.15625 Z M -0.796875 -3.15625 "/>
</g>
<g id="glyph-8-0-51df0e13">
<path d="M 2.734375 -6.953125 L 0.484375 -6.953125 L 0.484375 -7.96875 L 6.109375 -7.96875 L 6.109375 -6.953125 L 3.859375 -6.953125 L 3.859375 0 L 2.734375 0 Z M 2.734375 -6.953125 "/>
</g>
<g id="glyph-8-1-51df0e13">
<path d="M 0.875 -8.6875 L 2 -8.6875 L 2 -5.1875 C 2.238281 -5.507812 2.507812 -5.75 2.8125 -5.90625 C 3.125 -6.0625 3.460938 -6.140625 3.828125 -6.140625 C 4.535156 -6.140625 5.039062 -5.945312 5.34375 -5.5625 C 5.644531 -5.175781 5.796875 -4.609375 5.796875 -3.859375 L 5.796875 0 L 4.671875 0 L 4.671875 -3.359375 C 4.671875 -3.753906 4.640625 -4.078125 4.578125 -4.328125 C 4.523438 -4.578125 4.414062 -4.769531 4.25 -4.90625 C 4.082031 -5.050781 3.832031 -5.125 3.5 -5.125 C 3 -5.125 2.625 -4.894531 2.375 -4.4375 C 2.125 -3.988281 2 -3.394531 2 -2.65625 L 2 0 L 0.875 0 Z M 0.875 -8.6875 "/>
</g>
<g id="glyph-8-2-51df0e13">
<path d="M 3.5 0.09375 C 2.988281 0.09375 2.523438 -0.0234375 2.109375 -0.265625 C 1.691406 -0.515625 1.359375 -0.875 1.109375 -1.34375 C 0.867188 -1.8125 0.75 -2.359375 0.75 -2.984375 C 0.75 -3.597656 0.863281 -4.144531 1.09375 -4.625 C 1.320312 -5.113281 1.632812 -5.488281 2.03125 -5.75 C 2.4375 -6.019531 2.898438 -6.15625 3.421875 -6.15625 C 4.210938 -6.15625 4.8125 -5.851562 5.21875 -5.25 C 5.632812 -4.65625 5.84375 -3.8125 5.84375 -2.71875 L 1.875 -2.71875 C 1.882812 -2.113281 2.03125 -1.65625 2.3125 -1.34375 C 2.601562 -1.039062 3.007812 -0.890625 3.53125 -0.890625 C 3.882812 -0.890625 4.21875 -0.941406 4.53125 -1.046875 C 4.851562 -1.160156 5.09375 -1.285156 5.25 -1.421875 L 5.734375 -0.609375 C 5.585938 -0.492188 5.394531 -0.378906 5.15625 -0.265625 C 4.914062 -0.160156 4.648438 -0.0703125 4.359375 0 C 4.066406 0.0625 3.78125 0.09375 3.5 0.09375 Z M 4.8125 -3.625 C 4.8125 -3.9375 4.75 -4.210938 4.625 -4.453125 C 4.5 -4.691406 4.332031 -4.878906 4.125 -5.015625 C 3.914062 -5.148438 3.675781 -5.21875 3.40625 -5.21875 C 3.132812 -5.21875 2.882812 -5.148438 2.65625 -5.015625 C 2.425781 -4.878906 2.242188 -4.691406 2.109375 -4.453125 C 1.972656 -4.210938 1.90625 -3.9375 1.90625 -3.625 Z M 4.8125 -3.625 "/>
</g>
<g id="glyph-8-3-51df0e13">
<path d="M 3.296875 0.09375 C 2.765625 0.09375 2.304688 -0.03125 1.921875 -0.28125 C 1.535156 -0.539062 1.238281 -0.90625 1.03125 -1.375 C 0.832031 -1.84375 0.734375 -2.390625 0.734375 -3.015625 C 0.734375 -3.660156 0.835938 -4.21875 1.046875 -4.6875 C 1.253906 -5.164062 1.550781 -5.53125 1.9375 -5.78125 C 2.320312 -6.03125 2.78125 -6.15625 3.3125 -6.15625 C 3.832031 -6.15625 4.285156 -6.03125 4.671875 -5.78125 C 5.054688 -5.53125 5.351562 -5.164062 5.5625 -4.6875 C 5.769531 -4.21875 5.875 -3.660156 5.875 -3.015625 C 5.875 -2.390625 5.769531 -1.84375 5.5625 -1.375 C 5.363281 -0.90625 5.070312 -0.539062 4.6875 -0.28125 C 4.300781 -0.03125 3.835938 0.09375 3.296875 0.09375 Z M 3.28125 -0.875 C 3.582031 -0.875 3.84375 -0.957031 4.0625 -1.125 C 4.28125 -1.300781 4.445312 -1.550781 4.5625 -1.875 C 4.675781 -2.195312 4.734375 -2.578125 4.734375 -3.015625 C 4.734375 -3.460938 4.671875 -3.847656 4.546875 -4.171875 C 4.429688 -4.503906 4.265625 -4.757812 4.046875 -4.9375 C 3.828125 -5.113281 3.570312 -5.203125 3.28125 -5.203125 C 2.988281 -5.203125 2.738281 -5.113281 2.53125 -4.9375 C 2.320312 -4.757812 2.160156 -4.503906 2.046875 -4.171875 C 1.929688 -3.847656 1.875 -3.460938 1.875 -3.015625 C 1.875 -2.578125 1.925781 -2.195312 2.03125 -1.875 C 2.144531 -1.550781 2.304688 -1.300781 2.515625 -1.125 C 2.734375 -0.957031 2.988281 -0.875 3.28125 -0.875 Z M 3.28125 -0.875 "/>
</g>
<g id="glyph-8-4-51df0e13">
<path d="M 1.875 -3.3125 C 1.875 -3.832031 1.859375 -4.207031 1.828125 -4.4375 C 1.804688 -4.675781 1.773438 -4.921875 1.734375 -5.171875 L 0.6875 -5.171875 L 0.6875 -6.046875 L 2.625 -6.046875 L 2.765625 -4.984375 C 2.929688 -5.398438 3.171875 -5.703125 3.484375 -5.890625 C 3.796875 -6.078125 4.117188 -6.171875 4.453125 -6.171875 C 4.703125 -6.171875 4.972656 -6.109375 5.265625 -5.984375 C 5.566406 -5.859375 5.804688 -5.707031 5.984375 -5.53125 L 5.359375 -4.765625 C 5.253906 -4.878906 5.101562 -4.976562 4.90625 -5.0625 C 4.71875 -5.144531 4.5 -5.1875 4.25 -5.1875 C 3.832031 -5.1875 3.515625 -4.976562 3.296875 -4.5625 C 3.078125 -4.15625 2.96875 -3.539062 2.96875 -2.71875 L 2.96875 0 L 1.859375 0 Z M 1.875 -3.3125 "/>
</g>
<g id="glyph-8-5-51df0e13">
<path d="M 4.1875 0.078125 C 3.601562 0.078125 3.175781 -0.0390625 2.90625 -0.28125 C 2.644531 -0.53125 2.515625 -0.894531 2.515625 -1.375 L 2.515625 -5.140625 L 0.828125 -5.140625 L 0.828125 -6.046875 L 2.515625 -6.046875 L 2.515625 -8.0625 L 3.609375 -8.0625 L 3.609375 -6.046875 L 5.296875 -6.046875 L 5.296875 -5.140625 L 3.609375 -5.140625 L 3.609375 -1.8125 C 3.609375 -1.5625 3.640625 -1.367188 3.703125 -1.234375 C 3.765625 -1.097656 3.863281 -1.003906 4 -0.953125 C 4.132812 -0.898438 4.328125 -0.875 4.578125 -0.875 C 4.691406 -0.875 4.859375 -0.890625 5.078125 -0.921875 C 5.304688 -0.953125 5.503906 -0.988281 5.671875 -1.03125 L 5.671875 -0.09375 C 5.492188 -0.0507812 5.253906 -0.0117188 4.953125 0.015625 C 4.648438 0.0546875 4.394531 0.078125 4.1875 0.078125 Z M 4.1875 0.078125 "/>
</g>
<g id="glyph-8-6-51df0e13">
<path d="M 1.109375 -6.046875 L 3.9375 -6.046875 L 3.9375 -0.890625 L 5.609375 -0.890625 L 5.609375 0 L 1.015625 0 L 1.015625 -0.890625 L 2.828125 -0.890625 L 2.828125 -5.203125 L 1.109375 -5.203125 Z M 3.265625 -7.15625 C 2.972656 -7.15625 2.765625 -7.210938 2.640625 -7.328125 C 2.523438 -7.453125 2.46875 -7.65625 2.46875 -7.9375 C 2.46875 -8.226562 2.523438 -8.429688 2.640625 -8.546875 C 2.765625 -8.671875 2.972656 -8.734375 3.265625 -8.734375 C 3.546875 -8.734375 3.742188 -8.671875 3.859375 -8.546875 C 3.984375 -8.429688 4.046875 -8.226562 4.046875 -7.9375 C 4.046875 -7.65625 3.984375 -7.453125 3.859375 -7.328125 C 3.742188 -7.210938 3.546875 -7.15625 3.265625 -7.15625 Z M 3.265625 -7.15625 "/>
</g>
<g id="glyph-8-7-51df0e13">
<path d="M 3.59375 0.078125 C 3.03125 0.078125 2.53125 -0.0390625 2.09375 -0.28125 C 1.664062 -0.53125 1.328125 -0.890625 1.078125 -1.359375 C 0.828125 -1.828125 0.703125 -2.378906 0.703125 -3.015625 C 0.703125 -3.640625 0.828125 -4.1875 1.078125 -4.65625 C 1.328125 -5.132812 1.675781 -5.5 2.125 -5.75 C 2.582031 -6 3.097656 -6.125 3.671875 -6.125 C 4.140625 -6.125 4.546875 -6.03125 4.890625 -5.84375 C 5.234375 -5.664062 5.507812 -5.441406 5.71875 -5.171875 L 5.015625 -4.484375 C 4.816406 -4.691406 4.617188 -4.851562 4.421875 -4.96875 C 4.222656 -5.082031 3.984375 -5.140625 3.703125 -5.140625 C 3.335938 -5.140625 3.015625 -5.050781 2.734375 -4.875 C 2.460938 -4.695312 2.25 -4.445312 2.09375 -4.125 C 1.9375 -3.8125 1.859375 -3.453125 1.859375 -3.046875 C 1.859375 -2.628906 1.9375 -2.257812 2.09375 -1.9375 C 2.25 -1.613281 2.460938 -1.363281 2.734375 -1.1875 C 3.003906 -1.007812 3.300781 -0.921875 3.625 -0.921875 C 3.90625 -0.921875 4.171875 -0.992188 4.421875 -1.140625 C 4.671875 -1.296875 4.894531 -1.484375 5.09375 -1.703125 L 5.78125 -1.015625 C 5.507812 -0.691406 5.203125 -0.425781 4.859375 -0.21875 C 4.515625 -0.0195312 4.09375 0.078125 3.59375 0.078125 Z M 3.59375 0.078125 "/>
</g>
<g id="glyph-8-8-51df0e13">
<path d="M 2.625 0.109375 C 2.21875 0.109375 1.867188 0.0390625 1.578125 -0.09375 C 1.285156 -0.238281 1.0625 -0.441406 0.90625 -0.703125 C 0.757812 -0.960938 0.6875 -1.273438 0.6875 -1.640625 C 0.6875 -2.410156 0.988281 -2.9375 1.59375 -3.21875 C 2.207031 -3.507812 2.957031 -3.65625 3.84375 -3.65625 L 4.5 -3.65625 L 4.5 -3.9375 C 4.5 -4.257812 4.414062 -4.550781 4.25 -4.8125 C 4.082031 -5.082031 3.75 -5.21875 3.25 -5.21875 C 3.019531 -5.21875 2.804688 -5.1875 2.609375 -5.125 C 2.421875 -5.070312 2.253906 -5.003906 2.109375 -4.921875 C 1.960938 -4.835938 1.78125 -4.722656 1.5625 -4.578125 L 1.03125 -5.3125 C 1.375 -5.5625 1.71875 -5.757812 2.0625 -5.90625 C 2.414062 -6.050781 2.847656 -6.125 3.359375 -6.125 C 4.242188 -6.125 4.835938 -5.90625 5.140625 -5.46875 C 5.441406 -5.039062 5.59375 -4.53125 5.59375 -3.9375 L 5.59375 -1.71875 C 5.59375 -1.226562 5.628906 -0.65625 5.703125 0 L 4.609375 0 C 4.585938 -0.15625 4.570312 -0.363281 4.5625 -0.625 L 4.546875 -0.796875 C 4.359375 -0.484375 4.09375 -0.253906 3.75 -0.109375 C 3.40625 0.0351562 3.03125 0.109375 2.625 0.109375 Z M 2.90625 -0.734375 C 3.457031 -0.734375 3.859375 -0.914062 4.109375 -1.28125 C 4.367188 -1.65625 4.5 -2.164062 4.5 -2.8125 L 4.078125 -2.828125 C 3.535156 -2.828125 3.097656 -2.785156 2.765625 -2.703125 C 2.429688 -2.628906 2.179688 -2.507812 2.015625 -2.34375 C 1.859375 -2.175781 1.78125 -1.957031 1.78125 -1.6875 C 1.78125 -1.351562 1.878906 -1.109375 2.078125 -0.953125 C 2.273438 -0.804688 2.550781 -0.734375 2.90625 -0.734375 Z M 2.90625 -0.734375 "/>
</g>
<g id="glyph-8-9-51df0e13">
<path d="M 4.515625 0.125 C 3.828125 0.125 3.3125 -0.0390625 2.96875 -0.375 C 2.632812 -0.707031 2.46875 -1.210938 2.46875 -1.890625 L 2.46875 -7.78125 L 0.578125 -7.78125 L 0.578125 -8.6875 L 3.5625 -8.6875 L 3.5625 -2.171875 C 3.5625 -1.742188 3.65625 -1.425781 3.84375 -1.21875 C 4.03125 -1.007812 4.273438 -0.90625 4.578125 -0.90625 C 4.785156 -0.90625 4.96875 -0.953125 5.125 -1.046875 C 5.289062 -1.148438 5.460938 -1.296875 5.640625 -1.484375 L 6.296875 -0.71875 C 6.078125 -0.476562 5.816406 -0.273438 5.515625 -0.109375 C 5.222656 0.0429688 4.890625 0.125 4.515625 0.125 Z M 4.515625 0.125 "/>
</g>
<g id="glyph-8-10-51df0e13">
</g>
<g id="glyph-8-11-51df0e13">
<path d="M 0.5 -7.96875 L 1.578125 -7.96875 L 1.96875 -1.640625 L 2.125 -1.515625 L 2.90625 -6.078125 L 3.703125 -6.078125 L 4.484375 -1.515625 L 4.640625 -1.640625 L 5 -7.96875 L 6.078125 -7.96875 L 5.390625 0 L 3.921875 0 L 3.375 -3.46875 L 3.34375 -3.703125 L 3.25 -3.703125 L 3.21875 -3.46875 L 2.609375 0 L 1.171875 0 Z M 0.5 -7.96875 "/>
</g>
<g id="glyph-8-12-51df0e13">
<path d="M 3.609375 0.109375 C 3.242188 0.109375 2.929688 0.0429688 2.671875 -0.078125 C 2.421875 -0.203125 2.191406 -0.414062 1.984375 -0.71875 L 1.953125 0 L 0.875 0 C 0.894531 -0.5 0.90625 -0.941406 0.90625 -1.328125 L 0.90625 -8.6875 L 2.03125 -8.6875 L 2.03125 -5.0625 C 2.226562 -5.394531 2.46875 -5.648438 2.75 -5.828125 C 3.03125 -6.003906 3.335938 -6.09375 3.671875 -6.09375 C 4.171875 -6.09375 4.582031 -5.953125 4.90625 -5.671875 C 5.226562 -5.390625 5.460938 -5.003906 5.609375 -4.515625 C 5.753906 -4.035156 5.828125 -3.488281 5.828125 -2.875 C 5.828125 -2.351562 5.742188 -1.863281 5.578125 -1.40625 C 5.410156 -0.957031 5.160156 -0.59375 4.828125 -0.3125 C 4.492188 -0.03125 4.085938 0.109375 3.609375 0.109375 Z M 3.328125 -0.71875 C 3.660156 -0.71875 3.929688 -0.820312 4.140625 -1.03125 C 4.347656 -1.238281 4.492188 -1.5 4.578125 -1.8125 C 4.671875 -2.132812 4.71875 -2.472656 4.71875 -2.828125 C 4.71875 -3.515625 4.613281 -4.070312 4.40625 -4.5 C 4.207031 -4.9375 3.878906 -5.15625 3.421875 -5.15625 C 3.085938 -5.15625 2.8125 -5.050781 2.59375 -4.84375 C 2.375 -4.632812 2.210938 -4.351562 2.109375 -4 C 2.015625 -3.644531 1.96875 -3.25 1.96875 -2.8125 C 1.96875 -2.46875 2.015625 -2.140625 2.109375 -1.828125 C 2.203125 -1.515625 2.347656 -1.25 2.546875 -1.03125 C 2.742188 -0.820312 3.003906 -0.71875 3.328125 -0.71875 Z M 3.328125 -0.71875 "/>
</g>
<g id="glyph-8-13-51df0e13">
<path d="M 2.765625 0.078125 C 2.140625 0.078125 1.671875 -0.109375 1.359375 -0.484375 C 1.046875 -0.867188 0.890625 -1.414062 0.890625 -2.125 L 0.890625 -6.046875 L 2 -6.046875 L 2 -2.390625 C 2 -2.046875 2.023438 -1.757812 2.078125 -1.53125 C 2.128906 -1.3125 2.234375 -1.132812 2.390625 -1 C 2.554688 -0.863281 2.800781 -0.796875 3.125 -0.796875 C 3.445312 -0.796875 3.710938 -0.878906 3.921875 -1.046875 C 4.140625 -1.222656 4.296875 -1.453125 4.390625 -1.734375 C 4.492188 -2.015625 4.546875 -2.320312 4.546875 -2.65625 L 4.546875 -6.046875 L 5.671875 -6.046875 L 5.671875 -1.3125 C 5.671875 -1.070312 5.679688 -0.785156 5.703125 -0.453125 L 5.71875 0 L 4.640625 0 L 4.59375 -0.734375 C 4.382812 -0.441406 4.128906 -0.234375 3.828125 -0.109375 C 3.535156 0.0117188 3.179688 0.078125 2.765625 0.078125 Z M 2.765625 0.078125 "/>
</g>
</g>
</defs>
<rect x="-60" y="-45" width="720" height="540" fill="rgb(94.117647%, 92.941177%, 89.019608%)" fill-opacity="1"/>
<path fill-rule="nonzero" fill="rgb(94.117647%, 92.941177%, 89.019608%)" fill-opacity="1" d="M 60 399 L 584 399 L 584 16 L 60 16 Z M 60 399 "/>
<path fill="none" stroke-width="1" stroke-linecap="butt" stroke-linejoin="miter" stroke="rgb(71.372551%, 67.843139%, 56.470591%)" stroke-opacity="0.3" stroke-miterlimit="1.154701" d="M 81.113281 399 L 81.113281 16 "/>
<path fill="none" stroke-width="1" stroke-linecap="butt" stroke-linejoin="miter" stroke="rgb(71.372551%, 67.843139%, 56.470591%)" stroke-opacity="0.3" stroke-miterlimit="1.154701" d="M 184.453125 399 L 184.453125 16 "/>
<path fill="none" stroke-width="1" stroke-linecap="butt" stroke-linejoin="miter" stroke="rgb(71.372551%, 67.843139%, 56.470591%)" stroke-opacity="0.3" stroke-miterlimit="1.154701" d="M 287.792969 399 L 287.792969 16 "/>
<path fill="none" stroke-width="1" stroke-linecap="butt" stroke-linejoin="miter" stroke="rgb(71.372551%, 67.843139%, 56.470591%)" stroke-opacity="0.3" stroke-miterlimit="1.154701" d="M 391.132812 399 L 391.132812 16 "/>
<path fill="none" stroke-width="1" stroke-linecap="butt" stroke-linejoin="miter" stroke="rgb(71.372551%, 67.843139%, 56.470591%)" stroke-opacity="0.3" stroke-miterlimit="1.154701" d="M 494.472656 399 L 494.472656 16 "/>
<path fill="none" stroke-width="1" stroke-linecap="butt" stroke-linejoin="miter" stroke="rgb(71.372551%, 67.843139%, 56.470591%)" stroke-opacity="0.12" stroke-miterlimit="1.154701" d="M 132.785156 399 L 132.785156 16 "/>
<path fill="none" stroke-width="1" stroke-linecap="butt" stroke-linejoin="miter" stroke="rgb(71.372551%, 67.843139%, 56.470591%)" stroke-opacity="0.12" stroke-miterlimit="1.154701" d="M 236.125 399 L 236.125 16 "/>
<path fill="none" stroke-width="1" stroke-linecap="butt" stroke-linejoin="miter" stroke="rgb(71.372551%, 67.843139%, 56.470591%)" stroke-opacity="0.12" stroke-miterlimit="1.154701" d="M 339.460938 399 L 339.460938 16 "/>
<path fill="none" stroke-width="1" stroke-linecap="butt" stroke-linejoin="miter" stroke="rgb(71.372551%, 67.843139%, 56.470591%)" stroke-opacity="0.12" stroke-miterlimit="1.154701" d="M 442.800781 399 L 442.800781 16 "/>
<path fill="none" stroke-width="1" stroke-linecap="butt" stroke-linejoin="miter" stroke="rgb(71.372551%, 67.843139%, 56.470591%)" stroke-opacity="0.12" stroke-miterlimit="1.154701" d="M 546.140625 399 L 546.140625 16 "/>
<path fill="none" stroke-width="1" stroke-linecap="butt" stroke-linejoin="miter" stroke="rgb(71.372551%, 67.843139%, 56.470591%)" stroke-opacity="0.3" stroke-miterlimit="1.154701" d="M 60 381.589844 L 584 381.589844 "/>
<path fill="none" stroke-width="1" stroke-linecap="butt" stroke-linejoin="miter" stroke="rgb(71.372551%, 67.843139%, 56.470591%)" stroke-opacity="0.3" stroke-miterlimit="1.154701" d="M 60 205.742188 L 584 205.742188 "/>
<path fill="none" stroke-width="1" stroke-linecap="butt" stroke-linejoin="miter" stroke="rgb(71.372551%, 67.843139%, 56.470591%)" stroke-opacity="0.3" stroke-miterlimit="1.154701" d="M 60 29.890625 L 584 29.890625 "/>
<path fill="none" stroke-width="1" stroke-linecap="butt" stroke-linejoin="miter" stroke="rgb(71.372551%, 67.843139%, 56.470591%)" stroke-opacity="0.12" stroke-miterlimit="1.154701" d="M 60 293.667969 L 584 293.667969 "/>
<path fill="none" stroke-width="1" stroke-linecap="butt" stroke-linejoin="miter" stroke="rgb(71.372551%, 67.843139%, 56.470591%)" stroke-opacity="0.12" stroke-miterlimit="1.154701" d="M 60 117.816406 L 584 117.816406 "/>
<g fill="rgb(10.588235%, 16.470589%, 22.745098%)" fill-opacity="1">
<use xlink:href="#glyph-0-0-51df0e13" x="307.600007" y="432.424999"/>
<use xlink:href="#glyph-0-1-51df0e13" x="314.800007" y="432.424999"/>
<use xlink:href="#glyph-0-2-51df0e13" x="322.000008" y="432.424999"/>
<use xlink:href="#glyph-0-3-51df0e13" x="329.200008" y="432.424999"/>
</g>
<g fill="rgb(10.588235%, 16.470589%, 22.745098%)" fill-opacity="1">
<use xlink:href="#glyph-1-0-51df0e13" x="71.214938" y="412.549997"/>
<use xlink:href="#glyph-1-1-51df0e13" x="77.814939" y="412.549997"/>
<use xlink:href="#glyph-1-2-51df0e13" x="84.414939" y="412.549997"/>
</g>
<g fill="rgb(10.588235%, 16.470589%, 22.745098%)" fill-opacity="1">
<use xlink:href="#glyph-1-2-51df0e13" x="174.553968" y="412.549997"/>
<use xlink:href="#glyph-1-1-51df0e13" x="181.153968" y="412.549997"/>
<use xlink:href="#glyph-1-3-51df0e13" x="187.753969" y="412.549997"/>
</g>
<g fill="rgb(10.588235%, 16.470589%, 22.745098%)" fill-opacity="1">
<use xlink:href="#glyph-1-4-51df0e13" x="277.893005" y="412.549997"/>
<use xlink:href="#glyph-1-1-51df0e13" x="284.493006" y="412.549997"/>
<use xlink:href="#glyph-1-2-51df0e13" x="291.093007" y="412.549997"/>
</g>
<g fill="rgb(10.588235%, 16.470589%, 22.745098%)" fill-opacity="1">
<use xlink:href="#glyph-1-5-51df0e13" x="377.932058" y="412.549997"/>
<use xlink:href="#glyph-1-3-51df0e13" x="384.532058" y="412.549997"/>
<use xlink:href="#glyph-1-1-51df0e13" x="391.132059" y="412.549997"/>
<use xlink:href="#glyph-1-3-51df0e13" x="397.73206" y="412.549997"/>
</g>
<g fill="rgb(10.588235%, 16.470589%, 22.745098%)" fill-opacity="1">
<use xlink:href="#glyph-1-5-51df0e13" x="481.27108" y="412.549997"/>
<use xlink:href="#glyph-1-0-51df0e13" x="487.871081" y="412.549997"/>
<use xlink:href="#glyph-1-1-51df0e13" x="494.471081" y="412.549997"/>
</g>
<g fill="rgb(10.588235%, 16.470589%, 22.745098%)" fill-opacity="1">
<use xlink:href="#glyph-2-0-51df0e13" x="501.071082" y="412.549997"/>
</g>
<g fill="rgb(10.588235%, 16.470589%, 22.745098%)" fill-opacity="1">
<use xlink:href="#glyph-3-0-51df0e13" x="26.399998" y="236.299994"/>
</g>
<g fill="rgb(10.588235%, 16.470589%, 22.745098%)" fill-opacity="1">
<use xlink:href="#glyph-4-0-51df0e13" x="26.399998" y="229.099993"/>
</g>
<g fill="rgb(10.588235%, 16.470589%, 22.745098%)" fill-opacity="1">
<use xlink:href="#glyph-5-0-51df0e13" x="26.399999" y="221.899994"/>
</g>
<g fill="rgb(10.588235%, 16.470589%, 22.745098%)" fill-opacity="1">
<use xlink:href="#glyph-3-1-51df0e13" x="26.399999" y="214.699995"/>
</g>
<g fill="rgb(10.588235%, 16.470589%, 22.745098%)" fill-opacity="1">
<use xlink:href="#glyph-6-0-51df0e13" x="26.4" y="207.499994"/>
</g>
<g fill="rgb(10.588235%, 16.470589%, 22.745098%)" fill-opacity="1">
<use xlink:href="#glyph-3-1-51df0e13" x="26.4" y="200.299996"/>
</g>
<g fill="rgb(10.588235%, 16.470589%, 22.745098%)" fill-opacity="1">
<use xlink:href="#glyph-7-0-51df0e13" x="26.4" y="193.099995"/>
</g>
<g fill="rgb(10.588235%, 16.470589%, 22.745098%)" fill-opacity="1">
<use xlink:href="#glyph-6-1-51df0e13" x="26.400001" y="185.899995"/>
</g>
<g fill="rgb(10.588235%, 16.470589%, 22.745098%)" fill-opacity="1">
<use xlink:href="#glyph-1-3-51df0e13" x="35.100001" y="385.57841"/>
<use xlink:href="#glyph-1-1-51df0e13" x="41.700002" y="385.57841"/>
<use xlink:href="#glyph-1-3-51df0e13" x="48.300002" y="385.57841"/>
</g>
<g fill="rgb(10.588235%, 16.470589%, 22.745098%)" fill-opacity="1">
<use xlink:href="#glyph-1-3-51df0e13" x="35.100001" y="209.728995"/>
<use xlink:href="#glyph-1-1-51df0e13" x="41.700002" y="209.728995"/>
<use xlink:href="#glyph-1-2-51df0e13" x="48.300002" y="209.728995"/>
</g>
<g fill="rgb(10.588235%, 16.470589%, 22.745098%)" fill-opacity="1">
<use xlink:href="#glyph-1-5-51df0e13" x="35.100001" y="33.87958"/>
<use xlink:href="#glyph-1-1-51df0e13" x="41.700002" y="33.87958"/>
<use xlink:href="#glyph-1-3-51df0e13" x="48.300002" y="33.87958"/>
</g>
<path fill="none" stroke-width="2" stroke-linecap="butt" stroke-linejoin="miter" stroke="rgb(78.431374%, 20.784314%, 10.980392%)" stroke-opacity="1" stroke-miterlimit="2" d="M 83.816406 33.410156 L 95.113281 33.410156 L 95.113281 36.925781 L 97.25 36.925781 L 97.25 40.441406 L 97.679688 40.441406 L 97.679688 43.960938 L 99.785156 43.960938 L 99.785156 47.476562 L 113.128906 47.476562 L 113.128906 50.992188 L 126.320312 50.992188 L 126.320312 54.511719 L 127.863281 54.511719 L 127.863281 58.027344 L 131.765625 58.027344 L 131.765625 61.546875 L 132.316406 61.546875 L 132.316406 65.0625 L 141.433594 65.0625 L 141.433594 68.578125 L 142.707031 68.578125 L 142.707031 72.097656 L 143.730469 72.097656 L 143.730469 75.613281 L 148.433594 75.613281 L 148.433594 79.128906 L 150.148438 79.128906 L 150.148438 82.648438 L 156.257812 82.648438 L 156.257812 86.164062 L 157.5625 86.164062 L 157.5625 89.679688 L 160.914062 89.679688 L 160.914062 93.199219 L 165.15625 93.199219 L 165.15625 96.714844 L 166.535156 96.714844 L 166.535156 100.230469 L 172.28125 100.230469 L 172.28125 103.75 L 172.929688 103.75 L 172.929688 107.265625 L 174.273438 107.265625 L 174.273438 110.78125 L 174.421875 110.78125 L 174.421875 114.300781 L 175.914062 114.300781 L 175.914062 117.816406 L 178.191406 117.816406 L 178.191406 121.332031 L 179.832031 121.332031 L 179.832031 124.851562 L 183.820312 124.851562 L 183.820312 128.367188 L 191.742188 128.367188 L 191.742188 131.886719 L 208.269531 131.886719 L 208.269531 135.402344 L 215.496094 135.402344 L 215.496094 138.917969 L 219.949219 138.917969 L 219.949219 142.4375 L 220.558594 142.4375 L 220.558594 146.003906 L 223.921875 146.003906 L 223.921875 149.574219 L 235.195312 149.574219 L 235.195312 153.144531 L 236.886719 153.144531 L 236.886719 156.714844 L 240.847656 156.714844 L 240.847656 160.339844 L 250.1875 160.339844 L 250.1875 163.96875 L 252.261719 163.96875 L 252.261719 167.59375 L 252.308594 167.59375 L 252.308594 171.222656 L 252.410156 171.222656 L 252.410156 174.847656 L 255.214844 174.847656 L 255.214844 178.476562 L 255.425781 178.476562 L 255.425781 182.101562 L 261.316406 182.101562 L 261.316406 185.730469 L 262.605469 185.730469 L 262.605469 189.355469 L 262.621094 189.355469 L 262.621094 192.984375 L 273.074219 192.984375 L 273.074219 196.609375 L 280.808594 196.609375 L 280.808594 200.238281 L 287.066406 200.238281 L 287.066406 203.867188 L 288.953125 203.867188 L 288.953125 207.492188 L 291.074219 207.492188 L 291.074219 211.121094 L 291.332031 211.121094 L 291.332031 214.746094 L 292.035156 214.746094 L 292.035156 218.375 L 293.515625 218.375 L 293.515625 222 L 296.625 222 L 296.625 225.628906 L 296.632812 225.628906 L 296.632812 229.253906 L 298.222656 229.253906 L 298.222656 232.882812 L 299.0625 232.882812 L 299.0625 236.507812 L 300.222656 236.507812 L 300.222656 240.136719 L 311.789062 240.136719 L 311.789062 243.761719 L 313.503906 243.761719 L 313.503906 247.390625 L 313.746094 247.390625 L 313.746094 251.015625 L 314.804688 251.015625 L 314.804688 254.644531 L 315.652344 254.644531 L 315.652344 258.269531 L 317 258.269531 L 317 261.898438 L 322.039062 261.898438 L 322.039062 265.523438 L 325.347656 265.523438 L 325.347656 269.152344 L 331.773438 269.152344 L 331.773438 272.78125 L 336.933594 272.78125 L 336.933594 276.40625 L 337.683594 276.40625 L 337.683594 280.035156 L 339.527344 280.035156 L 339.527344 283.792969 L 357.6875 283.792969 L 357.6875 287.554688 L 361.742188 287.554688 L 361.742188 291.316406 L 363.140625 291.316406 L 363.140625 295.078125 L 364.371094 295.078125 L 364.371094 298.839844 L 367.054688 298.839844 L 367.054688 302.601562 L 378.464844 302.601562 L 378.464844 306.363281 L 379.148438 306.363281 L 379.148438 310.125 L 381.6875 310.125 L 381.6875 313.886719 L 384.625 313.886719 L 384.625 317.648438 L 399.160156 317.648438 L 399.160156 321.644531 L 400.882812 321.644531 L 400.882812 325.640625 L 401.539062 325.640625 L 401.539062 329.636719 L 410.816406 329.636719 L 410.816406 333.632812 L 415.25 333.632812 L 415.25 337.628906 L 416.480469 337.628906 L 416.480469 341.625 L 419.125 341.625 L 419.125 345.621094 L 436.460938 345.621094 L 436.460938 349.617188 L 439.519531 349.617188 L 439.519531 353.617188 L 456.734375 353.617188 L 456.734375 357.613281 L 462.335938 357.613281 L 462.335938 361.609375 L 469.179688 361.609375 L 469.179688 365.605469 L 473.9375 365.605469 L 473.9375 369.601562 L 529.589844 369.601562 L 529.589844 373.597656 L 552.28125 373.597656 L 552.28125 377.59375 L 560.183594 377.59375 L 560.183594 381.589844 "/>
<path fill="none" stroke-width="2" stroke-linecap="butt" stroke-linejoin="miter" stroke="rgb(12.156863%, 30.588236%, 47.450981%)" stroke-opacity="1" stroke-dasharray="6 6" stroke-miterlimit="2" d="M 83.816406 43.535156 L 95.113281 47.851562 L 97.25 48.75 L 97.679688 48.933594 L 99.785156 49.847656 L 113.128906 56.265625 L 126.320312 63.65625 L 127.863281 64.59375 L 131.765625 67.015625 L 132.316406 67.367188 L 141.433594 73.421875 L 142.707031 74.308594 L 143.730469 75.027344 L 148.433594 78.40625 L 150.148438 79.671875 L 156.257812 84.320312 L 157.5625 85.339844 L 160.914062 88.003906 L 165.15625 91.46875 L 166.535156 92.613281 L 172.28125 97.507812 L 172.929688 98.070312 L 174.273438 99.242188 L 174.421875 99.371094 L 175.914062 100.6875 L 178.191406 102.71875 L 179.832031 104.199219 L 183.820312 107.851562 L 191.742188 115.328125 L 208.269531 131.8125 L 215.496094 139.355469 L 219.949219 144.085938 L 220.082031 144.234375 L 220.558594 144.742188 L 223.921875 148.363281 L 235.195312 160.71875 L 236.886719 162.601562 L 239.308594 165.300781 L 240.847656 167.019531 L 250.1875 177.550781 L 252.261719 179.898438 L 252.308594 179.953125 L 252.410156 180.070312 L 255.214844 183.257812 L 255.425781 183.5 L 261.316406 190.214844 L 262.605469 191.683594 L 262.621094 191.703125 L 273.074219 203.640625 L 280.808594 212.445312 L 287.066406 219.527344 L 288.953125 221.65625 L 291.074219 224.042969 L 291.332031 224.332031 L 292.035156 225.121094 L 293.515625 226.777344 L 296.625 230.246094 L 296.632812 230.253906 L 298.222656 232.019531 L 299.0625 232.949219 L 300.222656 234.230469 L 311.789062 246.847656 L 313.503906 248.6875 L 313.746094 248.945312 L 314.804688 250.078125 L 315.652344 250.984375 L 317 252.414062 L 322.039062 257.714844 L 325.347656 261.144531 L 331.773438 267.703125 L 336.933594 272.851562 L 337.683594 273.589844 L 338.023438 273.925781 L 339.527344 275.398438 L 357.6875 292.414062 L 361.742188 296.003906 L 363.140625 297.222656 L 364.371094 298.289062 L 367.054688 300.585938 L 378.464844 309.941406 L 379.148438 310.480469 L 381.6875 312.460938 L 384.625 314.714844 L 395.058594 322.335938 L 399.160156 325.171875 L 400.882812 326.339844 L 401.539062 326.777344 L 410.816406 332.746094 L 415.25 335.4375 L 416.480469 336.167969 L 419.125 337.707031 L 436.460938 346.902344 L 439.519531 348.367188 L 456.734375 355.785156 L 462.335938 357.90625 L 469.179688 360.316406 L 473.9375 361.875 L 529.589844 374.265625 L 552.28125 376.960938 L 560.183594 377.675781 "/>
<path fill-rule="nonzero" fill="rgb(90.196079%, 88.627452%, 83.529413%)" fill-opacity="1" stroke-width="0.9" stroke-linecap="butt" stroke-linejoin="miter" stroke="rgb(10.588235%, 16.470589%, 22.745098%)" stroke-opacity="1" stroke-miterlimit="2" d="M 377 67 L 578 67 L 578 22 L 377 22 Z M 377 67 "/>
<path fill="none" stroke-width="0.9" stroke-linecap="butt" stroke-linejoin="miter" stroke="rgb(10.588235%, 16.470589%, 22.745098%)" stroke-opacity="1" stroke-miterlimit="1.154701" d="M 81.113281 394.550781 L 81.113281 399.550781 "/>
<path fill="none" stroke-width="0.9" stroke-linecap="butt" stroke-linejoin="miter" stroke="rgb(10.588235%, 16.470589%, 22.745098%)" stroke-opacity="1" stroke-miterlimit="1.154701" d="M 184.453125 394.550781 L 184.453125 399.550781 "/>
<path fill="none" stroke-width="0.9" stroke-linecap="butt" stroke-linejoin="miter" stroke="rgb(10.588235%, 16.470589%, 22.745098%)" stroke-opacity="1" stroke-miterlimit="1.154701" d="M 287.792969 394.550781 L 287.792969 399.550781 "/>
<path fill="none" stroke-width="0.9" stroke-linecap="butt" stroke-linejoin="miter" stroke="rgb(10.588235%, 16.470589%, 22.745098%)" stroke-opacity="1" stroke-miterlimit="1.154701" d="M 391.132812 394.550781 L 391.132812 399.550781 "/>
<path fill="none" stroke-width="0.9" stroke-linecap="butt" stroke-linejoin="miter" stroke="rgb(10.588235%, 16.470589%, 22.745098%)" stroke-opacity="1" stroke-miterlimit="1.154701" d="M 494.472656 394.550781 L 494.472656 399.550781 "/>
<path fill="none" stroke-width="1" stroke-linecap="butt" stroke-linejoin="miter" stroke="rgb(23.529412%, 29.019609%, 36.078432%)" stroke-opacity="1" stroke-miterlimit="1.154701" d="M 132.785156 396.550781 L 132.785156 399.550781 "/>
<path fill="none" stroke-width="1" stroke-linecap="butt" stroke-linejoin="miter" stroke="rgb(23.529412%, 29.019609%, 36.078432%)" stroke-opacity="1" stroke-miterlimit="1.154701" d="M 236.125 396.550781 L 236.125 399.550781 "/>
<path fill="none" stroke-width="1" stroke-linecap="butt" stroke-linejoin="miter" stroke="rgb(23.529412%, 29.019609%, 36.078432%)" stroke-opacity="1" stroke-miterlimit="1.154701" d="M 339.460938 396.550781 L 339.460938 399.550781 "/>
<path fill="none" stroke-width="1" stroke-linecap="butt" stroke-linejoin="miter" stroke="rgb(23.529412%, 29.019609%, 36.078432%)" stroke-opacity="1" stroke-miterlimit="1.154701" d="M 442.800781 396.550781 L 442.800781 399.550781 "/>
<path fill="none" stroke-width="1" stroke-linecap="butt" stroke-linejoin="miter" stroke="rgb(23.529412%, 29.019609%, 36.078432%)" stroke-opacity="1" stroke-miterlimit="1.154701" d="M 546.140625 396.550781 L 546.140625 399.550781 "/>
<path fill="none" stroke-width="0.9" stroke-linecap="butt" stroke-linejoin="miter" stroke="rgb(10.588235%, 16.470589%, 22.745098%)" stroke-opacity="1" stroke-miterlimit="1.154701" d="M 64.449219 381.589844 L 59.449219 381.589844 "/>
<path fill="none" stroke-width="0.9" stroke-linecap="butt" stroke-linejoin="miter" stroke="rgb(10.588235%, 16.470589%, 22.745098%)" stroke-opacity="1" stroke-miterlimit="1.154701" d="M 64.449219 205.742188 L 59.449219 205.742188 "/>
<path fill="none" stroke-width="0.9" stroke-linecap="butt" stroke-linejoin="miter" stroke="rgb(10.588235%, 16.470589%, 22.745098%)" stroke-opacity="1" stroke-miterlimit="1.154701" d="M 64.449219 29.890625 L 59.449219 29.890625 "/>
<path fill="none" stroke-width="1" stroke-linecap="butt" stroke-linejoin="miter" stroke="rgb(23.529412%, 29.019609%, 36.078432%)" stroke-opacity="1" stroke-miterlimit="1.154701" d="M 62.449219 293.667969 L 59.449219 293.667969 "/>
<path fill="none" stroke-width="1" stroke-linecap="butt" stroke-linejoin="miter" stroke="rgb(23.529412%, 29.019609%, 36.078432%)" stroke-opacity="1" stroke-miterlimit="1.154701" d="M 62.449219 117.816406 L 59.449219 117.816406 "/>
<path fill="none" stroke-width="2" stroke-linecap="butt" stroke-linejoin="miter" stroke="rgb(78.431374%, 20.784314%, 10.980392%)" stroke-opacity="1" stroke-miterlimit="2" d="M 386.800781 36.539062 L 404.800781 36.539062 "/>
<path fill="none" stroke-width="2" stroke-linecap="butt" stroke-linejoin="miter" stroke="rgb(12.156863%, 30.588236%, 47.450981%)" stroke-opacity="1" stroke-dasharray="6 6" stroke-miterlimit="2" d="M 386.800781 52.460938 L 404.800781 52.460938 "/>
<g fill="rgb(10.588235%, 16.470589%, 22.745098%)" fill-opacity="1">
<use xlink:href="#glyph-1-6-51df0e13" x="409.800005" y="40.524966"/>
<use xlink:href="#glyph-1-7-51df0e13" x="416.400004" y="40.524966"/>
<use xlink:href="#glyph-1-8-51df0e13" x="423.00001" y="40.524966"/>
<use xlink:href="#glyph-1-9-51df0e13" x="429.600009" y="40.524966"/>
<use xlink:href="#glyph-1-10-51df0e13" x="436.200008" y="40.524966"/>
<use xlink:href="#glyph-1-9-51df0e13" x="442.800006" y="40.524966"/>
<use xlink:href="#glyph-1-11-51df0e13" x="449.400005" y="40.524966"/>
<use xlink:href="#glyph-1-12-51df0e13" x="456.000003" y="40.524966"/>
<use xlink:href="#glyph-1-13-51df0e13" x="462.600002" y="40.524966"/>
<use xlink:href="#glyph-1-14-51df0e13" x="469.200001" y="40.524966"/>
<use xlink:href="#glyph-1-15-51df0e13" x="475.799999" y="40.524966"/>
<use xlink:href="#glyph-1-16-51df0e13" x="482.399998" y="40.524966"/>
<use xlink:href="#glyph-1-12-51df0e13" x="488.999997" y="40.524966"/>
<use xlink:href="#glyph-1-8-51df0e13" x="495.599995" y="40.524966"/>
</g>
<g fill="rgb(10.588235%, 16.470589%, 22.745098%)" fill-opacity="1">
<use xlink:href="#glyph-2-1-51df0e13" x="502.199994" y="40.524966"/>
<use xlink:href="#glyph-2-2-51df0e13" x="508.799992" y="40.524966"/>
</g>
<g fill="rgb(10.588235%, 16.470589%, 22.745098%)" fill-opacity="1">
<use xlink:href="#glyph-1-17-51df0e13" x="515.399991" y="40.524966"/>
<use xlink:href="#glyph-1-18-51df0e13" x="521.99999" y="40.524966"/>
<use xlink:href="#glyph-1-19-51df0e13" x="528.599988" y="40.524966"/>
<use xlink:href="#glyph-1-20-51df0e13" x="535.199987" y="40.524966"/>
<use xlink:href="#glyph-1-9-51df0e13" x="541.799993" y="40.524966"/>
<use xlink:href="#glyph-1-20-51df0e13" x="548.4" y="40.524966"/>
<use xlink:href="#glyph-1-10-51df0e13" x="555.000006" y="40.524966"/>
<use xlink:href="#glyph-1-21-51df0e13" x="561.600012" y="40.524966"/>
</g>
<g fill="rgb(10.588235%, 16.470589%, 22.745098%)" fill-opacity="1">
<use xlink:href="#glyph-8-0-51df0e13" x="409.79999" y="56.449954"/>
<use xlink:href="#glyph-8-1-51df0e13" x="416.399989" y="56.449954"/>
<use xlink:href="#glyph-8-2-51df0e13" x="422.999991" y="56.449954"/>
<use xlink:href="#glyph-8-3-51df0e13" x="429.599994" y="56.449954"/>
<use xlink:href="#glyph-8-4-51df0e13" x="436.199992" y="56.449954"/>
<use xlink:href="#glyph-8-2-51df0e13" x="442.799991" y="56.449954"/>
<use xlink:href="#glyph-8-5-51df0e13" x="449.39999" y="56.449954"/>
<use xlink:href="#glyph-8-6-51df0e13" x="455.999988" y="56.449954"/>
<use xlink:href="#glyph-8-7-51df0e13" x="462.599987" y="56.449954"/>
<use xlink:href="#glyph-8-8-51df0e13" x="469.199985" y="56.449954"/>
<use xlink:href="#glyph-8-9-51df0e13" x="475.799984" y="56.449954"/>
<use xlink:href="#glyph-8-10-51df0e13" x="482.399983" y="56.449954"/>
<use xlink:href="#glyph-8-11-51df0e13" x="488.999981" y="56.449954"/>
<use xlink:href="#glyph-8-2-51df0e13" x="495.59998" y="56.449954"/>
<use xlink:href="#glyph-8-6-51df0e13" x="502.199979" y="56.449954"/>
<use xlink:href="#glyph-8-12-51df0e13" x="508.799977" y="56.449954"/>
<use xlink:href="#glyph-8-13-51df0e13" x="515.399976" y="56.449954"/>
<use xlink:href="#glyph-8-9-51df0e13" x="521.999974" y="56.449954"/>
<use xlink:href="#glyph-8-9-51df0e13" x="528.599973" y="56.449954"/>
</g>
<path fill="none" stroke-width="1.1" stroke-linecap="butt" stroke-linejoin="miter" stroke="rgb(10.588235%, 16.470589%, 22.745098%)" stroke-opacity="1" stroke-miterlimit="1.154701" d="M 59.449219 399 L 584.550781 399 "/>
<path fill="none" stroke-width="1.1" stroke-linecap="butt" stroke-linejoin="miter" stroke="rgb(10.588235%, 16.470589%, 22.745098%)" stroke-opacity="1" stroke-miterlimit="1.154701" d="M 60 399.550781 L 60 15.449219 "/>
<path fill="none" stroke-width="1.1" stroke-linecap="butt" stroke-linejoin="miter" stroke="rgb(10.588235%, 16.470589%, 22.745098%)" stroke-opacity="1" stroke-miterlimit="1.154701" d="M 59.449219 16 L 584.550781 16 "/>
<path fill="none" stroke-width="1.1" stroke-linecap="butt" stroke-linejoin="miter" stroke="rgb(10.588235%, 16.470589%, 22.745098%)" stroke-opacity="1" stroke-miterlimit="1.154701" d="M 584 399.550781 L 584 15.449219 "/>
</svg>
