<?xml version="1.0" encoding="UTF-8"?>
<svg xmlns="http://www.w3.org/2000/svg" xmlns:xlink="http://www.w3.org/1999/xlink" width="600" height="450" viewBox="0 0 600 450">
<defs>
<g>
<g id="glyph-0-0-8a6e38b5">
<path d="M 4.5625 0.078125 C 3.925781 0.078125 3.460938 -0.0507812 3.171875 -0.3125 C 2.878906 -0.582031 2.734375 -0.976562 2.734375 -1.5 L 2.734375 -5.609375 L 0.90625 -5.609375 L 0.90625 -6.59375 L 2.734375 -6.59375 L 2.734375 -8.796875 L 3.9375 -8.796875 L 3.9375 -6.59375 L 5.78125 -6.59375 L 5.78125 -5.609375 L 3.9375 -5.609375 L 3.9375 -1.984375 C 3.9375 -1.703125 3.96875 -1.488281 4.03125 -1.34375 C 4.101562 -1.195312 4.210938 -1.09375 4.359375 -1.03125 C 4.503906 -0.976562 4.710938 -0.953125 4.984375 -0.953125 C 5.117188 -0.953125 5.304688 -0.96875 5.546875 -1 C 5.796875 -1.039062 6.007812 -1.082031 6.1875 -1.125 L 6.1875 -0.109375 C 5.988281 -0.0546875 5.722656 -0.0117188 5.390625 0.015625 C 5.066406 0.0546875 4.789062 0.078125 4.5625 0.078125 Z M 4.5625 0.078125 "/>
</g>
<g id="glyph-0-1-8a6e38b5">
<path d="M 1.21875 -6.59375 L 4.296875 -6.59375 L 4.296875 -0.96875 L 6.125 -0.96875 L 6.125 0 L 1.109375 0 L 1.109375 -0.96875 L 3.078125 -0.96875 L 3.078125 -5.671875 L 1.21875 -5.671875 Z M 3.5625 -7.796875 C 3.25 -7.796875 3.023438 -7.863281 2.890625 -8 C 2.753906 -8.132812 2.6875 -8.351562 2.6875 -8.65625 C 2.6875 -8.976562 2.753906 -9.203125 2.890625 -9.328125 C 3.023438 -9.460938 3.25 -9.53125 3.5625 -9.53125 C 3.875 -9.53125 4.09375 -9.460938 4.21875 -9.328125 C 4.351562 -9.203125 4.421875 -8.976562 4.421875 -8.65625 C 4.421875 -8.351562 4.351562 -8.132812 4.21875 -8 C 4.09375 -7.863281 3.875 -7.796875 3.5625 -7.796875 Z M 3.5625 -7.796875 "/>
</g>
<g id="glyph-0-2-8a6e38b5">
<path d="M 0.5625 -5.125 C 0.5625 -5.507812 0.535156 -6 0.484375 -6.59375 L 1.609375 -6.59375 L 1.6875 -5.859375 C 1.800781 -6.140625 1.953125 -6.347656 2.140625 -6.484375 C 2.328125 -6.628906 2.550781 -6.703125 2.8125 -6.703125 C 3.382812 -6.703125 3.726562 -6.335938 3.84375 -5.609375 C 3.9375 -6.015625 4.109375 -6.296875 4.359375 -6.453125 C 4.609375 -6.617188 4.898438 -6.703125 5.234375 -6.703125 C 5.515625 -6.703125 5.765625 -6.625 5.984375 -6.46875 C 6.203125 -6.3125 6.375 -6.082031 6.5 -5.78125 C 6.632812 -5.476562 6.703125 -5.113281 6.703125 -4.6875 L 6.703125 0 L 5.484375 0 L 5.484375 -4.484375 C 5.484375 -4.910156 5.4375 -5.21875 5.34375 -5.40625 C 5.257812 -5.59375 5.117188 -5.6875 4.921875 -5.6875 C 4.484375 -5.6875 4.265625 -5.316406 4.265625 -4.578125 L 4.265625 0 L 3.03125 0 L 3.03125 -4.484375 C 3.03125 -5.285156 2.816406 -5.6875 2.390625 -5.6875 C 2.191406 -5.6875 2.046875 -5.601562 1.953125 -5.4375 C 1.859375 -5.269531 1.8125 -4.984375 1.8125 -4.578125 L 1.8125 0 L 0.5625 0 Z M 0.5625 -5.125 "/>
</g>
<g id="glyph-0-3-8a6e38b5">
<path d="M 3.8125 0.109375 C 3.257812 0.109375 2.753906 -0.0234375 2.296875 -0.296875 C 1.847656 -0.566406 1.488281 -0.957031 1.21875 -1.46875 C 0.945312 -1.976562 0.8125 -2.578125 0.8125 -3.265625 C 0.8125 -3.929688 0.9375 -4.523438 1.1875 -5.046875 C 1.4375 -5.578125 1.78125 -5.988281 2.21875 -6.28125 C 2.664062 -6.570312 3.164062 -6.71875 3.71875 -6.71875 C 4.582031 -6.71875 5.238281 -6.390625 5.6875 -5.734375 C 6.144531 -5.085938 6.375 -4.164062 6.375 -2.96875 L 2.046875 -2.96875 C 2.054688 -2.3125 2.21875 -1.8125 2.53125 -1.46875 C 2.84375 -1.132812 3.285156 -0.96875 3.859375 -0.96875 C 4.242188 -0.96875 4.609375 -1.03125 4.953125 -1.15625 C 5.296875 -1.28125 5.550781 -1.410156 5.71875 -1.546875 L 6.25 -0.671875 C 6.09375 -0.535156 5.882812 -0.40625 5.625 -0.28125 C 5.363281 -0.164062 5.070312 -0.0703125 4.75 0 C 4.4375 0.0703125 4.125 0.109375 3.8125 0.109375 Z M 5.25 -3.953125 C 5.25 -4.296875 5.179688 -4.597656 5.046875 -4.859375 C 4.910156 -5.117188 4.726562 -5.320312 4.5 -5.46875 C 4.269531 -5.613281 4.007812 -5.6875 3.71875 -5.6875 C 3.414062 -5.6875 3.140625 -5.613281 2.890625 -5.46875 C 2.648438 -5.320312 2.453125 -5.117188 2.296875 -4.859375 C 2.148438 -4.597656 2.078125 -4.296875 2.078125 -3.953125 Z M 5.25 -3.953125 "/>
</g>
<g id="glyph-1-0-8a6e38b5">
<path d="M 1.25 -1.53125 C 1.894531 -2.101562 2.4375 -2.609375 2.875 -3.046875 C 3.3125 -3.492188 3.691406 -3.96875 4.015625 -4.46875 C 4.347656 -4.96875 4.515625 -5.429688 4.515625 -5.859375 C 4.515625 -6.109375 4.460938 -6.328125 4.359375 -6.515625 C 4.265625 -6.703125 4.125 -6.847656 3.9375 -6.953125 C 3.75 -7.054688 3.546875 -7.109375 3.328125 -7.109375 C 3.066406 -7.109375 2.835938 -7.050781 2.640625 -6.9375 C 2.441406 -6.820312 2.285156 -6.65625 2.171875 -6.4375 C 2.054688 -6.21875 2 -5.972656 2 -5.703125 L 0.875 -5.703125 C 0.882812 -6.222656 1 -6.660156 1.21875 -7.015625 C 1.4375 -7.367188 1.726562 -7.632812 2.09375 -7.8125 C 2.46875 -7.988281 2.890625 -8.078125 3.359375 -8.078125 C 3.785156 -8.078125 4.171875 -8 4.515625 -7.84375 C 4.867188 -7.695312 5.15625 -7.457031 5.375 -7.125 C 5.59375 -6.800781 5.703125 -6.398438 5.703125 -5.921875 C 5.703125 -5.429688 5.535156 -4.910156 5.203125 -4.359375 C 4.878906 -3.816406 4.5 -3.3125 4.0625 -2.84375 C 3.632812 -2.382812 3.109375 -1.859375 2.484375 -1.265625 L 2.09375 -0.890625 L 5.78125 -0.890625 L 5.78125 0.046875 L 0.796875 0.046875 L 0.796875 -1.140625 Z M 1.25 -1.53125 "/>
</g>
<g id="glyph-1-1-8a6e38b5">
<path d="M 3.296875 0.234375 C 2.960938 0.234375 2.703125 0.144531 2.515625 -0.03125 C 2.335938 -0.21875 2.25 -0.476562 2.25 -0.8125 C 2.25 -1.144531 2.335938 -1.398438 2.515625 -1.578125 C 2.703125 -1.765625 2.960938 -1.859375 3.296875 -1.859375 C 3.640625 -1.859375 3.898438 -1.765625 4.078125 -1.578125 C 4.253906 -1.398438 4.34375 -1.144531 4.34375 -0.8125 C 4.34375 -0.476562 4.25 -0.21875 4.0625 -0.03125 C 3.882812 0.144531 3.628906 0.234375 3.296875 0.234375 Z M 3.296875 0.234375 "/>
</g>
<g id="glyph-1-2-8a6e38b5">
<path d="M 3.28125 0.109375 C 2.832031 0.109375 2.421875 0.0273438 2.046875 -0.125 C 1.671875 -0.28125 1.375 -0.515625 1.15625 -0.828125 C 0.9375 -1.140625 0.828125 -1.535156 0.828125 -2.015625 L 1.9375 -2.015625 C 1.945312 -1.628906 2.070312 -1.335938 2.3125 -1.140625 C 2.5625 -0.941406 2.863281 -0.84375 3.21875 -0.84375 C 3.507812 -0.84375 3.765625 -0.921875 3.984375 -1.078125 C 4.203125 -1.234375 4.367188 -1.453125 4.484375 -1.734375 C 4.609375 -2.015625 4.671875 -2.328125 4.671875 -2.671875 C 4.671875 -2.992188 4.613281 -3.285156 4.5 -3.546875 C 4.394531 -3.804688 4.238281 -4.007812 4.03125 -4.15625 C 3.832031 -4.300781 3.597656 -4.375 3.328125 -4.375 C 3.003906 -4.375 2.722656 -4.28125 2.484375 -4.09375 C 2.253906 -3.90625 2.097656 -3.648438 2.015625 -3.328125 L 0.90625 -3.328125 L 1.484375 -7.96875 L 5.5625 -7.96875 L 5.5625 -7 L 2.453125 -7 L 2.109375 -4.5625 C 2.316406 -4.820312 2.535156 -5.019531 2.765625 -5.15625 C 3.003906 -5.289062 3.273438 -5.359375 3.578125 -5.359375 C 4.035156 -5.359375 4.429688 -5.238281 4.765625 -5 C 5.109375 -4.757812 5.367188 -4.4375 5.546875 -4.03125 C 5.722656 -3.625 5.8125 -3.164062 5.8125 -2.65625 C 5.8125 -2.113281 5.703125 -1.632812 5.484375 -1.21875 C 5.273438 -0.800781 4.976562 -0.472656 4.59375 -0.234375 C 4.21875 -0.00390625 3.78125 0.109375 3.28125 0.109375 Z M 3.28125 0.109375 "/>
</g>
<g id="glyph-1-3-8a6e38b5">
<path d="M 3.3125 0.109375 C 2.550781 0.109375 1.972656 -0.0507812 1.578125 -0.375 C 1.191406 -0.707031 0.9375 -1.160156 0.8125 -1.734375 C 0.6875 -2.304688 0.625 -3.066406 0.625 -4.015625 C 0.625 -4.941406 0.6875 -5.691406 0.8125 -6.265625 C 0.945312 -6.835938 1.207031 -7.28125 1.59375 -7.59375 C 1.976562 -7.914062 2.550781 -8.078125 3.3125 -8.078125 C 4.0625 -8.078125 4.628906 -7.921875 5.015625 -7.609375 C 5.410156 -7.296875 5.671875 -6.851562 5.796875 -6.28125 C 5.929688 -5.707031 6 -4.953125 6 -4.015625 C 6 -3.066406 5.929688 -2.304688 5.796875 -1.734375 C 5.671875 -1.160156 5.414062 -0.707031 5.03125 -0.375 C 4.644531 -0.0507812 4.070312 0.109375 3.3125 0.109375 Z M 2.59375 -4.015625 L 3.3125 -4.828125 L 4.015625 -4.015625 L 3.3125 -3.28125 Z M 3.3125 -0.8125 C 3.769531 -0.8125 4.113281 -0.929688 4.34375 -1.171875 C 4.582031 -1.421875 4.738281 -1.765625 4.8125 -2.203125 C 4.882812 -2.648438 4.921875 -3.253906 4.921875 -4.015625 C 4.921875 -4.742188 4.882812 -5.328125 4.8125 -5.765625 C 4.738281 -6.203125 4.585938 -6.539062 4.359375 -6.78125 C 4.128906 -7.03125 3.78125 -7.15625 3.3125 -7.15625 C 2.84375 -7.15625 2.488281 -7.03125 2.25 -6.78125 C 2.019531 -6.539062 1.867188 -6.203125 1.796875 -5.765625 C 1.734375 -5.328125 1.703125 -4.742188 1.703125 -4.015625 C 1.703125 -3.265625 1.738281 -2.664062 1.8125 -2.21875 C 1.882812 -1.769531 2.035156 -1.421875 2.265625 -1.171875 C 2.503906 -0.929688 2.851562 -0.8125 3.3125 -0.8125 Z M 3.3125 -0.8125 "/>
</g>
<g id="glyph-1-4-8a6e38b5">
<path d="M 4.671875 -6.96875 L 0.796875 -6.96875 L 0.796875 -7.96875 L 5.859375 -7.96875 L 5.859375 -6.96875 L 2.71875 0 L 1.546875 0 Z M 4.671875 -6.96875 "/>
</g>
<g id="glyph-1-5-8a6e38b5">
<path d="M 1.015625 -0.9375 L 2.9375 -0.9375 L 2.9375 -6.390625 C 2.613281 -6.078125 2.265625 -5.789062 1.890625 -5.53125 C 1.515625 -5.28125 1.164062 -5.109375 0.84375 -5.015625 L 0.84375 -6.078125 C 1.226562 -6.234375 1.625 -6.492188 2.03125 -6.859375 C 2.4375 -7.234375 2.78125 -7.601562 3.0625 -7.96875 L 4 -7.96875 L 4 -0.9375 L 5.765625 -0.9375 L 5.765625 0 L 1.015625 0 Z M 1.015625 -0.9375 "/>
</g>
<g id="glyph-1-6-8a6e38b5">
<path d="M 3.296875 0.09375 C 2.765625 0.09375 2.304688 -0.03125 1.921875 -0.28125 C 1.535156 -0.539062 1.238281 -0.90625 1.03125 -1.375 C 0.832031 -1.84375 0.734375 -2.390625 0.734375 -3.015625 C 0.734375 -3.660156 0.835938 -4.21875 1.046875 -4.6875 C 1.253906 -5.164062 1.550781 -5.53125 1.9375 -5.78125 C 2.320312 -6.03125 2.78125 -6.15625 3.3125 -6.15625 C 3.832031 -6.15625 4.285156 -6.03125 4.671875 -5.78125 C 5.054688 -5.53125 5.351562 -5.164062 5.5625 -4.6875 C 5.769531 -4.21875 5.875 -3.660156 5.875 -3.015625 C 5.875 -2.390625 5.769531 -1.84375 5.5625 -1.375 C 5.363281 -0.90625 5.070312 -0.539062 4.6875 -0.28125 C 4.300781 -0.03125 3.835938 0.09375 3.296875 0.09375 Z M 3.28125 -0.875 C 3.582031 -0.875 3.84375 -0.957031 4.0625 -1.125 C 4.28125 -1.300781 4.445312 -1.550781 4.5625 -1.875 C 4.675781 -2.195312 4.734375 -2.578125 4.734375 -3.015625 C 4.734375 -3.460938 4.671875 -3.847656 4.546875 -4.171875 C 4.429688 -4.503906 4.265625 -4.757812 4.046875 -4.9375 C 3.828125 -5.113281 3.570312 -5.203125 3.28125 -5.203125 C 2.988281 -5.203125 2.738281 -5.113281 2.53125 -4.9375 C 2.320312 -4.757812 2.160156 -4.503906 2.046875 -4.171875 C 1.929688 -3.847656 1.875 -3.460938 1.875 -3.015625 C 1.875 -2.578125 1.925781 -2.195312 2.03125 -1.875 C 2.144531 -1.550781 2.304688 -1.300781 2.515625 -1.125 C 2.734375 -0.957031 2.988281 -0.875 3.28125 -0.875 Z M 3.28125 -0.875 "/>
</g>
<g id="glyph-1-7-8a6e38b5">
<path d="M 3.609375 0.109375 C 3.242188 0.109375 2.929688 0.0429688 2.671875 -0.078125 C 2.421875 -0.203125 2.191406 -0.414062 1.984375 -0.71875 L 1.953125 0 L 0.875 0 C 0.894531 -0.5 0.90625 -0.941406 0.90625 -1.328125 L 0.90625 -8.6875 L 2.03125 -8.6875 L 2.03125 -5.0625 C 2.226562 -5.394531 2.46875 -5.648438 2.75 -5.828125 C 3.03125 -6.003906 3.335938 -6.09375 3.671875 -6.09375 C 4.171875 -6.09375 4.582031 -5.953125 4.90625 -5.671875 C 5.226562 -5.390625 5.460938 -5.003906 5.609375 -4.515625 C 5.753906 -4.035156 5.828125 -3.488281 5.828125 -2.875 C 5.828125 -2.351562 5.742188 -1.863281 5.578125 -1.40625 C 5.410156 -0.957031 5.160156 -0.59375 4.828125 -0.3125 C 4.492188 -0.03125 4.085938 0.109375 3.609375 0.109375 Z M 3.328125 -0.71875 C 3.660156 -0.71875 3.929688 -0.820312 4.140625 -1.03125 C 4.347656 -1.238281 4.492188 -1.5 4.578125 -1.8125 C 4.671875 -2.132812 4.71875 -2.472656 4.71875 -2.828125 C 4.71875 -3.515625 4.613281 -4.070312 4.40625 -4.5 C 4.207031 -4.9375 3.878906 -5.15625 3.421875 -5.15625 C 3.085938 -5.15625 2.8125 -5.050781 2.59375 -4.84375 C 2.375 -4.632812 2.210938 -4.351562 2.109375 -4 C 2.015625 -3.644531 1.96875 -3.25 1.96875 -2.8125 C 1.96875 -2.46875 2.015625 -2.140625 2.109375 -1.828125 C 2.203125 -1.515625 2.347656 -1.25 2.546875 -1.03125 C 2.742188 -0.820312 3.003906 -0.71875 3.328125 -0.71875 Z M 3.328125 -0.71875 "/>
</g>
<g id="glyph-1-8-8a6e38b5">
<path d="M 3.328125 0.0625 C 2.785156 0.0625 2.328125 -0.0234375 1.953125 -0.203125 C 1.578125 -0.390625 1.234375 -0.664062 0.921875 -1.03125 L 1.578125 -1.71875 C 1.773438 -1.53125 1.953125 -1.378906 2.109375 -1.265625 C 2.273438 -1.148438 2.457031 -1.054688 2.65625 -0.984375 C 2.863281 -0.921875 3.101562 -0.890625 3.375 -0.890625 C 3.707031 -0.890625 4 -0.953125 4.25 -1.078125 C 4.507812 -1.210938 4.640625 -1.425781 4.640625 -1.71875 C 4.640625 -1.875 4.59375 -2 4.5 -2.09375 C 4.414062 -2.1875 4.300781 -2.257812 4.15625 -2.3125 C 4.007812 -2.363281 3.796875 -2.421875 3.515625 -2.484375 C 3.359375 -2.523438 3.207031 -2.566406 3.0625 -2.609375 C 2.632812 -2.722656 2.28125 -2.84375 2 -2.96875 C 1.726562 -3.09375 1.507812 -3.269531 1.34375 -3.5 C 1.175781 -3.726562 1.09375 -4.019531 1.09375 -4.375 C 1.09375 -4.75 1.1875 -5.070312 1.375 -5.34375 C 1.570312 -5.613281 1.835938 -5.816406 2.171875 -5.953125 C 2.515625 -6.085938 2.894531 -6.15625 3.3125 -6.15625 C 4.195312 -6.15625 4.890625 -5.898438 5.390625 -5.390625 L 4.734375 -4.671875 C 4.335938 -5.003906 3.878906 -5.171875 3.359375 -5.171875 C 2.992188 -5.171875 2.695312 -5.097656 2.46875 -4.953125 C 2.25 -4.816406 2.140625 -4.632812 2.140625 -4.40625 C 2.140625 -4.21875 2.21875 -4.054688 2.375 -3.921875 C 2.53125 -3.796875 2.71875 -3.695312 2.9375 -3.625 C 3.15625 -3.550781 3.4375 -3.472656 3.78125 -3.390625 L 3.984375 -3.34375 C 4.265625 -3.257812 4.519531 -3.164062 4.75 -3.0625 C 4.976562 -2.96875 5.1875 -2.804688 5.375 -2.578125 C 5.5625 -2.359375 5.65625 -2.066406 5.65625 -1.703125 C 5.65625 -1.285156 5.546875 -0.945312 5.328125 -0.6875 C 5.117188 -0.425781 4.835938 -0.234375 4.484375 -0.109375 C 4.140625 0.00390625 3.753906 0.0625 3.328125 0.0625 Z M 3.328125 0.0625 "/>
</g>
<g id="glyph-1-9-8a6e38b5">
<path d="M 3.5 0.09375 C 2.988281 0.09375 2.523438 -0.0234375 2.109375 -0.265625 C 1.691406 -0.515625 1.359375 -0.875 1.109375 -1.34375 C 0.867188 -1.8125 0.75 -2.359375 0.75 -2.984375 C 0.75 -3.597656 0.863281 -4.144531 1.09375 -4.625 C 1.320312 -5.113281 1.632812 -5.488281 2.03125 -5.75 C 2.4375 -6.019531 2.898438 -6.15625 3.421875 -6.15625 C 4.210938 -6.15625 4.8125 -5.851562 5.21875 -5.25 C 5.632812 -4.65625 5.84375 -3.8125 5.84375 -2.71875 L 1.875 -2.71875 C 1.882812 -2.113281 2.03125 -1.65625 2.3125 -1.34375 C 2.601562 -1.039062 3.007812 -0.890625 3.53125 -0.890625 C 3.882812 -0.890625 4.21875 -0.941406 4.53125 -1.046875 C 4.851562 -1.160156 5.09375 -1.285156 5.25 -1.421875 L 5.734375 -0.609375 C 5.585938 -0.492188 5.394531 -0.378906 5.15625 -0.265625 C 4.914062 -0.160156 4.648438 -0.0703125 4.359375 0 C 4.066406 0.0625 3.78125 0.09375 3.5 0.09375 Z M 4.8125 -3.625 C 4.8125 -3.9375 4.75 -4.210938 4.625 -4.453125 C 4.5 -4.691406 4.332031 -4.878906 4.125 -5.015625 C 3.914062 -5.148438 3.675781 -5.21875 3.40625 -5.21875 C 3.132812 -5.21875 2.882812 -5.148438 2.65625 -5.015625 C 2.425781 -4.878906 2.242188 -4.691406 2.109375 -4.453125 C 1.972656 -4.210938 1.90625 -3.9375 1.90625 -3.625 Z M 4.8125 -3.625 "/>
</g>
<g id="glyph-1-10-8a6e38b5">
<path d="M 0.796875 -6.0625 L 2.046875 -6.0625 L 3.3125 -1.484375 L 4.625 -6.0625 L 5.796875 -6.0625 L 3.9375 0 L 2.65625 0 Z M 0.796875 -6.0625 "/>
</g>
<g id="glyph-1-11-8a6e38b5">
<path d="M 3.03125 0.078125 C 2.519531 0.078125 2.09375 -0.0703125 1.75 -0.375 C 1.40625 -0.675781 1.148438 -1.066406 0.984375 -1.546875 C 0.816406 -2.035156 0.734375 -2.554688 0.734375 -3.109375 C 0.734375 -3.628906 0.820312 -4.117188 1 -4.578125 C 1.1875 -5.046875 1.457031 -5.421875 1.8125 -5.703125 C 2.164062 -5.984375 2.578125 -6.125 3.046875 -6.125 C 3.847656 -6.125 4.398438 -5.84375 4.703125 -5.28125 L 4.703125 -8.6875 L 5.796875 -8.6875 L 5.796875 -1.3125 C 5.796875 -1.175781 5.796875 -1.035156 5.796875 -0.890625 C 5.796875 -0.753906 5.800781 -0.617188 5.8125 -0.484375 L 5.828125 0 L 4.796875 0 L 4.703125 -0.765625 C 4.492188 -0.460938 4.257812 -0.242188 4 -0.109375 C 3.75 0.0117188 3.425781 0.078125 3.03125 0.078125 Z M 3.328125 -0.75 C 3.660156 -0.75 3.925781 -0.867188 4.125 -1.109375 C 4.332031 -1.347656 4.476562 -1.640625 4.5625 -1.984375 C 4.65625 -2.335938 4.703125 -2.695312 4.703125 -3.0625 C 4.703125 -3.425781 4.648438 -3.773438 4.546875 -4.109375 C 4.453125 -4.453125 4.289062 -4.734375 4.0625 -4.953125 C 3.84375 -5.171875 3.566406 -5.28125 3.234375 -5.28125 C 2.921875 -5.28125 2.660156 -5.164062 2.453125 -4.9375 C 2.242188 -4.71875 2.085938 -4.4375 1.984375 -4.09375 C 1.878906 -3.757812 1.828125 -3.421875 1.828125 -3.078125 C 1.828125 -2.710938 1.882812 -2.347656 2 -1.984375 C 2.113281 -1.628906 2.28125 -1.332031 2.5 -1.09375 C 2.726562 -0.863281 3.003906 -0.75 3.328125 -0.75 Z M 3.328125 -0.75 "/>
</g>
<g id="glyph-1-12-8a6e38b5">
<path d="M 2.40625 -4.84375 L 0.84375 -4.84375 L 0.84375 -5.765625 L 2.421875 -5.765625 L 2.421875 -6.8125 C 2.421875 -7.507812 2.597656 -8 2.953125 -8.28125 C 3.316406 -8.5625 3.835938 -8.703125 4.515625 -8.703125 C 5.085938 -8.703125 5.503906 -8.6875 5.765625 -8.65625 L 5.765625 -7.703125 C 5.347656 -7.734375 5.015625 -7.75 4.765625 -7.75 C 4.492188 -7.75 4.269531 -7.722656 4.09375 -7.671875 C 3.914062 -7.617188 3.773438 -7.519531 3.671875 -7.375 C 3.566406 -7.238281 3.515625 -7.039062 3.515625 -6.78125 L 3.515625 -5.765625 L 5.28125 -5.765625 L 5.28125 -4.84375 L 3.515625 -4.84375 L 3.515625 0 L 2.40625 0 Z M 2.40625 -4.84375 "/>
</g>
<g id="glyph-1-13-8a6e38b5">
<path d="M 1.109375 -6.046875 L 3.9375 -6.046875 L 3.9375 -0.890625 L 5.609375 -0.890625 L 5.609375 0 L 1.015625 0 L 1.015625 -0.890625 L 2.828125 -0.890625 L 2.828125 -5.203125 L 1.109375 -5.203125 Z M 3.265625 -7.15625 C 2.972656 -7.15625 2.765625 -7.210938 2.640625 -7.328125 C 2.523438 -7.453125 2.46875 -7.65625 2.46875 -7.9375 C 2.46875 -8.226562 2.523438 -8.429688 2.640625 -8.546875 C 2.765625 -8.671875 2.972656 -8.734375 3.265625 -8.734375 C 3.546875 -8.734375 3.742188 -8.671875 3.859375 -8.546875 C 3.984375 -8.429688 4.046875 -8.226562 4.046875 -7.9375 C 4.046875 -7.65625 3.984375 -7.453125 3.859375 -7.328125 C 3.742188 -7.210938 3.546875 -7.15625 3.265625 -7.15625 Z M 3.265625 -7.15625 "/>
</g>
<g id="glyph-1-14-8a6e38b5">
<path d="M 4.1875 0.078125 C 3.601562 0.078125 3.175781 -0.0390625 2.90625 -0.28125 C 2.644531 -0.53125 2.515625 -0.894531 2.515625 -1.375 L 2.515625 -5.140625 L 0.828125 -5.140625 L 0.828125 -6.046875 L 2.515625 -6.046875 L 2.515625 -8.0625 L 3.609375 -8.0625 L 3.609375 -6.046875 L 5.296875 -6.046875 L 5.296875 -5.140625 L 3.609375 -5.140625 L 3.609375 -1.8125 C 3.609375 -1.5625 3.640625 -1.367188 3.703125 -1.234375 C 3.765625 -1.097656 3.863281 -1.003906 4 -0.953125 C 4.132812 -0.898438 4.328125 -0.875 4.578125 -0.875 C 4.691406 -0.875 4.859375 -0.890625 5.078125 -0.921875 C 5.304688 -0.953125 5.503906 -0.988281 5.671875 -1.03125 L 5.671875 -0.09375 C 5.492188 -0.0507812 5.253906 -0.0117188 4.953125 0.015625 C 4.648438 0.0546875 4.394531 0.078125 4.1875 0.078125 Z M 4.1875 0.078125 "/>
</g>
<g id="glyph-1-15-8a6e38b5">
</g>
<g id="glyph-1-16-8a6e38b5">
<path d="M 0.5 -7.96875 L 1.578125 -7.96875 L 1.96875 -1.640625 L 2.125 -1.515625 L 2.90625 -6.078125 L 3.703125 -6.078125 L 4.484375 -1.515625 L 4.640625 -1.640625 L 5 -7.96875 L 6.078125 -7.96875 L 5.390625 0 L 3.921875 0 L 3.375 -3.46875 L 3.34375 -3.703125 L 3.25 -3.703125 L 3.21875 -3.46875 L 2.609375 0 L 1.171875 0 Z M 0.5 -7.96875 "/>
</g>
<g id="glyph-1-17-8a6e38b5">
<path d="M 2.765625 0.078125 C 2.140625 0.078125 1.671875 -0.109375 1.359375 -0.484375 C 1.046875 -0.867188 0.890625 -1.414062 0.890625 -2.125 L 0.890625 -6.046875 L 2 -6.046875 L 2 -2.390625 C 2 -2.046875 2.023438 -1.757812 2.078125 -1.53125 C 2.128906 -1.3125 2.234375 -1.132812 2.390625 -1 C 2.554688 -0.863281 2.800781 -0.796875 3.125 -0.796875 C 3.445312 -0.796875 3.710938 -0.878906 3.921875 -1.046875 C 4.140625 -1.222656 4.296875 -1.453125 4.390625 -1.734375 C 4.492188 -2.015625 4.546875 -2.320312 4.546875 -2.65625 L 4.546875 -6.046875 L 5.671875 -6.046875 L 5.671875 -1.3125 C 5.671875 -1.070312 5.679688 -0.785156 5.703125 -0.453125 L 5.71875 0 L 4.640625 0 L 4.59375 -0.734375 C 4.382812 -0.441406 4.128906 -0.234375 3.828125 -0.109375 C 3.535156 0.0117188 3.179688 0.078125 2.765625 0.078125 Z M 2.765625 0.078125 "/>
</g>
<g id="glyph-1-18-8a6e38b5">
<path d="M 4.515625 0.125 C 3.828125 0.125 3.3125 -0.0390625 2.96875 -0.375 C 2.632812 -0.707031 2.46875 -1.210938 2.46875 -1.890625 L 2.46875 -7.78125 L 0.578125 -7.78125 L 0.578125 -8.6875 L 3.5625 -8.6875 L 3.5625 -2.171875 C 3.5625 -1.742188 3.65625 -1.425781 3.84375 -1.21875 C 4.03125 -1.007812 4.273438 -0.90625 4.578125 -0.90625 C 4.785156 -0.90625 4.96875 -0.953125 5.125 -1.046875 C 5.289062 -1.148438 5.460938 -1.296875 5.640625 -1.484375 L 6.296875 -0.71875 C 6.078125 -0.476562 5.816406 -0.273438 5.515625 -0.109375 C 5.222656 0.0429688 4.890625 0.125 4.515625 0.125 Z M 4.515625 0.125 "/>
</g>
<g id="glyph-2-0-8a6e38b5">
<path d="M 3.28125 0.109375 C 2.832031 0.109375 2.421875 0.0273438 2.046875 -0.125 C 1.671875 -0.28125 1.375 -0.515625 1.15625 -0.828125 C 0.9375 -1.140625 0.828125 -1.535156 0.828125 -2.015625 L 1.9375 -2.015625 C 1.945312 -1.628906 2.070312 -1.335938 2.3125 -1.140625 C 2.5625 -0.941406 2.863281 -0.84375 3.21875 -0.84375 C 3.507812 -0.84375 3.765625 -0.921875 3.984375 -1.078125 C 4.203125 -1.234375 4.367188 -1.453125 4.484375 -1.734375 C 4.609375 -2.015625 4.671875 -2.328125 4.671875 -2.671875 C 4.671875 -2.992188 4.613281 -3.285156 4.5 -3.546875 C 4.394531 -3.804688 4.238281 -4.007812 4.03125 -4.15625 C 3.832031 -4.300781 3.597656 -4.375 3.328125 -4.375 C 3.003906 -4.375 2.722656 -4.28125 2.484375 -4.09375 C 2.253906 -3.90625 2.097656 -3.648438 2.015625 -3.328125 L 0.90625 -3.328125 L 1.484375 -7.96875 L 5.5625 -7.96875 L 5.5625 -7 L 2.453125 -7 L 2.109375 -4.5625 C 2.316406 -4.820312 2.535156 -5.019531 2.765625 -5.15625 C 3.003906 -5.289062 3.273438 -5.359375 3.578125 -5.359375 C 4.035156 -5.359375 4.429688 -5.238281 4.765625 -5 C 5.109375 -4.757812 5.367188 -4.4375 5.546875 -4.03125 C 5.722656 -3.625 5.8125 -3.164062 5.8125 -2.65625 C 5.8125 -2.113281 5.703125 -1.632812 5.484375 -1.21875 C 5.273438 -0.800781 4.976562 -0.472656 4.59375 -0.234375 C 4.21875 -0.00390625 3.78125 0.109375 3.28125 0.109375 Z M 3.28125 0.109375 "/>
</g>
<g id="glyph-2-1-8a6e38b5">
<path d="M 1.875 -3.3125 C 1.875 -3.832031 1.859375 -4.207031 1.828125 -4.4375 C 1.804688 -4.675781 1.773438 -4.921875 1.734375 -5.171875 L 0.6875 -5.171875 L 0.6875 -6.046875 L 2.625 -6.046875 L 2.765625 -4.984375 C 2.929688 -5.398438 3.171875 -5.703125 3.484375 -5.890625 C 3.796875 -6.078125 4.117188 -6.171875 4.453125 -6.171875 C 4.703125 -6.171875 4.972656 -6.109375 5.265625 -5.984375 C 5.566406 -5.859375 5.804688 -5.707031 5.984375 -5.53125 L 5.359375 -4.765625 C 5.253906 -4.878906 5.101562 -4.976562 4.90625 -5.0625 C 4.71875 -5.144531 4.5 -5.1875 4.25 -5.1875 C 3.832031 -5.1875 3.515625 -4.976562 3.296875 -4.5625 C 3.078125 -4.15625 2.96875 -3.539062 2.96875 -2.71875 L 2.96875 0 L 1.859375 0 Z M 1.875 -3.3125 "/>
</g>
<g id="glyph-3-0-8a6e38b5">
<path d="M 0.0625 -3.625 C 0.0625 -3.039062 -0.0351562 -2.539062 -0.234375 -2.125 C -0.429688 -1.71875 -0.726562 -1.347656 -1.125 -1.015625 L -1.875 -1.71875 C -1.664062 -1.9375 -1.5 -2.132812 -1.375 -2.3125 C -1.25 -2.488281 -1.148438 -2.6875 -1.078125 -2.90625 C -1.003906 -3.132812 -0.96875 -3.394531 -0.96875 -3.6875 C -0.96875 -4.039062 -1.035156 -4.359375 -1.171875 -4.640625 C -1.316406 -4.921875 -1.550781 -5.0625 -1.875 -5.0625 C -2.050781 -5.0625 -2.1875 -5.007812 -2.28125 -4.90625 C -2.382812 -4.8125 -2.460938 -4.6875 -2.515625 -4.53125 C -2.578125 -4.375 -2.644531 -4.140625 -2.71875 -3.828125 C -2.757812 -3.660156 -2.800781 -3.5 -2.84375 -3.34375 C -2.96875 -2.875 -3.097656 -2.488281 -3.234375 -2.1875 C -3.378906 -1.894531 -3.570312 -1.65625 -3.8125 -1.46875 C -4.0625 -1.28125 -4.378906 -1.1875 -4.765625 -1.1875 C -5.179688 -1.1875 -5.535156 -1.289062 -5.828125 -1.5 C -6.117188 -1.71875 -6.335938 -2.007812 -6.484375 -2.375 C -6.640625 -2.738281 -6.71875 -3.15625 -6.71875 -3.625 C -6.71875 -4.582031 -6.441406 -5.335938 -5.890625 -5.890625 L -5.09375 -5.171875 C -5.457031 -4.734375 -5.640625 -4.226562 -5.640625 -3.65625 C -5.640625 -3.269531 -5.5625 -2.953125 -5.40625 -2.703125 C -5.257812 -2.460938 -5.0625 -2.34375 -4.8125 -2.34375 C -4.601562 -2.34375 -4.425781 -2.425781 -4.28125 -2.59375 C -4.144531 -2.757812 -4.035156 -2.960938 -3.953125 -3.203125 C -3.878906 -3.441406 -3.796875 -3.75 -3.703125 -4.125 L -3.640625 -4.34375 C -3.554688 -4.65625 -3.457031 -4.9375 -3.34375 -5.1875 C -3.238281 -5.4375 -3.0625 -5.660156 -2.8125 -5.859375 C -2.570312 -6.066406 -2.253906 -6.171875 -1.859375 -6.171875 C -1.398438 -6.171875 -1.023438 -6.050781 -0.734375 -5.8125 C -0.453125 -5.582031 -0.25 -5.273438 -0.125 -4.890625 C 0 -4.515625 0.0625 -4.09375 0.0625 -3.625 Z M 0.0625 -3.625 "/>
</g>
<g id="glyph-3-1-8a6e38b5">
<path d="M -6.625 -0.875 L -6.625 -2.21875 L -1.625 -3.609375 L -6.625 -5.046875 L -6.625 -6.328125 L 0 -4.296875 L 0 -2.90625 Z M -6.625 -0.875 "/>
</g>
<g id="glyph-4-0-8a6e38b5">
<path d="M 0.09375 -3.03125 C 0.09375 -2.332031 -0.113281 -1.8125 -0.53125 -1.46875 C -0.945312 -1.132812 -1.539062 -0.96875 -2.3125 -0.96875 L -6.59375 -0.96875 L -6.59375 -2.171875 L -2.609375 -2.171875 C -2.234375 -2.171875 -1.921875 -2.195312 -1.671875 -2.25 C -1.429688 -2.3125 -1.234375 -2.429688 -1.078125 -2.609375 C -0.929688 -2.785156 -0.859375 -3.050781 -0.859375 -3.40625 C -0.859375 -3.757812 -0.953125 -4.050781 -1.140625 -4.28125 C -1.328125 -4.519531 -1.570312 -4.691406 -1.875 -4.796875 C -2.1875 -4.910156 -2.523438 -4.96875 -2.890625 -4.96875 L -6.59375 -4.96875 L -6.59375 -6.1875 L -1.421875 -6.1875 C -1.171875 -6.1875 -0.859375 -6.195312 -0.484375 -6.21875 L 0 -6.234375 L 0 -5.0625 L -0.796875 -5.015625 C -0.472656 -4.785156 -0.242188 -4.507812 -0.109375 -4.1875 C 0.0234375 -3.863281 0.09375 -3.476562 0.09375 -3.03125 Z M 0.09375 -3.03125 "/>
</g>
<g id="glyph-5-0-8a6e38b5">
<path d="M -3.609375 -2.046875 C -4.179688 -2.046875 -4.59375 -2.03125 -4.84375 -2 C -5.09375 -1.976562 -5.359375 -1.941406 -5.640625 -1.890625 L -5.640625 -0.75 L -6.59375 -0.75 L -6.59375 -2.859375 L -5.4375 -3.015625 C -5.894531 -3.203125 -6.222656 -3.460938 -6.421875 -3.796875 C -6.628906 -4.140625 -6.734375 -4.492188 -6.734375 -4.859375 C -6.734375 -5.140625 -6.664062 -5.4375 -6.53125 -5.75 C -6.394531 -6.070312 -6.234375 -6.332031 -6.046875 -6.53125 L -5.203125 -5.84375 C -5.316406 -5.726562 -5.421875 -5.566406 -5.515625 -5.359375 C -5.609375 -5.148438 -5.65625 -4.910156 -5.65625 -4.640625 C -5.65625 -4.179688 -5.429688 -3.832031 -4.984375 -3.59375 C -4.535156 -3.363281 -3.863281 -3.25 -2.96875 -3.25 L 0 -3.25 L 0 -2.03125 Z M -3.609375 -2.046875 "/>
</g>
<g id="glyph-6-0-8a6e38b5">
<path d="M -6.59375 -1.21875 L -6.59375 -4.296875 L -0.96875 -4.296875 L -0.96875 -6.125 L 0 -6.125 L 0 -1.109375 L -0.96875 -1.109375 L -0.96875 -3.078125 L -5.671875 -3.078125 L -5.671875 -1.21875 Z M -7.796875 -3.5625 C -7.796875 -3.25 -7.863281 -3.023438 -8 -2.890625 C -8.132812 -2.753906 -8.351562 -2.6875 -8.65625 -2.6875 C -8.976562 -2.6875 -9.203125 -2.753906 -9.328125 -2.890625 C -9.460938 -3.023438 -9.53125 -3.25 -9.53125 -3.5625 C -9.53125 -3.875 -9.460938 -4.09375 -9.328125 -4.21875 C -9.203125 -4.351562 -8.976562 -4.421875 -8.65625 -4.421875 C -8.351562 -4.421875 -8.132812 -4.351562 -8 -4.21875 C -7.863281 -4.09375 -7.796875 -3.875 -7.796875 -3.5625 Z M -7.796875 -3.5625 "/>
</g>
<g id="glyph-6-1-8a6e38b5">
<path d="M 0.140625 -4.921875 C 0.140625 -4.171875 -0.0390625 -3.609375 -0.40625 -3.234375 C -0.769531 -2.867188 -1.320312 -2.6875 -2.0625 -2.6875 L -8.484375 -2.6875 L -8.484375 -0.625 L -9.484375 -0.625 L -9.484375 -3.890625 L -2.375 -3.890625 C -1.894531 -3.890625 -1.539062 -3.988281 -1.3125 -4.1875 C -1.09375 -4.394531 -0.984375 -4.660156 -0.984375 -4.984375 C -0.984375 -5.210938 -1.035156 -5.414062 -1.140625 -5.59375 C -1.253906 -5.769531 -1.410156 -5.957031 -1.609375 -6.15625 L -0.78125 -6.875 C -0.519531 -6.625 -0.300781 -6.335938 -0.125 -6.015625 C 0.0507812 -5.691406 0.140625 -5.328125 0.140625 -4.921875 Z M 0.140625 -4.921875 "/>
</g>
<g id="glyph-7-0-8a6e38b5">
<path d="M 0.125 -2.859375 C 0.125 -2.421875 0.0429688 -2.039062 -0.109375 -1.71875 C -0.265625 -1.40625 -0.484375 -1.164062 -0.765625 -1 C -1.046875 -0.832031 -1.382812 -0.75 -1.78125 -0.75 C -2.625 -0.75 -3.203125 -1.078125 -3.515625 -1.734375 C -3.828125 -2.398438 -3.984375 -3.222656 -3.984375 -4.203125 L -3.984375 -4.90625 L -4.296875 -4.90625 C -4.648438 -4.90625 -4.972656 -4.8125 -5.265625 -4.625 C -5.554688 -4.445312 -5.703125 -4.085938 -5.703125 -3.546875 C -5.703125 -3.296875 -5.664062 -3.0625 -5.59375 -2.84375 C -5.53125 -2.632812 -5.453125 -2.453125 -5.359375 -2.296875 C -5.273438 -2.140625 -5.148438 -1.941406 -4.984375 -1.703125 L -5.796875 -1.125 C -6.066406 -1.5 -6.28125 -1.878906 -6.4375 -2.265625 C -6.601562 -2.648438 -6.6875 -3.117188 -6.6875 -3.671875 C -6.6875 -4.628906 -6.445312 -5.273438 -5.96875 -5.609375 C -5.5 -5.941406 -4.941406 -6.109375 -4.296875 -6.109375 L -1.875 -6.109375 C -1.34375 -6.109375 -0.71875 -6.144531 0 -6.21875 L 0 -5.015625 C -0.175781 -5.003906 -0.398438 -4.988281 -0.671875 -4.96875 L -0.875 -4.96875 C -0.53125 -4.757812 -0.273438 -4.46875 -0.109375 -4.09375 C 0.0429688 -3.71875 0.125 -3.304688 0.125 -2.859375 Z M -0.796875 -3.15625 C -0.796875 -3.757812 -1 -4.203125 -1.40625 -4.484375 C -1.8125 -4.765625 -2.363281 -4.90625 -3.0625 -4.90625 L -3.078125 -4.453125 C -3.078125 -3.859375 -3.035156 -3.378906 -2.953125 -3.015625 C -2.867188 -2.648438 -2.734375 -2.378906 -2.546875 -2.203125 C -2.367188 -2.023438 -2.132812 -1.9375 -1.84375 -1.9375 C -1.476562 -1.9375 -1.210938 -2.046875 -1.046875 -2.265625 C -0.878906 -2.484375 -0.796875 -2.78125 -0.796875 -3.15625 Z M -0.796875 -3.15625 "/>
</g>
<g id="glyph-8-0-8a6e38b5">
<path d="M 1.015625 -0.9375 L 2.9375 -0.9375 L 2.9375 -6.390625 C 2.613281 -6.078125 2.265625 -5.789062 1.890625 -5.53125 C 1.515625 -5.28125 1.164062 -5.109375 0.84375 -5.015625 L 0.84375 -6.078125 C 1.226562 -6.234375 1.625 -6.492188 2.03125 -6.859375 C 2.4375 -7.234375 2.78125 -7.601562 3.0625 -7.96875 L 4 -7.96875 L 4 -0.9375 L 5.765625 -0.9375 L 5.765625 0 L 1.015625 0 Z M 1.015625 -0.9375 "/>
</g>
<g id="glyph-8-1-8a6e38b5">
<path d="M 3.296875 0.234375 C 2.960938 0.234375 2.703125 0.144531 2.515625 -0.03125 C 2.335938 -0.21875 2.25 -0.476562 2.25 -0.8125 C 2.25 -1.144531 2.335938 -1.398438 2.515625 -1.578125 C 2.703125 -1.765625 2.960938 -1.859375 3.296875 -1.859375 C 3.640625 -1.859375 3.898438 -1.765625 4.078125 -1.578125 C 4.253906 -1.398438 4.34375 -1.144531 4.34375 -0.8125 C 4.34375 -0.476562 4.25 -0.21875 4.0625 -0.03125 C 3.882812 0.144531 3.628906 0.234375 3.296875 0.234375 Z M 3.296875 0.234375 "/>
</g>
<g id="glyph-8-2-8a6e38b5">
<path d="M 3.3125 0.109375 C 2.550781 0.109375 1.972656 -0.0507812 1.578125 -0.375 C 1.191406 -0.707031 0.9375 -1.160156 0.8125 -1.734375 C 0.6875 -2.304688 0.625 -3.066406 0.625 -4.015625 C 0.625 -4.941406 0.6875 -5.691406 0.8125 -6.265625 C 0.945312 -6.835938 1.207031 -7.28125 1.59375 -7.59375 C 1.976562 -7.914062 2.550781 -8.078125 3.3125 -8.078125 C 4.0625 -8.078125 4.628906 -7.921875 5.015625 -7.609375 C 5.410156 -7.296875 5.671875 -6.851562 5.796875 -6.28125 C 5.929688 -5.707031 6 -4.953125 6 -4.015625 C 6 -3.066406 5.929688 -2.304688 5.796875 -1.734375 C 5.671875 -1.160156 5.414062 -0.707031 5.03125 -0.375 C 4.644531 -0.0507812 4.070312 0.109375 3.3125 0.109375 Z M 2.59375 -4.015625 L 3.3125 -4.828125 L 4.015625 -4.015625 L 3.3125 -3.28125 Z M 3.3125 -0.8125 C 3.769531 -0.8125 4.113281 -0.929688 4.34375 -1.171875 C 4.582031 -1.421875 4.738281 -1.765625 4.8125 -2.203125 C 4.882812 -2.648438 4.921875 -3.253906 4.921875 -4.015625 C 4.921875 -4.742188 4.882812 -5.328125 4.8125 -5.765625 C 4.738281 -6.203125 4.585938 -6.539062 4.359375 -6.78125 C 4.128906 -7.03125 3.78125 -7.15625 3.3125 -7.15625 C 2.84375 -7.15625 2.488281 -7.03125 2.25 -6.78125 C 2.019531 -6.539062 1.867188 -6.203125 1.796875 -5.765625 C 1.734375 -5.328125 1.703125 -4.742188 1.703125 -4.015625 C 1.703125 -3.265625 1.738281 -2.664062 1.8125 -2.21875 C 1.882812 -1.769531 2.035156 -1.421875 2.265625 -1.171875 C 2.503906 -0.929688 2.851562 -0.8125 3.3125 -0.8125 Z M 3.3125 -0.8125 "/>
</g>
<g id="glyph-9-0-8a6e38b5">
<path d="M 4.5 0.203125 C 3.59375 0.203125 2.835938 -0.046875 2.234375 -0.546875 C 1.628906 -1.054688 1.179688 -1.75 0.890625 -2.625 C 0.609375 -3.5 0.46875 -4.5 0.46875 -5.625 C 0.46875 -6.707031 0.628906 -7.65625 0.953125 -8.46875 C 1.273438 -9.28125 1.738281 -9.910156 2.34375 -10.359375 C 2.957031 -10.804688 3.675781 -11.03125 4.5 -11.03125 C 5.332031 -11.03125 6.046875 -10.8125 6.640625 -10.375 C 7.242188 -9.9375 7.707031 -9.3125 8.03125 -8.5 C 8.351562 -7.6875 8.515625 -6.734375 8.515625 -5.640625 C 8.515625 -4.503906 8.375 -3.5 8.09375 -2.625 C 7.8125 -1.75 7.367188 -1.054688 6.765625 -0.546875 C 6.160156 -0.046875 5.40625 0.203125 4.5 0.203125 Z M 4.46875 -1.234375 C 4.988281 -1.234375 5.429688 -1.421875 5.796875 -1.796875 C 6.160156 -2.179688 6.429688 -2.695312 6.609375 -3.34375 C 6.796875 -3.988281 6.890625 -4.722656 6.890625 -5.546875 C 6.890625 -6.304688 6.785156 -7 6.578125 -7.625 C 6.378906 -8.25 6.097656 -8.738281 5.734375 -9.09375 C 5.367188 -9.457031 4.957031 -9.640625 4.5 -9.640625 C 4.03125 -9.640625 3.609375 -9.460938 3.234375 -9.109375 C 2.867188 -8.753906 2.582031 -8.265625 2.375 -7.640625 C 2.175781 -7.015625 2.078125 -6.3125 2.078125 -5.53125 C 2.078125 -4.71875 2.164062 -3.988281 2.34375 -3.34375 C 2.53125 -2.695312 2.800781 -2.179688 3.15625 -1.796875 C 3.507812 -1.421875 3.945312 -1.234375 4.46875 -1.234375 Z M 4.46875 -1.234375 "/>
</g>
<g id="glyph-9-1-8a6e38b5">
<path d="M 4.90625 0.15625 C 4.414062 0.15625 4 0.0703125 3.65625 -0.09375 C 3.3125 -0.269531 2.992188 -0.566406 2.703125 -0.984375 L 2.65625 0 L 1.1875 0 C 1.226562 -0.675781 1.25 -1.28125 1.25 -1.8125 L 1.25 -11.84375 L 2.765625 -11.84375 L 2.765625 -6.90625 C 3.035156 -7.363281 3.363281 -7.710938 3.75 -7.953125 C 4.132812 -8.191406 4.554688 -8.3125 5.015625 -8.3125 C 5.679688 -8.3125 6.234375 -8.117188 6.671875 -7.734375 C 7.117188 -7.347656 7.441406 -6.828125 7.640625 -6.171875 C 7.847656 -5.515625 7.953125 -4.769531 7.953125 -3.9375 C 7.953125 -3.21875 7.835938 -2.546875 7.609375 -1.921875 C 7.390625 -1.304688 7.046875 -0.804688 6.578125 -0.421875 C 6.117188 -0.0351562 5.5625 0.15625 4.90625 0.15625 Z M 4.53125 -0.984375 C 4.988281 -0.984375 5.359375 -1.125 5.640625 -1.40625 C 5.921875 -1.6875 6.125 -2.046875 6.25 -2.484375 C 6.375 -2.921875 6.4375 -3.378906 6.4375 -3.859375 C 6.4375 -4.796875 6.296875 -5.554688 6.015625 -6.140625 C 5.742188 -6.734375 5.289062 -7.03125 4.65625 -7.03125 C 4.207031 -7.03125 3.832031 -6.882812 3.53125 -6.59375 C 3.238281 -6.3125 3.023438 -5.925781 2.890625 -5.4375 C 2.753906 -4.957031 2.6875 -4.421875 2.6875 -3.828125 C 2.6875 -3.367188 2.75 -2.921875 2.875 -2.484375 C 3 -2.054688 3.195312 -1.695312 3.46875 -1.40625 C 3.75 -1.125 4.101562 -0.984375 4.53125 -0.984375 Z M 4.53125 -0.984375 "/>
</g>
<g id="glyph-9-2-8a6e38b5">
<path d="M 4.53125 0.078125 C 3.800781 0.078125 3.175781 -0.0390625 2.65625 -0.28125 C 2.144531 -0.53125 1.679688 -0.90625 1.265625 -1.40625 L 2.140625 -2.34375 C 2.421875 -2.082031 2.671875 -1.875 2.890625 -1.71875 C 3.109375 -1.570312 3.359375 -1.453125 3.640625 -1.359375 C 3.921875 -1.265625 4.242188 -1.21875 4.609375 -1.21875 C 5.054688 -1.21875 5.457031 -1.304688 5.8125 -1.484375 C 6.164062 -1.660156 6.34375 -1.945312 6.34375 -2.34375 C 6.34375 -2.5625 6.28125 -2.734375 6.15625 -2.859375 C 6.03125 -2.984375 5.867188 -3.078125 5.671875 -3.140625 C 5.472656 -3.210938 5.179688 -3.296875 4.796875 -3.390625 C 4.585938 -3.441406 4.378906 -3.5 4.171875 -3.5625 C 3.597656 -3.707031 3.125 -3.867188 2.75 -4.046875 C 2.375 -4.222656 2.066406 -4.460938 1.828125 -4.765625 C 1.597656 -5.078125 1.484375 -5.476562 1.484375 -5.96875 C 1.484375 -6.476562 1.613281 -6.914062 1.875 -7.28125 C 2.144531 -7.65625 2.507812 -7.9375 2.96875 -8.125 C 3.425781 -8.3125 3.941406 -8.40625 4.515625 -8.40625 C 5.722656 -8.40625 6.671875 -8.054688 7.359375 -7.359375 L 6.46875 -6.375 C 5.914062 -6.820312 5.285156 -7.046875 4.578125 -7.046875 C 4.085938 -7.046875 3.6875 -6.953125 3.375 -6.765625 C 3.070312 -6.578125 2.921875 -6.328125 2.921875 -6.015625 C 2.921875 -5.753906 3.023438 -5.535156 3.234375 -5.359375 C 3.453125 -5.179688 3.707031 -5.039062 4 -4.9375 C 4.300781 -4.84375 4.6875 -4.738281 5.15625 -4.625 L 5.4375 -4.546875 C 5.820312 -4.441406 6.171875 -4.316406 6.484375 -4.171875 C 6.796875 -4.035156 7.078125 -3.816406 7.328125 -3.515625 C 7.578125 -3.210938 7.703125 -2.8125 7.703125 -2.3125 C 7.703125 -1.75 7.554688 -1.285156 7.265625 -0.921875 C 6.984375 -0.566406 6.601562 -0.3125 6.125 -0.15625 C 5.65625 0 5.125 0.078125 4.53125 0.078125 Z M 4.53125 0.078125 "/>
</g>
<g id="glyph-9-3-8a6e38b5">
<path d="M 4.765625 0.140625 C 4.078125 0.140625 3.445312 -0.0234375 2.875 -0.359375 C 2.3125 -0.703125 1.859375 -1.191406 1.515625 -1.828125 C 1.179688 -2.472656 1.015625 -3.222656 1.015625 -4.078125 C 1.015625 -4.910156 1.171875 -5.65625 1.484375 -6.3125 C 1.796875 -6.96875 2.226562 -7.476562 2.78125 -7.84375 C 3.332031 -8.207031 3.957031 -8.390625 4.65625 -8.390625 C 5.738281 -8.390625 6.5625 -7.984375 7.125 -7.171875 C 7.6875 -6.359375 7.96875 -5.203125 7.96875 -3.703125 L 2.546875 -3.703125 C 2.566406 -2.878906 2.769531 -2.257812 3.15625 -1.84375 C 3.550781 -1.425781 4.101562 -1.21875 4.8125 -1.21875 C 5.300781 -1.21875 5.757812 -1.289062 6.1875 -1.4375 C 6.625 -1.59375 6.945312 -1.757812 7.15625 -1.9375 L 7.8125 -0.828125 C 7.613281 -0.671875 7.351562 -0.515625 7.03125 -0.359375 C 6.707031 -0.210938 6.34375 -0.09375 5.9375 0 C 5.539062 0.09375 5.148438 0.140625 4.765625 0.140625 Z M 6.5625 -4.953125 C 6.5625 -5.367188 6.476562 -5.738281 6.3125 -6.0625 C 6.144531 -6.394531 5.914062 -6.648438 5.625 -6.828125 C 5.332031 -7.015625 5.003906 -7.109375 4.640625 -7.109375 C 4.273438 -7.109375 3.9375 -7.015625 3.625 -6.828125 C 3.3125 -6.648438 3.0625 -6.398438 2.875 -6.078125 C 2.695312 -5.753906 2.609375 -5.378906 2.609375 -4.953125 Z M 6.5625 -4.953125 "/>
</g>
<g id="glyph-9-4-8a6e38b5">
<path d="M 2.546875 -4.5 C 2.546875 -5.21875 2.53125 -5.734375 2.5 -6.046875 C 2.46875 -6.367188 2.425781 -6.703125 2.375 -7.046875 L 0.9375 -7.046875 L 0.9375 -8.25 L 3.5625 -8.25 L 3.765625 -6.796875 C 4.003906 -7.367188 4.332031 -7.78125 4.75 -8.03125 C 5.175781 -8.289062 5.617188 -8.421875 6.078125 -8.421875 C 6.421875 -8.421875 6.789062 -8.332031 7.1875 -8.15625 C 7.59375 -7.988281 7.914062 -7.785156 8.15625 -7.546875 L 7.3125 -6.5 C 7.164062 -6.65625 6.960938 -6.785156 6.703125 -6.890625 C 6.441406 -7.003906 6.140625 -7.0625 5.796875 -7.0625 C 5.234375 -7.0625 4.800781 -6.78125 4.5 -6.21875 C 4.207031 -5.664062 4.0625 -4.832031 4.0625 -3.71875 L 4.0625 0 L 2.546875 0 Z M 2.546875 -4.5 "/>
</g>
<g id="glyph-9-5-8a6e38b5">
<path d="M 1.09375 -8.265625 L 2.78125 -8.265625 L 4.515625 -2.03125 L 6.3125 -8.265625 L 7.90625 -8.265625 L 5.375 0 L 3.625 0 Z M 1.09375 -8.265625 "/>
</g>
<g id="glyph-9-6-8a6e38b5">
<path d="M 4.125 0.109375 C 3.4375 0.109375 2.859375 -0.09375 2.390625 -0.5 C 1.921875 -0.914062 1.570312 -1.453125 1.34375 -2.109375 C 1.113281 -2.773438 1 -3.484375 1 -4.234375 C 1 -4.941406 1.125 -5.609375 1.375 -6.234375 C 1.625 -6.867188 1.988281 -7.378906 2.46875 -7.765625 C 2.945312 -8.160156 3.507812 -8.359375 4.15625 -8.359375 C 5.257812 -8.359375 6.007812 -7.972656 6.40625 -7.203125 L 6.40625 -11.84375 L 7.890625 -11.84375 L 7.890625 -1.796875 C 7.890625 -1.597656 7.890625 -1.40625 7.890625 -1.21875 C 7.898438 -1.03125 7.910156 -0.84375 7.921875 -0.65625 L 7.9375 0 L 6.546875 0 L 6.40625 -1.046875 C 6.125 -0.628906 5.804688 -0.332031 5.453125 -0.15625 C 5.109375 0.0195312 4.664062 0.109375 4.125 0.109375 Z M 4.53125 -1.03125 C 4.988281 -1.03125 5.351562 -1.191406 5.625 -1.515625 C 5.90625 -1.835938 6.109375 -2.238281 6.234375 -2.71875 C 6.359375 -3.195312 6.421875 -3.679688 6.421875 -4.171875 C 6.421875 -4.660156 6.347656 -5.140625 6.203125 -5.609375 C 6.066406 -6.078125 5.847656 -6.457031 5.546875 -6.75 C 5.242188 -7.050781 4.863281 -7.203125 4.40625 -7.203125 C 3.976562 -7.203125 3.617188 -7.046875 3.328125 -6.734375 C 3.046875 -6.429688 2.832031 -6.046875 2.6875 -5.578125 C 2.550781 -5.117188 2.484375 -4.660156 2.484375 -4.203125 C 2.484375 -3.703125 2.5625 -3.207031 2.71875 -2.71875 C 2.875 -2.226562 3.109375 -1.820312 3.421875 -1.5 C 3.734375 -1.1875 4.101562 -1.03125 4.53125 -1.03125 Z M 4.53125 -1.03125 "/>
</g>
<g id="glyph-9-7-8a6e38b5">
</g>
<g id="glyph-9-8-8a6e38b5">
<path d="M 3.78125 0.109375 C 2.914062 0.109375 2.269531 -0.144531 1.84375 -0.65625 C 1.414062 -1.175781 1.203125 -1.921875 1.203125 -2.890625 L 1.203125 -8.25 L 2.71875 -8.25 L 2.71875 -3.265625 C 2.71875 -2.796875 2.753906 -2.40625 2.828125 -2.09375 C 2.898438 -1.789062 3.046875 -1.546875 3.265625 -1.359375 C 3.484375 -1.171875 3.8125 -1.078125 4.25 -1.078125 C 4.695312 -1.078125 5.066406 -1.191406 5.359375 -1.421875 C 5.660156 -1.660156 5.875 -1.972656 6 -2.359375 C 6.132812 -2.742188 6.203125 -3.160156 6.203125 -3.609375 L 6.203125 -8.25 L 7.734375 -8.25 L 7.734375 -1.78125 C 7.734375 -1.46875 7.742188 -1.078125 7.765625 -0.609375 L 7.796875 0 L 6.328125 0 L 6.265625 -1 C 5.984375 -0.59375 5.640625 -0.304688 5.234375 -0.140625 C 4.828125 0.0234375 4.34375 0.109375 3.78125 0.109375 Z M 3.78125 0.109375 "/>
</g>
<g id="glyph-9-9-8a6e38b5">
<path d="M 1.515625 -8.25 L 5.375 -8.25 L 5.375 -1.21875 L 7.65625 -1.21875 L 7.65625 0 L 1.390625 0 L 1.390625 -1.21875 L 3.859375 -1.21875 L 3.859375 -7.09375 L 1.515625 -7.09375 Z M 4.453125 -9.75 C 4.054688 -9.75 3.773438 -9.832031 3.609375 -10 C 3.453125 -10.164062 3.375 -10.441406 3.375 -10.828125 C 3.375 -11.222656 3.453125 -11.5 3.609375 -11.65625 C 3.773438 -11.820312 4.054688 -11.90625 4.453125 -11.90625 C 4.835938 -11.90625 5.109375 -11.820312 5.265625 -11.65625 C 5.429688 -11.5 5.515625 -11.222656 5.515625 -10.828125 C 5.515625 -10.441406 5.429688 -10.164062 5.265625 -10 C 5.109375 -9.832031 4.835938 -9.75 4.453125 -9.75 Z M 4.453125 -9.75 "/>
</g>
<g id="glyph-9-10-8a6e38b5">
<path d="M 3.5625 0.15625 C 3.019531 0.15625 2.550781 0.0585938 2.15625 -0.125 C 1.757812 -0.320312 1.457031 -0.597656 1.25 -0.953125 C 1.039062 -1.316406 0.9375 -1.742188 0.9375 -2.234375 C 0.9375 -3.285156 1.347656 -4.003906 2.171875 -4.390625 C 3.003906 -4.785156 4.03125 -4.984375 5.25 -4.984375 L 6.140625 -4.984375 L 6.140625 -5.359375 C 6.140625 -5.804688 6.023438 -6.210938 5.796875 -6.578125 C 5.566406 -6.941406 5.109375 -7.125 4.421875 -7.125 C 4.117188 -7.125 3.832031 -7.082031 3.5625 -7 C 3.300781 -6.914062 3.070312 -6.816406 2.875 -6.703125 C 2.6875 -6.597656 2.441406 -6.441406 2.140625 -6.234375 L 1.40625 -7.25 C 1.863281 -7.59375 2.332031 -7.863281 2.8125 -8.0625 C 3.300781 -8.257812 3.890625 -8.359375 4.578125 -8.359375 C 5.773438 -8.359375 6.582031 -8.0625 7 -7.46875 C 7.414062 -6.875 7.625 -6.175781 7.625 -5.375 L 7.625 -2.34375 C 7.625 -1.675781 7.671875 -0.894531 7.765625 0 L 6.28125 0 C 6.257812 -0.21875 6.238281 -0.5 6.21875 -0.84375 L 6.203125 -1.09375 C 5.941406 -0.65625 5.578125 -0.335938 5.109375 -0.140625 C 4.648438 0.0546875 4.132812 0.15625 3.5625 0.15625 Z M 3.953125 -1 C 4.703125 -1 5.253906 -1.25 5.609375 -1.75 C 5.960938 -2.257812 6.140625 -2.953125 6.140625 -3.828125 L 5.5625 -3.84375 C 4.820312 -3.84375 4.222656 -3.789062 3.765625 -3.6875 C 3.304688 -3.582031 2.96875 -3.414062 2.75 -3.1875 C 2.539062 -2.96875 2.4375 -2.671875 2.4375 -2.296875 C 2.4375 -1.847656 2.570312 -1.519531 2.84375 -1.3125 C 3.113281 -1.101562 3.484375 -1 3.953125 -1 Z M 3.953125 -1 "/>
</g>
<g id="glyph-9-11-8a6e38b5">
<path d="M 6.15625 0.1875 C 5.21875 0.1875 4.515625 -0.0390625 4.046875 -0.5 C 3.585938 -0.957031 3.359375 -1.648438 3.359375 -2.578125 L 3.359375 -10.609375 L 0.78125 -10.609375 L 0.78125 -11.84375 L 4.875 -11.84375 L 4.875 -2.96875 C 4.875 -2.375 5 -1.9375 5.25 -1.65625 C 5.5 -1.375 5.828125 -1.234375 6.234375 -1.234375 C 6.523438 -1.234375 6.773438 -1.300781 6.984375 -1.4375 C 7.203125 -1.570312 7.4375 -1.765625 7.6875 -2.015625 L 8.59375 -0.984375 C 8.28125 -0.648438 7.921875 -0.367188 7.515625 -0.140625 C 7.117188 0.0742188 6.664062 0.1875 6.15625 0.1875 Z M 6.15625 0.1875 "/>
</g>
<g id="glyph-9-12-8a6e38b5">
<path d="M 1.109375 -6.4375 C 1.109375 -6.96875 1.085938 -7.507812 1.046875 -8.0625 L 1.046875 -8.25 L 2.484375 -8.25 L 2.5625 -6.96875 C 3.101562 -7.925781 3.875 -8.40625 4.875 -8.40625 C 5.570312 -8.40625 6.148438 -8.191406 6.609375 -7.765625 C 7.078125 -7.335938 7.414062 -6.796875 7.625 -6.140625 C 7.84375 -5.492188 7.953125 -4.820312 7.953125 -4.125 C 7.953125 -3.425781 7.835938 -2.753906 7.609375 -2.109375 C 7.390625 -1.472656 7.035156 -0.945312 6.546875 -0.53125 C 6.054688 -0.125 5.429688 0.078125 4.671875 0.078125 C 4.203125 0.078125 3.804688 -0.00390625 3.484375 -0.171875 C 3.160156 -0.347656 2.875 -0.617188 2.625 -0.984375 L 2.625 2.84375 L 1.109375 2.84375 Z M 4.5 -1.109375 C 4.925781 -1.109375 5.285156 -1.242188 5.578125 -1.515625 C 5.867188 -1.796875 6.085938 -2.160156 6.234375 -2.609375 C 6.378906 -3.066406 6.453125 -3.550781 6.453125 -4.0625 C 6.453125 -4.53125 6.390625 -5.007812 6.265625 -5.5 C 6.140625 -5.988281 5.9375 -6.394531 5.65625 -6.71875 C 5.375 -7.050781 5.015625 -7.21875 4.578125 -7.21875 C 4.148438 -7.21875 3.78125 -7.050781 3.46875 -6.71875 C 3.164062 -6.382812 2.9375 -5.96875 2.78125 -5.46875 C 2.632812 -4.976562 2.5625 -4.488281 2.5625 -4 C 2.5625 -3.550781 2.628906 -3.101562 2.765625 -2.65625 C 2.898438 -2.21875 3.113281 -1.847656 3.40625 -1.546875 C 3.695312 -1.253906 4.0625 -1.109375 4.5 -1.109375 Z M 4.5 -1.109375 "/>
</g>
<g id="glyph-9-13-8a6e38b5">
<path d="M 4.5 0.125 C 3.769531 0.125 3.140625 -0.046875 2.609375 -0.390625 C 2.085938 -0.742188 1.6875 -1.238281 1.40625 -1.875 C 1.132812 -2.507812 1 -3.257812 1 -4.125 C 1 -5 1.140625 -5.753906 1.421875 -6.390625 C 1.710938 -7.035156 2.117188 -7.53125 2.640625 -7.875 C 3.171875 -8.226562 3.789062 -8.40625 4.5 -8.40625 C 5.21875 -8.40625 5.835938 -8.226562 6.359375 -7.875 C 6.890625 -7.53125 7.296875 -7.035156 7.578125 -6.390625 C 7.859375 -5.753906 8 -5 8 -4.125 C 8 -3.257812 7.859375 -2.507812 7.578125 -1.875 C 7.304688 -1.238281 6.90625 -0.742188 6.375 -0.390625 C 5.851562 -0.046875 5.226562 0.125 4.5 0.125 Z M 4.46875 -1.1875 C 4.875 -1.1875 5.226562 -1.300781 5.53125 -1.53125 C 5.832031 -1.769531 6.0625 -2.109375 6.21875 -2.546875 C 6.375 -2.992188 6.453125 -3.519531 6.453125 -4.125 C 6.453125 -4.726562 6.367188 -5.253906 6.203125 -5.703125 C 6.046875 -6.148438 5.816406 -6.492188 5.515625 -6.734375 C 5.222656 -6.972656 4.875 -7.09375 4.46875 -7.09375 C 4.070312 -7.09375 3.726562 -6.972656 3.4375 -6.734375 C 3.15625 -6.492188 2.9375 -6.148438 2.78125 -5.703125 C 2.625 -5.253906 2.546875 -4.726562 2.546875 -4.125 C 2.546875 -3.507812 2.617188 -2.984375 2.765625 -2.546875 C 2.921875 -2.109375 3.144531 -1.769531 3.4375 -1.53125 C 3.726562 -1.300781 4.070312 -1.1875 4.46875 -1.1875 Z M 4.46875 -1.1875 "/>
</g>
<g id="glyph-9-14-8a6e38b5">
<path d="M 5.703125 0.109375 C 4.910156 0.109375 4.332031 -0.0546875 3.96875 -0.390625 C 3.601562 -0.734375 3.421875 -1.226562 3.421875 -1.875 L 3.421875 -7 L 1.125 -7 L 1.125 -8.25 L 3.421875 -8.25 L 3.421875 -10.984375 L 4.921875 -10.984375 L 4.921875 -8.25 L 7.21875 -8.25 L 7.21875 -7 L 4.921875 -7 L 4.921875 -2.46875 C 4.921875 -2.125 4.960938 -1.859375 5.046875 -1.671875 C 5.128906 -1.492188 5.257812 -1.367188 5.4375 -1.296875 C 5.625 -1.222656 5.890625 -1.1875 6.234375 -1.1875 C 6.398438 -1.1875 6.632812 -1.207031 6.9375 -1.25 C 7.238281 -1.300781 7.5 -1.351562 7.71875 -1.40625 L 7.71875 -0.125 C 7.488281 -0.0703125 7.164062 -0.0195312 6.75 0.03125 C 6.34375 0.0820312 5.992188 0.109375 5.703125 0.109375 Z M 5.703125 0.109375 "/>
</g>
<g id="glyph-9-15-8a6e38b5">
<path d="M 1.234375 -6.203125 C 1.234375 -6.535156 1.222656 -6.832031 1.203125 -7.09375 C 1.179688 -7.363281 1.148438 -7.75 1.109375 -8.25 L 2.546875 -8.25 L 2.6875 -6.890625 C 2.96875 -7.378906 3.320312 -7.75 3.75 -8 C 4.1875 -8.257812 4.679688 -8.390625 5.234375 -8.390625 C 6.085938 -8.390625 6.738281 -8.09375 7.1875 -7.5 C 7.632812 -6.90625 7.859375 -6.078125 7.859375 -5.015625 L 7.859375 0 L 6.328125 0 L 6.328125 -4.421875 C 6.328125 -5.222656 6.207031 -5.867188 5.96875 -6.359375 C 5.738281 -6.859375 5.304688 -7.109375 4.671875 -7.109375 C 4.203125 -7.109375 3.820312 -6.953125 3.53125 -6.640625 C 3.25 -6.335938 3.046875 -5.941406 2.921875 -5.453125 C 2.796875 -4.972656 2.734375 -4.457031 2.734375 -3.90625 L 2.734375 0 L 1.234375 0 Z M 1.234375 -6.203125 "/>
</g>
</g>
</defs>
<rect x="-60" y="-45" width="720" height="540" fill="rgb(94.117647%, 92.941177%, 89.019608%)" fill-opacity="1"/>
<path fill-rule="nonzero" fill="rgb(94.117647%, 92.941177%, 89.019608%)" fill-opacity="1" d="M 60 399 L 584 399 L 584 42 L 60 42 Z M 60 399 "/>
<path fill="none" stroke-width="1" stroke-linecap="butt" stroke-linejoin="miter" stroke="rgb(71.372551%, 67.843139%, 56.470591%)" stroke-opacity="0.3" stroke-miterlimit="1.154701" d="M 138.785156 399 L 138.785156 42 "/>
<path fill="none" stroke-width="1" stroke-linecap="butt" stroke-linejoin="miter" stroke="rgb(71.372551%, 67.843139%, 56.470591%)" stroke-opacity="0.3" stroke-miterlimit="1.154701" d="M 230.390625 399 L 230.390625 42 "/>
<path fill="none" stroke-width="1" stroke-linecap="butt" stroke-linejoin="miter" stroke="rgb(71.372551%, 67.843139%, 56.470591%)" stroke-opacity="0.3" stroke-miterlimit="1.154701" d="M 322 399 L 322 42 "/>
<path fill="none" stroke-width="1" stroke-linecap="butt" stroke-linejoin="miter" stroke="rgb(71.372551%, 67.843139%, 56.470591%)" stroke-opacity="0.3" stroke-miterlimit="1.154701" d="M 413.609375 399 L 413.609375 42 "/>
<path fill="none" stroke-width="1" stroke-linecap="butt" stroke-linejoin="miter" stroke="rgb(71.372551%, 67.843139%, 56.470591%)" stroke-opacity="0.3" stroke-miterlimit="1.154701" d="M 505.21875 399 L 505.21875 42 "/>
<path fill="none" stroke-width="1" stroke-linecap="butt" stroke-linejoin="miter" stroke="rgb(71.372551%, 67.843139%, 56.470591%)" stroke-opacity="0.12" stroke-miterlimit="1.154701" d="M 92.980469 399 L 92.980469 42 "/>
<path fill="none" stroke-width="1" stroke-linecap="butt" stroke-linejoin="miter" stroke="rgb(71.372551%, 67.843139%, 56.470591%)" stroke-opacity="0.12" stroke-miterlimit="1.154701" d="M 184.585938 399 L 184.585938 42 "/>
<path fill="none" stroke-width="1" stroke-linecap="butt" stroke-linejoin="miter" stroke="rgb(71.372551%, 67.843139%, 56.470591%)" stroke-opacity="0.12" stroke-miterlimit="1.154701" d="M 276.195312 399 L 276.195312 42 "/>
<path fill="none" stroke-width="1" stroke-linecap="butt" stroke-linejoin="miter" stroke="rgb(71.372551%, 67.843139%, 56.470591%)" stroke-opacity="0.12" stroke-miterlimit="1.154701" d="M 367.804688 399 L 367.804688 42 "/>
<path fill="none" stroke-width="1" stroke-linecap="butt" stroke-linejoin="miter" stroke="rgb(71.372551%, 67.843139%, 56.470591%)" stroke-opacity="0.12" stroke-miterlimit="1.154701" d="M 459.414062 399 L 459.414062 42 "/>
<path fill="none" stroke-width="1" stroke-linecap="butt" stroke-linejoin="miter" stroke="rgb(71.372551%, 67.843139%, 56.470591%)" stroke-opacity="0.12" stroke-miterlimit="1.154701" d="M 551.019531 399 L 551.019531 42 "/>
<path fill="none" stroke-width="1" stroke-linecap="butt" stroke-linejoin="miter" stroke="rgb(71.372551%, 67.843139%, 56.470591%)" stroke-opacity="0.3" stroke-miterlimit="1.154701" d="M 60 385.765625 L 584 385.765625 "/>
<path fill="none" stroke-width="1" stroke-linecap="butt" stroke-linejoin="miter" stroke="rgb(71.372551%, 67.843139%, 56.470591%)" stroke-opacity="0.3" stroke-miterlimit="1.154701" d="M 60 221.585938 L 584 221.585938 "/>
<path fill="none" stroke-width="1" stroke-linecap="butt" stroke-linejoin="miter" stroke="rgb(71.372551%, 67.843139%, 56.470591%)" stroke-opacity="0.3" stroke-miterlimit="1.154701" d="M 60 57.410156 L 584 57.410156 "/>
<path fill="none" stroke-width="1" stroke-linecap="butt" stroke-linejoin="miter" stroke="rgb(71.372551%, 67.843139%, 56.470591%)" stroke-opacity="0.12" stroke-miterlimit="1.154701" d="M 60 303.675781 L 584 303.675781 "/>
<path fill="none" stroke-width="1" stroke-linecap="butt" stroke-linejoin="miter" stroke="rgb(71.372551%, 67.843139%, 56.470591%)" stroke-opacity="0.12" stroke-miterlimit="1.154701" d="M 60 139.5 L 584 139.5 "/>
<g fill="rgb(10.588235%, 16.470589%, 22.745098%)" fill-opacity="1">
<use xlink:href="#glyph-0-0-8a6e38b5" x="307.600007" y="432.424999"/>
<use xlink:href="#glyph-0-1-8a6e38b5" x="314.800007" y="432.424999"/>
<use xlink:href="#glyph-0-2-8a6e38b5" x="322.000008" y="432.424999"/>
<use xlink:href="#glyph-0-3-8a6e38b5" x="329.200008" y="432.424999"/>
</g>
<g fill="rgb(10.588235%, 16.470589%, 22.745098%)" fill-opacity="1">
<use xlink:href="#glyph-1-0-8a6e38b5" x="128.883221" y="412.549997"/>
<use xlink:href="#glyph-1-1-8a6e38b5" x="135.483221" y="412.549997"/>
<use xlink:href="#glyph-1-2-8a6e38b5" x="142.083222" y="412.549997"/>
</g>
<g fill="rgb(10.588235%, 16.470589%, 22.745098%)" fill-opacity="1">
<use xlink:href="#glyph-1-2-8a6e38b5" x="220.491606" y="412.549997"/>
<use xlink:href="#glyph-1-1-8a6e38b5" x="227.091607" y="412.549997"/>
<use xlink:href="#glyph-1-3-8a6e38b5" x="233.691607" y="412.549997"/>
</g>
<g fill="rgb(10.588235%, 16.470589%, 22.745098%)" fill-opacity="1">
<use xlink:href="#glyph-1-4-8a6e38b5" x="312.100007" y="412.549997"/>
<use xlink:href="#glyph-1-1-8a6e38b5" x="318.700008" y="412.549997"/>
<use xlink:href="#glyph-1-2-8a6e38b5" x="325.300008" y="412.549997"/>
</g>
<g fill="rgb(10.588235%, 16.470589%, 22.745098%)" fill-opacity="1">
<use xlink:href="#glyph-1-5-8a6e38b5" x="400.408407" y="412.549997"/>
<use xlink:href="#glyph-1-3-8a6e38b5" x="407.008408" y="412.549997"/>
<use xlink:href="#glyph-1-1-8a6e38b5" x="413.608408" y="412.549997"/>
<use xlink:href="#glyph-1-3-8a6e38b5" x="420.208409" y="412.549997"/>
</g>
<g fill="rgb(10.588235%, 16.470589%, 22.745098%)" fill-opacity="1">
<use xlink:href="#glyph-1-5-8a6e38b5" x="492.016808" y="412.549997"/>
<use xlink:href="#glyph-1-0-8a6e38b5" x="498.616809" y="412.549997"/>
<use xlink:href="#glyph-1-1-8a6e38b5" x="505.216809" y="412.549997"/>
</g>
<g fill="rgb(10.588235%, 16.470589%, 22.745098%)" fill-opacity="1">
<use xlink:href="#glyph-2-0-8a6e38b5" x="511.81681" y="412.549997"/>
</g>
<g fill="rgb(10.588235%, 16.470589%, 22.745098%)" fill-opacity="1">
<use xlink:href="#glyph-3-0-8a6e38b5" x="26.399998" y="249.299994"/>
</g>
<g fill="rgb(10.588235%, 16.470589%, 22.745098%)" fill-opacity="1">
<use xlink:href="#glyph-4-0-8a6e38b5" x="26.399998" y="242.099993"/>
</g>
<g fill="rgb(10.588235%, 16.470589%, 22.745098%)" fill-opacity="1">
<use xlink:href="#glyph-5-0-8a6e38b5" x="26.399999" y="234.899994"/>
</g>
<g fill="rgb(10.588235%, 16.470589%, 22.745098%)" fill-opacity="1">
<use xlink:href="#glyph-3-1-8a6e38b5" x="26.399999" y="227.699995"/>
</g>
<g fill="rgb(10.588235%, 16.470589%, 22.745098%)" fill-opacity="1">
<use xlink:href="#glyph-6-0-8a6e38b5" x="26.4" y="220.499994"/>
</g>
<g fill="rgb(10.588235%, 16.470589%, 22.745098%)" fill-opacity="1">
<use xlink:href="#glyph-3-1-8a6e38b5" x="26.4" y="213.299996"/>
</g>
<g fill="rgb(10.588235%, 16.470589%, 22.745098%)" fill-opacity="1">
<use xlink:href="#glyph-7-0-8a6e38b5" x="26.4" y="206.099995"/>
</g>
<g fill="rgb(10.588235%, 16.470589%, 22.745098%)" fill-opacity="1">
<use xlink:href="#glyph-6-1-8a6e38b5" x="26.400001" y="198.899995"/>
</g>
<g fill="rgb(10.588235%, 16.470589%, 22.745098%)" fill-opacity="1">
<use xlink:href="#glyph-1-3-8a6e38b5" x="35.100001" y="389.75127"/>
<use xlink:href="#glyph-1-1-8a6e38b5" x="41.700002" y="389.75127"/>
<use xlink:href="#glyph-1-3-8a6e38b5" x="48.300002" y="389.75127"/>
</g>
<g fill="rgb(10.588235%, 16.470589%, 22.745098%)" fill-opacity="1">
<use xlink:href="#glyph-1-3-8a6e38b5" x="35.100001" y="225.574592"/>
<use xlink:href="#glyph-1-1-8a6e38b5" x="41.700002" y="225.574592"/>
<use xlink:href="#glyph-1-2-8a6e38b5" x="48.300002" y="225.574592"/>
</g>
<g fill="rgb(10.588235%, 16.470589%, 22.745098%)" fill-opacity="1">
<use xlink:href="#glyph-8-0-8a6e38b5" x="35.100001" y="61.397921"/>
<use xlink:href="#glyph-8-1-8a6e38b5" x="41.700002" y="61.397921"/>
<use xlink:href="#glyph-8-2-8a6e38b5" x="48.300002" y="61.397921"/>
</g>
<g fill="rgb(10.588235%, 16.470589%, 22.745098%)" fill-opacity="1">
<use xlink:href="#glyph-9-0-8a6e38b5" x="60.000001" y="30.62499"/>
<use xlink:href="#glyph-9-1-8a6e38b5" x="69.000002" y="30.62499"/>
<use xlink:href="#glyph-9-2-8a6e38b5" x="78.000002" y="30.62499"/>
<use xlink:href="#glyph-9-3-8a6e38b5" x="87.000002" y="30.62499"/>
<use xlink:href="#glyph-9-4-8a6e38b5" x="96.000002" y="30.62499"/>
<use xlink:href="#glyph-9-5-8a6e38b5" x="105.000003" y="30.62499"/>
<use xlink:href="#glyph-9-3-8a6e38b5" x="114.000003" y="30.62499"/>
<use xlink:href="#glyph-9-6-8a6e38b5" x="123.000003" y="30.62499"/>
<use xlink:href="#glyph-9-7-8a6e38b5" x="132.000003" y="30.62499"/>
<use xlink:href="#glyph-9-2-8a6e38b5" x="141.000003" y="30.62499"/>
<use xlink:href="#glyph-9-8-8a6e38b5" x="150.000004" y="30.62499"/>
<use xlink:href="#glyph-9-4-8a6e38b5" x="159.000004" y="30.62499"/>
<use xlink:href="#glyph-9-5-8a6e38b5" x="168.000004" y="30.62499"/>
<use xlink:href="#glyph-9-9-8a6e38b5" x="177.000004" y="30.62499"/>
<use xlink:href="#glyph-9-5-8a6e38b5" x="186.000005" y="30.62499"/>
<use xlink:href="#glyph-9-10-8a6e38b5" x="195.000005" y="30.62499"/>
<use xlink:href="#glyph-9-11-8a6e38b5" x="204.000005" y="30.62499"/>
<use xlink:href="#glyph-9-7-8a6e38b5" x="213.000005" y="30.62499"/>
<use xlink:href="#glyph-9-12-8a6e38b5" x="222.000005" y="30.62499"/>
<use xlink:href="#glyph-9-4-8a6e38b5" x="231.000006" y="30.62499"/>
<use xlink:href="#glyph-9-13-8a6e38b5" x="240.000006" y="30.62499"/>
<use xlink:href="#glyph-9-12-8a6e38b5" x="249.000006" y="30.62499"/>
<use xlink:href="#glyph-9-13-8a6e38b5" x="258.000006" y="30.62499"/>
<use xlink:href="#glyph-9-4-8a6e38b5" x="267.000006" y="30.62499"/>
<use xlink:href="#glyph-9-14-8a6e38b5" x="276.000007" y="30.62499"/>
<use xlink:href="#glyph-9-9-8a6e38b5" x="285.000007" y="30.62499"/>
<use xlink:href="#glyph-9-13-8a6e38b5" x="294.000007" y="30.62499"/>
<use xlink:href="#glyph-9-15-8a6e38b5" x="303.000007" y="30.62499"/>
</g>
<path fill="none" stroke-width="2" stroke-linecap="butt" stroke-linejoin="miter" stroke="rgb(78.431374%, 20.784314%, 10.980392%)" stroke-opacity="1" stroke-miterlimit="2" d="M 83.816406 60.695312 L 120.460938 63.976562 L 157.105469 73.828125 L 193.75 90.246094 L 230.390625 123.082031 L 267.035156 172.335938 L 303.679688 221.585938 L 340.320312 260.988281 L 376.964844 303.675781 L 413.609375 320.09375 L 450.25 352.929688 L 486.894531 369.347656 L 523.539062 379.195312 L 560.183594 382.480469 "/>
<path fill="none" stroke-width="2" stroke-linecap="butt" stroke-linejoin="miter" stroke="rgb(12.156863%, 30.588236%, 47.450981%)" stroke-opacity="1" stroke-dasharray="6 6" stroke-miterlimit="2" d="M 83.816406 58.226562 L 120.460938 63.285156 L 157.105469 75.769531 L 193.75 97.703125 L 230.390625 129.460938 L 267.035156 169.402344 L 303.679688 214.015625 L 340.320312 258.675781 L 376.964844 298.839844 L 413.609375 331.273438 L 450.25 354.710938 L 486.894531 369.808594 L 523.539062 378.429688 L 560.183594 382.773438 "/>
<path fill-rule="nonzero" fill="rgb(90.196079%, 88.627452%, 83.529413%)" fill-opacity="1" stroke-width="0.9" stroke-linecap="butt" stroke-linejoin="miter" stroke="rgb(10.588235%, 16.470589%, 22.745098%)" stroke-opacity="1" stroke-miterlimit="2" d="M 443 93 L 578 93 L 578 48 L 443 48 Z M 443 93 "/>
<path fill="none" stroke-width="0.9" stroke-linecap="butt" stroke-linejoin="miter" stroke="rgb(10.588235%, 16.470589%, 22.745098%)" stroke-opacity="1" stroke-miterlimit="1.154701" d="M 138.785156 394.550781 L 138.785156 399.550781 "/>
<path fill="none" stroke-width="0.9" stroke-linecap="butt" stroke-linejoin="miter" stroke="rgb(10.588235%, 16.470589%, 22.745098%)" stroke-opacity="1" stroke-miterlimit="1.154701" d="M 230.390625 394.550781 L 230.390625 399.550781 "/>
<path fill="none" stroke-width="0.9" stroke-linecap="butt" stroke-linejoin="miter" stroke="rgb(10.588235%, 16.470589%, 22.745098%)" stroke-opacity="1" stroke-miterlimit="1.154701" d="M 322 394.550781 L 322 399.550781 "/>
<path fill="none" stroke-width="0.9" stroke-linecap="butt" stroke-linejoin="miter" stroke="rgb(10.588235%, 16.470589%, 22.745098%)" stroke-opacity="1" stroke-miterlimit="1.154701" d="M 413.609375 394.550781 L 413.609375 399.550781 "/>
<path fill="none" stroke-width="0.9" stroke-linecap="butt" stroke-linejoin="miter" stroke="rgb(10.588235%, 16.470589%, 22.745098%)" stroke-opacity="1" stroke-miterlimit="1.154701" d="M 505.21875 394.550781 L 505.21875 399.550781 "/>
<path fill="none" stroke-width="1" stroke-linecap="butt" stroke-linejoin="miter" stroke="rgb(23.529412%, 29.019609%, 36.078432%)" stroke-opacity="1" stroke-miterlimit="1.154701" d="M 92.980469 396.550781 L 92.980469 399.550781 "/>
<path fill="none" stroke-width="1" stroke-linecap="butt" stroke-linejoin="miter" stroke="rgb(23.529412%, 29.019609%, 36.078432%)" stroke-opacity="1" stroke-miterlimit="1.154701" d="M 184.585938 396.550781 L 184.585938 399.550781 "/>
<path fill="none" stroke-width="1" stroke-linecap="butt" stroke-linejoin="miter" stroke="rgb(23.529412%, 29.019609%, 36.078432%)" stroke-opacity="1" stroke-miterlimit="1.154701" d="M 276.195312 396.550781 L 276.195312 399.550781 "/>
<path fill="none" stroke-width="1" stroke-linecap="butt" stroke-linejoin="miter" stroke="rgb(23.529412%, 29.019609%, 36.078432%)" stroke-opacity="1" stroke-miterlimit="1.154701" d="M 367.804688 396.550781 L 367.804688 399.550781 "/>
<path fill="none" stroke-width="1" stroke-linecap="butt" stroke-linejoin="miter" stroke="rgb(23.529412%, 29.019609%, 36.078432%)" stroke-opacity="1" stroke-miterlimit="1.154701" d="M 459.414062 396.550781 L 459.414062 399.550781 "/>
<path fill="none" stroke-width="1" stroke-linecap="butt" stroke-linejoin="miter" stroke="rgb(23.529412%, 29.019609%, 36.078432%)" stroke-opacity="1" stroke-miterlimit="1.154701" d="M 551.019531 396.550781 L 551.019531 399.550781 "/>
<path fill="none" stroke-width="0.9" stroke-linecap="butt" stroke-linejoin="miter" stroke="rgb(10.588235%, 16.470589%, 22.745098%)" stroke-opacity="1" stroke-miterlimit="1.154701" d="M 64.449219 385.765625 L 59.449219 385.765625 "/>
<path fill="none" stroke-width="0.9" stroke-linecap="butt" stroke-linejoin="miter" stroke="rgb(10.588235%, 16.470589%, 22.745098%)" stroke-opacity="1" stroke-miterlimit="1.154701" d="M 64.449219 221.585938 L 59.449219 221.585938 "/>
<path fill="none" stroke-width="0.9" stroke-linecap="butt" stroke-linejoin="miter" stroke="rgb(10.588235%, 16.470589%, 22.745098%)" stroke-opacity="1" stroke-miterlimit="1.154701" d="M 64.449219 57.410156 L 59.449219 57.410156 "/>
<path fill="none" stroke-width="1" stroke-linecap="butt" stroke-linejoin="miter" stroke="rgb(23.529412%, 29.019609%, 36.078432%)" stroke-opacity="1" stroke-miterlimit="1.154701" d="M 62.449219 303.675781 L 59.449219 303.675781 "/>
<path fill="none" stroke-width="1" stroke-linecap="butt" stroke-linejoin="miter" stroke="rgb(23.529412%, 29.019609%, 36.078432%)" stroke-opacity="1" stroke-miterlimit="1.154701" d="M 62.449219 139.5 L 59.449219 139.5 "/>
<path fill="none" stroke-width="2" stroke-linecap="butt" stroke-linejoin="miter" stroke="rgb(78.431374%, 20.784314%, 10.980392%)" stroke-opacity="1" stroke-miterlimit="2" d="M 452.800781 62.539062 L 470.800781 62.539062 "/>
<path fill="none" stroke-width="2" stroke-linecap="butt" stroke-linejoin="miter" stroke="rgb(12.156863%, 30.588236%, 47.450981%)" stroke-opacity="1" stroke-dasharray="6 6" stroke-miterlimit="2" d="M 452.800781 78.460938 L 470.800781 78.460938 "/>
<g fill="rgb(10.588235%, 16.470589%, 22.745098%)" fill-opacity="1">
<use xlink:href="#glyph-1-6-8a6e38b5" x="475.799995" y="66.524966"/>
<use xlink:href="#glyph-1-7-8a6e38b5" x="482.399996" y="66.524966"/>
<use xlink:href="#glyph-1-8-8a6e38b5" x="488.999997" y="66.524966"/>
<use xlink:href="#glyph-1-9-8a6e38b5" x="495.599997" y="66.524966"/>
</g>
<g fill="rgb(10.588235%, 16.470589%, 22.745098%)" fill-opacity="1">
<use xlink:href="#glyph-2-1-8a6e38b5" x="502.199998" y="66.524966"/>
</g>
<g fill="rgb(10.588235%, 16.470589%, 22.745098%)" fill-opacity="1">
<use xlink:href="#glyph-1-10-8a6e38b5" x="508.799996" y="66.524966"/>
<use xlink:href="#glyph-1-9-8a6e38b5" x="515.399995" y="66.524966"/>
<use xlink:href="#glyph-1-11-8a6e38b5" x="521.999994" y="66.524966"/>
</g>
<g fill="rgb(10.588235%, 16.470589%, 22.745098%)" fill-opacity="1">
<use xlink:href="#glyph-1-12-8a6e38b5" x="475.800018" y="82.449954"/>
<use xlink:href="#glyph-1-13-8a6e38b5" x="482.400021" y="82.449954"/>
<use xlink:href="#glyph-1-14-8a6e38b5" x="489.000019" y="82.449954"/>
<use xlink:href="#glyph-1-14-8a6e38b5" x="495.60002" y="82.449954"/>
<use xlink:href="#glyph-1-9-8a6e38b5" x="502.200021" y="82.449954"/>
<use xlink:href="#glyph-1-11-8a6e38b5" x="508.800019" y="82.449954"/>
<use xlink:href="#glyph-1-15-8a6e38b5" x="515.400018" y="82.449954"/>
<use xlink:href="#glyph-1-16-8a6e38b5" x="522.000016" y="82.449954"/>
<use xlink:href="#glyph-1-9-8a6e38b5" x="528.600015" y="82.449954"/>
<use xlink:href="#glyph-1-13-8a6e38b5" x="535.200014" y="82.449954"/>
<use xlink:href="#glyph-1-7-8a6e38b5" x="541.800012" y="82.449954"/>
<use xlink:href="#glyph-1-17-8a6e38b5" x="548.400011" y="82.449954"/>
<use xlink:href="#glyph-1-18-8a6e38b5" x="555.00001" y="82.449954"/>
<use xlink:href="#glyph-1-18-8a6e38b5" x="561.600008" y="82.449954"/>
</g>
<path fill="none" stroke-width="1.1" stroke-linecap="butt" stroke-linejoin="miter" stroke="rgb(10.588235%, 16.470589%, 22.745098%)" stroke-opacity="1" stroke-miterlimit="1.154701" d="M 59.449219 399 L 584.550781 399 "/>
<path fill="none" stroke-width="1.1" stroke-linecap="butt" stroke-linejoin="miter" stroke="rgb(10.588235%, 16.470589%, 22.745098%)" stroke-opacity="1" stroke-miterlimit="1.154701" d="M 60 399.550781 L 60 41.449219 "/>
<path fill="none" stroke-width="1.1" stroke-linecap="butt" stroke-linejoin="miter" stroke="rgb(10.588235%, 16.470589%, 22.745098%)" stroke-opacity="1" stroke-miterlimit="1.154701" d="M 59.449219 42 L 584.550781 42 "/>
<path fill="none" stroke-width="1.1" stroke-linecap="butt" stroke-linejoin="miter" stroke="rgb(10.588235%, 16.470589%, 22.745098%)" stroke-opacity="1" stroke-miterlimit="1.154701" d="M 584 399.550781 L 584 41.449219 "/>
</svg>
