<?xml version="1.0" encoding="UTF-8"?>
<svg xmlns="http://www.w3.org/2000/svg" xmlns:xlink="http://www.w3.org/1999/xlink" width="720" height="420" viewBox="0 0 720 420">
<defs>
<g>
<g id="glyph-0-0-c9a98540">
<path d="M 2.046875 -3.609375 C 2.046875 -4.179688 2.03125 -4.59375 2 -4.84375 C 1.976562 -5.09375 1.941406 -5.359375 1.890625 -5.640625 L 0.75 -5.640625 L 0.75 -6.59375 L 2.859375 -6.59375 L 3.015625 -5.4375 C 3.203125 -5.894531 3.460938 -6.222656 3.796875 -6.421875 C 4.140625 -6.628906 4.492188 -6.734375 4.859375 -6.734375 C 5.140625 -6.734375 5.4375 -6.664062 5.75 -6.53125 C 6.070312 -6.394531 6.332031 -6.234375 6.53125 -6.046875 L 5.84375 -5.203125 C 5.726562 -5.316406 5.566406 -5.421875 5.359375 -5.515625 C 5.148438 -5.609375 4.910156 -5.65625 4.640625 -5.65625 C 4.179688 -5.65625 3.832031 -5.429688 3.59375 -4.984375 C 3.363281 -4.535156 3.25 -3.863281 3.25 -2.96875 L 3.25 0 L 2.03125 0 Z M 2.046875 -3.609375 "/>
</g>
<g id="glyph-0-1-c9a98540">
<path d="M 3.8125 0.109375 C 3.257812 0.109375 2.753906 -0.0234375 2.296875 -0.296875 C 1.847656 -0.566406 1.488281 -0.957031 1.21875 -1.46875 C 0.945312 -1.976562 0.8125 -2.578125 0.8125 -3.265625 C 0.8125 -3.929688 0.9375 -4.523438 1.1875 -5.046875 C 1.4375 -5.578125 1.78125 -5.988281 2.21875 -6.28125 C 2.664062 -6.570312 3.164062 -6.71875 3.71875 -6.71875 C 4.582031 -6.71875 5.238281 -6.390625 5.6875 -5.734375 C 6.144531 -5.085938 6.375 -4.164062 6.375 -2.96875 L 2.046875 -2.96875 C 2.054688 -2.3125 2.21875 -1.8125 2.53125 -1.46875 C 2.84375 -1.132812 3.285156 -0.96875 3.859375 -0.96875 C 4.242188 -0.96875 4.609375 -1.03125 4.953125 -1.15625 C 5.296875 -1.28125 5.550781 -1.410156 5.71875 -1.546875 L 6.25 -0.671875 C 6.09375 -0.535156 5.882812 -0.40625 5.625 -0.28125 C 5.363281 -0.164062 5.070312 -0.0703125 4.75 0 C 4.4375 0.0703125 4.125 0.109375 3.8125 0.109375 Z M 5.25 -3.953125 C 5.25 -4.296875 5.179688 -4.597656 5.046875 -4.859375 C 4.910156 -5.117188 4.726562 -5.320312 4.5 -5.46875 C 4.269531 -5.613281 4.007812 -5.6875 3.71875 -5.6875 C 3.414062 -5.6875 3.140625 -5.613281 2.890625 -5.46875 C 2.648438 -5.320312 2.453125 -5.117188 2.296875 -4.859375 C 2.148438 -4.597656 2.078125 -4.296875 2.078125 -3.953125 Z M 5.25 -3.953125 "/>
</g>
<g id="glyph-0-2-c9a98540">
<path d="M 3.625 0.0625 C 3.039062 0.0625 2.539062 -0.0351562 2.125 -0.234375 C 1.71875 -0.429688 1.347656 -0.726562 1.015625 -1.125 L 1.71875 -1.875 C 1.9375 -1.664062 2.132812 -1.5 2.3125 -1.375 C 2.488281 -1.25 2.6875 -1.148438 2.90625 -1.078125 C 3.132812 -1.003906 3.394531 -0.96875 3.6875 -0.96875 C 4.039062 -0.96875 4.359375 -1.035156 4.640625 -1.171875 C 4.921875 -1.316406 5.0625 -1.550781 5.0625 -1.875 C 5.0625 -2.050781 5.007812 -2.1875 4.90625 -2.28125 C 4.8125 -2.382812 4.6875 -2.460938 4.53125 -2.515625 C 4.375 -2.578125 4.140625 -2.644531 3.828125 -2.71875 C 3.660156 -2.757812 3.5 -2.800781 3.34375 -2.84375 C 2.875 -2.96875 2.488281 -3.097656 2.1875 -3.234375 C 1.894531 -3.378906 1.65625 -3.570312 1.46875 -3.8125 C 1.28125 -4.0625 1.1875 -4.378906 1.1875 -4.765625 C 1.1875 -5.179688 1.289062 -5.535156 1.5 -5.828125 C 1.71875 -6.117188 2.007812 -6.335938 2.375 -6.484375 C 2.738281 -6.640625 3.15625 -6.71875 3.625 -6.71875 C 4.582031 -6.71875 5.335938 -6.441406 5.890625 -5.890625 L 5.171875 -5.09375 C 4.734375 -5.457031 4.226562 -5.640625 3.65625 -5.640625 C 3.269531 -5.640625 2.953125 -5.5625 2.703125 -5.40625 C 2.460938 -5.257812 2.34375 -5.0625 2.34375 -4.8125 C 2.34375 -4.601562 2.425781 -4.425781 2.59375 -4.28125 C 2.757812 -4.144531 2.960938 -4.035156 3.203125 -3.953125 C 3.441406 -3.878906 3.75 -3.796875 4.125 -3.703125 L 4.34375 -3.640625 C 4.65625 -3.554688 4.9375 -3.457031 5.1875 -3.34375 C 5.4375 -3.238281 5.660156 -3.0625 5.859375 -2.8125 C 6.066406 -2.570312 6.171875 -2.253906 6.171875 -1.859375 C 6.171875 -1.398438 6.050781 -1.023438 5.8125 -0.734375 C 5.582031 -0.453125 5.273438 -0.25 4.890625 -0.125 C 4.515625 0 4.09375 0.0625 3.625 0.0625 Z M 3.625 0.0625 "/>
</g>
<g id="glyph-0-3-c9a98540">
<path d="M 1.21875 -6.59375 L 4.296875 -6.59375 L 4.296875 -0.96875 L 6.125 -0.96875 L 6.125 0 L 1.109375 0 L 1.109375 -0.96875 L 3.078125 -0.96875 L 3.078125 -5.671875 L 1.21875 -5.671875 Z M 3.5625 -7.796875 C 3.25 -7.796875 3.023438 -7.863281 2.890625 -8 C 2.753906 -8.132812 2.6875 -8.351562 2.6875 -8.65625 C 2.6875 -8.976562 2.753906 -9.203125 2.890625 -9.328125 C 3.023438 -9.460938 3.25 -9.53125 3.5625 -9.53125 C 3.875 -9.53125 4.09375 -9.460938 4.21875 -9.328125 C 4.351562 -9.203125 4.421875 -8.976562 4.421875 -8.65625 C 4.421875 -8.351562 4.351562 -8.132812 4.21875 -8 C 4.09375 -7.863281 3.875 -7.796875 3.5625 -7.796875 Z M 3.5625 -7.796875 "/>
</g>
<g id="glyph-0-4-c9a98540">
<path d="M 3.3125 0.078125 C 2.757812 0.078125 2.289062 -0.0820312 1.90625 -0.40625 C 1.53125 -0.738281 1.25 -1.164062 1.0625 -1.6875 C 0.882812 -2.21875 0.796875 -2.785156 0.796875 -3.390625 C 0.796875 -3.953125 0.894531 -4.484375 1.09375 -4.984375 C 1.300781 -5.492188 1.59375 -5.90625 1.96875 -6.21875 C 2.351562 -6.53125 2.804688 -6.6875 3.328125 -6.6875 C 4.203125 -6.6875 4.800781 -6.378906 5.125 -5.765625 L 5.125 -9.484375 L 6.3125 -9.484375 L 6.3125 -1.4375 C 6.3125 -1.28125 6.3125 -1.125 6.3125 -0.96875 C 6.320312 -0.820312 6.332031 -0.671875 6.34375 -0.515625 L 6.359375 0 L 5.234375 0 L 5.125 -0.828125 C 4.894531 -0.503906 4.640625 -0.269531 4.359375 -0.125 C 4.085938 0.0078125 3.738281 0.078125 3.3125 0.078125 Z M 3.625 -0.828125 C 3.988281 -0.828125 4.28125 -0.957031 4.5 -1.21875 C 4.726562 -1.476562 4.890625 -1.796875 4.984375 -2.171875 C 5.085938 -2.554688 5.140625 -2.945312 5.140625 -3.34375 C 5.140625 -3.738281 5.082031 -4.117188 4.96875 -4.484375 C 4.851562 -4.859375 4.675781 -5.164062 4.4375 -5.40625 C 4.195312 -5.644531 3.890625 -5.765625 3.515625 -5.765625 C 3.179688 -5.765625 2.898438 -5.640625 2.671875 -5.390625 C 2.441406 -5.148438 2.269531 -4.84375 2.15625 -4.46875 C 2.039062 -4.101562 1.984375 -3.734375 1.984375 -3.359375 C 1.984375 -2.960938 2.046875 -2.566406 2.171875 -2.171875 C 2.296875 -1.785156 2.484375 -1.460938 2.734375 -1.203125 C 2.984375 -0.953125 3.28125 -0.828125 3.625 -0.828125 Z M 3.625 -0.828125 "/>
</g>
<g id="glyph-0-5-c9a98540">
<path d="M 3.03125 0.09375 C 2.332031 0.09375 1.8125 -0.113281 1.46875 -0.53125 C 1.132812 -0.945312 0.96875 -1.539062 0.96875 -2.3125 L 0.96875 -6.59375 L 2.171875 -6.59375 L 2.171875 -2.609375 C 2.171875 -2.234375 2.195312 -1.921875 2.25 -1.671875 C 2.3125 -1.429688 2.429688 -1.234375 2.609375 -1.078125 C 2.785156 -0.929688 3.050781 -0.859375 3.40625 -0.859375 C 3.757812 -0.859375 4.050781 -0.953125 4.28125 -1.140625 C 4.519531 -1.328125 4.691406 -1.570312 4.796875 -1.875 C 4.910156 -2.1875 4.96875 -2.523438 4.96875 -2.890625 L 4.96875 -6.59375 L 6.1875 -6.59375 L 6.1875 -1.421875 C 6.1875 -1.171875 6.195312 -0.859375 6.21875 -0.484375 L 6.234375 0 L 5.0625 0 L 5.015625 -0.796875 C 4.785156 -0.472656 4.507812 -0.242188 4.1875 -0.109375 C 3.863281 0.0234375 3.476562 0.09375 3.03125 0.09375 Z M 3.03125 0.09375 "/>
</g>
<g id="glyph-0-6-c9a98540">
<path d="M 2.859375 0.125 C 2.421875 0.125 2.039062 0.0429688 1.71875 -0.109375 C 1.40625 -0.265625 1.164062 -0.484375 1 -0.765625 C 0.832031 -1.046875 0.75 -1.382812 0.75 -1.78125 C 0.75 -2.625 1.078125 -3.203125 1.734375 -3.515625 C 2.398438 -3.828125 3.222656 -3.984375 4.203125 -3.984375 L 4.90625 -3.984375 L 4.90625 -4.296875 C 4.90625 -4.648438 4.8125 -4.972656 4.625 -5.265625 C 4.445312 -5.554688 4.085938 -5.703125 3.546875 -5.703125 C 3.296875 -5.703125 3.0625 -5.664062 2.84375 -5.59375 C 2.632812 -5.53125 2.453125 -5.453125 2.296875 -5.359375 C 2.140625 -5.273438 1.941406 -5.148438 1.703125 -4.984375 L 1.125 -5.796875 C 1.5 -6.066406 1.878906 -6.28125 2.265625 -6.4375 C 2.648438 -6.601562 3.117188 -6.6875 3.671875 -6.6875 C 4.628906 -6.6875 5.273438 -6.445312 5.609375 -5.96875 C 5.941406 -5.5 6.109375 -4.941406 6.109375 -4.296875 L 6.109375 -1.875 C 6.109375 -1.34375 6.144531 -0.71875 6.21875 0 L 5.015625 0 C 5.003906 -0.175781 4.988281 -0.398438 4.96875 -0.671875 L 4.96875 -0.875 C 4.757812 -0.53125 4.46875 -0.273438 4.09375 -0.109375 C 3.71875 0.0429688 3.304688 0.125 2.859375 0.125 Z M 3.15625 -0.796875 C 3.757812 -0.796875 4.203125 -1 4.484375 -1.40625 C 4.765625 -1.8125 4.90625 -2.363281 4.90625 -3.0625 L 4.453125 -3.078125 C 3.859375 -3.078125 3.378906 -3.035156 3.015625 -2.953125 C 2.648438 -2.867188 2.378906 -2.734375 2.203125 -2.546875 C 2.023438 -2.367188 1.9375 -2.132812 1.9375 -1.84375 C 1.9375 -1.476562 2.046875 -1.210938 2.265625 -1.046875 C 2.484375 -0.878906 2.78125 -0.796875 3.15625 -0.796875 Z M 3.15625 -0.796875 "/>
</g>
<g id="glyph-0-7-c9a98540">
<path d="M 4.921875 0.140625 C 4.171875 0.140625 3.609375 -0.0390625 3.234375 -0.40625 C 2.867188 -0.769531 2.6875 -1.320312 2.6875 -2.0625 L 2.6875 -8.484375 L 0.625 -8.484375 L 0.625 -9.484375 L 3.890625 -9.484375 L 3.890625 -2.375 C 3.890625 -1.894531 3.988281 -1.539062 4.1875 -1.3125 C 4.394531 -1.09375 4.660156 -0.984375 4.984375 -0.984375 C 5.210938 -0.984375 5.414062 -1.035156 5.59375 -1.140625 C 5.769531 -1.253906 5.957031 -1.410156 6.15625 -1.609375 L 6.875 -0.78125 C 6.625 -0.519531 6.335938 -0.300781 6.015625 -0.125 C 5.691406 0.0507812 5.328125 0.140625 4.921875 0.140625 Z M 4.921875 0.140625 "/>
</g>
<g id="glyph-1-0-c9a98540">
<path d="M 0.765625 -2.734375 L 0.703125 -3.03125 L 0.765625 -3.3125 L 0.765625 -3.59375 L 5.84375 -3.59375 L 5.84375 -3.3125 L 5.90625 -3.03125 L 5.84375 -2.734375 L 5.84375 -2.453125 L 0.765625 -2.453125 Z M 0.765625 -2.734375 "/>
</g>
<g id="glyph-1-1-c9a98540">
<path d="M 3.28125 0.109375 C 2.832031 0.109375 2.421875 0.0273438 2.046875 -0.125 C 1.671875 -0.28125 1.375 -0.515625 1.15625 -0.828125 C 0.9375 -1.140625 0.828125 -1.535156 0.828125 -2.015625 L 1.9375 -2.015625 C 1.945312 -1.628906 2.070312 -1.335938 2.3125 -1.140625 C 2.5625 -0.941406 2.863281 -0.84375 3.21875 -0.84375 C 3.507812 -0.84375 3.765625 -0.921875 3.984375 -1.078125 C 4.203125 -1.234375 4.367188 -1.453125 4.484375 -1.734375 C 4.609375 -2.015625 4.671875 -2.328125 4.671875 -2.671875 C 4.671875 -2.992188 4.613281 -3.285156 4.5 -3.546875 C 4.394531 -3.804688 4.238281 -4.007812 4.03125 -4.15625 C 3.832031 -4.300781 3.597656 -4.375 3.328125 -4.375 C 3.003906 -4.375 2.722656 -4.28125 2.484375 -4.09375 C 2.253906 -3.90625 2.097656 -3.648438 2.015625 -3.328125 L 0.90625 -3.328125 L 1.484375 -7.96875 L 5.5625 -7.96875 L 5.5625 -7 L 2.453125 -7 L 2.109375 -4.5625 C 2.316406 -4.820312 2.535156 -5.019531 2.765625 -5.15625 C 3.003906 -5.289062 3.273438 -5.359375 3.578125 -5.359375 C 4.035156 -5.359375 4.429688 -5.238281 4.765625 -5 C 5.109375 -4.757812 5.367188 -4.4375 5.546875 -4.03125 C 5.722656 -3.625 5.8125 -3.164062 5.8125 -2.65625 C 5.8125 -2.113281 5.703125 -1.632812 5.484375 -1.21875 C 5.273438 -0.800781 4.976562 -0.472656 4.59375 -0.234375 C 4.21875 -0.00390625 3.78125 0.109375 3.28125 0.109375 Z M 3.28125 0.109375 "/>
</g>
<g id="glyph-1-2-c9a98540">
<path d="M 3.3125 0.109375 C 2.550781 0.109375 1.972656 -0.0507812 1.578125 -0.375 C 1.191406 -0.707031 0.9375 -1.160156 0.8125 -1.734375 C 0.6875 -2.304688 0.625 -3.066406 0.625 -4.015625 C 0.625 -4.941406 0.6875 -5.691406 0.8125 -6.265625 C 0.945312 -6.835938 1.207031 -7.28125 1.59375 -7.59375 C 1.976562 -7.914062 2.550781 -8.078125 3.3125 -8.078125 C 4.0625 -8.078125 4.628906 -7.921875 5.015625 -7.609375 C 5.410156 -7.296875 5.671875 -6.851562 5.796875 -6.28125 C 5.929688 -5.707031 6 -4.953125 6 -4.015625 C 6 -3.066406 5.929688 -2.304688 5.796875 -1.734375 C 5.671875 -1.160156 5.414062 -0.707031 5.03125 -0.375 C 4.644531 -0.0507812 4.070312 0.109375 3.3125 0.109375 Z M 2.59375 -4.015625 L 3.3125 -4.828125 L 4.015625 -4.015625 L 3.3125 -3.28125 Z M 3.3125 -0.8125 C 3.769531 -0.8125 4.113281 -0.929688 4.34375 -1.171875 C 4.582031 -1.421875 4.738281 -1.765625 4.8125 -2.203125 C 4.882812 -2.648438 4.921875 -3.253906 4.921875 -4.015625 C 4.921875 -4.742188 4.882812 -5.328125 4.8125 -5.765625 C 4.738281 -6.203125 4.585938 -6.539062 4.359375 -6.78125 C 4.128906 -7.03125 3.78125 -7.15625 3.3125 -7.15625 C 2.84375 -7.15625 2.488281 -7.03125 2.25 -6.78125 C 2.019531 -6.539062 1.867188 -6.203125 1.796875 -5.765625 C 1.734375 -5.328125 1.703125 -4.742188 1.703125 -4.015625 C 1.703125 -3.265625 1.738281 -2.664062 1.8125 -2.21875 C 1.882812 -1.769531 2.035156 -1.421875 2.265625 -1.171875 C 2.503906 -0.929688 2.851562 -0.8125 3.3125 -0.8125 Z M 3.3125 -0.8125 "/>
</g>
<g id="glyph-1-3-c9a98540">
<path d="M 3.296875 0.234375 C 2.960938 0.234375 2.703125 0.144531 2.515625 -0.03125 C 2.335938 -0.21875 2.25 -0.476562 2.25 -0.8125 C 2.25 -1.144531 2.335938 -1.398438 2.515625 -1.578125 C 2.703125 -1.765625 2.960938 -1.859375 3.296875 -1.859375 C 3.640625 -1.859375 3.898438 -1.765625 4.078125 -1.578125 C 4.253906 -1.398438 4.34375 -1.144531 4.34375 -0.8125 C 4.34375 -0.476562 4.25 -0.21875 4.0625 -0.03125 C 3.882812 0.144531 3.628906 0.234375 3.296875 0.234375 Z M 3.296875 0.234375 "/>
</g>
<g id="glyph-1-4-c9a98540">
<path d="M 1.015625 -0.9375 L 2.9375 -0.9375 L 2.9375 -6.390625 C 2.613281 -6.078125 2.265625 -5.789062 1.890625 -5.53125 C 1.515625 -5.28125 1.164062 -5.109375 0.84375 -5.015625 L 0.84375 -6.078125 C 1.226562 -6.234375 1.625 -6.492188 2.03125 -6.859375 C 2.4375 -7.234375 2.78125 -7.601562 3.0625 -7.96875 L 4 -7.96875 L 4 -0.9375 L 5.765625 -0.9375 L 5.765625 0 L 1.015625 0 Z M 1.015625 -0.9375 "/>
</g>
<g id="glyph-1-5-c9a98540">
<path d="M 1.828125 -2.234375 C 1.828125 -1.929688 1.894531 -1.671875 2.03125 -1.453125 C 2.175781 -1.242188 2.359375 -1.082031 2.578125 -0.96875 C 2.796875 -0.851562 3.019531 -0.796875 3.25 -0.796875 C 3.5 -0.796875 3.738281 -0.851562 3.96875 -0.96875 C 4.207031 -1.082031 4.394531 -1.25 4.53125 -1.46875 C 4.675781 -1.6875 4.75 -1.941406 4.75 -2.234375 C 4.75 -2.617188 4.648438 -2.945312 4.453125 -3.21875 C 4.265625 -3.5 3.984375 -3.71875 3.609375 -3.875 C 3.242188 -4.03125 2.8125 -4.109375 2.3125 -4.109375 L 2.3125 -5 L 4.515625 -7.046875 L 0.953125 -7.046875 L 0.953125 -7.96875 L 5.796875 -7.96875 L 5.796875 -6.828125 L 3.703125 -4.796875 C 4.203125 -4.710938 4.613281 -4.546875 4.9375 -4.296875 C 5.269531 -4.046875 5.515625 -3.742188 5.671875 -3.390625 C 5.828125 -3.035156 5.90625 -2.648438 5.90625 -2.234375 C 5.90625 -1.742188 5.773438 -1.316406 5.515625 -0.953125 C 5.265625 -0.597656 4.929688 -0.332031 4.515625 -0.15625 C 4.109375 0.0195312 3.6875 0.109375 3.25 0.109375 C 2.800781 0.109375 2.382812 0.0234375 2 -0.140625 C 1.613281 -0.304688 1.300781 -0.566406 1.0625 -0.921875 C 0.820312 -1.273438 0.703125 -1.710938 0.703125 -2.234375 Z M 1.828125 -2.234375 "/>
</g>
<g id="glyph-1-6-c9a98540">
<path d="M 3.828125 -1.6875 L 0.453125 -1.6875 L 0.453125 -2.765625 L 3.53125 -7.96875 L 4.90625 -7.96875 L 4.90625 -2.625 L 6.046875 -2.625 L 6.046875 -1.6875 L 4.90625 -1.6875 L 4.90625 0 L 3.828125 0 Z M 3.828125 -2.625 L 3.828125 -6.65625 L 1.546875 -2.625 Z M 3.828125 -2.625 "/>
</g>
<g id="glyph-1-7-c9a98540">
<path d="M 3.40625 0.125 C 2.414062 0.125 1.71875 -0.234375 1.3125 -0.953125 C 0.914062 -1.679688 0.71875 -2.648438 0.71875 -3.859375 C 0.71875 -4.628906 0.800781 -5.332031 0.96875 -5.96875 C 1.144531 -6.601562 1.4375 -7.113281 1.84375 -7.5 C 2.25 -7.882812 2.78125 -8.078125 3.4375 -8.078125 C 3.851562 -8.078125 4.222656 -8.003906 4.546875 -7.859375 C 4.867188 -7.710938 5.132812 -7.519531 5.34375 -7.28125 L 4.625 -6.640625 C 4.5 -6.796875 4.335938 -6.914062 4.140625 -7 C 3.941406 -7.09375 3.707031 -7.140625 3.4375 -7.140625 C 2.8125 -7.140625 2.390625 -6.832031 2.171875 -6.21875 C 1.953125 -5.601562 1.835938 -4.847656 1.828125 -3.953125 C 2.210938 -4.796875 2.800781 -5.21875 3.59375 -5.21875 C 4.039062 -5.21875 4.4375 -5.09375 4.78125 -4.84375 C 5.132812 -4.601562 5.40625 -4.273438 5.59375 -3.859375 C 5.789062 -3.441406 5.890625 -2.988281 5.890625 -2.5 C 5.890625 -1.988281 5.785156 -1.535156 5.578125 -1.140625 C 5.367188 -0.742188 5.078125 -0.429688 4.703125 -0.203125 C 4.328125 0.0117188 3.894531 0.125 3.40625 0.125 Z M 3.390625 -0.828125 C 3.835938 -0.828125 4.179688 -0.972656 4.421875 -1.265625 C 4.660156 -1.566406 4.78125 -1.960938 4.78125 -2.453125 C 4.78125 -2.773438 4.726562 -3.066406 4.625 -3.328125 C 4.53125 -3.597656 4.378906 -3.8125 4.171875 -3.96875 C 3.972656 -4.125 3.726562 -4.203125 3.4375 -4.203125 C 3.132812 -4.203125 2.867188 -4.125 2.640625 -3.96875 C 2.421875 -3.8125 2.253906 -3.597656 2.140625 -3.328125 C 2.023438 -3.054688 1.96875 -2.757812 1.96875 -2.4375 C 1.96875 -2.125 2.023438 -1.84375 2.140625 -1.59375 C 2.253906 -1.351562 2.414062 -1.164062 2.625 -1.03125 C 2.84375 -0.894531 3.097656 -0.828125 3.390625 -0.828125 Z M 3.390625 -0.828125 "/>
</g>
<g id="glyph-1-8-c9a98540">
<path d="M 0.90625 -4.546875 C 0.90625 -4.796875 0.894531 -5.015625 0.875 -5.203125 C 0.863281 -5.398438 0.84375 -5.679688 0.8125 -6.046875 L 1.859375 -6.046875 L 1.96875 -5.046875 C 2.175781 -5.410156 2.4375 -5.6875 2.75 -5.875 C 3.070312 -6.0625 3.429688 -6.15625 3.828125 -6.15625 C 4.460938 -6.15625 4.941406 -5.9375 5.265625 -5.5 C 5.597656 -5.0625 5.765625 -4.453125 5.765625 -3.671875 L 5.765625 0 L 4.640625 0 L 4.640625 -3.234375 C 4.640625 -3.828125 4.550781 -4.304688 4.375 -4.671875 C 4.207031 -5.035156 3.890625 -5.21875 3.421875 -5.21875 C 3.078125 -5.21875 2.800781 -5.101562 2.59375 -4.875 C 2.382812 -4.644531 2.234375 -4.351562 2.140625 -4 C 2.046875 -3.644531 2 -3.265625 2 -2.859375 L 2 0 L 0.90625 0 Z M 0.90625 -4.546875 "/>
</g>
<g id="glyph-1-9-c9a98540">
<path d="M 3.296875 0.09375 C 2.765625 0.09375 2.304688 -0.03125 1.921875 -0.28125 C 1.535156 -0.539062 1.238281 -0.90625 1.03125 -1.375 C 0.832031 -1.84375 0.734375 -2.390625 0.734375 -3.015625 C 0.734375 -3.660156 0.835938 -4.21875 1.046875 -4.6875 C 1.253906 -5.164062 1.550781 -5.53125 1.9375 -5.78125 C 2.320312 -6.03125 2.78125 -6.15625 3.3125 -6.15625 C 3.832031 -6.15625 4.285156 -6.03125 4.671875 -5.78125 C 5.054688 -5.53125 5.351562 -5.164062 5.5625 -4.6875 C 5.769531 -4.21875 5.875 -3.660156 5.875 -3.015625 C 5.875 -2.390625 5.769531 -1.84375 5.5625 -1.375 C 5.363281 -0.90625 5.070312 -0.539062 4.6875 -0.28125 C 4.300781 -0.03125 3.835938 0.09375 3.296875 0.09375 Z M 3.28125 -0.875 C 3.582031 -0.875 3.84375 -0.957031 4.0625 -1.125 C 4.28125 -1.300781 4.445312 -1.550781 4.5625 -1.875 C 4.675781 -2.195312 4.734375 -2.578125 4.734375 -3.015625 C 4.734375 -3.460938 4.671875 -3.847656 4.546875 -4.171875 C 4.429688 -4.503906 4.265625 -4.757812 4.046875 -4.9375 C 3.828125 -5.113281 3.570312 -5.203125 3.28125 -5.203125 C 2.988281 -5.203125 2.738281 -5.113281 2.53125 -4.9375 C 2.320312 -4.757812 2.160156 -4.503906 2.046875 -4.171875 C 1.929688 -3.847656 1.875 -3.460938 1.875 -3.015625 C 1.875 -2.578125 1.925781 -2.195312 2.03125 -1.875 C 2.144531 -1.550781 2.304688 -1.300781 2.515625 -1.125 C 2.734375 -0.957031 2.988281 -0.875 3.28125 -0.875 Z M 3.28125 -0.875 "/>
</g>
<g id="glyph-1-10-c9a98540">
<path d="M 0.515625 -4.703125 C 0.515625 -5.054688 0.492188 -5.503906 0.453125 -6.046875 L 1.484375 -6.046875 L 1.546875 -5.375 C 1.648438 -5.632812 1.785156 -5.828125 1.953125 -5.953125 C 2.128906 -6.085938 2.335938 -6.15625 2.578125 -6.15625 C 3.097656 -6.15625 3.410156 -5.816406 3.515625 -5.140625 C 3.609375 -5.515625 3.765625 -5.773438 3.984375 -5.921875 C 4.210938 -6.066406 4.484375 -6.140625 4.796875 -6.140625 C 5.054688 -6.140625 5.285156 -6.066406 5.484375 -5.921875 C 5.691406 -5.785156 5.851562 -5.578125 5.96875 -5.296875 C 6.09375 -5.023438 6.15625 -4.691406 6.15625 -4.296875 L 6.15625 0 L 5.015625 0 L 5.015625 -4.109375 C 5.015625 -4.492188 4.972656 -4.773438 4.890625 -4.953125 C 4.816406 -5.128906 4.691406 -5.21875 4.515625 -5.21875 C 4.109375 -5.21875 3.90625 -4.878906 3.90625 -4.203125 L 3.90625 0 L 2.78125 0 L 2.78125 -4.109375 C 2.78125 -4.847656 2.582031 -5.21875 2.1875 -5.21875 C 2.007812 -5.21875 1.875 -5.140625 1.78125 -4.984375 C 1.695312 -4.828125 1.65625 -4.566406 1.65625 -4.203125 L 1.65625 0 L 0.515625 0 Z M 0.515625 -4.703125 "/>
</g>
<g id="glyph-1-11-c9a98540">
<path d="M 1.109375 -6.046875 L 3.9375 -6.046875 L 3.9375 -0.890625 L 5.609375 -0.890625 L 5.609375 0 L 1.015625 0 L 1.015625 -0.890625 L 2.828125 -0.890625 L 2.828125 -5.203125 L 1.109375 -5.203125 Z M 3.265625 -7.15625 C 2.972656 -7.15625 2.765625 -7.210938 2.640625 -7.328125 C 2.523438 -7.453125 2.46875 -7.65625 2.46875 -7.9375 C 2.46875 -8.226562 2.523438 -8.429688 2.640625 -8.546875 C 2.765625 -8.671875 2.972656 -8.734375 3.265625 -8.734375 C 3.546875 -8.734375 3.742188 -8.671875 3.859375 -8.546875 C 3.984375 -8.429688 4.046875 -8.226562 4.046875 -7.9375 C 4.046875 -7.65625 3.984375 -7.453125 3.859375 -7.328125 C 3.742188 -7.210938 3.546875 -7.15625 3.265625 -7.15625 Z M 3.265625 -7.15625 "/>
</g>
<g id="glyph-1-12-c9a98540">
<path d="M 2.625 0.109375 C 2.21875 0.109375 1.867188 0.0390625 1.578125 -0.09375 C 1.285156 -0.238281 1.0625 -0.441406 0.90625 -0.703125 C 0.757812 -0.960938 0.6875 -1.273438 0.6875 -1.640625 C 0.6875 -2.410156 0.988281 -2.9375 1.59375 -3.21875 C 2.207031 -3.507812 2.957031 -3.65625 3.84375 -3.65625 L 4.5 -3.65625 L 4.5 -3.9375 C 4.5 -4.257812 4.414062 -4.550781 4.25 -4.8125 C 4.082031 -5.082031 3.75 -5.21875 3.25 -5.21875 C 3.019531 -5.21875 2.804688 -5.1875 2.609375 -5.125 C 2.421875 -5.070312 2.253906 -5.003906 2.109375 -4.921875 C 1.960938 -4.835938 1.78125 -4.722656 1.5625 -4.578125 L 1.03125 -5.3125 C 1.375 -5.5625 1.71875 -5.757812 2.0625 -5.90625 C 2.414062 -6.050781 2.847656 -6.125 3.359375 -6.125 C 4.242188 -6.125 4.835938 -5.90625 5.140625 -5.46875 C 5.441406 -5.039062 5.59375 -4.53125 5.59375 -3.9375 L 5.59375 -1.71875 C 5.59375 -1.226562 5.628906 -0.65625 5.703125 0 L 4.609375 0 C 4.585938 -0.15625 4.570312 -0.363281 4.5625 -0.625 L 4.546875 -0.796875 C 4.359375 -0.484375 4.09375 -0.253906 3.75 -0.109375 C 3.40625 0.0351562 3.03125 0.109375 2.625 0.109375 Z M 2.90625 -0.734375 C 3.457031 -0.734375 3.859375 -0.914062 4.109375 -1.28125 C 4.367188 -1.65625 4.5 -2.164062 4.5 -2.8125 L 4.078125 -2.828125 C 3.535156 -2.828125 3.097656 -2.785156 2.765625 -2.703125 C 2.429688 -2.628906 2.179688 -2.507812 2.015625 -2.34375 C 1.859375 -2.175781 1.78125 -1.957031 1.78125 -1.6875 C 1.78125 -1.351562 1.878906 -1.109375 2.078125 -0.953125 C 2.273438 -0.804688 2.550781 -0.734375 2.90625 -0.734375 Z M 2.90625 -0.734375 "/>
</g>
<g id="glyph-1-13-c9a98540">
<path d="M 4.515625 0.125 C 3.828125 0.125 3.3125 -0.0390625 2.96875 -0.375 C 2.632812 -0.707031 2.46875 -1.210938 2.46875 -1.890625 L 2.46875 -7.78125 L 0.578125 -7.78125 L 0.578125 -8.6875 L 3.5625 -8.6875 L 3.5625 -2.171875 C 3.5625 -1.742188 3.65625 -1.425781 3.84375 -1.21875 C 4.03125 -1.007812 4.273438 -0.90625 4.578125 -0.90625 C 4.785156 -0.90625 4.96875 -0.953125 5.125 -1.046875 C 5.289062 -1.148438 5.460938 -1.296875 5.640625 -1.484375 L 6.296875 -0.71875 C 6.078125 -0.476562 5.816406 -0.273438 5.515625 -0.109375 C 5.222656 0.0429688 4.890625 0.125 4.515625 0.125 Z M 4.515625 0.125 "/>
</g>
<g id="glyph-1-14-c9a98540">
<path d="M 2.40625 -4.84375 L 0.84375 -4.84375 L 0.84375 -5.765625 L 2.421875 -5.765625 L 2.421875 -6.8125 C 2.421875 -7.507812 2.597656 -8 2.953125 -8.28125 C 3.316406 -8.5625 3.835938 -8.703125 4.515625 -8.703125 C 5.085938 -8.703125 5.503906 -8.6875 5.765625 -8.65625 L 5.765625 -7.703125 C 5.347656 -7.734375 5.015625 -7.75 4.765625 -7.75 C 4.492188 -7.75 4.269531 -7.722656 4.09375 -7.671875 C 3.914062 -7.617188 3.773438 -7.519531 3.671875 -7.375 C 3.566406 -7.238281 3.515625 -7.039062 3.515625 -6.78125 L 3.515625 -5.765625 L 5.28125 -5.765625 L 5.28125 -4.84375 L 3.515625 -4.84375 L 3.515625 0 L 2.40625 0 Z M 2.40625 -4.84375 "/>
</g>
<g id="glyph-1-15-c9a98540">
<path d="M 1.09375 -2.734375 L 1.046875 -3.03125 L 1.09375 -3.3125 L 1.09375 -3.59375 L 5.515625 -3.59375 L 5.515625 -3.3125 L 5.578125 -3.03125 L 5.515625 -2.734375 L 5.515625 -2.453125 L 1.09375 -2.453125 Z M 1.09375 -2.734375 "/>
</g>
<g id="glyph-1-16-c9a98540">
<path d="M 4.1875 0.078125 C 3.601562 0.078125 3.175781 -0.0390625 2.90625 -0.28125 C 2.644531 -0.53125 2.515625 -0.894531 2.515625 -1.375 L 2.515625 -5.140625 L 0.828125 -5.140625 L 0.828125 -6.046875 L 2.515625 -6.046875 L 2.515625 -8.0625 L 3.609375 -8.0625 L 3.609375 -6.046875 L 5.296875 -6.046875 L 5.296875 -5.140625 L 3.609375 -5.140625 L 3.609375 -1.8125 C 3.609375 -1.5625 3.640625 -1.367188 3.703125 -1.234375 C 3.765625 -1.097656 3.863281 -1.003906 4 -0.953125 C 4.132812 -0.898438 4.328125 -0.875 4.578125 -0.875 C 4.691406 -0.875 4.859375 -0.890625 5.078125 -0.921875 C 5.304688 -0.953125 5.503906 -0.988281 5.671875 -1.03125 L 5.671875 -0.09375 C 5.492188 -0.0507812 5.253906 -0.0117188 4.953125 0.015625 C 4.648438 0.0546875 4.394531 0.078125 4.1875 0.078125 Z M 4.1875 0.078125 "/>
</g>
<g id="glyph-1-17-c9a98540">
<path d="M 1.875 -3.3125 C 1.875 -3.832031 1.859375 -4.207031 1.828125 -4.4375 C 1.804688 -4.675781 1.773438 -4.921875 1.734375 -5.171875 L 0.6875 -5.171875 L 0.6875 -6.046875 L 2.625 -6.046875 L 2.765625 -4.984375 C 2.929688 -5.398438 3.171875 -5.703125 3.484375 -5.890625 C 3.796875 -6.078125 4.117188 -6.171875 4.453125 -6.171875 C 4.703125 -6.171875 4.972656 -6.109375 5.265625 -5.984375 C 5.566406 -5.859375 5.804688 -5.707031 5.984375 -5.53125 L 5.359375 -4.765625 C 5.253906 -4.878906 5.101562 -4.976562 4.90625 -5.0625 C 4.71875 -5.144531 4.5 -5.1875 4.25 -5.1875 C 3.832031 -5.1875 3.515625 -4.976562 3.296875 -4.5625 C 3.078125 -4.15625 2.96875 -3.539062 2.96875 -2.71875 L 2.96875 0 L 1.859375 0 Z M 1.875 -3.3125 "/>
</g>
<g id="glyph-2-0-c9a98540">
<path d="M 0.078125 -3.3125 C 0.078125 -2.757812 -0.0820312 -2.289062 -0.40625 -1.90625 C -0.738281 -1.53125 -1.164062 -1.25 -1.6875 -1.0625 C -2.21875 -0.882812 -2.785156 -0.796875 -3.390625 -0.796875 C -3.953125 -0.796875 -4.484375 -0.894531 -4.984375 -1.09375 C -5.492188 -1.300781 -5.90625 -1.59375 -6.21875 -1.96875 C -6.53125 -2.351562 -6.6875 -2.804688 -6.6875 -3.328125 C -6.6875 -4.203125 -6.378906 -4.800781 -5.765625 -5.125 L -9.484375 -5.125 L -9.484375 -6.3125 L -1.4375 -6.3125 C -1.28125 -6.3125 -1.125 -6.3125 -0.96875 -6.3125 C -0.820312 -6.320312 -0.671875 -6.332031 -0.515625 -6.34375 L 0 -6.359375 L 0 -5.234375 L -0.828125 -5.125 C -0.503906 -4.894531 -0.269531 -4.640625 -0.125 -4.359375 C 0.0078125 -4.085938 0.078125 -3.738281 0.078125 -3.3125 Z M -0.828125 -3.625 C -0.828125 -3.988281 -0.957031 -4.28125 -1.21875 -4.5 C -1.476562 -4.726562 -1.796875 -4.890625 -2.171875 -4.984375 C -2.554688 -5.085938 -2.945312 -5.140625 -3.34375 -5.140625 C -3.738281 -5.140625 -4.117188 -5.082031 -4.484375 -4.96875 C -4.859375 -4.851562 -5.164062 -4.675781 -5.40625 -4.4375 C -5.644531 -4.195312 -5.765625 -3.890625 -5.765625 -3.515625 C -5.765625 -3.179688 -5.640625 -2.898438 -5.390625 -2.671875 C -5.148438 -2.441406 -4.84375 -2.269531 -4.46875 -2.15625 C -4.101562 -2.039062 -3.734375 -1.984375 -3.359375 -1.984375 C -2.960938 -1.984375 -2.566406 -2.046875 -2.171875 -2.171875 C -1.785156 -2.296875 -1.460938 -2.484375 -1.203125 -2.734375 C -0.953125 -2.984375 -0.828125 -3.28125 -0.828125 -3.625 Z M -0.828125 -3.625 "/>
</g>
<g id="glyph-3-0-c9a98540">
<path d="M 0.109375 -3.8125 C 0.109375 -3.257812 -0.0234375 -2.753906 -0.296875 -2.296875 C -0.566406 -1.847656 -0.957031 -1.488281 -1.46875 -1.21875 C -1.976562 -0.945312 -2.578125 -0.8125 -3.265625 -0.8125 C -3.929688 -0.8125 -4.523438 -0.9375 -5.046875 -1.1875 C -5.578125 -1.4375 -5.988281 -1.78125 -6.28125 -2.21875 C -6.570312 -2.664062 -6.71875 -3.164062 -6.71875 -3.71875 C -6.71875 -4.582031 -6.390625 -5.238281 -5.734375 -5.6875 C -5.085938 -6.144531 -4.164062 -6.375 -2.96875 -6.375 L -2.96875 -2.046875 C -2.3125 -2.054688 -1.8125 -2.21875 -1.46875 -2.53125 C -1.132812 -2.84375 -0.96875 -3.285156 -0.96875 -3.859375 C -0.96875 -4.242188 -1.03125 -4.609375 -1.15625 -4.953125 C -1.28125 -5.296875 -1.410156 -5.550781 -1.546875 -5.71875 L -0.671875 -6.25 C -0.535156 -6.09375 -0.40625 -5.882812 -0.28125 -5.625 C -0.164062 -5.363281 -0.0703125 -5.070312 0 -4.75 C 0.0703125 -4.4375 0.109375 -4.125 0.109375 -3.8125 Z M -3.953125 -5.25 C -4.296875 -5.25 -4.597656 -5.179688 -4.859375 -5.046875 C -5.117188 -4.910156 -5.320312 -4.726562 -5.46875 -4.5 C -5.613281 -4.269531 -5.6875 -4.007812 -5.6875 -3.71875 C -5.6875 -3.414062 -5.613281 -3.140625 -5.46875 -2.890625 C -5.320312 -2.648438 -5.117188 -2.453125 -4.859375 -2.296875 C -4.597656 -2.148438 -4.296875 -2.078125 -3.953125 -2.078125 Z M -3.953125 -5.25 "/>
</g>
<g id="glyph-4-0-c9a98540">
<path d="M -4.96875 -0.984375 C -5.226562 -0.984375 -5.460938 -0.972656 -5.671875 -0.953125 C -5.890625 -0.941406 -6.195312 -0.921875 -6.59375 -0.890625 L -6.59375 -2.03125 L -5.515625 -2.140625 C -5.898438 -2.367188 -6.195312 -2.65625 -6.40625 -3 C -6.613281 -3.351562 -6.71875 -3.75 -6.71875 -4.1875 C -6.71875 -4.863281 -6.476562 -5.378906 -6 -5.734375 C -5.53125 -6.097656 -4.867188 -6.28125 -4.015625 -6.28125 L 0 -6.28125 L 0 -5.0625 L -3.53125 -5.0625 C -4.175781 -5.0625 -4.695312 -4.96875 -5.09375 -4.78125 C -5.488281 -4.59375 -5.6875 -4.242188 -5.6875 -3.734375 C -5.6875 -3.359375 -5.5625 -3.054688 -5.3125 -2.828125 C -5.0625 -2.597656 -4.742188 -2.429688 -4.359375 -2.328125 C -3.972656 -2.234375 -3.5625 -2.1875 -3.125 -2.1875 L 0 -2.1875 L 0 -0.984375 Z M -4.96875 -0.984375 "/>
</g>
<g id="glyph-5-0-c9a98540">
<path d="M 0.0625 -3.625 C 0.0625 -3.039062 -0.0351562 -2.539062 -0.234375 -2.125 C -0.429688 -1.71875 -0.726562 -1.347656 -1.125 -1.015625 L -1.875 -1.71875 C -1.664062 -1.9375 -1.5 -2.132812 -1.375 -2.3125 C -1.25 -2.488281 -1.148438 -2.6875 -1.078125 -2.90625 C -1.003906 -3.132812 -0.96875 -3.394531 -0.96875 -3.6875 C -0.96875 -4.039062 -1.035156 -4.359375 -1.171875 -4.640625 C -1.316406 -4.921875 -1.550781 -5.0625 -1.875 -5.0625 C -2.050781 -5.0625 -2.1875 -5.007812 -2.28125 -4.90625 C -2.382812 -4.8125 -2.460938 -4.6875 -2.515625 -4.53125 C -2.578125 -4.375 -2.644531 -4.140625 -2.71875 -3.828125 C -2.757812 -3.660156 -2.800781 -3.5 -2.84375 -3.34375 C -2.96875 -2.875 -3.097656 -2.488281 -3.234375 -2.1875 C -3.378906 -1.894531 -3.570312 -1.65625 -3.8125 -1.46875 C -4.0625 -1.28125 -4.378906 -1.1875 -4.765625 -1.1875 C -5.179688 -1.1875 -5.535156 -1.289062 -5.828125 -1.5 C -6.117188 -1.71875 -6.335938 -2.007812 -6.484375 -2.375 C -6.640625 -2.738281 -6.71875 -3.15625 -6.71875 -3.625 C -6.71875 -4.582031 -6.441406 -5.335938 -5.890625 -5.890625 L -5.09375 -5.171875 C -5.457031 -4.734375 -5.640625 -4.226562 -5.640625 -3.65625 C -5.640625 -3.269531 -5.5625 -2.953125 -5.40625 -2.703125 C -5.257812 -2.460938 -5.0625 -2.34375 -4.8125 -2.34375 C -4.601562 -2.34375 -4.425781 -2.425781 -4.28125 -2.59375 C -4.144531 -2.757812 -4.035156 -2.960938 -3.953125 -3.203125 C -3.878906 -3.441406 -3.796875 -3.75 -3.703125 -4.125 L -3.640625 -4.34375 C -3.554688 -4.65625 -3.457031 -4.9375 -3.34375 -5.1875 C -3.238281 -5.4375 -3.0625 -5.660156 -2.8125 -5.859375 C -2.570312 -6.066406 -2.253906 -6.171875 -1.859375 -6.171875 C -1.398438 -6.171875 -1.023438 -6.050781 -0.734375 -5.8125 C -0.453125 -5.582031 -0.25 -5.273438 -0.125 -4.890625 C 0 -4.515625 0.0625 -4.09375 0.0625 -3.625 Z M 0.0625 -3.625 "/>
</g>
<g id="glyph-6-0-c9a98540">
<path d="M -6.59375 -1.21875 L -6.59375 -4.296875 L -0.96875 -4.296875 L -0.96875 -6.125 L 0 -6.125 L 0 -1.109375 L -0.96875 -1.109375 L -0.96875 -3.078125 L -5.671875 -3.078125 L -5.671875 -1.21875 Z M -7.796875 -3.5625 C -7.796875 -3.25 -7.863281 -3.023438 -8 -2.890625 C -8.132812 -2.753906 -8.351562 -2.6875 -8.65625 -2.6875 C -8.976562 -2.6875 -9.203125 -2.753906 -9.328125 -2.890625 C -9.460938 -3.023438 -9.53125 -3.25 -9.53125 -3.5625 C -9.53125 -3.875 -9.460938 -4.09375 -9.328125 -4.21875 C -9.203125 -4.351562 -8.976562 -4.421875 -8.65625 -4.421875 C -8.351562 -4.421875 -8.132812 -4.351562 -8 -4.21875 C -7.863281 -4.09375 -7.796875 -3.875 -7.796875 -3.5625 Z M -7.796875 -3.5625 "/>
</g>
<g id="glyph-7-0-c9a98540">
<path d="M 0.078125 -4.5625 C 0.078125 -3.925781 -0.0507812 -3.460938 -0.3125 -3.171875 C -0.582031 -2.878906 -0.976562 -2.734375 -1.5 -2.734375 L -5.609375 -2.734375 L -5.609375 -0.90625 L -6.59375 -0.90625 L -6.59375 -2.734375 L -8.796875 -2.734375 L -8.796875 -3.9375 L -6.59375 -3.9375 L -6.59375 -5.78125 L -5.609375 -5.78125 L -5.609375 -3.9375 L -1.984375 -3.9375 C -1.703125 -3.9375 -1.488281 -3.96875 -1.34375 -4.03125 C -1.195312 -4.101562 -1.09375 -4.210938 -1.03125 -4.359375 C -0.976562 -4.503906 -0.953125 -4.710938 -0.953125 -4.984375 C -0.953125 -5.117188 -0.96875 -5.304688 -1 -5.546875 C -1.039062 -5.796875 -1.082031 -6.007812 -1.125 -6.1875 L -0.109375 -6.1875 C -0.0546875 -5.988281 -0.0117188 -5.722656 0.015625 -5.390625 C 0.0546875 -5.066406 0.078125 -4.789062 0.078125 -4.5625 Z M 0.078125 -4.5625 "/>
</g>
<g id="glyph-8-0-c9a98540">
<path d="M 1.078125 -0.828125 C 1.128906 -0.984375 1.175781 -1.195312 1.21875 -1.46875 C 1.257812 -1.738281 1.28125 -1.925781 1.28125 -2.03125 C 1.28125 -2.25 1.21875 -2.4375 1.09375 -2.59375 C 0.976562 -2.75 0.828125 -2.863281 0.640625 -2.9375 C 0.460938 -3.019531 0.285156 -3.0625 0.109375 -3.0625 C -0.0429688 -3.0625 -0.359375 -2.988281 -0.828125 -2.84375 C -1.296875 -2.707031 -1.789062 -2.546875 -2.3125 -2.359375 C -2.382812 -2.335938 -2.96875 -2.132812 -4.0625 -1.75 C -5.320312 -1.3125 -6.164062 -1.015625 -6.59375 -0.859375 L -6.59375 -2.125 L -1.671875 -3.703125 L -6.59375 -5.1875 L -6.59375 -6.359375 L -3.046875 -5.234375 C -2.804688 -5.160156 -2.265625 -5 -1.421875 -4.75 C -0.367188 -4.445312 0.25 -4.257812 0.4375 -4.1875 C 0.988281 -3.976562 1.40625 -3.75 1.6875 -3.5 C 1.976562 -3.25 2.160156 -3.015625 2.234375 -2.796875 C 2.316406 -2.578125 2.363281 -2.351562 2.375 -2.125 C 2.375 -2.039062 2.347656 -1.84375 2.296875 -1.53125 C 2.242188 -1.226562 2.203125 -0.992188 2.171875 -0.828125 Z M 1.078125 -0.828125 "/>
</g>
<g id="glyph-9-0-c9a98540">
<path d="M 3.3125 0.109375 C 2.550781 0.109375 1.972656 -0.0507812 1.578125 -0.375 C 1.191406 -0.707031 0.9375 -1.160156 0.8125 -1.734375 C 0.6875 -2.304688 0.625 -3.066406 0.625 -4.015625 C 0.625 -4.941406 0.6875 -5.691406 0.8125 -6.265625 C 0.945312 -6.835938 1.207031 -7.28125 1.59375 -7.59375 C 1.976562 -7.914062 2.550781 -8.078125 3.3125 -8.078125 C 4.0625 -8.078125 4.628906 -7.921875 5.015625 -7.609375 C 5.410156 -7.296875 5.671875 -6.851562 5.796875 -6.28125 C 5.929688 -5.707031 6 -4.953125 6 -4.015625 C 6 -3.066406 5.929688 -2.304688 5.796875 -1.734375 C 5.671875 -1.160156 5.414062 -0.707031 5.03125 -0.375 C 4.644531 -0.0507812 4.070312 0.109375 3.3125 0.109375 Z M 2.59375 -4.015625 L 3.3125 -4.828125 L 4.015625 -4.015625 L 3.3125 -3.28125 Z M 3.3125 -0.8125 C 3.769531 -0.8125 4.113281 -0.929688 4.34375 -1.171875 C 4.582031 -1.421875 4.738281 -1.765625 4.8125 -2.203125 C 4.882812 -2.648438 4.921875 -3.253906 4.921875 -4.015625 C 4.921875 -4.742188 4.882812 -5.328125 4.8125 -5.765625 C 4.738281 -6.203125 4.585938 -6.539062 4.359375 -6.78125 C 4.128906 -7.03125 3.78125 -7.15625 3.3125 -7.15625 C 2.84375 -7.15625 2.488281 -7.03125 2.25 -6.78125 C 2.019531 -6.539062 1.867188 -6.203125 1.796875 -5.765625 C 1.734375 -5.328125 1.703125 -4.742188 1.703125 -4.015625 C 1.703125 -3.265625 1.738281 -2.664062 1.8125 -2.21875 C 1.882812 -1.769531 2.035156 -1.421875 2.265625 -1.171875 C 2.503906 -0.929688 2.851562 -0.8125 3.3125 -0.8125 Z M 3.3125 -0.8125 "/>
</g>
<g id="glyph-9-1-c9a98540">
<path d="M 3.296875 0.234375 C 2.960938 0.234375 2.703125 0.144531 2.515625 -0.03125 C 2.335938 -0.21875 2.25 -0.476562 2.25 -0.8125 C 2.25 -1.144531 2.335938 -1.398438 2.515625 -1.578125 C 2.703125 -1.765625 2.960938 -1.859375 3.296875 -1.859375 C 3.640625 -1.859375 3.898438 -1.765625 4.078125 -1.578125 C 4.253906 -1.398438 4.34375 -1.144531 4.34375 -0.8125 C 4.34375 -0.476562 4.25 -0.21875 4.0625 -0.03125 C 3.882812 0.144531 3.628906 0.234375 3.296875 0.234375 Z M 3.296875 0.234375 "/>
</g>
<g id="glyph-9-2-c9a98540">
<path d="M 1.25 -1.53125 C 1.894531 -2.101562 2.4375 -2.609375 2.875 -3.046875 C 3.3125 -3.492188 3.691406 -3.96875 4.015625 -4.46875 C 4.347656 -4.96875 4.515625 -5.429688 4.515625 -5.859375 C 4.515625 -6.109375 4.460938 -6.328125 4.359375 -6.515625 C 4.265625 -6.703125 4.125 -6.847656 3.9375 -6.953125 C 3.75 -7.054688 3.546875 -7.109375 3.328125 -7.109375 C 3.066406 -7.109375 2.835938 -7.050781 2.640625 -6.9375 C 2.441406 -6.820312 2.285156 -6.65625 2.171875 -6.4375 C 2.054688 -6.21875 2 -5.972656 2 -5.703125 L 0.875 -5.703125 C 0.882812 -6.222656 1 -6.660156 1.21875 -7.015625 C 1.4375 -7.367188 1.726562 -7.632812 2.09375 -7.8125 C 2.46875 -7.988281 2.890625 -8.078125 3.359375 -8.078125 C 3.785156 -8.078125 4.171875 -8 4.515625 -7.84375 C 4.867188 -7.695312 5.15625 -7.457031 5.375 -7.125 C 5.59375 -6.800781 5.703125 -6.398438 5.703125 -5.921875 C 5.703125 -5.429688 5.535156 -4.910156 5.203125 -4.359375 C 4.878906 -3.816406 4.5 -3.3125 4.0625 -2.84375 C 3.632812 -2.382812 3.109375 -1.859375 2.484375 -1.265625 L 2.09375 -0.890625 L 5.78125 -0.890625 L 5.78125 0.046875 L 0.796875 0.046875 L 0.796875 -1.140625 Z M 1.25 -1.53125 "/>
</g>
<g id="glyph-10-0-c9a98540">
<path d="M 1.28125 -10.875 L 7.96875 -10.875 L 7.96875 -9.515625 L 2.875 -9.515625 L 2.875 -6 L 7.703125 -6 L 7.703125 -4.6875 L 2.875 -4.6875 L 2.875 0 L 1.28125 0 Z M 1.28125 -10.875 "/>
</g>
<g id="glyph-10-1-c9a98540">
<path d="M 1.515625 -1.296875 L 3.734375 -1.296875 L 3.734375 -9.5625 L 1.75 -9.5625 L 1.75 -10.875 L 7.234375 -10.875 L 7.234375 -9.5625 L 5.296875 -9.5625 L 5.296875 -1.296875 L 7.46875 -1.296875 L 7.46875 0 L 1.515625 0 Z M 1.515625 -1.296875 "/>
</g>
<g id="glyph-10-2-c9a98540">
<path d="M 4.609375 0.15625 C 3.273438 0.15625 2.3125 -0.351562 1.71875 -1.375 C 1.132812 -2.394531 0.84375 -3.753906 0.84375 -5.453125 C 0.84375 -7.210938 1.148438 -8.582031 1.765625 -9.5625 C 2.378906 -10.550781 3.367188 -11.046875 4.734375 -11.046875 C 5.472656 -11.046875 6.132812 -10.890625 6.71875 -10.578125 C 7.300781 -10.265625 7.738281 -9.800781 8.03125 -9.1875 L 6.890625 -8.421875 C 6.617188 -8.898438 6.3125 -9.222656 5.96875 -9.390625 C 5.625 -9.554688 5.257812 -9.640625 4.875 -9.640625 C 4.207031 -9.640625 3.691406 -9.457031 3.328125 -9.09375 C 2.972656 -8.726562 2.734375 -8.242188 2.609375 -7.640625 C 2.484375 -7.046875 2.421875 -6.320312 2.421875 -5.46875 C 2.421875 -4.6875 2.476562 -3.984375 2.59375 -3.359375 C 2.707031 -2.742188 2.929688 -2.226562 3.265625 -1.8125 C 3.609375 -1.40625 4.097656 -1.203125 4.734375 -1.203125 C 6.148438 -1.203125 6.859375 -2.296875 6.859375 -4.484375 L 4.4375 -4.484375 L 4.4375 -5.734375 L 8.203125 -5.734375 L 8.203125 0 L 6.90625 0 L 6.90625 -1.046875 L 6.84375 -1.046875 C 6.46875 -0.242188 5.722656 0.15625 4.609375 0.15625 Z M 4.609375 0.15625 "/>
</g>
<g id="glyph-10-3-c9a98540">
<path d="M 4.5 0.328125 C 4.039062 0.328125 3.6875 0.203125 3.4375 -0.046875 C 3.1875 -0.296875 3.0625 -0.648438 3.0625 -1.109375 C 3.0625 -1.566406 3.1875 -1.914062 3.4375 -2.15625 C 3.6875 -2.40625 4.039062 -2.53125 4.5 -2.53125 C 4.957031 -2.53125 5.3125 -2.40625 5.5625 -2.15625 C 5.8125 -1.914062 5.9375 -1.566406 5.9375 -1.109375 C 5.9375 -0.648438 5.8125 -0.296875 5.5625 -0.046875 C 5.3125 0.203125 4.957031 0.328125 4.5 0.328125 Z M 4.5 0.328125 "/>
</g>
<g id="glyph-10-4-c9a98540">
</g>
<g id="glyph-10-5-c9a98540">
<path d="M 4.515625 0.15625 C 3.472656 0.15625 2.6875 -0.0664062 2.15625 -0.515625 C 1.625 -0.960938 1.269531 -1.578125 1.09375 -2.359375 C 0.925781 -3.148438 0.84375 -4.191406 0.84375 -5.484375 C 0.84375 -6.742188 0.929688 -7.765625 1.109375 -8.546875 C 1.285156 -9.328125 1.640625 -9.9375 2.171875 -10.375 C 2.703125 -10.8125 3.484375 -11.03125 4.515625 -11.03125 C 5.535156 -11.03125 6.3125 -10.8125 6.84375 -10.375 C 7.375 -9.945312 7.726562 -9.34375 7.90625 -8.5625 C 8.082031 -7.78125 8.171875 -6.753906 8.171875 -5.484375 C 8.171875 -4.191406 8.082031 -3.148438 7.90625 -2.359375 C 7.738281 -1.578125 7.390625 -0.960938 6.859375 -0.515625 C 6.335938 -0.0664062 5.554688 0.15625 4.515625 0.15625 Z M 3.546875 -5.484375 L 4.515625 -6.59375 L 5.484375 -5.484375 L 4.515625 -4.484375 Z M 4.515625 -1.109375 C 5.140625 -1.109375 5.609375 -1.273438 5.921875 -1.609375 C 6.242188 -1.941406 6.457031 -2.410156 6.5625 -3.015625 C 6.664062 -3.628906 6.71875 -4.453125 6.71875 -5.484375 C 6.71875 -6.472656 6.664062 -7.265625 6.5625 -7.859375 C 6.46875 -8.453125 6.257812 -8.914062 5.9375 -9.25 C 5.625 -9.59375 5.148438 -9.765625 4.515625 -9.765625 C 3.878906 -9.765625 3.398438 -9.59375 3.078125 -9.25 C 2.765625 -8.914062 2.554688 -8.453125 2.453125 -7.859375 C 2.359375 -7.265625 2.3125 -6.472656 2.3125 -5.484375 C 2.3125 -4.453125 2.363281 -3.628906 2.46875 -3.015625 C 2.570312 -2.410156 2.78125 -1.941406 3.09375 -1.609375 C 3.414062 -1.273438 3.890625 -1.109375 4.515625 -1.109375 Z M 4.515625 -1.109375 "/>
</g>
<g id="glyph-10-6-c9a98540">
<path d="M 5.21875 -2.296875 L 0.609375 -2.296875 L 0.609375 -3.765625 L 4.8125 -10.875 L 6.703125 -10.875 L 6.703125 -3.5625 L 8.25 -3.5625 L 8.25 -2.296875 L 6.703125 -2.296875 L 6.703125 0 L 5.21875 0 Z M 5.234375 -3.5625 L 5.234375 -9.0625 L 2.09375 -3.5625 Z M 5.234375 -3.5625 "/>
</g>
<g id="glyph-10-7-c9a98540">
<path d="M 0.390625 -4.921875 L 8.90625 -4.921875 L 8.625 -3.359375 L 0.09375 -3.359375 Z M 0.390625 -4.921875 "/>
</g>
<g id="glyph-10-8-c9a98540">
<path d="M 0.953125 -10.875 L 4.34375 -10.875 C 4.96875 -10.875 5.546875 -10.753906 6.078125 -10.515625 C 6.617188 -10.285156 7.054688 -9.9375 7.390625 -9.46875 C 7.722656 -9 7.890625 -8.429688 7.890625 -7.765625 C 7.890625 -7.046875 7.695312 -6.441406 7.3125 -5.953125 C 6.9375 -5.460938 6.429688 -5.109375 5.796875 -4.890625 L 8.203125 0 L 6.515625 0 L 4.25 -4.65625 L 2.546875 -4.65625 L 2.546875 0 L 0.953125 0 Z M 3.828125 -6.015625 C 4.609375 -6.015625 5.210938 -6.140625 5.640625 -6.390625 C 6.078125 -6.640625 6.296875 -7.101562 6.296875 -7.78125 C 6.296875 -8.40625 6.09375 -8.851562 5.6875 -9.125 C 5.28125 -9.40625 4.765625 -9.546875 4.140625 -9.546875 L 2.546875 -9.546875 L 2.546875 -6.015625 Z M 3.828125 -6.015625 "/>
</g>
<g id="glyph-10-9-c9a98540">
<path d="M 1.1875 -10.875 L 7.703125 -10.875 L 7.703125 -9.515625 L 2.796875 -9.515625 L 2.796875 -6.3125 L 7.484375 -6.3125 L 7.484375 -4.96875 L 2.796875 -4.96875 L 2.796875 -1.328125 L 7.90625 -1.328125 L 7.90625 0 L 1.1875 0 Z M 1.1875 -10.875 "/>
</g>
<g id="glyph-10-10-c9a98540">
<path d="M 1.71875 -2.734375 C 2.207031 -2.222656 2.664062 -1.847656 3.09375 -1.609375 C 3.53125 -1.367188 4.003906 -1.25 4.515625 -1.25 C 4.890625 -1.25 5.238281 -1.304688 5.5625 -1.421875 C 5.882812 -1.546875 6.140625 -1.734375 6.328125 -1.984375 C 6.523438 -2.234375 6.625 -2.546875 6.625 -2.921875 C 6.625 -3.253906 6.535156 -3.53125 6.359375 -3.75 C 6.179688 -3.976562 5.953125 -4.160156 5.671875 -4.296875 C 5.398438 -4.429688 5.019531 -4.585938 4.53125 -4.765625 C 4.1875 -4.890625 3.90625 -5 3.6875 -5.09375 C 2.976562 -5.382812 2.390625 -5.765625 1.921875 -6.234375 C 1.453125 -6.710938 1.21875 -7.347656 1.21875 -8.140625 C 1.21875 -8.710938 1.351562 -9.210938 1.625 -9.640625 C 1.90625 -10.078125 2.300781 -10.414062 2.8125 -10.65625 C 3.320312 -10.90625 3.925781 -11.03125 4.625 -11.03125 C 5.34375 -11.03125 5.960938 -10.894531 6.484375 -10.625 C 7.003906 -10.363281 7.507812 -9.96875 8 -9.4375 L 6.96875 -8.53125 C 6.25 -9.300781 5.453125 -9.6875 4.578125 -9.6875 C 4.210938 -9.6875 3.890625 -9.617188 3.609375 -9.484375 C 3.328125 -9.359375 3.109375 -9.175781 2.953125 -8.9375 C 2.804688 -8.695312 2.738281 -8.414062 2.75 -8.09375 C 2.757812 -7.726562 2.867188 -7.421875 3.078125 -7.171875 C 3.296875 -6.929688 3.5625 -6.738281 3.875 -6.59375 C 4.1875 -6.445312 4.609375 -6.273438 5.140625 -6.078125 C 5.796875 -5.835938 6.320312 -5.613281 6.71875 -5.40625 C 7.113281 -5.207031 7.453125 -4.914062 7.734375 -4.53125 C 8.023438 -4.144531 8.171875 -3.648438 8.171875 -3.046875 C 8.171875 -2.421875 8.015625 -1.863281 7.703125 -1.375 C 7.390625 -0.894531 6.953125 -0.519531 6.390625 -0.25 C 5.835938 0.0195312 5.207031 0.15625 4.5 0.15625 C 3.6875 0.15625 2.976562 -0.015625 2.375 -0.359375 C 1.769531 -0.703125 1.210938 -1.179688 0.703125 -1.796875 Z M 1.71875 -2.734375 "/>
</g>
<g id="glyph-10-11-c9a98540">
<path d="M 1.15625 -10.875 L 3.328125 -10.875 C 4.453125 -10.875 5.367188 -10.703125 6.078125 -10.359375 C 6.785156 -10.015625 7.316406 -9.445312 7.671875 -8.65625 C 8.023438 -7.875 8.203125 -6.820312 8.203125 -5.5 C 8.203125 -4.1875 8.035156 -3.128906 7.703125 -2.328125 C 7.378906 -1.523438 6.851562 -0.9375 6.125 -0.5625 C 5.394531 -0.1875 4.421875 0 3.203125 0 L 1.15625 0 Z M 3.359375 -1.328125 C 4.109375 -1.328125 4.710938 -1.46875 5.171875 -1.75 C 5.628906 -2.03125 5.960938 -2.472656 6.171875 -3.078125 C 6.390625 -3.679688 6.5 -4.488281 6.5 -5.5 C 6.5 -6.425781 6.394531 -7.179688 6.1875 -7.765625 C 5.988281 -8.359375 5.664062 -8.800781 5.21875 -9.09375 C 4.78125 -9.382812 4.207031 -9.53125 3.5 -9.53125 L 2.75 -9.53125 L 2.75 -1.328125 Z M 3.359375 -1.328125 "/>
</g>
<g id="glyph-10-12-c9a98540">
<path d="M 4.5 0.140625 C 3.613281 0.140625 2.90625 -0.015625 2.375 -0.328125 C 1.84375 -0.648438 1.457031 -1.144531 1.21875 -1.8125 C 0.976562 -2.476562 0.859375 -3.351562 0.859375 -4.4375 L 0.859375 -10.890625 L 2.421875 -10.890625 L 2.421875 -4.484375 C 2.421875 -3.648438 2.484375 -3 2.609375 -2.53125 C 2.742188 -2.0625 2.960938 -1.722656 3.265625 -1.515625 C 3.566406 -1.316406 3.988281 -1.21875 4.53125 -1.21875 C 5.039062 -1.21875 5.441406 -1.316406 5.734375 -1.515625 C 6.023438 -1.722656 6.234375 -2.0625 6.359375 -2.53125 C 6.492188 -3 6.5625 -3.648438 6.5625 -4.484375 L 6.5625 -10.875 L 8.140625 -10.875 L 8.140625 -4.4375 C 8.140625 -3.320312 8.035156 -2.4375 7.828125 -1.78125 C 7.617188 -1.125 7.253906 -0.640625 6.734375 -0.328125 C 6.210938 -0.015625 5.46875 0.140625 4.5 0.140625 Z M 4.5 0.140625 "/>
</g>
<g id="glyph-10-13-c9a98540">
<path d="M 3.5 -10.875 L 5.515625 -10.875 L 8.375 0 L 6.734375 0 L 6 -2.828125 L 2.90625 -2.828125 L 2.21875 0 L 0.640625 0 Z M 5.734375 -4.125 L 4.5625 -9.28125 L 4.4375 -9.28125 L 3.28125 -4.125 Z M 5.734375 -4.125 "/>
</g>
<g id="glyph-10-14-c9a98540">
<path d="M 1.296875 -10.890625 L 2.890625 -10.890625 L 2.890625 -1.34375 L 8.09375 -1.34375 L 8.09375 0 L 1.296875 0 Z M 1.296875 -10.890625 "/>
</g>
<g id="glyph-10-15-c9a98540">
<path d="M 1.203125 -10.875 L 3.328125 -10.875 L 5.625 -4.09375 L 6.171875 -2.4375 L 6.171875 -10.875 L 7.71875 -10.875 L 7.71875 0 L 5.71875 0 L 2.75 -8.265625 L 2.75 0 L 1.203125 0 Z M 1.203125 -10.875 "/>
</g>
<g id="glyph-10-16-c9a98540">
<path d="M 3.71875 -9.484375 L 0.65625 -9.484375 L 0.65625 -10.875 L 8.34375 -10.875 L 8.34375 -9.484375 L 5.265625 -9.484375 L 5.265625 0 L 3.71875 0 Z M 3.71875 -9.484375 "/>
</g>
<g id="glyph-10-17-c9a98540">
<path d="M 3.703125 -4.390625 L 0.734375 -10.875 L 2.453125 -10.875 L 4.53125 -5.96875 L 6.59375 -10.875 L 8.25 -10.875 L 5.3125 -4.390625 L 5.3125 0 L 3.703125 0 Z M 3.703125 -4.390625 "/>
</g>
</g>
</defs>
<rect x="-72" y="-42" width="864" height="504" fill="rgb(94.117647%, 92.941177%, 89.019608%)" fill-opacity="1"/>
<path fill-rule="nonzero" fill="rgb(94.117647%, 92.941177%, 89.019608%)" fill-opacity="1" d="M 60 369 L 704 369 L 704 42 L 60 42 Z M 60 369 "/>
<path fill="none" stroke-width="1" stroke-linecap="butt" stroke-linejoin="miter" stroke="rgb(71.372551%, 67.843139%, 56.470591%)" stroke-opacity="0.3" stroke-miterlimit="1.154701" d="M 83.621094 369 L 83.621094 42 "/>
<path fill="none" stroke-width="1" stroke-linecap="butt" stroke-linejoin="miter" stroke="rgb(71.372551%, 67.843139%, 56.470591%)" stroke-opacity="0.3" stroke-miterlimit="1.154701" d="M 332.992188 369 L 332.992188 42 "/>
<path fill="none" stroke-width="1" stroke-linecap="butt" stroke-linejoin="miter" stroke="rgb(71.372551%, 67.843139%, 56.470591%)" stroke-opacity="0.3" stroke-miterlimit="1.154701" d="M 582.363281 369 L 582.363281 42 "/>
<path fill="none" stroke-width="1" stroke-linecap="butt" stroke-linejoin="miter" stroke="rgb(71.372551%, 67.843139%, 56.470591%)" stroke-opacity="0.12" stroke-miterlimit="1.154701" d="M 208.308594 369 L 208.308594 42 "/>
<path fill="none" stroke-width="1" stroke-linecap="butt" stroke-linejoin="miter" stroke="rgb(71.372551%, 67.843139%, 56.470591%)" stroke-opacity="0.12" stroke-miterlimit="1.154701" d="M 457.675781 369 L 457.675781 42 "/>
<path fill="none" stroke-width="1" stroke-linecap="butt" stroke-linejoin="miter" stroke="rgb(71.372551%, 67.843139%, 56.470591%)" stroke-opacity="0.3" stroke-miterlimit="1.154701" d="M 60 354.136719 L 704 354.136719 "/>
<path fill="none" stroke-width="1" stroke-linecap="butt" stroke-linejoin="miter" stroke="rgb(71.372551%, 67.843139%, 56.470591%)" stroke-opacity="0.3" stroke-miterlimit="1.154701" d="M 60 302.859375 L 704 302.859375 "/>
<path fill="none" stroke-width="1" stroke-linecap="butt" stroke-linejoin="miter" stroke="rgb(71.372551%, 67.843139%, 56.470591%)" stroke-opacity="0.3" stroke-miterlimit="1.154701" d="M 60 251.582031 L 704 251.582031 "/>
<path fill="none" stroke-width="1" stroke-linecap="butt" stroke-linejoin="miter" stroke="rgb(71.372551%, 67.843139%, 56.470591%)" stroke-opacity="0.3" stroke-miterlimit="1.154701" d="M 60 200.300781 L 704 200.300781 "/>
<path fill="none" stroke-width="1" stroke-linecap="butt" stroke-linejoin="miter" stroke="rgb(71.372551%, 67.843139%, 56.470591%)" stroke-opacity="0.3" stroke-miterlimit="1.154701" d="M 60 149.023438 L 704 149.023438 "/>
<path fill="none" stroke-width="1" stroke-linecap="butt" stroke-linejoin="miter" stroke="rgb(71.372551%, 67.843139%, 56.470591%)" stroke-opacity="0.3" stroke-miterlimit="1.154701" d="M 60 97.746094 L 704 97.746094 "/>
<path fill="none" stroke-width="1" stroke-linecap="butt" stroke-linejoin="miter" stroke="rgb(71.372551%, 67.843139%, 56.470591%)" stroke-opacity="0.3" stroke-miterlimit="1.154701" d="M 60 46.46875 L 704 46.46875 "/>
<path fill="none" stroke-width="1" stroke-linecap="butt" stroke-linejoin="miter" stroke="rgb(71.372551%, 67.843139%, 56.470591%)" stroke-opacity="0.12" stroke-miterlimit="1.154701" d="M 60 328.496094 L 704 328.496094 "/>
<path fill="none" stroke-width="1" stroke-linecap="butt" stroke-linejoin="miter" stroke="rgb(71.372551%, 67.843139%, 56.470591%)" stroke-opacity="0.12" stroke-miterlimit="1.154701" d="M 60 277.21875 L 704 277.21875 "/>
<path fill="none" stroke-width="1" stroke-linecap="butt" stroke-linejoin="miter" stroke="rgb(71.372551%, 67.843139%, 56.470591%)" stroke-opacity="0.12" stroke-miterlimit="1.154701" d="M 60 225.941406 L 704 225.941406 "/>
<path fill="none" stroke-width="1" stroke-linecap="butt" stroke-linejoin="miter" stroke="rgb(71.372551%, 67.843139%, 56.470591%)" stroke-opacity="0.12" stroke-miterlimit="1.154701" d="M 60 174.664062 L 704 174.664062 "/>
<path fill="none" stroke-width="1" stroke-linecap="butt" stroke-linejoin="miter" stroke="rgb(71.372551%, 67.843139%, 56.470591%)" stroke-opacity="0.12" stroke-miterlimit="1.154701" d="M 60 123.386719 L 704 123.386719 "/>
<path fill="none" stroke-width="1" stroke-linecap="butt" stroke-linejoin="miter" stroke="rgb(71.372551%, 67.843139%, 56.470591%)" stroke-opacity="0.12" stroke-miterlimit="1.154701" d="M 60 72.105469 L 704 72.105469 "/>
<g fill="rgb(10.588235%, 16.470589%, 22.745098%)" fill-opacity="1">
<use xlink:href="#glyph-0-0-c9a98540" x="353.200007" y="402.424999"/>
<use xlink:href="#glyph-0-1-c9a98540" x="360.400008" y="402.424999"/>
<use xlink:href="#glyph-0-2-c9a98540" x="367.600008" y="402.424999"/>
<use xlink:href="#glyph-0-3-c9a98540" x="374.800008" y="402.424999"/>
<use xlink:href="#glyph-0-4-c9a98540" x="382.000009" y="402.424999"/>
<use xlink:href="#glyph-0-5-c9a98540" x="389.200008" y="402.424999"/>
<use xlink:href="#glyph-0-6-c9a98540" x="396.400009" y="402.424999"/>
<use xlink:href="#glyph-0-7-c9a98540" x="403.60001" y="402.424999"/>
</g>
<g fill="rgb(10.588235%, 16.470589%, 22.745098%)" fill-opacity="1">
<use xlink:href="#glyph-1-0-c9a98540" x="77.023025" y="382.549997"/>
<use xlink:href="#glyph-1-1-c9a98540" x="83.623026" y="382.549997"/>
</g>
<g fill="rgb(10.588235%, 16.470589%, 22.745098%)" fill-opacity="1">
<use xlink:href="#glyph-1-2-c9a98540" x="329.692378" y="382.549997"/>
</g>
<g fill="rgb(10.588235%, 16.470589%, 22.745098%)" fill-opacity="1">
<use xlink:href="#glyph-1-1-c9a98540" x="579.061769" y="382.549997"/>
</g>
<g fill="rgb(10.588235%, 16.470589%, 22.745098%)" fill-opacity="1">
<use xlink:href="#glyph-2-0-c9a98540" x="26.399998" y="230.699992"/>
</g>
<g fill="rgb(10.588235%, 16.470589%, 22.745098%)" fill-opacity="1">
<use xlink:href="#glyph-3-0-c9a98540" x="26.399998" y="223.499991"/>
</g>
<g fill="rgb(10.588235%, 16.470589%, 22.745098%)" fill-opacity="1">
<use xlink:href="#glyph-4-0-c9a98540" x="26.399999" y="216.299991"/>
</g>
<g fill="rgb(10.588235%, 16.470589%, 22.745098%)" fill-opacity="1">
<use xlink:href="#glyph-5-0-c9a98540" x="26.399999" y="209.099992"/>
</g>
<g fill="rgb(10.588235%, 16.470589%, 22.745098%)" fill-opacity="1">
<use xlink:href="#glyph-6-0-c9a98540" x="26.4" y="201.899991"/>
</g>
<g fill="rgb(10.588235%, 16.470589%, 22.745098%)" fill-opacity="1">
<use xlink:href="#glyph-7-0-c9a98540" x="26.4" y="194.699993"/>
</g>
<g fill="rgb(10.588235%, 16.470589%, 22.745098%)" fill-opacity="1">
<use xlink:href="#glyph-8-0-c9a98540" x="26.400001" y="187.499993"/>
</g>
<g fill="rgb(10.588235%, 16.470589%, 22.745098%)" fill-opacity="1">
<use xlink:href="#glyph-1-2-c9a98540" x="35.100001" y="358.123858"/>
<use xlink:href="#glyph-1-3-c9a98540" x="41.700002" y="358.123858"/>
<use xlink:href="#glyph-1-2-c9a98540" x="48.300002" y="358.123858"/>
</g>
<g fill="rgb(10.588235%, 16.470589%, 22.745098%)" fill-opacity="1">
<use xlink:href="#glyph-1-2-c9a98540" x="35.100001" y="306.845741"/>
<use xlink:href="#glyph-1-3-c9a98540" x="41.700002" y="306.845741"/>
<use xlink:href="#glyph-1-4-c9a98540" x="48.300002" y="306.845741"/>
</g>
<g fill="rgb(10.588235%, 16.470589%, 22.745098%)" fill-opacity="1">
<use xlink:href="#glyph-9-0-c9a98540" x="35.100001" y="255.567618"/>
<use xlink:href="#glyph-9-1-c9a98540" x="41.700002" y="255.567618"/>
<use xlink:href="#glyph-9-2-c9a98540" x="48.300002" y="255.567618"/>
</g>
<g fill="rgb(10.588235%, 16.470589%, 22.745098%)" fill-opacity="1">
<use xlink:href="#glyph-1-2-c9a98540" x="35.100001" y="204.289494"/>
<use xlink:href="#glyph-1-3-c9a98540" x="41.700002" y="204.289494"/>
<use xlink:href="#glyph-1-5-c9a98540" x="48.300002" y="204.289494"/>
</g>
<g fill="rgb(10.588235%, 16.470589%, 22.745098%)" fill-opacity="1">
<use xlink:href="#glyph-1-2-c9a98540" x="35.100001" y="153.011385"/>
<use xlink:href="#glyph-1-3-c9a98540" x="41.700002" y="153.011385"/>
<use xlink:href="#glyph-1-6-c9a98540" x="48.300002" y="153.011385"/>
</g>
<g fill="rgb(10.588235%, 16.470589%, 22.745098%)" fill-opacity="1">
<use xlink:href="#glyph-1-2-c9a98540" x="35.100001" y="101.733276"/>
<use xlink:href="#glyph-1-3-c9a98540" x="41.700002" y="101.733276"/>
<use xlink:href="#glyph-1-1-c9a98540" x="48.300002" y="101.733276"/>
</g>
<g fill="rgb(10.588235%, 16.470589%, 22.745098%)" fill-opacity="1">
<use xlink:href="#glyph-1-2-c9a98540" x="35.100001" y="50.455137"/>
<use xlink:href="#glyph-1-3-c9a98540" x="41.700002" y="50.455137"/>
<use xlink:href="#glyph-1-7-c9a98540" x="48.300002" y="50.455137"/>
</g>
<g fill="rgb(10.588235%, 16.470589%, 22.745098%)" fill-opacity="1">
<use xlink:href="#glyph-10-0-c9a98540" x="60.000001" y="30.624985"/>
<use xlink:href="#glyph-10-1-c9a98540" x="69.000002" y="30.624985"/>
<use xlink:href="#glyph-10-2-c9a98540" x="78.000002" y="30.624985"/>
<use xlink:href="#glyph-10-3-c9a98540" x="87.000002" y="30.624985"/>
<use xlink:href="#glyph-10-4-c9a98540" x="96.000002" y="30.624985"/>
<use xlink:href="#glyph-10-5-c9a98540" x="105.000003" y="30.624985"/>
<use xlink:href="#glyph-10-6-c9a98540" x="114.000003" y="30.624985"/>
<use xlink:href="#glyph-10-4-c9a98540" x="123.000003" y="30.624985"/>
<use xlink:href="#glyph-10-7-c9a98540" x="132.000003" y="30.624985"/>
<use xlink:href="#glyph-10-4-c9a98540" x="141.000003" y="30.624985"/>
<use xlink:href="#glyph-10-8-c9a98540" x="150.000004" y="30.624985"/>
<use xlink:href="#glyph-10-9-c9a98540" x="159.000004" y="30.624985"/>
<use xlink:href="#glyph-10-10-c9a98540" x="168.000004" y="30.624985"/>
<use xlink:href="#glyph-10-1-c9a98540" x="177.000004" y="30.624985"/>
<use xlink:href="#glyph-10-11-c9a98540" x="186.000005" y="30.624985"/>
<use xlink:href="#glyph-10-12-c9a98540" x="195.000005" y="30.624985"/>
<use xlink:href="#glyph-10-13-c9a98540" x="204.000005" y="30.624985"/>
<use xlink:href="#glyph-10-14-c9a98540" x="213.000005" y="30.624985"/>
<use xlink:href="#glyph-10-4-c9a98540" x="222.000005" y="30.624985"/>
<use xlink:href="#glyph-10-11-c9a98540" x="231.000006" y="30.624985"/>
<use xlink:href="#glyph-10-9-c9a98540" x="240.000006" y="30.624985"/>
<use xlink:href="#glyph-10-15-c9a98540" x="249.000006" y="30.624985"/>
<use xlink:href="#glyph-10-10-c9a98540" x="258.000006" y="30.624985"/>
<use xlink:href="#glyph-10-1-c9a98540" x="267.000006" y="30.624985"/>
<use xlink:href="#glyph-10-16-c9a98540" x="276.000007" y="30.624985"/>
<use xlink:href="#glyph-10-17-c9a98540" x="285.000007" y="30.624985"/>
</g>
<path fill-rule="nonzero" fill="rgb(78.431374%, 20.784314%, 10.980392%)" fill-opacity="0.35" d="M 119.992188 354.136719 L 126.570312 354.136719 L 128.765625 354.132812 L 130.957031 354.128906 L 133.152344 354.125 L 135.34375 354.113281 L 137.535156 354.097656 L 139.730469 354.074219 L 141.921875 354.039062 L 144.117188 353.992188 L 146.308594 353.9375 L 148.503906 353.871094 L 150.695312 353.792969 L 152.886719 353.699219 L 155.082031 353.59375 L 157.273438 353.464844 L 159.46875 353.304688 L 161.660156 353.105469 L 163.855469 352.863281 L 166.046875 352.570312 L 168.238281 352.226562 L 170.433594 351.84375 L 172.625 351.425781 L 174.820312 350.988281 L 177.011719 350.539062 L 179.207031 350.085938 L 181.398438 349.644531 L 183.589844 349.214844 L 185.785156 348.796875 L 187.976562 348.394531 L 190.171875 348 L 192.363281 347.609375 L 194.558594 347.214844 L 196.75 346.800781 L 198.941406 346.351562 L 201.136719 345.847656 L 203.328125 345.25 L 205.523438 344.53125 L 207.714844 343.640625 L 209.910156 342.539062 L 212.101562 341.183594 L 214.292969 339.542969 L 216.488281 337.605469 L 218.679688 335.375 L 220.875 332.886719 L 223.066406 330.203125 L 225.261719 327.402344 L 227.453125 324.5625 L 229.644531 321.753906 L 231.839844 319.027344 L 234.03125 316.40625 L 236.226562 313.898438 L 238.417969 311.5 L 240.609375 309.199219 L 242.804688 306.96875 L 244.996094 304.769531 L 247.191406 302.542969 L 249.382812 300.199219 L 251.578125 297.648438 L 253.769531 294.792969 L 255.960938 291.570312 L 258.15625 287.945312 L 260.347656 283.929688 L 262.542969 279.542969 L 264.734375 274.832031 L 266.929688 269.820312 L 269.121094 264.53125 L 271.3125 258.984375 L 273.507812 253.21875 L 275.699219 247.304688 L 277.894531 241.339844 L 280.085938 235.460938 L 282.28125 229.808594 L 284.472656 224.5 L 286.664062 219.613281 L 288.859375 215.167969 L 291.050781 211.128906 L 293.246094 207.421875 L 295.4375 203.964844 L 297.632812 200.703125 L 299.824219 197.609375 L 302.015625 194.703125 L 304.210938 191.992188 L 306.402344 189.464844 L 308.597656 187.058594 L 310.789062 184.65625 L 312.984375 182.136719 L 315.175781 179.394531 L 317.367188 176.421875 L 319.5625 173.320312 L 321.753906 170.28125 L 323.949219 167.546875 L 326.140625 165.3125 L 328.335938 163.683594 L 330.527344 162.640625 L 332.71875 162.054688 L 334.914062 161.765625 L 337.105469 161.644531 L 339.300781 161.671875 L 341.492188 161.929688 L 343.6875 162.566406 L 345.878906 163.75 L 348.070312 165.582031 L 350.265625 168.066406 L 352.457031 171.109375 L 354.652344 174.53125 L 356.84375 178.144531 L 359.039062 181.78125 L 361.230469 185.335938 L 363.421875 188.785156 L 365.617188 192.164062 L 367.808594 195.550781 L 370.003906 199.035156 L 372.195312 202.691406 L 374.386719 206.582031 L 376.582031 210.726562 L 378.773438 215.128906 L 380.96875 219.773438 L 383.160156 224.628906 L 385.355469 229.664062 L 387.546875 234.84375 L 389.738281 240.136719 L 391.933594 245.511719 L 394.125 250.921875 L 396.320312 256.328125 L 398.511719 261.679688 L 400.707031 266.9375 L 402.898438 272.085938 L 405.089844 277.117188 L 407.285156 282.027344 L 409.476562 286.820312 L 411.671875 291.484375 L 413.863281 295.976562 L 416.058594 300.246094 L 418.25 304.230469 L 420.441406 307.886719 L 422.636719 311.1875 L 424.828125 314.144531 L 427.023438 316.78125 L 429.214844 319.140625 L 431.410156 321.269531 L 433.601562 323.214844 L 435.792969 325.011719 L 437.988281 326.707031 L 440.179688 328.339844 L 442.375 329.960938 L 444.566406 331.613281 L 446.761719 333.324219 L 448.953125 335.113281 L 451.144531 336.976562 L 453.339844 338.890625 L 455.53125 340.8125 L 457.726562 342.691406 L 459.917969 344.464844 L 462.113281 346.074219 L 464.304688 347.476562 L 466.496094 348.644531 L 468.691406 349.574219 L 470.882812 350.292969 L 473.078125 350.839844 L 475.269531 351.253906 L 477.464844 351.585938 L 479.65625 351.875 L 481.847656 352.144531 L 484.042969 352.40625 L 486.234375 352.65625 L 488.429688 352.894531 L 490.621094 353.109375 L 492.8125 353.296875 L 495.007812 353.453125 L 497.199219 353.585938 L 499.394531 353.695312 L 501.585938 353.78125 L 503.78125 353.84375 L 505.972656 353.886719 L 508.164062 353.910156 L 510.359375 353.910156 L 512.550781 353.898438 L 514.746094 353.878906 L 516.9375 353.859375 L 519.132812 353.847656 L 521.324219 353.84375 L 523.515625 353.859375 L 525.710938 353.886719 L 527.902344 353.925781 L 530.097656 353.96875 L 532.289062 354.007812 L 534.484375 354.046875 L 536.675781 354.078125 L 538.867188 354.097656 L 541.0625 354.113281 L 543.253906 354.125 L 545.449219 354.128906 L 547.640625 354.132812 L 549.835938 354.136719 L 556.414062 354.136719 Z M 119.992188 354.136719 "/>
<path fill="none" stroke-width="1.6" stroke-linecap="butt" stroke-linejoin="miter" stroke="rgb(78.431374%, 20.784314%, 10.980392%)" stroke-opacity="1" stroke-miterlimit="2" d="M 119.992188 354.136719 L 126.570312 354.136719 L 128.765625 354.132812 L 130.957031 354.128906 L 133.152344 354.125 L 135.34375 354.113281 L 137.535156 354.097656 L 139.730469 354.074219 L 141.921875 354.039062 L 144.117188 353.992188 L 146.308594 353.9375 L 148.503906 353.871094 L 150.695312 353.792969 L 152.886719 353.699219 L 155.082031 353.59375 L 157.273438 353.464844 L 159.46875 353.304688 L 161.660156 353.105469 L 163.855469 352.863281 L 166.046875 352.570312 L 168.238281 352.226562 L 170.433594 351.84375 L 172.625 351.425781 L 174.820312 350.988281 L 177.011719 350.539062 L 179.207031 350.085938 L 181.398438 349.644531 L 183.589844 349.214844 L 185.785156 348.796875 L 187.976562 348.394531 L 190.171875 348 L 192.363281 347.609375 L 194.558594 347.214844 L 196.75 346.800781 L 198.941406 346.351562 L 201.136719 345.847656 L 203.328125 345.25 L 205.523438 344.53125 L 207.714844 343.640625 L 209.910156 342.539062 L 212.101562 341.183594 L 214.292969 339.542969 L 216.488281 337.605469 L 218.679688 335.375 L 220.875 332.886719 L 223.066406 330.203125 L 225.261719 327.402344 L 227.453125 324.5625 L 229.644531 321.753906 L 231.839844 319.027344 L 234.03125 316.40625 L 236.226562 313.898438 L 238.417969 311.5 L 240.613281 309.199219 L 242.804688 306.96875 L 244.996094 304.769531 L 247.191406 302.542969 L 249.382812 300.199219 L 251.578125 297.648438 L 253.769531 294.792969 L 255.960938 291.570312 L 258.15625 287.945312 L 260.347656 283.929688 L 262.542969 279.542969 L 264.734375 274.832031 L 266.929688 269.820312 L 269.121094 264.53125 L 271.3125 258.984375 L 273.507812 253.21875 L 275.699219 247.304688 L 277.894531 241.339844 L 280.085938 235.460938 L 282.28125 229.808594 L 284.472656 224.5 L 286.664062 219.613281 L 288.859375 215.167969 L 291.050781 211.128906 L 293.246094 207.421875 L 295.4375 203.964844 L 297.632812 200.703125 L 299.824219 197.609375 L 302.015625 194.703125 L 304.210938 191.992188 L 306.402344 189.464844 L 308.597656 187.058594 L 310.789062 184.65625 L 312.984375 182.136719 L 315.175781 179.394531 L 317.367188 176.421875 L 319.5625 173.320312 L 321.753906 170.28125 L 323.949219 167.546875 L 326.140625 165.3125 L 328.335938 163.683594 L 330.527344 162.640625 L 332.71875 162.054688 L 334.914062 161.765625 L 337.105469 161.644531 L 339.300781 161.671875 L 341.492188 161.929688 L 343.6875 162.566406 L 345.878906 163.75 L 348.070312 165.582031 L 350.265625 168.066406 L 352.457031 171.109375 L 354.652344 174.53125 L 356.84375 178.144531 L 359.039062 181.78125 L 361.230469 185.335938 L 363.421875 188.785156 L 365.617188 192.164062 L 367.808594 195.550781 L 370.003906 199.035156 L 372.195312 202.691406 L 374.386719 206.582031 L 376.582031 210.726562 L 378.773438 215.128906 L 380.96875 219.773438 L 383.160156 224.628906 L 385.355469 229.664062 L 387.546875 234.84375 L 389.738281 240.136719 L 391.933594 245.511719 L 394.125 250.921875 L 396.320312 256.328125 L 398.511719 261.679688 L 400.707031 266.9375 L 402.898438 272.085938 L 405.089844 277.117188 L 407.285156 282.027344 L 409.476562 286.820312 L 411.671875 291.484375 L 413.863281 295.976562 L 416.058594 300.246094 L 418.25 304.230469 L 420.441406 307.886719 L 422.636719 311.1875 L 424.828125 314.144531 L 427.023438 316.78125 L 429.214844 319.140625 L 431.410156 321.269531 L 433.601562 323.214844 L 435.792969 325.011719 L 437.988281 326.707031 L 440.179688 328.339844 L 442.375 329.960938 L 444.566406 331.613281 L 446.761719 333.324219 L 448.953125 335.113281 L 451.144531 336.976562 L 453.339844 338.890625 L 455.53125 340.8125 L 457.726562 342.691406 L 459.917969 344.464844 L 462.113281 346.074219 L 464.304688 347.476562 L 466.496094 348.644531 L 468.691406 349.574219 L 470.882812 350.292969 L 473.078125 350.839844 L 475.269531 351.253906 L 477.464844 351.585938 L 479.65625 351.875 L 481.847656 352.144531 L 484.042969 352.40625 L 486.234375 352.65625 L 488.429688 352.894531 L 490.621094 353.109375 L 492.8125 353.296875 L 495.007812 353.453125 L 497.199219 353.585938 L 499.394531 353.695312 L 501.585938 353.78125 L 503.78125 353.84375 L 505.972656 353.886719 L 508.164062 353.90625 L 510.359375 353.910156 L 512.550781 353.898438 L 514.746094 353.878906 L 516.9375 353.859375 L 519.132812 353.847656 L 521.324219 353.84375 L 523.515625 353.859375 L 525.710938 353.886719 L 527.902344 353.925781 L 530.097656 353.96875 L 532.289062 354.007812 L 534.484375 354.046875 L 536.675781 354.078125 L 538.867188 354.097656 L 541.0625 354.113281 L 543.253906 354.125 L 545.449219 354.128906 L 547.640625 354.132812 L 549.835938 354.136719 L 556.414062 354.136719 "/>
<path fill-rule="nonzero" fill="rgb(12.156863%, 30.588236%, 47.450981%)" fill-opacity="0.35" d="M 89.273438 354.136719 L 95.15625 354.136719 L 98.097656 354.132812 L 101.039062 354.132812 L 103.984375 354.128906 L 106.925781 354.121094 L 109.867188 354.109375 L 112.808594 354.089844 L 115.75 354.058594 L 118.691406 354.015625 L 121.632812 353.957031 L 124.578125 353.886719 L 127.519531 353.800781 L 130.460938 353.699219 L 133.402344 353.585938 L 136.34375 353.460938 L 142.226562 353.1875 L 145.171875 353.0625 L 148.113281 352.957031 L 151.054688 352.875 L 153.996094 352.824219 L 156.9375 352.792969 L 159.878906 352.753906 L 162.824219 352.683594 L 165.765625 352.535156 L 168.707031 352.277344 L 171.648438 351.882812 L 174.589844 351.34375 L 177.53125 350.671875 L 180.472656 349.90625 L 183.417969 349.089844 L 186.359375 348.269531 L 189.300781 347.488281 L 192.242188 346.75 L 195.183594 346.039062 L 198.125 345.292969 L 201.066406 344.4375 L 204.011719 343.398438 L 206.953125 342.105469 L 209.894531 340.539062 L 212.835938 338.714844 L 215.777344 336.6875 L 218.71875 334.53125 L 221.660156 332.308594 L 224.605469 330.058594 L 227.546875 327.78125 L 230.488281 325.4375 L 233.429688 322.976562 L 236.371094 320.363281 L 239.3125 317.589844 L 242.253906 314.679688 L 245.199219 311.679688 L 248.140625 308.65625 L 251.082031 305.664062 L 254.023438 302.742188 L 256.964844 299.910156 L 259.90625 297.152344 L 262.851562 294.410156 L 265.792969 291.605469 L 268.734375 288.632812 L 271.675781 285.375 L 274.617188 281.742188 L 277.558594 277.675781 L 280.5 273.175781 L 283.445312 268.289062 L 286.386719 263.121094 L 289.328125 257.816406 L 292.269531 252.546875 L 295.210938 247.484375 L 298.152344 242.777344 L 301.09375 238.515625 L 304.039062 234.71875 L 306.980469 231.3125 L 309.921875 228.15625 L 312.863281 225.082031 L 315.804688 221.925781 L 318.746094 218.589844 L 321.6875 215.074219 L 324.632812 211.464844 L 327.574219 207.902344 L 330.515625 204.53125 L 333.457031 201.472656 L 336.398438 198.824219 L 339.339844 196.664062 L 342.285156 195.0625 L 345.226562 194.09375 L 348.167969 193.769531 L 351.109375 194.015625 L 354.050781 194.667969 L 356.992188 195.503906 L 359.933594 196.335938 L 362.878906 197.082031 L 365.820312 197.800781 L 368.761719 198.679688 L 371.703125 199.949219 L 374.644531 201.800781 L 377.585938 204.324219 L 380.527344 207.488281 L 383.472656 211.167969 L 386.414062 215.203125 L 389.355469 219.421875 L 392.296875 223.710938 L 395.238281 227.984375 L 398.179688 232.210938 L 401.121094 236.390625 L 404.066406 240.554688 L 407.007812 244.726562 L 409.949219 248.941406 L 412.890625 253.214844 L 415.832031 257.554688 L 418.773438 261.957031 L 421.714844 266.402344 L 424.660156 270.871094 L 427.601562 275.324219 L 430.542969 279.714844 L 433.484375 283.976562 L 436.425781 288.058594 L 439.367188 291.925781 L 442.3125 295.574219 L 445.253906 299.035156 L 448.195312 302.347656 L 451.136719 305.5625 L 454.078125 308.710938 L 457.019531 311.792969 L 459.960938 314.789062 L 462.90625 317.65625 L 465.847656 320.351562 L 468.789062 322.839844 L 471.730469 325.125 L 474.671875 327.242188 L 477.613281 329.257812 L 480.554688 331.242188 L 483.5 333.242188 L 486.441406 335.261719 L 489.382812 337.257812 L 492.324219 339.152344 L 495.265625 340.875 L 498.207031 342.378906 L 501.148438 343.660156 L 504.09375 344.753906 L 507.035156 345.707031 L 509.976562 346.574219 L 512.917969 347.386719 L 515.859375 348.171875 L 518.800781 348.925781 L 521.746094 349.632812 L 524.6875 350.273438 L 527.628906 350.820312 L 530.570312 351.265625 L 533.511719 351.605469 L 536.453125 351.859375 L 539.394531 352.050781 L 542.339844 352.207031 L 545.28125 352.359375 L 551.164062 352.65625 L 554.105469 352.792969 L 557.046875 352.910156 L 559.988281 353 L 562.933594 353.070312 L 565.875 353.121094 L 568.816406 353.175781 L 571.757812 353.238281 L 574.699219 353.324219 L 577.640625 353.433594 L 580.582031 353.558594 L 583.527344 353.6875 L 586.46875 353.804688 L 589.410156 353.910156 L 592.351562 353.988281 L 595.292969 354.046875 L 598.234375 354.085938 L 601.179688 354.105469 L 604.121094 354.113281 L 607.0625 354.109375 L 610.003906 354.097656 L 612.945312 354.078125 L 615.886719 354.046875 L 618.828125 354.011719 L 621.773438 353.976562 L 624.714844 353.941406 L 627.65625 353.914062 L 630.597656 353.902344 L 633.539062 353.910156 L 636.480469 353.929688 L 639.421875 353.960938 L 642.367188 354 L 645.308594 354.035156 L 648.25 354.066406 L 651.191406 354.09375 L 654.132812 354.109375 L 657.074219 354.121094 L 660.015625 354.128906 L 662.960938 354.132812 L 665.902344 354.136719 L 674.726562 354.136719 Z M 89.273438 354.136719 "/>
<path fill="none" stroke-width="1.6" stroke-linecap="butt" stroke-linejoin="miter" stroke="rgb(12.156863%, 30.588236%, 47.450981%)" stroke-opacity="1" stroke-miterlimit="2" d="M 89.273438 354.136719 L 98.097656 354.136719 L 101.039062 354.132812 L 103.984375 354.128906 L 106.925781 354.121094 L 109.867188 354.109375 L 112.808594 354.089844 L 115.75 354.058594 L 118.691406 354.015625 L 121.632812 353.957031 L 124.578125 353.886719 L 127.519531 353.800781 L 130.460938 353.699219 L 133.402344 353.585938 L 136.34375 353.460938 L 142.226562 353.1875 L 145.171875 353.0625 L 148.113281 352.957031 L 151.054688 352.875 L 153.996094 352.824219 L 156.9375 352.792969 L 159.878906 352.753906 L 162.824219 352.683594 L 165.765625 352.535156 L 168.707031 352.277344 L 171.648438 351.882812 L 174.589844 351.34375 L 177.53125 350.671875 L 180.472656 349.90625 L 183.417969 349.089844 L 186.359375 348.269531 L 189.300781 347.488281 L 192.242188 346.75 L 195.183594 346.039062 L 198.125 345.292969 L 201.066406 344.4375 L 204.011719 343.398438 L 206.953125 342.105469 L 209.894531 340.539062 L 212.835938 338.714844 L 215.777344 336.6875 L 218.71875 334.53125 L 221.660156 332.308594 L 224.605469 330.058594 L 227.546875 327.78125 L 230.488281 325.4375 L 233.429688 322.976562 L 236.371094 320.363281 L 239.3125 317.589844 L 242.253906 314.679688 L 245.199219 311.679688 L 248.140625 308.65625 L 251.082031 305.664062 L 254.023438 302.742188 L 256.964844 299.910156 L 259.90625 297.152344 L 262.851562 294.410156 L 265.792969 291.605469 L 268.734375 288.632812 L 271.675781 285.375 L 274.617188 281.742188 L 277.558594 277.675781 L 280.5 273.175781 L 283.445312 268.289062 L 286.386719 263.121094 L 289.328125 257.816406 L 292.269531 252.546875 L 295.210938 247.484375 L 298.152344 242.777344 L 301.09375 238.515625 L 304.039062 234.71875 L 306.980469 231.3125 L 309.921875 228.15625 L 312.863281 225.082031 L 315.804688 221.925781 L 318.746094 218.589844 L 321.6875 215.074219 L 324.632812 211.464844 L 327.574219 207.902344 L 330.515625 204.53125 L 333.457031 201.472656 L 336.398438 198.824219 L 339.339844 196.664062 L 342.285156 195.0625 L 345.226562 194.09375 L 348.167969 193.769531 L 351.109375 194.015625 L 354.050781 194.667969 L 356.992188 195.503906 L 359.933594 196.335938 L 362.878906 197.082031 L 365.820312 197.800781 L 368.761719 198.679688 L 371.703125 199.949219 L 374.644531 201.800781 L 377.585938 204.324219 L 380.527344 207.488281 L 383.472656 211.167969 L 386.414062 215.203125 L 389.355469 219.421875 L 392.296875 223.710938 L 395.238281 227.984375 L 398.179688 232.210938 L 401.121094 236.390625 L 404.066406 240.554688 L 407.007812 244.726562 L 409.949219 248.941406 L 412.890625 253.214844 L 415.832031 257.554688 L 418.773438 261.957031 L 421.714844 266.402344 L 424.660156 270.871094 L 427.601562 275.324219 L 430.542969 279.714844 L 433.484375 283.976562 L 436.425781 288.058594 L 439.367188 291.925781 L 442.3125 295.574219 L 445.253906 299.035156 L 448.195312 302.347656 L 451.136719 305.5625 L 454.078125 308.710938 L 457.019531 311.792969 L 459.960938 314.789062 L 462.90625 317.65625 L 465.847656 320.351562 L 468.789062 322.839844 L 471.730469 325.125 L 474.671875 327.242188 L 477.613281 329.257812 L 480.554688 331.242188 L 483.5 333.242188 L 486.441406 335.261719 L 489.382812 337.257812 L 492.324219 339.152344 L 495.265625 340.875 L 498.207031 342.378906 L 501.148438 343.660156 L 504.09375 344.753906 L 507.035156 345.707031 L 509.976562 346.574219 L 512.917969 347.386719 L 515.859375 348.171875 L 518.800781 348.925781 L 521.746094 349.632812 L 524.6875 350.273438 L 527.628906 350.820312 L 530.570312 351.265625 L 533.511719 351.605469 L 536.453125 351.859375 L 539.394531 352.050781 L 542.339844 352.207031 L 545.28125 352.359375 L 551.164062 352.65625 L 554.105469 352.792969 L 557.046875 352.910156 L 559.988281 353 L 562.933594 353.070312 L 565.875 353.121094 L 568.816406 353.175781 L 571.757812 353.238281 L 574.699219 353.324219 L 577.640625 353.433594 L 580.582031 353.558594 L 583.527344 353.6875 L 586.46875 353.804688 L 589.410156 353.910156 L 592.351562 353.988281 L 595.292969 354.046875 L 598.234375 354.085938 L 601.179688 354.105469 L 604.121094 354.113281 L 607.0625 354.109375 L 610.003906 354.097656 L 612.945312 354.078125 L 615.886719 354.046875 L 618.828125 354.011719 L 621.773438 353.976562 L 624.714844 353.941406 L 627.65625 353.914062 L 630.597656 353.902344 L 633.539062 353.910156 L 636.480469 353.929688 L 639.421875 353.960938 L 642.367188 354 L 645.308594 354.035156 L 648.25 354.066406 L 651.191406 354.09375 L 654.132812 354.109375 L 657.074219 354.121094 L 660.015625 354.128906 L 662.960938 354.132812 L 665.902344 354.136719 L 674.726562 354.136719 "/>
<path fill-rule="nonzero" fill="rgb(83.137256%, 62.7451%, 9.019608%)" fill-opacity="0.35" d="M 156.476562 354.136719 L 159.445312 354.136719 L 160.929688 354.132812 L 162.414062 354.132812 L 165.382812 354.117188 L 166.863281 354.101562 L 168.347656 354.078125 L 169.832031 354.042969 L 171.316406 353.996094 L 172.800781 353.9375 L 174.285156 353.871094 L 175.765625 353.800781 L 177.25 353.734375 L 178.734375 353.679688 L 180.21875 353.640625 L 181.703125 353.613281 L 183.1875 353.59375 L 184.671875 353.578125 L 186.152344 353.550781 L 187.636719 353.507812 L 189.121094 353.445312 L 190.605469 353.367188 L 192.089844 353.269531 L 193.574219 353.164062 L 195.058594 353.046875 L 196.539062 352.929688 L 199.507812 352.703125 L 200.992188 352.585938 L 202.476562 352.464844 L 203.960938 352.316406 L 205.441406 352.132812 L 206.925781 351.894531 L 208.410156 351.59375 L 209.894531 351.230469 L 211.378906 350.8125 L 212.863281 350.355469 L 214.347656 349.875 L 215.828125 349.390625 L 217.3125 348.910156 L 218.796875 348.4375 L 221.765625 347.507812 L 223.25 347.03125 L 224.730469 346.527344 L 226.214844 345.976562 L 227.699219 345.347656 L 229.183594 344.609375 L 230.667969 343.703125 L 232.152344 342.578125 L 233.636719 341.160156 L 235.117188 339.398438 L 236.601562 337.25 L 238.085938 334.710938 L 239.570312 331.816406 L 241.054688 328.628906 L 242.539062 325.226562 L 244.023438 321.679688 L 245.503906 318.042969 L 246.988281 314.335938 L 248.472656 310.558594 L 249.957031 306.703125 L 251.441406 302.78125 L 252.925781 298.8125 L 254.40625 294.824219 L 255.890625 290.816406 L 257.375 286.738281 L 258.859375 282.496094 L 260.34375 277.945312 L 261.828125 272.945312 L 263.3125 267.394531 L 264.792969 261.269531 L 266.277344 254.628906 L 267.761719 247.59375 L 269.246094 240.316406 L 270.730469 232.921875 L 272.214844 225.484375 L 273.695312 218.03125 L 275.179688 210.550781 L 276.664062 203.027344 L 278.148438 195.476562 L 279.632812 187.960938 L 281.117188 180.597656 L 282.601562 173.511719 L 284.082031 166.824219 L 285.566406 160.578125 L 287.050781 154.742188 L 288.535156 149.183594 L 290.019531 143.707031 L 291.503906 138.128906 L 292.988281 132.320312 L 294.46875 126.277344 L 295.953125 120.125 L 297.4375 114.074219 L 298.921875 108.355469 L 300.40625 103.152344 L 301.890625 98.542969 L 303.371094 94.488281 L 304.855469 90.875 L 306.339844 87.550781 L 307.824219 84.382812 L 309.308594 81.277344 L 310.792969 78.183594 L 312.277344 75.082031 L 313.757812 71.980469 L 315.242188 68.917969 L 316.726562 65.941406 L 318.210938 63.152344 L 319.695312 60.675781 L 321.179688 58.667969 L 322.664062 57.320312 L 324.144531 56.863281 L 325.628906 57.542969 L 327.113281 59.613281 L 328.597656 63.265625 L 330.082031 68.574219 L 331.566406 75.429688 L 333.046875 83.5 L 334.53125 92.292969 L 336.015625 101.226562 L 337.5 109.777344 L 338.984375 117.589844 L 340.46875 124.558594 L 341.953125 130.820312 L 343.433594 136.683594 L 344.917969 142.507812 L 346.402344 148.597656 L 347.886719 155.101562 L 349.371094 162.019531 L 350.855469 169.226562 L 352.335938 176.539062 L 353.820312 183.796875 L 355.304688 190.90625 L 356.789062 197.824219 L 358.273438 204.5625 L 359.757812 211.140625 L 361.242188 217.554688 L 362.722656 223.804688 L 364.207031 229.878906 L 365.691406 235.804688 L 367.175781 241.652344 L 368.660156 247.515625 L 370.144531 253.492188 L 371.628906 259.640625 L 373.109375 265.976562 L 374.59375 272.433594 L 376.078125 278.914062 L 377.5625 285.28125 L 379.046875 291.40625 L 380.53125 297.175781 L 382.011719 302.503906 L 383.496094 307.34375 L 384.980469 311.660156 L 386.464844 315.449219 L 387.949219 318.71875 L 389.433594 321.515625 L 390.917969 323.90625 L 392.398438 325.984375 L 393.882812 327.851562 L 395.367188 329.605469 L 396.851562 331.320312 L 398.335938 333.042969 L 399.820312 334.785156 L 401.300781 336.519531 L 402.785156 338.214844 L 404.269531 339.8125 L 405.753906 341.273438 L 407.238281 342.570312 L 408.722656 343.679688 L 410.207031 344.621094 L 411.6875 345.414062 L 413.171875 346.105469 L 414.65625 346.734375 L 416.140625 347.339844 L 417.625 347.953125 L 419.109375 348.582031 L 420.59375 349.226562 L 422.074219 349.867188 L 423.558594 350.488281 L 425.042969 351.066406 L 426.527344 351.597656 L 428.011719 352.070312 L 429.496094 352.488281 L 430.976562 352.855469 L 432.460938 353.167969 L 433.945312 353.429688 L 435.429688 353.640625 L 436.914062 353.804688 L 438.398438 353.925781 L 439.882812 354.007812 L 441.363281 354.0625 L 442.847656 354.097656 L 444.332031 354.117188 L 447.300781 354.132812 L 448.785156 354.132812 L 450.265625 354.136719 L 451.75 354.136719 Z M 156.476562 354.136719 "/>
<path fill="none" stroke-width="1.6" stroke-linecap="butt" stroke-linejoin="miter" stroke="rgb(83.137256%, 62.7451%, 9.019608%)" stroke-opacity="1" stroke-miterlimit="2" d="M 156.476562 354.136719 L 159.445312 354.136719 L 160.929688 354.132812 L 162.414062 354.132812 L 165.382812 354.117188 L 166.863281 354.101562 L 168.347656 354.078125 L 169.832031 354.042969 L 171.316406 353.996094 L 172.800781 353.9375 L 174.285156 353.871094 L 175.765625 353.800781 L 177.25 353.734375 L 178.734375 353.679688 L 180.21875 353.640625 L 181.703125 353.613281 L 183.1875 353.59375 L 184.671875 353.578125 L 186.152344 353.550781 L 187.636719 353.507812 L 189.121094 353.445312 L 190.605469 353.367188 L 192.089844 353.269531 L 193.574219 353.164062 L 195.058594 353.046875 L 196.539062 352.929688 L 199.507812 352.703125 L 200.992188 352.585938 L 202.476562 352.464844 L 203.960938 352.316406 L 205.441406 352.132812 L 206.925781 351.894531 L 208.410156 351.59375 L 209.894531 351.230469 L 211.378906 350.8125 L 212.863281 350.355469 L 214.347656 349.875 L 215.828125 349.390625 L 217.3125 348.910156 L 218.796875 348.4375 L 221.765625 347.507812 L 223.25 347.03125 L 224.730469 346.527344 L 226.214844 345.976562 L 227.699219 345.347656 L 229.183594 344.609375 L 230.667969 343.703125 L 232.152344 342.578125 L 233.636719 341.160156 L 235.117188 339.398438 L 236.601562 337.25 L 238.085938 334.710938 L 239.570312 331.816406 L 241.054688 328.628906 L 242.539062 325.226562 L 244.023438 321.679688 L 245.503906 318.042969 L 246.988281 314.335938 L 248.472656 310.558594 L 249.957031 306.703125 L 251.441406 302.78125 L 252.925781 298.8125 L 254.40625 294.824219 L 255.890625 290.816406 L 257.375 286.738281 L 258.859375 282.496094 L 260.34375 277.945312 L 261.828125 272.945312 L 263.3125 267.394531 L 264.792969 261.269531 L 266.277344 254.628906 L 267.761719 247.59375 L 269.246094 240.316406 L 270.730469 232.921875 L 272.214844 225.484375 L 273.695312 218.03125 L 275.179688 210.550781 L 276.664062 203.027344 L 278.148438 195.476562 L 279.632812 187.960938 L 281.117188 180.597656 L 282.601562 173.511719 L 284.082031 166.824219 L 285.566406 160.578125 L 287.050781 154.742188 L 288.535156 149.183594 L 290.019531 143.707031 L 291.503906 138.128906 L 292.988281 132.320312 L 294.46875 126.277344 L 295.953125 120.125 L 297.4375 114.074219 L 298.921875 108.355469 L 300.40625 103.152344 L 301.890625 98.542969 L 303.371094 94.488281 L 304.855469 90.875 L 306.339844 87.550781 L 307.824219 84.382812 L 309.308594 81.277344 L 310.792969 78.183594 L 312.277344 75.082031 L 313.757812 71.980469 L 315.242188 68.917969 L 316.726562 65.941406 L 318.210938 63.152344 L 319.695312 60.675781 L 321.179688 58.667969 L 322.664062 57.320312 L 324.144531 56.863281 L 325.628906 57.542969 L 327.113281 59.613281 L 328.597656 63.265625 L 330.082031 68.574219 L 331.566406 75.429688 L 333.046875 83.5 L 334.53125 92.292969 L 336.015625 101.226562 L 337.5 109.777344 L 338.984375 117.589844 L 340.46875 124.558594 L 341.953125 130.820312 L 343.433594 136.683594 L 344.917969 142.507812 L 346.402344 148.597656 L 347.886719 155.101562 L 349.371094 162.019531 L 350.855469 169.226562 L 352.335938 176.539062 L 353.820312 183.796875 L 355.304688 190.90625 L 356.789062 197.824219 L 358.273438 204.5625 L 359.757812 211.140625 L 361.242188 217.554688 L 362.722656 223.804688 L 364.207031 229.878906 L 365.691406 235.804688 L 367.175781 241.652344 L 368.660156 247.515625 L 370.144531 253.492188 L 371.628906 259.640625 L 373.109375 265.976562 L 374.59375 272.433594 L 376.078125 278.914062 L 377.5625 285.28125 L 379.046875 291.40625 L 380.53125 297.175781 L 382.011719 302.503906 L 383.496094 307.34375 L 384.980469 311.660156 L 386.464844 315.449219 L 387.949219 318.71875 L 389.433594 321.515625 L 390.917969 323.90625 L 392.398438 325.984375 L 393.882812 327.851562 L 395.367188 329.605469 L 396.851562 331.320312 L 398.335938 333.042969 L 399.820312 334.785156 L 401.300781 336.519531 L 402.785156 338.214844 L 404.269531 339.8125 L 405.753906 341.273438 L 407.238281 342.570312 L 408.722656 343.679688 L 410.207031 344.621094 L 411.6875 345.414062 L 413.171875 346.105469 L 414.65625 346.734375 L 416.140625 347.339844 L 417.625 347.953125 L 419.109375 348.582031 L 420.59375 349.226562 L 422.074219 349.867188 L 423.558594 350.488281 L 425.042969 351.066406 L 426.527344 351.597656 L 428.011719 352.070312 L 429.496094 352.488281 L 430.976562 352.855469 L 432.460938 353.167969 L 433.945312 353.429688 L 435.429688 353.640625 L 436.914062 353.804688 L 438.398438 353.925781 L 439.882812 354.007812 L 441.363281 354.0625 L 442.847656 354.097656 L 444.332031 354.117188 L 447.300781 354.132812 L 448.785156 354.132812 L 450.265625 354.136719 L 451.75 354.136719 "/>
<path fill-rule="nonzero" fill="rgb(90.196079%, 88.627452%, 83.529413%)" fill-opacity="1" stroke-width="0.9" stroke-linecap="butt" stroke-linejoin="miter" stroke="rgb(10.588235%, 16.470589%, 22.745098%)" stroke-opacity="1" stroke-miterlimit="2" d="M 582 109 L 698 109 L 698 48 L 582 48 Z M 582 109 "/>
<path fill="none" stroke-width="0.9" stroke-linecap="butt" stroke-linejoin="miter" stroke="rgb(10.588235%, 16.470589%, 22.745098%)" stroke-opacity="1" stroke-miterlimit="1.154701" d="M 83.621094 364.550781 L 83.621094 369.550781 "/>
<path fill="none" stroke-width="0.9" stroke-linecap="butt" stroke-linejoin="miter" stroke="rgb(10.588235%, 16.470589%, 22.745098%)" stroke-opacity="1" stroke-miterlimit="1.154701" d="M 332.992188 364.550781 L 332.992188 369.550781 "/>
<path fill="none" stroke-width="0.9" stroke-linecap="butt" stroke-linejoin="miter" stroke="rgb(10.588235%, 16.470589%, 22.745098%)" stroke-opacity="1" stroke-miterlimit="1.154701" d="M 582.363281 364.550781 L 582.363281 369.550781 "/>
<path fill="none" stroke-width="1" stroke-linecap="butt" stroke-linejoin="miter" stroke="rgb(23.529412%, 29.019609%, 36.078432%)" stroke-opacity="1" stroke-miterlimit="1.154701" d="M 208.308594 366.550781 L 208.308594 369.550781 "/>
<path fill="none" stroke-width="1" stroke-linecap="butt" stroke-linejoin="miter" stroke="rgb(23.529412%, 29.019609%, 36.078432%)" stroke-opacity="1" stroke-miterlimit="1.154701" d="M 457.675781 366.550781 L 457.675781 369.550781 "/>
<path fill="none" stroke-width="0.9" stroke-linecap="butt" stroke-linejoin="miter" stroke="rgb(10.588235%, 16.470589%, 22.745098%)" stroke-opacity="1" stroke-miterlimit="1.154701" d="M 64.449219 354.136719 L 59.449219 354.136719 "/>
<path fill="none" stroke-width="0.9" stroke-linecap="butt" stroke-linejoin="miter" stroke="rgb(10.588235%, 16.470589%, 22.745098%)" stroke-opacity="1" stroke-miterlimit="1.154701" d="M 64.449219 302.859375 L 59.449219 302.859375 "/>
<path fill="none" stroke-width="0.9" stroke-linecap="butt" stroke-linejoin="miter" stroke="rgb(10.588235%, 16.470589%, 22.745098%)" stroke-opacity="1" stroke-miterlimit="1.154701" d="M 64.449219 251.582031 L 59.449219 251.582031 "/>
<path fill="none" stroke-width="0.9" stroke-linecap="butt" stroke-linejoin="miter" stroke="rgb(10.588235%, 16.470589%, 22.745098%)" stroke-opacity="1" stroke-miterlimit="1.154701" d="M 64.449219 200.300781 L 59.449219 200.300781 "/>
<path fill="none" stroke-width="0.9" stroke-linecap="butt" stroke-linejoin="miter" stroke="rgb(10.588235%, 16.470589%, 22.745098%)" stroke-opacity="1" stroke-miterlimit="1.154701" d="M 64.449219 149.023438 L 59.449219 149.023438 "/>
<path fill="none" stroke-width="0.9" stroke-linecap="butt" stroke-linejoin="miter" stroke="rgb(10.588235%, 16.470589%, 22.745098%)" stroke-opacity="1" stroke-miterlimit="1.154701" d="M 64.449219 97.746094 L 59.449219 97.746094 "/>
<path fill="none" stroke-width="0.9" stroke-linecap="butt" stroke-linejoin="miter" stroke="rgb(10.588235%, 16.470589%, 22.745098%)" stroke-opacity="1" stroke-miterlimit="1.154701" d="M 64.449219 46.46875 L 59.449219 46.46875 "/>
<path fill="none" stroke-width="1" stroke-linecap="butt" stroke-linejoin="miter" stroke="rgb(23.529412%, 29.019609%, 36.078432%)" stroke-opacity="1" stroke-miterlimit="1.154701" d="M 62.449219 328.496094 L 59.449219 328.496094 "/>
<path fill="none" stroke-width="1" stroke-linecap="butt" stroke-linejoin="miter" stroke="rgb(23.529412%, 29.019609%, 36.078432%)" stroke-opacity="1" stroke-miterlimit="1.154701" d="M 62.449219 277.21875 L 59.449219 277.21875 "/>
<path fill="none" stroke-width="1" stroke-linecap="butt" stroke-linejoin="miter" stroke="rgb(23.529412%, 29.019609%, 36.078432%)" stroke-opacity="1" stroke-miterlimit="1.154701" d="M 62.449219 225.941406 L 59.449219 225.941406 "/>
<path fill="none" stroke-width="1" stroke-linecap="butt" stroke-linejoin="miter" stroke="rgb(23.529412%, 29.019609%, 36.078432%)" stroke-opacity="1" stroke-miterlimit="1.154701" d="M 62.449219 174.664062 L 59.449219 174.664062 "/>
<path fill="none" stroke-width="1" stroke-linecap="butt" stroke-linejoin="miter" stroke="rgb(23.529412%, 29.019609%, 36.078432%)" stroke-opacity="1" stroke-miterlimit="1.154701" d="M 62.449219 123.386719 L 59.449219 123.386719 "/>
<path fill="none" stroke-width="1" stroke-linecap="butt" stroke-linejoin="miter" stroke="rgb(23.529412%, 29.019609%, 36.078432%)" stroke-opacity="1" stroke-miterlimit="1.154701" d="M 62.449219 72.105469 L 59.449219 72.105469 "/>
<path fill-rule="nonzero" fill="rgb(78.431374%, 20.784314%, 10.980392%)" fill-opacity="0.35" stroke-width="1.6" stroke-linecap="butt" stroke-linejoin="miter" stroke="rgb(78.431374%, 20.784314%, 10.980392%)" stroke-opacity="1" stroke-miterlimit="2" d="M 592.199219 68.574219 L 610.199219 68.574219 L 610.199219 56.574219 L 592.199219 56.574219 Z M 592.199219 68.574219 "/>
<path fill-rule="nonzero" fill="rgb(12.156863%, 30.588236%, 47.450981%)" fill-opacity="0.35" stroke-width="1.6" stroke-linecap="butt" stroke-linejoin="miter" stroke="rgb(12.156863%, 30.588236%, 47.450981%)" stroke-opacity="1" stroke-miterlimit="2" d="M 592.199219 84.5 L 610.199219 84.5 L 610.199219 72.5 L 592.199219 72.5 Z M 592.199219 84.5 "/>
<path fill-rule="nonzero" fill="rgb(83.137256%, 62.7451%, 9.019608%)" fill-opacity="0.35" stroke-width="1.6" stroke-linecap="butt" stroke-linejoin="miter" stroke="rgb(83.137256%, 62.7451%, 9.019608%)" stroke-opacity="1" stroke-miterlimit="2" d="M 592.199219 100.425781 L 610.199219 100.425781 L 610.199219 88.425781 L 592.199219 88.425781 Z M 592.199219 100.425781 "/>
<g fill="rgb(10.588235%, 16.470589%, 22.745098%)" fill-opacity="1">
<use xlink:href="#glyph-1-8-c9a98540" x="615.200004" y="66.562499"/>
<use xlink:href="#glyph-1-9-c9a98540" x="621.800005" y="66.562499"/>
<use xlink:href="#glyph-1-10-c9a98540" x="628.400005" y="66.562499"/>
<use xlink:href="#glyph-1-11-c9a98540" x="635.000006" y="66.562499"/>
<use xlink:href="#glyph-1-8-c9a98540" x="641.600006" y="66.562499"/>
<use xlink:href="#glyph-1-12-c9a98540" x="648.200005" y="66.562499"/>
<use xlink:href="#glyph-1-13-c9a98540" x="654.800004" y="66.562499"/>
</g>
<g fill="rgb(10.588235%, 16.470589%, 22.745098%)" fill-opacity="1">
<use xlink:href="#glyph-1-9-c9a98540" x="615.200019" y="82.487487"/>
<use xlink:href="#glyph-1-14-c9a98540" x="621.80002" y="82.487487"/>
<use xlink:href="#glyph-1-14-c9a98540" x="628.400021" y="82.487487"/>
<use xlink:href="#glyph-1-15-c9a98540" x="635.000021" y="82.487487"/>
<use xlink:href="#glyph-1-8-c9a98540" x="641.600022" y="82.487487"/>
<use xlink:href="#glyph-1-9-c9a98540" x="648.20002" y="82.487487"/>
<use xlink:href="#glyph-1-10-c9a98540" x="654.800019" y="82.487487"/>
<use xlink:href="#glyph-1-11-c9a98540" x="661.400018" y="82.487487"/>
<use xlink:href="#glyph-1-8-c9a98540" x="668.000016" y="82.487487"/>
<use xlink:href="#glyph-1-12-c9a98540" x="674.600015" y="82.487487"/>
<use xlink:href="#glyph-1-13-c9a98540" x="681.200013" y="82.487487"/>
</g>
<g fill="rgb(10.588235%, 16.470589%, 22.745098%)" fill-opacity="1">
<use xlink:href="#glyph-1-16-c9a98540" x="615.200039" y="98.412506"/>
<use xlink:href="#glyph-1-17-c9a98540" x="621.800039" y="98.412506"/>
<use xlink:href="#glyph-1-11-c9a98540" x="628.40004" y="98.412506"/>
<use xlink:href="#glyph-1-10-c9a98540" x="635.00004" y="98.412506"/>
</g>
<path fill="none" stroke-width="1.1" stroke-linecap="butt" stroke-linejoin="miter" stroke="rgb(10.588235%, 16.470589%, 22.745098%)" stroke-opacity="1" stroke-miterlimit="1.154701" d="M 59.449219 369 L 704.550781 369 "/>
<path fill="none" stroke-width="1.1" stroke-linecap="butt" stroke-linejoin="miter" stroke="rgb(10.588235%, 16.470589%, 22.745098%)" stroke-opacity="1" stroke-miterlimit="1.154701" d="M 60 369.550781 L 60 41.449219 "/>
<path fill="none" stroke-width="1.1" stroke-linecap="butt" stroke-linejoin="miter" stroke="rgb(10.588235%, 16.470589%, 22.745098%)" stroke-opacity="1" stroke-miterlimit="1.154701" d="M 59.449219 42 L 704.550781 42 "/>
<path fill="none" stroke-width="1.1" stroke-linecap="butt" stroke-linejoin="miter" stroke="rgb(10.588235%, 16.470589%, 22.745098%)" stroke-opacity="1" stroke-miterlimit="1.154701" d="M 704 369.550781 L 704 41.449219 "/>
</svg>
