<?xml version="1.0" encoding="UTF-8"?>
<svg xmlns="http://www.w3.org/2000/svg" xmlns:xlink="http://www.w3.org/1999/xlink" width="600" height="450" viewBox="0 0 600 450">
<defs>
<g>
<g id="glyph-0-0-09af283b">
<path d="M 3.3125 0.109375 C 2.550781 0.109375 1.972656 -0.0507812 1.578125 -0.375 C 1.191406 -0.707031 0.9375 -1.160156 0.8125 -1.734375 C 0.6875 -2.304688 0.625 -3.066406 0.625 -4.015625 C 0.625 -4.941406 0.6875 -5.691406 0.8125 -6.265625 C 0.945312 -6.835938 1.207031 -7.28125 1.59375 -7.59375 C 1.976562 -7.914062 2.550781 -8.078125 3.3125 -8.078125 C 4.0625 -8.078125 4.628906 -7.921875 5.015625 -7.609375 C 5.410156 -7.296875 5.671875 -6.851562 5.796875 -6.28125 C 5.929688 -5.707031 6 -4.953125 6 -4.015625 C 6 -3.066406 5.929688 -2.304688 5.796875 -1.734375 C 5.671875 -1.160156 5.414062 -0.707031 5.03125 -0.375 C 4.644531 -0.0507812 4.070312 0.109375 3.3125 0.109375 Z M 2.59375 -4.015625 L 3.3125 -4.828125 L 4.015625 -4.015625 L 3.3125 -3.28125 Z M 3.3125 -0.8125 C 3.769531 -0.8125 4.113281 -0.929688 4.34375 -1.171875 C 4.582031 -1.421875 4.738281 -1.765625 4.8125 -2.203125 C 4.882812 -2.648438 4.921875 -3.253906 4.921875 -4.015625 C 4.921875 -4.742188 4.882812 -5.328125 4.8125 -5.765625 C 4.738281 -6.203125 4.585938 -6.539062 4.359375 -6.78125 C 4.128906 -7.03125 3.78125 -7.15625 3.3125 -7.15625 C 2.84375 -7.15625 2.488281 -7.03125 2.25 -6.78125 C 2.019531 -6.539062 1.867188 -6.203125 1.796875 -5.765625 C 1.734375 -5.328125 1.703125 -4.742188 1.703125 -4.015625 C 1.703125 -3.265625 1.738281 -2.664062 1.8125 -2.21875 C 1.882812 -1.769531 2.035156 -1.421875 2.265625 -1.171875 C 2.503906 -0.929688 2.851562 -0.8125 3.3125 -0.8125 Z M 3.3125 -0.8125 "/>
</g>
<g id="glyph-1-0-09af283b">
<path d="M 3.296875 0.234375 C 2.960938 0.234375 2.703125 0.144531 2.515625 -0.03125 C 2.335938 -0.21875 2.25 -0.476562 2.25 -0.8125 C 2.25 -1.144531 2.335938 -1.398438 2.515625 -1.578125 C 2.703125 -1.765625 2.960938 -1.859375 3.296875 -1.859375 C 3.640625 -1.859375 3.898438 -1.765625 4.078125 -1.578125 C 4.253906 -1.398438 4.34375 -1.144531 4.34375 -0.8125 C 4.34375 -0.476562 4.25 -0.21875 4.0625 -0.03125 C 3.882812 0.144531 3.628906 0.234375 3.296875 0.234375 Z M 3.296875 0.234375 "/>
</g>
<g id="glyph-1-1-09af283b">
<path d="M 3.3125 0.109375 C 2.550781 0.109375 1.972656 -0.0507812 1.578125 -0.375 C 1.191406 -0.707031 0.9375 -1.160156 0.8125 -1.734375 C 0.6875 -2.304688 0.625 -3.066406 0.625 -4.015625 C 0.625 -4.941406 0.6875 -5.691406 0.8125 -6.265625 C 0.945312 -6.835938 1.207031 -7.28125 1.59375 -7.59375 C 1.976562 -7.914062 2.550781 -8.078125 3.3125 -8.078125 C 4.0625 -8.078125 4.628906 -7.921875 5.015625 -7.609375 C 5.410156 -7.296875 5.671875 -6.851562 5.796875 -6.28125 C 5.929688 -5.707031 6 -4.953125 6 -4.015625 C 6 -3.066406 5.929688 -2.304688 5.796875 -1.734375 C 5.671875 -1.160156 5.414062 -0.707031 5.03125 -0.375 C 4.644531 -0.0507812 4.070312 0.109375 3.3125 0.109375 Z M 2.59375 -4.015625 L 3.3125 -4.828125 L 4.015625 -4.015625 L 3.3125 -3.28125 Z M 3.3125 -0.8125 C 3.769531 -0.8125 4.113281 -0.929688 4.34375 -1.171875 C 4.582031 -1.421875 4.738281 -1.765625 4.8125 -2.203125 C 4.882812 -2.648438 4.921875 -3.253906 4.921875 -4.015625 C 4.921875 -4.742188 4.882812 -5.328125 4.8125 -5.765625 C 4.738281 -6.203125 4.585938 -6.539062 4.359375 -6.78125 C 4.128906 -7.03125 3.78125 -7.15625 3.3125 -7.15625 C 2.84375 -7.15625 2.488281 -7.03125 2.25 -6.78125 C 2.019531 -6.539062 1.867188 -6.203125 1.796875 -5.765625 C 1.734375 -5.328125 1.703125 -4.742188 1.703125 -4.015625 C 1.703125 -3.265625 1.738281 -2.664062 1.8125 -2.21875 C 1.882812 -1.769531 2.035156 -1.421875 2.265625 -1.171875 C 2.503906 -0.929688 2.851562 -0.8125 3.3125 -0.8125 Z M 3.3125 -0.8125 "/>
</g>
<g id="glyph-1-2-09af283b">
<path d="M 3.28125 0.109375 C 2.832031 0.109375 2.421875 0.0273438 2.046875 -0.125 C 1.671875 -0.28125 1.375 -0.515625 1.15625 -0.828125 C 0.9375 -1.140625 0.828125 -1.535156 0.828125 -2.015625 L 1.9375 -2.015625 C 1.945312 -1.628906 2.070312 -1.335938 2.3125 -1.140625 C 2.5625 -0.941406 2.863281 -0.84375 3.21875 -0.84375 C 3.507812 -0.84375 3.765625 -0.921875 3.984375 -1.078125 C 4.203125 -1.234375 4.367188 -1.453125 4.484375 -1.734375 C 4.609375 -2.015625 4.671875 -2.328125 4.671875 -2.671875 C 4.671875 -2.992188 4.613281 -3.285156 4.5 -3.546875 C 4.394531 -3.804688 4.238281 -4.007812 4.03125 -4.15625 C 3.832031 -4.300781 3.597656 -4.375 3.328125 -4.375 C 3.003906 -4.375 2.722656 -4.28125 2.484375 -4.09375 C 2.253906 -3.90625 2.097656 -3.648438 2.015625 -3.328125 L 0.90625 -3.328125 L 1.484375 -7.96875 L 5.5625 -7.96875 L 5.5625 -7 L 2.453125 -7 L 2.109375 -4.5625 C 2.316406 -4.820312 2.535156 -5.019531 2.765625 -5.15625 C 3.003906 -5.289062 3.273438 -5.359375 3.578125 -5.359375 C 4.035156 -5.359375 4.429688 -5.238281 4.765625 -5 C 5.109375 -4.757812 5.367188 -4.4375 5.546875 -4.03125 C 5.722656 -3.625 5.8125 -3.164062 5.8125 -2.65625 C 5.8125 -2.113281 5.703125 -1.632812 5.484375 -1.21875 C 5.273438 -0.800781 4.976562 -0.472656 4.59375 -0.234375 C 4.21875 -0.00390625 3.78125 0.109375 3.28125 0.109375 Z M 3.28125 0.109375 "/>
</g>
<g id="glyph-1-3-09af283b">
<path d="M 1.015625 -0.9375 L 2.9375 -0.9375 L 2.9375 -6.390625 C 2.613281 -6.078125 2.265625 -5.789062 1.890625 -5.53125 C 1.515625 -5.28125 1.164062 -5.109375 0.84375 -5.015625 L 0.84375 -6.078125 C 1.226562 -6.234375 1.625 -6.492188 2.03125 -6.859375 C 2.4375 -7.234375 2.78125 -7.601562 3.0625 -7.96875 L 4 -7.96875 L 4 -0.9375 L 5.765625 -0.9375 L 5.765625 0 L 1.015625 0 Z M 1.015625 -0.9375 "/>
</g>
<g id="glyph-1-4-09af283b">
<path d="M 1.25 -1.53125 C 1.894531 -2.101562 2.4375 -2.609375 2.875 -3.046875 C 3.3125 -3.492188 3.691406 -3.96875 4.015625 -4.46875 C 4.347656 -4.96875 4.515625 -5.429688 4.515625 -5.859375 C 4.515625 -6.109375 4.460938 -6.328125 4.359375 -6.515625 C 4.265625 -6.703125 4.125 -6.847656 3.9375 -6.953125 C 3.75 -7.054688 3.546875 -7.109375 3.328125 -7.109375 C 3.066406 -7.109375 2.835938 -7.050781 2.640625 -6.9375 C 2.441406 -6.820312 2.285156 -6.65625 2.171875 -6.4375 C 2.054688 -6.21875 2 -5.972656 2 -5.703125 L 0.875 -5.703125 C 0.882812 -6.222656 1 -6.660156 1.21875 -7.015625 C 1.4375 -7.367188 1.726562 -7.632812 2.09375 -7.8125 C 2.46875 -7.988281 2.890625 -8.078125 3.359375 -8.078125 C 3.785156 -8.078125 4.171875 -8 4.515625 -7.84375 C 4.867188 -7.695312 5.15625 -7.457031 5.375 -7.125 C 5.59375 -6.800781 5.703125 -6.398438 5.703125 -5.921875 C 5.703125 -5.429688 5.535156 -4.910156 5.203125 -4.359375 C 4.878906 -3.816406 4.5 -3.3125 4.0625 -2.84375 C 3.632812 -2.382812 3.109375 -1.859375 2.484375 -1.265625 L 2.09375 -0.890625 L 5.78125 -0.890625 L 5.78125 0.046875 L 0.796875 0.046875 L 0.796875 -1.140625 Z M 1.25 -1.53125 "/>
</g>
<g id="glyph-1-5-09af283b">
<path d="M 3.828125 -1.6875 L 0.453125 -1.6875 L 0.453125 -2.765625 L 3.53125 -7.96875 L 4.90625 -7.96875 L 4.90625 -2.625 L 6.046875 -2.625 L 6.046875 -1.6875 L 4.90625 -1.6875 L 4.90625 0 L 3.828125 0 Z M 3.828125 -2.625 L 3.828125 -6.65625 L 1.546875 -2.625 Z M 3.828125 -2.625 "/>
</g>
<g id="glyph-1-6-09af283b">
<path d="M 1.828125 -2.234375 C 1.828125 -1.929688 1.894531 -1.671875 2.03125 -1.453125 C 2.175781 -1.242188 2.359375 -1.082031 2.578125 -0.96875 C 2.796875 -0.851562 3.019531 -0.796875 3.25 -0.796875 C 3.5 -0.796875 3.738281 -0.851562 3.96875 -0.96875 C 4.207031 -1.082031 4.394531 -1.25 4.53125 -1.46875 C 4.675781 -1.6875 4.75 -1.941406 4.75 -2.234375 C 4.75 -2.617188 4.648438 -2.945312 4.453125 -3.21875 C 4.265625 -3.5 3.984375 -3.71875 3.609375 -3.875 C 3.242188 -4.03125 2.8125 -4.109375 2.3125 -4.109375 L 2.3125 -5 L 4.515625 -7.046875 L 0.953125 -7.046875 L 0.953125 -7.96875 L 5.796875 -7.96875 L 5.796875 -6.828125 L 3.703125 -4.796875 C 4.203125 -4.710938 4.613281 -4.546875 4.9375 -4.296875 C 5.269531 -4.046875 5.515625 -3.742188 5.671875 -3.390625 C 5.828125 -3.035156 5.90625 -2.648438 5.90625 -2.234375 C 5.90625 -1.742188 5.773438 -1.316406 5.515625 -0.953125 C 5.265625 -0.597656 4.929688 -0.332031 4.515625 -0.15625 C 4.109375 0.0195312 3.6875 0.109375 3.25 0.109375 C 2.800781 0.109375 2.382812 0.0234375 2 -0.140625 C 1.613281 -0.304688 1.300781 -0.566406 1.0625 -0.921875 C 0.820312 -1.273438 0.703125 -1.710938 0.703125 -2.234375 Z M 1.828125 -2.234375 "/>
</g>
<g id="glyph-2-0-09af283b">
<path d="M 3.3125 0.109375 C 2.550781 0.109375 1.972656 -0.0507812 1.578125 -0.375 C 1.191406 -0.707031 0.9375 -1.160156 0.8125 -1.734375 C 0.6875 -2.304688 0.625 -3.066406 0.625 -4.015625 C 0.625 -4.941406 0.6875 -5.691406 0.8125 -6.265625 C 0.945312 -6.835938 1.207031 -7.28125 1.59375 -7.59375 C 1.976562 -7.914062 2.550781 -8.078125 3.3125 -8.078125 C 4.0625 -8.078125 4.628906 -7.921875 5.015625 -7.609375 C 5.410156 -7.296875 5.671875 -6.851562 5.796875 -6.28125 C 5.929688 -5.707031 6 -4.953125 6 -4.015625 C 6 -3.066406 5.929688 -2.304688 5.796875 -1.734375 C 5.671875 -1.160156 5.414062 -0.707031 5.03125 -0.375 C 4.644531 -0.0507812 4.070312 0.109375 3.3125 0.109375 Z M 2.59375 -4.015625 L 3.3125 -4.828125 L 4.015625 -4.015625 L 3.3125 -3.28125 Z M 3.3125 -0.8125 C 3.769531 -0.8125 4.113281 -0.929688 4.34375 -1.171875 C 4.582031 -1.421875 4.738281 -1.765625 4.8125 -2.203125 C 4.882812 -2.648438 4.921875 -3.253906 4.921875 -4.015625 C 4.921875 -4.742188 4.882812 -5.328125 4.8125 -5.765625 C 4.738281 -6.203125 4.585938 -6.539062 4.359375 -6.78125 C 4.128906 -7.03125 3.78125 -7.15625 3.3125 -7.15625 C 2.84375 -7.15625 2.488281 -7.03125 2.25 -6.78125 C 2.019531 -6.539062 1.867188 -6.203125 1.796875 -5.765625 C 1.734375 -5.328125 1.703125 -4.742188 1.703125 -4.015625 C 1.703125 -3.265625 1.738281 -2.664062 1.8125 -2.21875 C 1.882812 -1.769531 2.035156 -1.421875 2.265625 -1.171875 C 2.503906 -0.929688 2.851562 -0.8125 3.3125 -0.8125 Z M 3.3125 -0.8125 "/>
</g>
<g id="glyph-3-0-09af283b">
<path d="M 1.125 -10.875 L 4.46875 -10.875 C 6.957031 -10.875 8.203125 -9.820312 8.203125 -7.71875 C 8.203125 -6.945312 8.03125 -6.320312 7.6875 -5.84375 C 7.351562 -5.375 6.910156 -5.035156 6.359375 -4.828125 C 5.816406 -4.617188 5.207031 -4.515625 4.53125 -4.515625 L 2.6875 -4.515625 L 2.6875 0 L 1.125 0 Z M 3.953125 -5.875 C 4.535156 -5.875 5 -5.910156 5.34375 -5.984375 C 5.695312 -6.066406 5.984375 -6.242188 6.203125 -6.515625 C 6.421875 -6.785156 6.53125 -7.191406 6.53125 -7.734375 C 6.53125 -8.429688 6.332031 -8.90625 5.9375 -9.15625 C 5.550781 -9.414062 5.015625 -9.546875 4.328125 -9.546875 L 2.6875 -9.546875 L 2.6875 -5.875 Z M 3.953125 -5.875 "/>
</g>
<g id="glyph-3-1-09af283b">
<path d="M 2.546875 -4.5 C 2.546875 -5.21875 2.53125 -5.734375 2.5 -6.046875 C 2.46875 -6.367188 2.425781 -6.703125 2.375 -7.046875 L 0.9375 -7.046875 L 0.9375 -8.25 L 3.5625 -8.25 L 3.765625 -6.796875 C 4.003906 -7.367188 4.332031 -7.78125 4.75 -8.03125 C 5.175781 -8.289062 5.617188 -8.421875 6.078125 -8.421875 C 6.421875 -8.421875 6.789062 -8.332031 7.1875 -8.15625 C 7.59375 -7.988281 7.914062 -7.785156 8.15625 -7.546875 L 7.3125 -6.5 C 7.164062 -6.65625 6.960938 -6.785156 6.703125 -6.890625 C 6.441406 -7.003906 6.140625 -7.0625 5.796875 -7.0625 C 5.234375 -7.0625 4.800781 -6.78125 4.5 -6.21875 C 4.207031 -5.664062 4.0625 -4.832031 4.0625 -3.71875 L 4.0625 0 L 2.546875 0 Z M 2.546875 -4.5 "/>
</g>
<g id="glyph-3-2-09af283b">
<path d="M 1.515625 -8.25 L 5.375 -8.25 L 5.375 -1.21875 L 7.65625 -1.21875 L 7.65625 0 L 1.390625 0 L 1.390625 -1.21875 L 3.859375 -1.21875 L 3.859375 -7.09375 L 1.515625 -7.09375 Z M 4.453125 -9.75 C 4.054688 -9.75 3.773438 -9.832031 3.609375 -10 C 3.453125 -10.164062 3.375 -10.441406 3.375 -10.828125 C 3.375 -11.222656 3.453125 -11.5 3.609375 -11.65625 C 3.773438 -11.820312 4.054688 -11.90625 4.453125 -11.90625 C 4.835938 -11.90625 5.109375 -11.820312 5.265625 -11.65625 C 5.429688 -11.5 5.515625 -11.222656 5.515625 -10.828125 C 5.515625 -10.441406 5.429688 -10.164062 5.265625 -10 C 5.109375 -9.832031 4.835938 -9.75 4.453125 -9.75 Z M 4.453125 -9.75 "/>
</g>
<g id="glyph-3-3-09af283b">
<path d="M 4.5 0.125 C 3.769531 0.125 3.140625 -0.046875 2.609375 -0.390625 C 2.085938 -0.742188 1.6875 -1.238281 1.40625 -1.875 C 1.132812 -2.507812 1 -3.257812 1 -4.125 C 1 -5 1.140625 -5.753906 1.421875 -6.390625 C 1.710938 -7.035156 2.117188 -7.53125 2.640625 -7.875 C 3.171875 -8.226562 3.789062 -8.40625 4.5 -8.40625 C 5.21875 -8.40625 5.835938 -8.226562 6.359375 -7.875 C 6.890625 -7.53125 7.296875 -7.035156 7.578125 -6.390625 C 7.859375 -5.753906 8 -5 8 -4.125 C 8 -3.257812 7.859375 -2.507812 7.578125 -1.875 C 7.304688 -1.238281 6.90625 -0.742188 6.375 -0.390625 C 5.851562 -0.046875 5.226562 0.125 4.5 0.125 Z M 4.46875 -1.1875 C 4.875 -1.1875 5.226562 -1.300781 5.53125 -1.53125 C 5.832031 -1.769531 6.0625 -2.109375 6.21875 -2.546875 C 6.375 -2.992188 6.453125 -3.519531 6.453125 -4.125 C 6.453125 -4.726562 6.367188 -5.253906 6.203125 -5.703125 C 6.046875 -6.148438 5.816406 -6.492188 5.515625 -6.734375 C 5.222656 -6.972656 4.875 -7.09375 4.46875 -7.09375 C 4.070312 -7.09375 3.726562 -6.972656 3.4375 -6.734375 C 3.15625 -6.492188 2.9375 -6.148438 2.78125 -5.703125 C 2.625 -5.253906 2.546875 -4.726562 2.546875 -4.125 C 2.546875 -3.507812 2.617188 -2.984375 2.765625 -2.546875 C 2.921875 -2.109375 3.144531 -1.769531 3.4375 -1.53125 C 3.726562 -1.300781 4.070312 -1.1875 4.46875 -1.1875 Z M 4.46875 -1.1875 "/>
</g>
<g id="glyph-3-4-09af283b">
</g>
<g id="glyph-3-5-09af283b">
<path d="M 4.125 0.109375 C 3.4375 0.109375 2.859375 -0.09375 2.390625 -0.5 C 1.921875 -0.914062 1.570312 -1.453125 1.34375 -2.109375 C 1.113281 -2.773438 1 -3.484375 1 -4.234375 C 1 -4.941406 1.125 -5.609375 1.375 -6.234375 C 1.625 -6.867188 1.988281 -7.378906 2.46875 -7.765625 C 2.945312 -8.160156 3.507812 -8.359375 4.15625 -8.359375 C 5.257812 -8.359375 6.007812 -7.972656 6.40625 -7.203125 L 6.40625 -11.84375 L 7.890625 -11.84375 L 7.890625 -1.796875 C 7.890625 -1.597656 7.890625 -1.40625 7.890625 -1.21875 C 7.898438 -1.03125 7.910156 -0.84375 7.921875 -0.65625 L 7.9375 0 L 6.546875 0 L 6.40625 -1.046875 C 6.125 -0.628906 5.804688 -0.332031 5.453125 -0.15625 C 5.109375 0.0195312 4.664062 0.109375 4.125 0.109375 Z M 4.53125 -1.03125 C 4.988281 -1.03125 5.351562 -1.191406 5.625 -1.515625 C 5.90625 -1.835938 6.109375 -2.238281 6.234375 -2.71875 C 6.359375 -3.195312 6.421875 -3.679688 6.421875 -4.171875 C 6.421875 -4.660156 6.347656 -5.140625 6.203125 -5.609375 C 6.066406 -6.078125 5.847656 -6.457031 5.546875 -6.75 C 5.242188 -7.050781 4.863281 -7.203125 4.40625 -7.203125 C 3.976562 -7.203125 3.617188 -7.046875 3.328125 -6.734375 C 3.046875 -6.429688 2.832031 -6.046875 2.6875 -5.578125 C 2.550781 -5.117188 2.484375 -4.660156 2.484375 -4.203125 C 2.484375 -3.703125 2.5625 -3.207031 2.71875 -2.71875 C 2.875 -2.226562 3.109375 -1.820312 3.421875 -1.5 C 3.734375 -1.1875 4.101562 -1.03125 4.53125 -1.03125 Z M 4.53125 -1.03125 "/>
</g>
<g id="glyph-3-6-09af283b">
<path d="M 4.53125 0.078125 C 3.800781 0.078125 3.175781 -0.0390625 2.65625 -0.28125 C 2.144531 -0.53125 1.679688 -0.90625 1.265625 -1.40625 L 2.140625 -2.34375 C 2.421875 -2.082031 2.671875 -1.875 2.890625 -1.71875 C 3.109375 -1.570312 3.359375 -1.453125 3.640625 -1.359375 C 3.921875 -1.265625 4.242188 -1.21875 4.609375 -1.21875 C 5.054688 -1.21875 5.457031 -1.304688 5.8125 -1.484375 C 6.164062 -1.660156 6.34375 -1.945312 6.34375 -2.34375 C 6.34375 -2.5625 6.28125 -2.734375 6.15625 -2.859375 C 6.03125 -2.984375 5.867188 -3.078125 5.671875 -3.140625 C 5.472656 -3.210938 5.179688 -3.296875 4.796875 -3.390625 C 4.585938 -3.441406 4.378906 -3.5 4.171875 -3.5625 C 3.597656 -3.707031 3.125 -3.867188 2.75 -4.046875 C 2.375 -4.222656 2.066406 -4.460938 1.828125 -4.765625 C 1.597656 -5.078125 1.484375 -5.476562 1.484375 -5.96875 C 1.484375 -6.476562 1.613281 -6.914062 1.875 -7.28125 C 2.144531 -7.65625 2.507812 -7.9375 2.96875 -8.125 C 3.425781 -8.3125 3.941406 -8.40625 4.515625 -8.40625 C 5.722656 -8.40625 6.671875 -8.054688 7.359375 -7.359375 L 6.46875 -6.375 C 5.914062 -6.820312 5.285156 -7.046875 4.578125 -7.046875 C 4.085938 -7.046875 3.6875 -6.953125 3.375 -6.765625 C 3.070312 -6.578125 2.921875 -6.328125 2.921875 -6.015625 C 2.921875 -5.753906 3.023438 -5.535156 3.234375 -5.359375 C 3.453125 -5.179688 3.707031 -5.039062 4 -4.9375 C 4.300781 -4.84375 4.6875 -4.738281 5.15625 -4.625 L 5.4375 -4.546875 C 5.820312 -4.441406 6.171875 -4.316406 6.484375 -4.171875 C 6.796875 -4.035156 7.078125 -3.816406 7.328125 -3.515625 C 7.578125 -3.210938 7.703125 -2.8125 7.703125 -2.3125 C 7.703125 -1.75 7.554688 -1.285156 7.265625 -0.921875 C 6.984375 -0.566406 6.601562 -0.3125 6.125 -0.15625 C 5.65625 0 5.125 0.078125 4.53125 0.078125 Z M 4.53125 0.078125 "/>
</g>
<g id="glyph-3-7-09af283b">
<path d="M 5.703125 0.109375 C 4.910156 0.109375 4.332031 -0.0546875 3.96875 -0.390625 C 3.601562 -0.734375 3.421875 -1.226562 3.421875 -1.875 L 3.421875 -7 L 1.125 -7 L 1.125 -8.25 L 3.421875 -8.25 L 3.421875 -10.984375 L 4.921875 -10.984375 L 4.921875 -8.25 L 7.21875 -8.25 L 7.21875 -7 L 4.921875 -7 L 4.921875 -2.46875 C 4.921875 -2.125 4.960938 -1.859375 5.046875 -1.671875 C 5.128906 -1.492188 5.257812 -1.367188 5.4375 -1.296875 C 5.625 -1.222656 5.890625 -1.1875 6.234375 -1.1875 C 6.398438 -1.1875 6.632812 -1.207031 6.9375 -1.25 C 7.238281 -1.300781 7.5 -1.351562 7.71875 -1.40625 L 7.71875 -0.125 C 7.488281 -0.0703125 7.164062 -0.0195312 6.75 0.03125 C 6.34375 0.0820312 5.992188 0.109375 5.703125 0.109375 Z M 5.703125 0.109375 "/>
</g>
<g id="glyph-3-8-09af283b">
<path d="M 4.90625 0.15625 C 4.414062 0.15625 4 0.0703125 3.65625 -0.09375 C 3.3125 -0.269531 2.992188 -0.566406 2.703125 -0.984375 L 2.65625 0 L 1.1875 0 C 1.226562 -0.675781 1.25 -1.28125 1.25 -1.8125 L 1.25 -11.84375 L 2.765625 -11.84375 L 2.765625 -6.90625 C 3.035156 -7.363281 3.363281 -7.710938 3.75 -7.953125 C 4.132812 -8.191406 4.554688 -8.3125 5.015625 -8.3125 C 5.679688 -8.3125 6.234375 -8.117188 6.671875 -7.734375 C 7.117188 -7.347656 7.441406 -6.828125 7.640625 -6.171875 C 7.847656 -5.515625 7.953125 -4.769531 7.953125 -3.9375 C 7.953125 -3.21875 7.835938 -2.546875 7.609375 -1.921875 C 7.390625 -1.304688 7.046875 -0.804688 6.578125 -0.421875 C 6.117188 -0.0351562 5.5625 0.15625 4.90625 0.15625 Z M 4.53125 -0.984375 C 4.988281 -0.984375 5.359375 -1.125 5.640625 -1.40625 C 5.921875 -1.6875 6.125 -2.046875 6.25 -2.484375 C 6.375 -2.921875 6.4375 -3.378906 6.4375 -3.859375 C 6.4375 -4.796875 6.296875 -5.554688 6.015625 -6.140625 C 5.742188 -6.734375 5.289062 -7.03125 4.65625 -7.03125 C 4.207031 -7.03125 3.832031 -6.882812 3.53125 -6.59375 C 3.238281 -6.3125 3.023438 -5.925781 2.890625 -5.4375 C 2.753906 -4.957031 2.6875 -4.421875 2.6875 -3.828125 C 2.6875 -3.367188 2.75 -2.921875 2.875 -2.484375 C 3 -2.054688 3.195312 -1.695312 3.46875 -1.40625 C 3.75 -1.125 4.101562 -0.984375 4.53125 -0.984375 Z M 4.53125 -0.984375 "/>
</g>
<g id="glyph-3-9-09af283b">
<path d="M 3.78125 0.109375 C 2.914062 0.109375 2.269531 -0.144531 1.84375 -0.65625 C 1.414062 -1.175781 1.203125 -1.921875 1.203125 -2.890625 L 1.203125 -8.25 L 2.71875 -8.25 L 2.71875 -3.265625 C 2.71875 -2.796875 2.753906 -2.40625 2.828125 -2.09375 C 2.898438 -1.789062 3.046875 -1.546875 3.265625 -1.359375 C 3.484375 -1.171875 3.8125 -1.078125 4.25 -1.078125 C 4.695312 -1.078125 5.066406 -1.191406 5.359375 -1.421875 C 5.660156 -1.660156 5.875 -1.972656 6 -2.359375 C 6.132812 -2.742188 6.203125 -3.160156 6.203125 -3.609375 L 6.203125 -8.25 L 7.734375 -8.25 L 7.734375 -1.78125 C 7.734375 -1.46875 7.742188 -1.078125 7.765625 -0.609375 L 7.796875 0 L 6.328125 0 L 6.265625 -1 C 5.984375 -0.59375 5.640625 -0.304688 5.234375 -0.140625 C 4.828125 0.0234375 4.34375 0.109375 3.78125 0.109375 Z M 3.78125 0.109375 "/>
</g>
<g id="glyph-3-10-09af283b">
<path d="M 1.234375 -6.203125 C 1.234375 -6.535156 1.222656 -6.832031 1.203125 -7.09375 C 1.179688 -7.363281 1.148438 -7.75 1.109375 -8.25 L 2.546875 -8.25 L 2.6875 -6.890625 C 2.96875 -7.378906 3.320312 -7.75 3.75 -8 C 4.1875 -8.257812 4.679688 -8.390625 5.234375 -8.390625 C 6.085938 -8.390625 6.738281 -8.09375 7.1875 -7.5 C 7.632812 -6.90625 7.859375 -6.078125 7.859375 -5.015625 L 7.859375 0 L 6.328125 0 L 6.328125 -4.421875 C 6.328125 -5.222656 6.207031 -5.867188 5.96875 -6.359375 C 5.738281 -6.859375 5.304688 -7.109375 4.671875 -7.109375 C 4.203125 -7.109375 3.820312 -6.953125 3.53125 -6.640625 C 3.25 -6.335938 3.046875 -5.941406 2.921875 -5.453125 C 2.796875 -4.972656 2.734375 -4.457031 2.734375 -3.90625 L 2.734375 0 L 1.234375 0 Z M 1.234375 -6.203125 "/>
</g>
<g id="glyph-3-11-09af283b">
<path d="M 3.28125 -6.609375 L 1.140625 -6.609375 L 1.140625 -7.875 L 3.296875 -7.875 L 3.296875 -9.28125 C 3.296875 -10.226562 3.539062 -10.894531 4.03125 -11.28125 C 4.519531 -11.664062 5.226562 -11.859375 6.15625 -11.859375 C 6.925781 -11.859375 7.492188 -11.84375 7.859375 -11.8125 L 7.859375 -10.5 C 7.285156 -10.539062 6.832031 -10.5625 6.5 -10.5625 C 6.125 -10.5625 5.816406 -10.523438 5.578125 -10.453125 C 5.335938 -10.390625 5.144531 -10.257812 5 -10.0625 C 4.863281 -9.875 4.796875 -9.601562 4.796875 -9.25 L 4.796875 -7.875 L 7.1875 -7.875 L 7.1875 -6.609375 L 4.796875 -6.609375 L 4.796875 0 L 3.28125 0 Z M 3.28125 -6.609375 "/>
</g>
<g id="glyph-3-12-09af283b">
<path d="M 4.765625 0.140625 C 4.078125 0.140625 3.445312 -0.0234375 2.875 -0.359375 C 2.3125 -0.703125 1.859375 -1.191406 1.515625 -1.828125 C 1.179688 -2.472656 1.015625 -3.222656 1.015625 -4.078125 C 1.015625 -4.910156 1.171875 -5.65625 1.484375 -6.3125 C 1.796875 -6.96875 2.226562 -7.476562 2.78125 -7.84375 C 3.332031 -8.207031 3.957031 -8.390625 4.65625 -8.390625 C 5.738281 -8.390625 6.5625 -7.984375 7.125 -7.171875 C 7.6875 -6.359375 7.96875 -5.203125 7.96875 -3.703125 L 2.546875 -3.703125 C 2.566406 -2.878906 2.769531 -2.257812 3.15625 -1.84375 C 3.550781 -1.425781 4.101562 -1.21875 4.8125 -1.21875 C 5.300781 -1.21875 5.757812 -1.289062 6.1875 -1.4375 C 6.625 -1.59375 6.945312 -1.757812 7.15625 -1.9375 L 7.8125 -0.828125 C 7.613281 -0.671875 7.351562 -0.515625 7.03125 -0.359375 C 6.707031 -0.210938 6.34375 -0.09375 5.9375 0 C 5.539062 0.09375 5.148438 0.140625 4.765625 0.140625 Z M 6.5625 -4.953125 C 6.5625 -5.367188 6.476562 -5.738281 6.3125 -6.0625 C 6.144531 -6.394531 5.914062 -6.648438 5.625 -6.828125 C 5.332031 -7.015625 5.003906 -7.109375 4.640625 -7.109375 C 4.273438 -7.109375 3.9375 -7.015625 3.625 -6.828125 C 3.3125 -6.648438 3.0625 -6.398438 2.875 -6.078125 C 2.695312 -5.753906 2.609375 -5.378906 2.609375 -4.953125 Z M 6.5625 -4.953125 "/>
</g>
<g id="glyph-3-13-09af283b">
<path d="M 3.59375 -4.140625 L 1.21875 -8.25 L 2.921875 -8.25 L 4.5 -5.359375 L 6.203125 -8.25 L 7.78125 -8.25 L 5.375 -4.21875 L 7.921875 0 L 6.1875 0 L 4.5 -3.109375 L 2.703125 0 L 1.078125 0 Z M 3.59375 -4.140625 "/>
</g>
<g id="glyph-3-14-09af283b">
<path d="M 1.109375 -6.4375 C 1.109375 -6.96875 1.085938 -7.507812 1.046875 -8.0625 L 1.046875 -8.25 L 2.484375 -8.25 L 2.5625 -6.96875 C 3.101562 -7.925781 3.875 -8.40625 4.875 -8.40625 C 5.570312 -8.40625 6.148438 -8.191406 6.609375 -7.765625 C 7.078125 -7.335938 7.414062 -6.796875 7.625 -6.140625 C 7.84375 -5.492188 7.953125 -4.820312 7.953125 -4.125 C 7.953125 -3.425781 7.835938 -2.753906 7.609375 -2.109375 C 7.390625 -1.472656 7.035156 -0.945312 6.546875 -0.53125 C 6.054688 -0.125 5.429688 0.078125 4.671875 0.078125 C 4.203125 0.078125 3.804688 -0.00390625 3.484375 -0.171875 C 3.160156 -0.347656 2.875 -0.617188 2.625 -0.984375 L 2.625 2.84375 L 1.109375 2.84375 Z M 4.5 -1.109375 C 4.925781 -1.109375 5.285156 -1.242188 5.578125 -1.515625 C 5.867188 -1.796875 6.085938 -2.160156 6.234375 -2.609375 C 6.378906 -3.066406 6.453125 -3.550781 6.453125 -4.0625 C 6.453125 -4.53125 6.390625 -5.007812 6.265625 -5.5 C 6.140625 -5.988281 5.9375 -6.394531 5.65625 -6.71875 C 5.375 -7.050781 5.015625 -7.21875 4.578125 -7.21875 C 4.148438 -7.21875 3.78125 -7.050781 3.46875 -6.71875 C 3.164062 -6.382812 2.9375 -5.96875 2.78125 -5.46875 C 2.632812 -4.976562 2.5625 -4.488281 2.5625 -4 C 2.5625 -3.550781 2.628906 -3.101562 2.765625 -2.65625 C 2.898438 -2.21875 3.113281 -1.847656 3.40625 -1.546875 C 3.695312 -1.253906 4.0625 -1.109375 4.5 -1.109375 Z M 4.5 -1.109375 "/>
</g>
<g id="glyph-3-15-09af283b">
<path d="M 4.90625 0.109375 C 4.132812 0.109375 3.453125 -0.0546875 2.859375 -0.390625 C 2.265625 -0.722656 1.800781 -1.207031 1.46875 -1.84375 C 1.132812 -2.488281 0.96875 -3.25 0.96875 -4.125 C 0.96875 -4.976562 1.132812 -5.722656 1.46875 -6.359375 C 1.8125 -6.992188 2.289062 -7.484375 2.90625 -7.828125 C 3.519531 -8.179688 4.222656 -8.359375 5.015625 -8.359375 C 5.648438 -8.359375 6.203125 -8.234375 6.671875 -7.984375 C 7.140625 -7.734375 7.515625 -7.421875 7.796875 -7.046875 L 6.828125 -6.109375 C 6.566406 -6.390625 6.300781 -6.609375 6.03125 -6.765625 C 5.757812 -6.921875 5.429688 -7 5.046875 -7 C 4.554688 -7 4.117188 -6.878906 3.734375 -6.640625 C 3.359375 -6.410156 3.0625 -6.078125 2.84375 -5.640625 C 2.632812 -5.210938 2.53125 -4.71875 2.53125 -4.15625 C 2.53125 -3.59375 2.632812 -3.085938 2.84375 -2.640625 C 3.0625 -2.203125 3.351562 -1.863281 3.71875 -1.625 C 4.09375 -1.382812 4.5 -1.265625 4.9375 -1.265625 C 5.320312 -1.265625 5.679688 -1.363281 6.015625 -1.5625 C 6.359375 -1.769531 6.664062 -2.023438 6.9375 -2.328125 L 7.890625 -1.375 C 7.515625 -0.945312 7.09375 -0.59375 6.625 -0.3125 C 6.164062 -0.03125 5.59375 0.109375 4.90625 0.109375 Z M 4.90625 0.109375 "/>
</g>
<g id="glyph-3-16-09af283b">
<path d="M 6.15625 0.1875 C 5.21875 0.1875 4.515625 -0.0390625 4.046875 -0.5 C 3.585938 -0.957031 3.359375 -1.648438 3.359375 -2.578125 L 3.359375 -10.609375 L 0.78125 -10.609375 L 0.78125 -11.84375 L 4.875 -11.84375 L 4.875 -2.96875 C 4.875 -2.375 5 -1.9375 5.25 -1.65625 C 5.5 -1.375 5.828125 -1.234375 6.234375 -1.234375 C 6.523438 -1.234375 6.773438 -1.300781 6.984375 -1.4375 C 7.203125 -1.570312 7.4375 -1.765625 7.6875 -2.015625 L 8.59375 -0.984375 C 8.28125 -0.648438 7.921875 -0.367188 7.515625 -0.140625 C 7.117188 0.0742188 6.664062 0.1875 6.15625 0.1875 Z M 6.15625 0.1875 "/>
</g>
<g id="glyph-3-17-09af283b">
<path d="M 3.5625 0.15625 C 3.019531 0.15625 2.550781 0.0585938 2.15625 -0.125 C 1.757812 -0.320312 1.457031 -0.597656 1.25 -0.953125 C 1.039062 -1.316406 0.9375 -1.742188 0.9375 -2.234375 C 0.9375 -3.285156 1.347656 -4.003906 2.171875 -4.390625 C 3.003906 -4.785156 4.03125 -4.984375 5.25 -4.984375 L 6.140625 -4.984375 L 6.140625 -5.359375 C 6.140625 -5.804688 6.023438 -6.210938 5.796875 -6.578125 C 5.566406 -6.941406 5.109375 -7.125 4.421875 -7.125 C 4.117188 -7.125 3.832031 -7.082031 3.5625 -7 C 3.300781 -6.914062 3.070312 -6.816406 2.875 -6.703125 C 2.6875 -6.597656 2.441406 -6.441406 2.140625 -6.234375 L 1.40625 -7.25 C 1.863281 -7.59375 2.332031 -7.863281 2.8125 -8.0625 C 3.300781 -8.257812 3.890625 -8.359375 4.578125 -8.359375 C 5.773438 -8.359375 6.582031 -8.0625 7 -7.46875 C 7.414062 -6.875 7.625 -6.175781 7.625 -5.375 L 7.625 -2.34375 C 7.625 -1.675781 7.671875 -0.894531 7.765625 0 L 6.28125 0 C 6.257812 -0.21875 6.238281 -0.5 6.21875 -0.84375 L 6.203125 -1.09375 C 5.941406 -0.65625 5.578125 -0.335938 5.109375 -0.140625 C 4.648438 0.0546875 4.132812 0.15625 3.5625 0.15625 Z M 3.953125 -1 C 4.703125 -1 5.253906 -1.25 5.609375 -1.75 C 5.960938 -2.257812 6.140625 -2.953125 6.140625 -3.828125 L 5.5625 -3.84375 C 4.820312 -3.84375 4.222656 -3.789062 3.765625 -3.6875 C 3.304688 -3.582031 2.96875 -3.414062 2.75 -3.1875 C 2.539062 -2.96875 2.4375 -2.671875 2.4375 -2.296875 C 2.4375 -1.847656 2.570312 -1.519531 2.84375 -1.3125 C 3.113281 -1.101562 3.484375 -1 3.953125 -1 Z M 3.953125 -1 "/>
</g>
<g id="glyph-3-18-09af283b">
<path d="M 0.71875 -6.40625 C 0.71875 -6.882812 0.679688 -7.5 0.609375 -8.25 L 2.015625 -8.25 L 2.09375 -7.328125 C 2.238281 -7.679688 2.425781 -7.945312 2.65625 -8.125 C 2.894531 -8.300781 3.1875 -8.390625 3.53125 -8.390625 C 4.238281 -8.390625 4.660156 -7.929688 4.796875 -7.015625 C 4.921875 -7.515625 5.132812 -7.863281 5.4375 -8.0625 C 5.75 -8.269531 6.117188 -8.375 6.546875 -8.375 C 6.890625 -8.375 7.195312 -8.273438 7.46875 -8.078125 C 7.75 -7.890625 7.972656 -7.601562 8.140625 -7.21875 C 8.304688 -6.84375 8.390625 -6.382812 8.390625 -5.84375 L 8.390625 0 L 6.84375 0 L 6.84375 -5.609375 C 6.84375 -6.128906 6.789062 -6.507812 6.6875 -6.75 C 6.582031 -6.988281 6.40625 -7.109375 6.15625 -7.109375 C 5.601562 -7.109375 5.328125 -6.644531 5.328125 -5.71875 L 5.328125 0 L 3.78125 0 L 3.78125 -5.609375 C 3.78125 -6.609375 3.515625 -7.109375 2.984375 -7.109375 C 2.742188 -7.109375 2.5625 -7.003906 2.4375 -6.796875 C 2.320312 -6.585938 2.265625 -6.226562 2.265625 -5.71875 L 2.265625 0 L 0.71875 0 Z M 0.71875 -6.40625 "/>
</g>
<g id="glyph-3-19-09af283b">
<path d="M 4.03125 3.15625 C 3.113281 3.15625 2.351562 2.957031 1.75 2.5625 C 1.4375 2.363281 1.191406 2.132812 1.015625 1.875 C 0.847656 1.613281 0.765625 1.316406 0.765625 0.984375 C 0.765625 0.617188 0.851562 0.28125 1.03125 -0.03125 C 1.21875 -0.351562 1.445312 -0.640625 1.71875 -0.890625 C 1.507812 -1.054688 1.351562 -1.238281 1.25 -1.4375 C 1.144531 -1.644531 1.09375 -1.878906 1.09375 -2.140625 C 1.09375 -2.441406 1.160156 -2.71875 1.296875 -2.96875 C 1.429688 -3.21875 1.632812 -3.472656 1.90625 -3.734375 L 1.90625 -3.75 C 1.8125 -3.800781 1.703125 -3.898438 1.578125 -4.046875 C 1.460938 -4.203125 1.359375 -4.410156 1.265625 -4.671875 C 1.171875 -4.941406 1.125 -5.265625 1.125 -5.640625 C 1.125 -6.203125 1.265625 -6.691406 1.546875 -7.109375 C 1.828125 -7.523438 2.203125 -7.84375 2.671875 -8.0625 C 3.148438 -8.28125 3.679688 -8.390625 4.265625 -8.390625 C 4.628906 -8.390625 4.921875 -8.347656 5.140625 -8.265625 L 8.234375 -8.265625 L 8.234375 -6.984375 L 6.703125 -6.984375 C 6.835938 -6.816406 6.9375 -6.613281 7 -6.375 C 7.0625 -6.144531 7.09375 -5.90625 7.09375 -5.65625 C 7.09375 -5.144531 6.96875 -4.664062 6.71875 -4.21875 C 6.46875 -3.78125 6.125 -3.429688 5.6875 -3.171875 C 5.257812 -2.910156 4.78125 -2.78125 4.25 -2.78125 C 3.738281 -2.78125 3.269531 -2.875 2.84375 -3.0625 C 2.664062 -2.96875 2.539062 -2.863281 2.46875 -2.75 C 2.40625 -2.632812 2.375 -2.484375 2.375 -2.296875 C 2.375 -2.066406 2.492188 -1.898438 2.734375 -1.796875 C 2.972656 -1.691406 3.28125 -1.640625 3.65625 -1.640625 C 3.945312 -1.640625 4.234375 -1.644531 4.515625 -1.65625 L 5.140625 -1.65625 C 5.898438 -1.65625 6.5 -1.507812 6.9375 -1.21875 C 7.195312 -1.03125 7.398438 -0.796875 7.546875 -0.515625 C 7.703125 -0.234375 7.78125 0.078125 7.78125 0.421875 C 7.78125 0.796875 7.6875 1.15625 7.5 1.5 C 7.3125 1.84375 7.046875 2.144531 6.703125 2.40625 C 6.378906 2.632812 5.972656 2.816406 5.484375 2.953125 C 5.003906 3.085938 4.519531 3.15625 4.03125 3.15625 Z M 4.09375 1.875 C 4.84375 1.875 5.410156 1.738281 5.796875 1.46875 C 6.128906 1.238281 6.296875 0.9375 6.296875 0.5625 C 6.296875 0.238281 6.171875 0.0078125 5.921875 -0.125 C 5.671875 -0.257812 5.375 -0.328125 5.03125 -0.328125 L 4.484375 -0.3125 C 4.160156 -0.289062 3.921875 -0.28125 3.765625 -0.28125 C 3.660156 -0.28125 3.523438 -0.289062 3.359375 -0.3125 C 3.191406 -0.34375 3.035156 -0.378906 2.890625 -0.421875 C 2.703125 -0.273438 2.550781 -0.101562 2.4375 0.09375 C 2.332031 0.300781 2.28125 0.515625 2.28125 0.734375 C 2.28125 1.160156 2.457031 1.457031 2.8125 1.625 C 3.164062 1.789062 3.59375 1.875 4.09375 1.875 Z M 4.109375 -4 C 4.585938 -4 4.957031 -4.140625 5.21875 -4.421875 C 5.488281 -4.703125 5.625 -5.097656 5.625 -5.609375 C 5.625 -6.117188 5.488281 -6.523438 5.21875 -6.828125 C 4.957031 -7.128906 4.59375 -7.28125 4.125 -7.28125 C 3.820312 -7.28125 3.550781 -7.210938 3.3125 -7.078125 C 3.082031 -6.941406 2.898438 -6.75 2.765625 -6.5 C 2.640625 -6.25 2.578125 -5.953125 2.578125 -5.609375 C 2.578125 -5.097656 2.710938 -4.703125 2.984375 -4.421875 C 3.265625 -4.140625 3.640625 -4 4.109375 -4 Z M 4.109375 -4 "/>
</g>
</g>
</defs>
<rect x="-60" y="-45" width="720" height="540" fill="rgb(94.117647%, 92.941177%, 89.019608%)" fill-opacity="1"/>
<path fill-rule="nonzero" fill="rgb(94.117647%, 92.941177%, 89.019608%)" fill-opacity="1" d="M 40 201 L 584 201 L 584 42 L 40 42 Z M 40 201 "/>
<path fill-rule="nonzero" fill="rgb(94.117647%, 92.941177%, 89.019608%)" fill-opacity="1" d="M 40 419 L 584 419 L 584 260 L 40 260 Z M 40 419 "/>
<path fill="none" stroke-width="1" stroke-linecap="butt" stroke-linejoin="miter" stroke="rgb(71.372551%, 67.843139%, 56.470591%)" stroke-opacity="0.3" stroke-miterlimit="1.154701" d="M 64.726562 201 L 64.726562 42 "/>
<path fill="none" stroke-width="1" stroke-linecap="butt" stroke-linejoin="miter" stroke="rgb(71.372551%, 67.843139%, 56.470591%)" stroke-opacity="0.3" stroke-miterlimit="1.154701" d="M 312.003906 201 L 312.003906 42 "/>
<path fill="none" stroke-width="1" stroke-linecap="butt" stroke-linejoin="miter" stroke="rgb(71.372551%, 67.843139%, 56.470591%)" stroke-opacity="0.3" stroke-miterlimit="1.154701" d="M 559.285156 201 L 559.285156 42 "/>
<path fill="none" stroke-width="1" stroke-linecap="butt" stroke-linejoin="miter" stroke="rgb(71.372551%, 67.843139%, 56.470591%)" stroke-opacity="0.12" stroke-miterlimit="1.154701" d="M 188.367188 201 L 188.367188 42 "/>
<path fill="none" stroke-width="1" stroke-linecap="butt" stroke-linejoin="miter" stroke="rgb(71.372551%, 67.843139%, 56.470591%)" stroke-opacity="0.12" stroke-miterlimit="1.154701" d="M 435.644531 201 L 435.644531 42 "/>
<path fill="none" stroke-width="1" stroke-linecap="butt" stroke-linejoin="miter" stroke="rgb(71.372551%, 67.843139%, 56.470591%)" stroke-opacity="0.3" stroke-miterlimit="1.154701" d="M 40 193.773438 L 584 193.773438 "/>
<path fill="none" stroke-width="1" stroke-linecap="butt" stroke-linejoin="miter" stroke="rgb(71.372551%, 67.843139%, 56.470591%)" stroke-opacity="0.3" stroke-miterlimit="1.154701" d="M 40 135.253906 L 584 135.253906 "/>
<path fill="none" stroke-width="1" stroke-linecap="butt" stroke-linejoin="miter" stroke="rgb(71.372551%, 67.843139%, 56.470591%)" stroke-opacity="0.3" stroke-miterlimit="1.154701" d="M 40 76.730469 L 584 76.730469 "/>
<path fill="none" stroke-width="1" stroke-linecap="butt" stroke-linejoin="miter" stroke="rgb(71.372551%, 67.843139%, 56.470591%)" stroke-opacity="0.12" stroke-miterlimit="1.154701" d="M 40 164.511719 L 584 164.511719 "/>
<path fill="none" stroke-width="1" stroke-linecap="butt" stroke-linejoin="miter" stroke="rgb(71.372551%, 67.843139%, 56.470591%)" stroke-opacity="0.12" stroke-miterlimit="1.154701" d="M 40 105.992188 L 584 105.992188 "/>
<path fill="none" stroke-width="1" stroke-linecap="butt" stroke-linejoin="miter" stroke="rgb(71.372551%, 67.843139%, 56.470591%)" stroke-opacity="0.12" stroke-miterlimit="1.154701" d="M 40 47.472656 L 584 47.472656 "/>
<path fill="none" stroke-width="1" stroke-linecap="butt" stroke-linejoin="miter" stroke="rgb(71.372551%, 67.843139%, 56.470591%)" stroke-opacity="0.3" stroke-miterlimit="1.154701" d="M 64.726562 419 L 64.726562 260 "/>
<path fill="none" stroke-width="1" stroke-linecap="butt" stroke-linejoin="miter" stroke="rgb(71.372551%, 67.843139%, 56.470591%)" stroke-opacity="0.3" stroke-miterlimit="1.154701" d="M 312.003906 419 L 312.003906 260 "/>
<path fill="none" stroke-width="1" stroke-linecap="butt" stroke-linejoin="miter" stroke="rgb(71.372551%, 67.843139%, 56.470591%)" stroke-opacity="0.3" stroke-miterlimit="1.154701" d="M 559.285156 419 L 559.285156 260 "/>
<path fill="none" stroke-width="1" stroke-linecap="butt" stroke-linejoin="miter" stroke="rgb(71.372551%, 67.843139%, 56.470591%)" stroke-opacity="0.12" stroke-miterlimit="1.154701" d="M 188.367188 419 L 188.367188 260 "/>
<path fill="none" stroke-width="1" stroke-linecap="butt" stroke-linejoin="miter" stroke="rgb(71.372551%, 67.843139%, 56.470591%)" stroke-opacity="0.12" stroke-miterlimit="1.154701" d="M 435.644531 419 L 435.644531 260 "/>
<path fill="none" stroke-width="1" stroke-linecap="butt" stroke-linejoin="miter" stroke="rgb(71.372551%, 67.843139%, 56.470591%)" stroke-opacity="0.3" stroke-miterlimit="1.154701" d="M 40 411.773438 L 584 411.773438 "/>
<path fill="none" stroke-width="1" stroke-linecap="butt" stroke-linejoin="miter" stroke="rgb(71.372551%, 67.843139%, 56.470591%)" stroke-opacity="0.3" stroke-miterlimit="1.154701" d="M 40 361.929688 L 584 361.929688 "/>
<path fill="none" stroke-width="1" stroke-linecap="butt" stroke-linejoin="miter" stroke="rgb(71.372551%, 67.843139%, 56.470591%)" stroke-opacity="0.3" stroke-miterlimit="1.154701" d="M 40 312.085938 L 584 312.085938 "/>
<path fill="none" stroke-width="1" stroke-linecap="butt" stroke-linejoin="miter" stroke="rgb(71.372551%, 67.843139%, 56.470591%)" stroke-opacity="0.3" stroke-miterlimit="1.154701" d="M 40 262.242188 L 584 262.242188 "/>
<path fill="none" stroke-width="1" stroke-linecap="butt" stroke-linejoin="miter" stroke="rgb(71.372551%, 67.843139%, 56.470591%)" stroke-opacity="0.12" stroke-miterlimit="1.154701" d="M 40 386.851562 L 584 386.851562 "/>
<path fill="none" stroke-width="1" stroke-linecap="butt" stroke-linejoin="miter" stroke="rgb(71.372551%, 67.843139%, 56.470591%)" stroke-opacity="0.12" stroke-miterlimit="1.154701" d="M 40 337.007812 L 584 337.007812 "/>
<path fill="none" stroke-width="1" stroke-linecap="butt" stroke-linejoin="miter" stroke="rgb(71.372551%, 67.843139%, 56.470591%)" stroke-opacity="0.12" stroke-miterlimit="1.154701" d="M 40 287.164062 L 584 287.164062 "/>
<g fill="rgb(10.588235%, 16.470589%, 22.745098%)" fill-opacity="1">
<use xlink:href="#glyph-0-0-09af283b" x="54.82709" y="214.55"/>
</g>
<g fill="rgb(10.588235%, 16.470589%, 22.745098%)" fill-opacity="1">
<use xlink:href="#glyph-1-0-09af283b" x="61.42709" y="214.55"/>
<use xlink:href="#glyph-1-1-09af283b" x="68.027091" y="214.55"/>
</g>
<g fill="rgb(10.588235%, 16.470589%, 22.745098%)" fill-opacity="1">
<use xlink:href="#glyph-1-1-09af283b" x="302.1055" y="214.55"/>
<use xlink:href="#glyph-1-0-09af283b" x="308.7055" y="214.55"/>
<use xlink:href="#glyph-1-2-09af283b" x="315.305501" y="214.55"/>
</g>
<g fill="rgb(10.588235%, 16.470589%, 22.745098%)" fill-opacity="1">
<use xlink:href="#glyph-1-3-09af283b" x="549.383887" y="214.55"/>
<use xlink:href="#glyph-1-0-09af283b" x="555.983888" y="214.55"/>
<use xlink:href="#glyph-1-1-09af283b" x="562.583888" y="214.55"/>
</g>
<g fill="rgb(10.588235%, 16.470589%, 22.745098%)" fill-opacity="1">
<use xlink:href="#glyph-2-0-09af283b" x="28.300002" y="197.760229"/>
</g>
<g fill="rgb(10.588235%, 16.470589%, 22.745098%)" fill-opacity="1">
<use xlink:href="#glyph-1-4-09af283b" x="15.100001" y="139.239781"/>
<use xlink:href="#glyph-1-1-09af283b" x="21.700001" y="139.239781"/>
</g>
<g fill="rgb(10.588235%, 16.470589%, 22.745098%)" fill-opacity="1">
<use xlink:href="#glyph-2-0-09af283b" x="28.300002" y="139.239781"/>
</g>
<g fill="rgb(10.588235%, 16.470589%, 22.745098%)" fill-opacity="1">
<use xlink:href="#glyph-1-5-09af283b" x="15.100001" y="80.719364"/>
<use xlink:href="#glyph-1-1-09af283b" x="21.700001" y="80.719364"/>
</g>
<g fill="rgb(10.588235%, 16.470589%, 22.745098%)" fill-opacity="1">
<use xlink:href="#glyph-2-0-09af283b" x="28.300002" y="80.719364"/>
</g>
<g fill="rgb(10.588235%, 16.470589%, 22.745098%)" fill-opacity="1">
<use xlink:href="#glyph-3-0-09af283b" x="40.000001" y="30.62499"/>
<use xlink:href="#glyph-3-1-09af283b" x="49.000001" y="30.62499"/>
<use xlink:href="#glyph-3-2-09af283b" x="58.000001" y="30.62499"/>
<use xlink:href="#glyph-3-3-09af283b" x="67.000002" y="30.62499"/>
<use xlink:href="#glyph-3-1-09af283b" x="76.000002" y="30.62499"/>
<use xlink:href="#glyph-3-4-09af283b" x="85.000002" y="30.62499"/>
<use xlink:href="#glyph-3-5-09af283b" x="94.000002" y="30.62499"/>
<use xlink:href="#glyph-3-2-09af283b" x="103.000002" y="30.62499"/>
<use xlink:href="#glyph-3-6-09af283b" x="112.000003" y="30.62499"/>
<use xlink:href="#glyph-3-7-09af283b" x="121.000003" y="30.62499"/>
<use xlink:href="#glyph-3-1-09af283b" x="130.000003" y="30.62499"/>
<use xlink:href="#glyph-3-2-09af283b" x="139.000003" y="30.62499"/>
<use xlink:href="#glyph-3-8-09af283b" x="148.000004" y="30.62499"/>
<use xlink:href="#glyph-3-9-09af283b" x="157.000004" y="30.62499"/>
<use xlink:href="#glyph-3-7-09af283b" x="166.000004" y="30.62499"/>
<use xlink:href="#glyph-3-2-09af283b" x="175.000004" y="30.62499"/>
<use xlink:href="#glyph-3-3-09af283b" x="184.000004" y="30.62499"/>
<use xlink:href="#glyph-3-10-09af283b" x="193.000005" y="30.62499"/>
<use xlink:href="#glyph-3-4-09af283b" x="202.000005" y="30.62499"/>
<use xlink:href="#glyph-3-3-09af283b" x="211.000005" y="30.62499"/>
<use xlink:href="#glyph-3-11-09af283b" x="220.000005" y="30.62499"/>
<use xlink:href="#glyph-3-4-09af283b" x="229.000006" y="30.62499"/>
<use xlink:href="#glyph-3-12-09af283b" x="238.000006" y="30.62499"/>
<use xlink:href="#glyph-3-13-09af283b" x="247.000006" y="30.62499"/>
<use xlink:href="#glyph-3-14-09af283b" x="256.000006" y="30.62499"/>
<use xlink:href="#glyph-3-12-09af283b" x="265.000006" y="30.62499"/>
<use xlink:href="#glyph-3-15-09af283b" x="274.000007" y="30.62499"/>
<use xlink:href="#glyph-3-7-09af283b" x="283.000007" y="30.62499"/>
<use xlink:href="#glyph-3-12-09af283b" x="292.000007" y="30.62499"/>
<use xlink:href="#glyph-3-5-09af283b" x="301.000007" y="30.62499"/>
<use xlink:href="#glyph-3-4-09af283b" x="310.000008" y="30.62499"/>
<use xlink:href="#glyph-3-15-09af283b" x="319.000008" y="30.62499"/>
<use xlink:href="#glyph-3-16-09af283b" x="328.000008" y="30.62499"/>
<use xlink:href="#glyph-3-17-09af283b" x="337.000008" y="30.62499"/>
<use xlink:href="#glyph-3-2-09af283b" x="346.000008" y="30.62499"/>
<use xlink:href="#glyph-3-18-09af283b" x="355.000009" y="30.62499"/>
<use xlink:href="#glyph-3-6-09af283b" x="364.000009" y="30.62499"/>
<use xlink:href="#glyph-3-4-09af283b" x="373.000009" y="30.62499"/>
<use xlink:href="#glyph-3-1-09af283b" x="382.000009" y="30.62499"/>
<use xlink:href="#glyph-3-17-09af283b" x="391.000009" y="30.62499"/>
<use xlink:href="#glyph-3-7-09af283b" x="400.00001" y="30.62499"/>
<use xlink:href="#glyph-3-12-09af283b" x="409.00001" y="30.62499"/>
<use xlink:href="#glyph-3-4-09af283b" x="418.00001" y="30.62499"/>
<use xlink:href="#glyph-3-11-09af283b" x="427.00001" y="30.62499"/>
<use xlink:href="#glyph-3-3-09af283b" x="436.000011" y="30.62499"/>
<use xlink:href="#glyph-3-1-09af283b" x="445.000011" y="30.62499"/>
<use xlink:href="#glyph-3-4-09af283b" x="454.000011" y="30.62499"/>
<use xlink:href="#glyph-3-17-09af283b" x="463.000011" y="30.62499"/>
<use xlink:href="#glyph-3-4-09af283b" x="472.000011" y="30.62499"/>
<use xlink:href="#glyph-3-19-09af283b" x="481.000012" y="30.62499"/>
<use xlink:href="#glyph-3-1-09af283b" x="490.000012" y="30.62499"/>
<use xlink:href="#glyph-3-3-09af283b" x="499.000012" y="30.62499"/>
<use xlink:href="#glyph-3-9-09af283b" x="508.000012" y="30.62499"/>
<use xlink:href="#glyph-3-14-09af283b" x="517.000013" y="30.62499"/>
</g>
<path fill-rule="nonzero" fill="rgb(78.431374%, 20.784314%, 10.980392%)" fill-opacity="1" stroke-width="0.8" stroke-linecap="butt" stroke-linejoin="miter" stroke="rgb(10.588235%, 16.470589%, 22.745098%)" stroke-opacity="1" stroke-miterlimit="2" d="M 64.726562 193.773438 L 74.617188 193.773438 L 74.617188 49.226562 L 64.726562 49.226562 Z M 64.726562 193.773438 "/>
<path fill-rule="nonzero" fill="rgb(78.431374%, 20.784314%, 10.980392%)" fill-opacity="1" stroke-width="0.8" stroke-linecap="butt" stroke-linejoin="miter" stroke="rgb(10.588235%, 16.470589%, 22.745098%)" stroke-opacity="1" stroke-miterlimit="2" d="M 74.617188 193.773438 L 84.507812 193.773438 L 84.507812 166.855469 L 74.617188 166.855469 Z M 74.617188 193.773438 "/>
<path fill-rule="nonzero" fill="rgb(78.431374%, 20.784314%, 10.980392%)" fill-opacity="1" stroke-width="0.8" stroke-linecap="butt" stroke-linejoin="miter" stroke="rgb(10.588235%, 16.470589%, 22.745098%)" stroke-opacity="1" stroke-miterlimit="2" d="M 84.507812 193.773438 L 94.398438 193.773438 L 94.398438 175.632812 L 84.507812 175.632812 Z M 84.507812 193.773438 "/>
<path fill-rule="nonzero" fill="rgb(78.431374%, 20.784314%, 10.980392%)" fill-opacity="1" stroke-width="0.8" stroke-linecap="butt" stroke-linejoin="miter" stroke="rgb(10.588235%, 16.470589%, 22.745098%)" stroke-opacity="1" stroke-miterlimit="2" d="M 94.398438 193.773438 L 104.289062 193.773438 L 104.289062 177.679688 L 94.398438 177.679688 Z M 94.398438 193.773438 "/>
<path fill-rule="nonzero" fill="rgb(78.431374%, 20.784314%, 10.980392%)" fill-opacity="1" stroke-width="0.8" stroke-linecap="butt" stroke-linejoin="miter" stroke="rgb(10.588235%, 16.470589%, 22.745098%)" stroke-opacity="1" stroke-miterlimit="2" d="M 104.289062 193.773438 L 114.179688 193.773438 L 114.179688 184.996094 L 104.289062 184.996094 Z M 104.289062 193.773438 "/>
<path fill-rule="nonzero" fill="rgb(78.431374%, 20.784314%, 10.980392%)" fill-opacity="1" stroke-width="0.8" stroke-linecap="butt" stroke-linejoin="miter" stroke="rgb(10.588235%, 16.470589%, 22.745098%)" stroke-opacity="1" stroke-miterlimit="2" d="M 114.183594 193.773438 L 124.074219 193.773438 L 124.074219 182.945312 L 114.183594 182.945312 Z M 114.183594 193.773438 "/>
<path fill-rule="nonzero" fill="rgb(78.431374%, 20.784314%, 10.980392%)" fill-opacity="1" stroke-width="0.8" stroke-linecap="butt" stroke-linejoin="miter" stroke="rgb(10.588235%, 16.470589%, 22.745098%)" stroke-opacity="1" stroke-miterlimit="2" d="M 124.074219 193.773438 L 133.964844 193.773438 L 133.964844 187.335938 L 124.074219 187.335938 Z M 124.074219 193.773438 "/>
<path fill-rule="nonzero" fill="rgb(78.431374%, 20.784314%, 10.980392%)" fill-opacity="1" stroke-width="0.8" stroke-linecap="butt" stroke-linejoin="miter" stroke="rgb(10.588235%, 16.470589%, 22.745098%)" stroke-opacity="1" stroke-miterlimit="2" d="M 133.964844 193.773438 L 143.855469 193.773438 L 143.855469 186.75 L 133.964844 186.75 Z M 133.964844 193.773438 "/>
<path fill-rule="nonzero" fill="rgb(78.431374%, 20.784314%, 10.980392%)" fill-opacity="1" stroke-width="0.8" stroke-linecap="butt" stroke-linejoin="miter" stroke="rgb(10.588235%, 16.470589%, 22.745098%)" stroke-opacity="1" stroke-miterlimit="2" d="M 143.855469 193.773438 L 153.746094 193.773438 L 153.746094 185.582031 L 143.855469 185.582031 Z M 143.855469 193.773438 "/>
<path fill-rule="nonzero" fill="rgb(78.431374%, 20.784314%, 10.980392%)" fill-opacity="1" stroke-width="0.8" stroke-linecap="butt" stroke-linejoin="miter" stroke="rgb(10.588235%, 16.470589%, 22.745098%)" stroke-opacity="1" stroke-miterlimit="2" d="M 153.746094 193.773438 L 163.636719 193.773438 L 163.636719 188.507812 L 153.746094 188.507812 Z M 153.746094 193.773438 "/>
<path fill-rule="nonzero" fill="rgb(78.431374%, 20.784314%, 10.980392%)" fill-opacity="1" stroke-width="0.8" stroke-linecap="butt" stroke-linejoin="miter" stroke="rgb(10.588235%, 16.470589%, 22.745098%)" stroke-opacity="1" stroke-miterlimit="2" d="M 163.636719 193.773438 L 173.527344 193.773438 L 173.527344 187.628906 L 163.636719 187.628906 Z M 163.636719 193.773438 "/>
<path fill-rule="nonzero" fill="rgb(78.431374%, 20.784314%, 10.980392%)" fill-opacity="1" stroke-width="0.8" stroke-linecap="butt" stroke-linejoin="miter" stroke="rgb(10.588235%, 16.470589%, 22.745098%)" stroke-opacity="1" stroke-miterlimit="2" d="M 173.527344 193.773438 L 183.417969 193.773438 L 183.417969 188.507812 L 173.527344 188.507812 Z M 173.527344 193.773438 "/>
<path fill-rule="nonzero" fill="rgb(78.431374%, 20.784314%, 10.980392%)" fill-opacity="1" stroke-width="0.8" stroke-linecap="butt" stroke-linejoin="miter" stroke="rgb(10.588235%, 16.470589%, 22.745098%)" stroke-opacity="1" stroke-miterlimit="2" d="M 183.417969 193.773438 L 193.308594 193.773438 L 193.308594 189.675781 L 183.417969 189.675781 Z M 183.417969 193.773438 "/>
<path fill-rule="nonzero" fill="rgb(78.431374%, 20.784314%, 10.980392%)" fill-opacity="1" stroke-width="0.8" stroke-linecap="butt" stroke-linejoin="miter" stroke="rgb(10.588235%, 16.470589%, 22.745098%)" stroke-opacity="1" stroke-miterlimit="2" d="M 193.308594 193.773438 L 203.199219 193.773438 L 203.199219 189.675781 L 193.308594 189.675781 Z M 193.308594 193.773438 "/>
<path fill-rule="nonzero" fill="rgb(78.431374%, 20.784314%, 10.980392%)" fill-opacity="1" stroke-width="0.8" stroke-linecap="butt" stroke-linejoin="miter" stroke="rgb(10.588235%, 16.470589%, 22.745098%)" stroke-opacity="1" stroke-miterlimit="2" d="M 203.199219 193.773438 L 213.089844 193.773438 L 213.089844 189.09375 L 203.199219 189.09375 Z M 203.199219 193.773438 "/>
<path fill-rule="nonzero" fill="rgb(78.431374%, 20.784314%, 10.980392%)" fill-opacity="1" stroke-width="0.8" stroke-linecap="butt" stroke-linejoin="miter" stroke="rgb(10.588235%, 16.470589%, 22.745098%)" stroke-opacity="1" stroke-miterlimit="2" d="M 213.089844 193.773438 L 222.980469 193.773438 L 222.980469 189.96875 L 213.089844 189.96875 Z M 213.089844 193.773438 "/>
<path fill-rule="nonzero" fill="rgb(78.431374%, 20.784314%, 10.980392%)" fill-opacity="1" stroke-width="0.8" stroke-linecap="butt" stroke-linejoin="miter" stroke="rgb(10.588235%, 16.470589%, 22.745098%)" stroke-opacity="1" stroke-miterlimit="2" d="M 222.980469 193.773438 L 232.871094 193.773438 L 232.871094 190.847656 L 222.980469 190.847656 Z M 222.980469 193.773438 "/>
<path fill-rule="nonzero" fill="rgb(78.431374%, 20.784314%, 10.980392%)" fill-opacity="1" stroke-width="0.8" stroke-linecap="butt" stroke-linejoin="miter" stroke="rgb(10.588235%, 16.470589%, 22.745098%)" stroke-opacity="1" stroke-miterlimit="2" d="M 232.871094 193.773438 L 242.761719 193.773438 L 242.761719 190.554688 L 232.871094 190.554688 Z M 232.871094 193.773438 "/>
<path fill-rule="nonzero" fill="rgb(78.431374%, 20.784314%, 10.980392%)" fill-opacity="1" stroke-width="0.8" stroke-linecap="butt" stroke-linejoin="miter" stroke="rgb(10.588235%, 16.470589%, 22.745098%)" stroke-opacity="1" stroke-miterlimit="2" d="M 242.761719 193.773438 L 252.652344 193.773438 L 252.652344 191.433594 L 242.761719 191.433594 Z M 242.761719 193.773438 "/>
<path fill-rule="nonzero" fill="rgb(78.431374%, 20.784314%, 10.980392%)" fill-opacity="1" stroke-width="0.8" stroke-linecap="butt" stroke-linejoin="miter" stroke="rgb(10.588235%, 16.470589%, 22.745098%)" stroke-opacity="1" stroke-miterlimit="2" d="M 252.65625 193.773438 L 262.546875 193.773438 L 262.546875 192.308594 L 252.65625 192.308594 Z M 252.65625 193.773438 "/>
<path fill-rule="nonzero" fill="rgb(78.431374%, 20.784314%, 10.980392%)" fill-opacity="1" stroke-width="0.8" stroke-linecap="butt" stroke-linejoin="miter" stroke="rgb(10.588235%, 16.470589%, 22.745098%)" stroke-opacity="1" stroke-miterlimit="2" d="M 262.546875 193.773438 L 272.4375 193.773438 L 272.4375 189.675781 L 262.546875 189.675781 Z M 262.546875 193.773438 "/>
<path fill-rule="nonzero" fill="rgb(78.431374%, 20.784314%, 10.980392%)" fill-opacity="1" stroke-width="0.8" stroke-linecap="butt" stroke-linejoin="miter" stroke="rgb(10.588235%, 16.470589%, 22.745098%)" stroke-opacity="1" stroke-miterlimit="2" d="M 272.4375 193.773438 L 282.328125 193.773438 L 282.328125 187.628906 L 272.4375 187.628906 Z M 272.4375 193.773438 "/>
<path fill-rule="nonzero" fill="rgb(78.431374%, 20.784314%, 10.980392%)" fill-opacity="1" stroke-width="0.8" stroke-linecap="butt" stroke-linejoin="miter" stroke="rgb(10.588235%, 16.470589%, 22.745098%)" stroke-opacity="1" stroke-miterlimit="2" d="M 282.328125 193.773438 L 292.21875 193.773438 L 292.21875 191.140625 L 282.328125 191.140625 Z M 282.328125 193.773438 "/>
<path fill-rule="nonzero" fill="rgb(78.431374%, 20.784314%, 10.980392%)" fill-opacity="1" stroke-width="0.8" stroke-linecap="butt" stroke-linejoin="miter" stroke="rgb(10.588235%, 16.470589%, 22.745098%)" stroke-opacity="1" stroke-miterlimit="2" d="M 292.21875 193.773438 L 302.109375 193.773438 L 302.109375 189.675781 L 292.21875 189.675781 Z M 292.21875 193.773438 "/>
<path fill-rule="nonzero" fill="rgb(78.431374%, 20.784314%, 10.980392%)" fill-opacity="1" stroke-width="0.8" stroke-linecap="butt" stroke-linejoin="miter" stroke="rgb(10.588235%, 16.470589%, 22.745098%)" stroke-opacity="1" stroke-miterlimit="2" d="M 302.109375 193.773438 L 312 193.773438 L 312 191.433594 L 302.109375 191.433594 Z M 302.109375 193.773438 "/>
<path fill-rule="nonzero" fill="rgb(78.431374%, 20.784314%, 10.980392%)" fill-opacity="1" stroke-width="0.8" stroke-linecap="butt" stroke-linejoin="miter" stroke="rgb(10.588235%, 16.470589%, 22.745098%)" stroke-opacity="1" stroke-miterlimit="2" d="M 312 193.773438 L 321.890625 193.773438 L 321.890625 189.96875 L 312 189.96875 Z M 312 193.773438 "/>
<path fill-rule="nonzero" fill="rgb(78.431374%, 20.784314%, 10.980392%)" fill-opacity="1" stroke-width="0.8" stroke-linecap="butt" stroke-linejoin="miter" stroke="rgb(10.588235%, 16.470589%, 22.745098%)" stroke-opacity="1" stroke-miterlimit="2" d="M 321.890625 193.773438 L 331.78125 193.773438 L 331.78125 192.019531 L 321.890625 192.019531 Z M 321.890625 193.773438 "/>
<path fill-rule="nonzero" fill="rgb(78.431374%, 20.784314%, 10.980392%)" fill-opacity="1" stroke-width="0.8" stroke-linecap="butt" stroke-linejoin="miter" stroke="rgb(10.588235%, 16.470589%, 22.745098%)" stroke-opacity="1" stroke-miterlimit="2" d="M 331.78125 193.773438 L 341.671875 193.773438 L 341.671875 189.675781 L 331.78125 189.675781 Z M 331.78125 193.773438 "/>
<path fill-rule="nonzero" fill="rgb(78.431374%, 20.784314%, 10.980392%)" fill-opacity="1" stroke-width="0.8" stroke-linecap="butt" stroke-linejoin="miter" stroke="rgb(10.588235%, 16.470589%, 22.745098%)" stroke-opacity="1" stroke-miterlimit="2" d="M 341.671875 193.773438 L 351.5625 193.773438 L 351.5625 191.140625 L 341.671875 191.140625 Z M 341.671875 193.773438 "/>
<path fill-rule="nonzero" fill="rgb(78.431374%, 20.784314%, 10.980392%)" fill-opacity="1" stroke-width="0.8" stroke-linecap="butt" stroke-linejoin="miter" stroke="rgb(10.588235%, 16.470589%, 22.745098%)" stroke-opacity="1" stroke-miterlimit="2" d="M 351.5625 193.773438 L 361.453125 193.773438 L 361.453125 192.308594 L 351.5625 192.308594 Z M 351.5625 193.773438 "/>
<path fill-rule="nonzero" fill="rgb(78.431374%, 20.784314%, 10.980392%)" fill-opacity="1" stroke-width="0.8" stroke-linecap="butt" stroke-linejoin="miter" stroke="rgb(10.588235%, 16.470589%, 22.745098%)" stroke-opacity="1" stroke-miterlimit="2" d="M 361.453125 193.773438 L 371.34375 193.773438 L 371.34375 190.554688 L 361.453125 190.554688 Z M 361.453125 193.773438 "/>
<path fill-rule="nonzero" fill="rgb(78.431374%, 20.784314%, 10.980392%)" fill-opacity="1" stroke-width="0.8" stroke-linecap="butt" stroke-linejoin="miter" stroke="rgb(10.588235%, 16.470589%, 22.745098%)" stroke-opacity="1" stroke-miterlimit="2" d="M 371.34375 193.773438 L 381.234375 193.773438 L 381.234375 190.261719 L 371.34375 190.261719 Z M 371.34375 193.773438 "/>
<path fill-rule="nonzero" fill="rgb(78.431374%, 20.784314%, 10.980392%)" fill-opacity="1" stroke-width="0.8" stroke-linecap="butt" stroke-linejoin="miter" stroke="rgb(10.588235%, 16.470589%, 22.745098%)" stroke-opacity="1" stroke-miterlimit="2" d="M 381.238281 193.773438 L 391.128906 193.773438 L 391.128906 190.261719 L 381.238281 190.261719 Z M 381.238281 193.773438 "/>
<path fill-rule="nonzero" fill="rgb(78.431374%, 20.784314%, 10.980392%)" fill-opacity="1" stroke-width="0.8" stroke-linecap="butt" stroke-linejoin="miter" stroke="rgb(10.588235%, 16.470589%, 22.745098%)" stroke-opacity="1" stroke-miterlimit="2" d="M 391.128906 193.773438 L 401.019531 193.773438 L 401.019531 192.308594 L 391.128906 192.308594 Z M 391.128906 193.773438 "/>
<path fill-rule="nonzero" fill="rgb(78.431374%, 20.784314%, 10.980392%)" fill-opacity="1" stroke-width="0.8" stroke-linecap="butt" stroke-linejoin="miter" stroke="rgb(10.588235%, 16.470589%, 22.745098%)" stroke-opacity="1" stroke-miterlimit="2" d="M 401.019531 193.773438 L 410.910156 193.773438 L 410.910156 192.019531 L 401.019531 192.019531 Z M 401.019531 193.773438 "/>
<path fill-rule="nonzero" fill="rgb(78.431374%, 20.784314%, 10.980392%)" fill-opacity="1" stroke-width="0.8" stroke-linecap="butt" stroke-linejoin="miter" stroke="rgb(10.588235%, 16.470589%, 22.745098%)" stroke-opacity="1" stroke-miterlimit="2" d="M 410.910156 193.773438 L 420.800781 193.773438 L 420.800781 191.433594 L 410.910156 191.433594 Z M 410.910156 193.773438 "/>
<path fill-rule="nonzero" fill="rgb(78.431374%, 20.784314%, 10.980392%)" fill-opacity="1" stroke-width="0.8" stroke-linecap="butt" stroke-linejoin="miter" stroke="rgb(10.588235%, 16.470589%, 22.745098%)" stroke-opacity="1" stroke-miterlimit="2" d="M 420.800781 193.773438 L 430.691406 193.773438 L 430.691406 189.96875 L 420.800781 189.96875 Z M 420.800781 193.773438 "/>
<path fill-rule="nonzero" fill="rgb(78.431374%, 20.784314%, 10.980392%)" fill-opacity="1" stroke-width="0.8" stroke-linecap="butt" stroke-linejoin="miter" stroke="rgb(10.588235%, 16.470589%, 22.745098%)" stroke-opacity="1" stroke-miterlimit="2" d="M 430.691406 193.773438 L 440.582031 193.773438 L 440.582031 190.554688 L 430.691406 190.554688 Z M 430.691406 193.773438 "/>
<path fill-rule="nonzero" fill="rgb(78.431374%, 20.784314%, 10.980392%)" fill-opacity="1" stroke-width="0.8" stroke-linecap="butt" stroke-linejoin="miter" stroke="rgb(10.588235%, 16.470589%, 22.745098%)" stroke-opacity="1" stroke-miterlimit="2" d="M 440.582031 193.773438 L 450.472656 193.773438 L 450.472656 190.554688 L 440.582031 190.554688 Z M 440.582031 193.773438 "/>
<path fill-rule="nonzero" fill="rgb(78.431374%, 20.784314%, 10.980392%)" fill-opacity="1" stroke-width="0.8" stroke-linecap="butt" stroke-linejoin="miter" stroke="rgb(10.588235%, 16.470589%, 22.745098%)" stroke-opacity="1" stroke-miterlimit="2" d="M 450.472656 193.773438 L 460.363281 193.773438 L 460.363281 190.847656 L 450.472656 190.847656 Z M 450.472656 193.773438 "/>
<path fill-rule="nonzero" fill="rgb(78.431374%, 20.784314%, 10.980392%)" fill-opacity="1" stroke-width="0.8" stroke-linecap="butt" stroke-linejoin="miter" stroke="rgb(10.588235%, 16.470589%, 22.745098%)" stroke-opacity="1" stroke-miterlimit="2" d="M 460.363281 193.773438 L 470.253906 193.773438 L 470.253906 190.554688 L 460.363281 190.554688 Z M 460.363281 193.773438 "/>
<path fill-rule="nonzero" fill="rgb(78.431374%, 20.784314%, 10.980392%)" fill-opacity="1" stroke-width="0.8" stroke-linecap="butt" stroke-linejoin="miter" stroke="rgb(10.588235%, 16.470589%, 22.745098%)" stroke-opacity="1" stroke-miterlimit="2" d="M 470.253906 193.773438 L 480.144531 193.773438 L 480.144531 188.800781 L 470.253906 188.800781 Z M 470.253906 193.773438 "/>
<path fill-rule="nonzero" fill="rgb(78.431374%, 20.784314%, 10.980392%)" fill-opacity="1" stroke-width="0.8" stroke-linecap="butt" stroke-linejoin="miter" stroke="rgb(10.588235%, 16.470589%, 22.745098%)" stroke-opacity="1" stroke-miterlimit="2" d="M 480.144531 193.773438 L 490.035156 193.773438 L 490.035156 189.382812 L 480.144531 189.382812 Z M 480.144531 193.773438 "/>
<path fill-rule="nonzero" fill="rgb(78.431374%, 20.784314%, 10.980392%)" fill-opacity="1" stroke-width="0.8" stroke-linecap="butt" stroke-linejoin="miter" stroke="rgb(10.588235%, 16.470589%, 22.745098%)" stroke-opacity="1" stroke-miterlimit="2" d="M 490.035156 193.773438 L 499.925781 193.773438 L 499.925781 189.675781 L 490.035156 189.675781 Z M 490.035156 193.773438 "/>
<path fill-rule="nonzero" fill="rgb(78.431374%, 20.784314%, 10.980392%)" fill-opacity="1" stroke-width="0.8" stroke-linecap="butt" stroke-linejoin="miter" stroke="rgb(10.588235%, 16.470589%, 22.745098%)" stroke-opacity="1" stroke-miterlimit="2" d="M 499.925781 193.773438 L 509.816406 193.773438 L 509.816406 190.554688 L 499.925781 190.554688 Z M 499.925781 193.773438 "/>
<path fill-rule="nonzero" fill="rgb(78.431374%, 20.784314%, 10.980392%)" fill-opacity="1" stroke-width="0.8" stroke-linecap="butt" stroke-linejoin="miter" stroke="rgb(10.588235%, 16.470589%, 22.745098%)" stroke-opacity="1" stroke-miterlimit="2" d="M 509.816406 193.773438 L 519.707031 193.773438 L 519.707031 188.214844 L 509.816406 188.214844 Z M 509.816406 193.773438 "/>
<path fill-rule="nonzero" fill="rgb(78.431374%, 20.784314%, 10.980392%)" fill-opacity="1" stroke-width="0.8" stroke-linecap="butt" stroke-linejoin="miter" stroke="rgb(10.588235%, 16.470589%, 22.745098%)" stroke-opacity="1" stroke-miterlimit="2" d="M 519.710938 193.773438 L 529.601562 193.773438 L 529.601562 189.09375 L 519.710938 189.09375 Z M 519.710938 193.773438 "/>
<path fill-rule="nonzero" fill="rgb(78.431374%, 20.784314%, 10.980392%)" fill-opacity="1" stroke-width="0.8" stroke-linecap="butt" stroke-linejoin="miter" stroke="rgb(10.588235%, 16.470589%, 22.745098%)" stroke-opacity="1" stroke-miterlimit="2" d="M 529.601562 193.773438 L 539.492188 193.773438 L 539.492188 186.164062 L 529.601562 186.164062 Z M 529.601562 193.773438 "/>
<path fill-rule="nonzero" fill="rgb(78.431374%, 20.784314%, 10.980392%)" fill-opacity="1" stroke-width="0.8" stroke-linecap="butt" stroke-linejoin="miter" stroke="rgb(10.588235%, 16.470589%, 22.745098%)" stroke-opacity="1" stroke-miterlimit="2" d="M 539.492188 193.773438 L 549.382812 193.773438 L 549.382812 180.3125 L 539.492188 180.3125 Z M 539.492188 193.773438 "/>
<path fill-rule="nonzero" fill="rgb(78.431374%, 20.784314%, 10.980392%)" fill-opacity="1" stroke-width="0.8" stroke-linecap="butt" stroke-linejoin="miter" stroke="rgb(10.588235%, 16.470589%, 22.745098%)" stroke-opacity="1" stroke-miterlimit="2" d="M 549.382812 193.773438 L 559.273438 193.773438 L 559.273438 158.367188 L 549.382812 158.367188 Z M 549.382812 193.773438 "/>
<g fill="rgb(10.588235%, 16.470589%, 22.745098%)" fill-opacity="1">
<use xlink:href="#glyph-0-0-09af283b" x="54.82709" y="432.55"/>
</g>
<g fill="rgb(10.588235%, 16.470589%, 22.745098%)" fill-opacity="1">
<use xlink:href="#glyph-1-0-09af283b" x="61.42709" y="432.55"/>
<use xlink:href="#glyph-1-1-09af283b" x="68.027091" y="432.55"/>
</g>
<g fill="rgb(10.588235%, 16.470589%, 22.745098%)" fill-opacity="1">
<use xlink:href="#glyph-1-1-09af283b" x="302.1055" y="432.55"/>
<use xlink:href="#glyph-1-0-09af283b" x="308.7055" y="432.55"/>
<use xlink:href="#glyph-1-2-09af283b" x="315.305501" y="432.55"/>
</g>
<g fill="rgb(10.588235%, 16.470589%, 22.745098%)" fill-opacity="1">
<use xlink:href="#glyph-1-3-09af283b" x="549.383887" y="432.55"/>
<use xlink:href="#glyph-1-0-09af283b" x="555.983888" y="432.55"/>
<use xlink:href="#glyph-1-1-09af283b" x="562.583888" y="432.55"/>
</g>
<g fill="rgb(10.588235%, 16.470589%, 22.745098%)" fill-opacity="1">
<use xlink:href="#glyph-2-0-09af283b" x="28.300002" y="415.760227"/>
</g>
<g fill="rgb(10.588235%, 16.470589%, 22.745098%)" fill-opacity="1">
<use xlink:href="#glyph-1-3-09af283b" x="21.700001" y="365.916964"/>
</g>
<g fill="rgb(10.588235%, 16.470589%, 22.745098%)" fill-opacity="1">
<use xlink:href="#glyph-2-0-09af283b" x="28.300002" y="365.916964"/>
</g>
<g fill="rgb(10.588235%, 16.470589%, 22.745098%)" fill-opacity="1">
<use xlink:href="#glyph-1-4-09af283b" x="21.700001" y="316.073709"/>
</g>
<g fill="rgb(10.588235%, 16.470589%, 22.745098%)" fill-opacity="1">
<use xlink:href="#glyph-2-0-09af283b" x="28.300002" y="316.073709"/>
</g>
<g fill="rgb(10.588235%, 16.470589%, 22.745098%)" fill-opacity="1">
<use xlink:href="#glyph-1-6-09af283b" x="21.700001" y="266.230446"/>
</g>
<g fill="rgb(10.588235%, 16.470589%, 22.745098%)" fill-opacity="1">
<use xlink:href="#glyph-2-0-09af283b" x="28.300002" y="266.230446"/>
</g>
<g fill="rgb(10.588235%, 16.470589%, 22.745098%)" fill-opacity="1">
<use xlink:href="#glyph-3-0-09af283b" x="40.000001" y="248.624995"/>
<use xlink:href="#glyph-3-3-09af283b" x="49.000001" y="248.624995"/>
<use xlink:href="#glyph-3-6-09af283b" x="58.000001" y="248.624995"/>
<use xlink:href="#glyph-3-7-09af283b" x="67.000002" y="248.624995"/>
<use xlink:href="#glyph-3-12-09af283b" x="76.000002" y="248.624995"/>
<use xlink:href="#glyph-3-1-09af283b" x="85.000002" y="248.624995"/>
<use xlink:href="#glyph-3-2-09af283b" x="94.000002" y="248.624995"/>
<use xlink:href="#glyph-3-3-09af283b" x="103.000002" y="248.624995"/>
<use xlink:href="#glyph-3-1-09af283b" x="112.000003" y="248.624995"/>
<use xlink:href="#glyph-3-4-09af283b" x="121.000003" y="248.624995"/>
<use xlink:href="#glyph-3-5-09af283b" x="130.000003" y="248.624995"/>
<use xlink:href="#glyph-3-2-09af283b" x="139.000003" y="248.624995"/>
<use xlink:href="#glyph-3-6-09af283b" x="148.000004" y="248.624995"/>
<use xlink:href="#glyph-3-7-09af283b" x="157.000004" y="248.624995"/>
<use xlink:href="#glyph-3-1-09af283b" x="166.000004" y="248.624995"/>
<use xlink:href="#glyph-3-2-09af283b" x="175.000004" y="248.624995"/>
<use xlink:href="#glyph-3-8-09af283b" x="184.000004" y="248.624995"/>
<use xlink:href="#glyph-3-9-09af283b" x="193.000005" y="248.624995"/>
<use xlink:href="#glyph-3-7-09af283b" x="202.000005" y="248.624995"/>
<use xlink:href="#glyph-3-2-09af283b" x="211.000005" y="248.624995"/>
<use xlink:href="#glyph-3-3-09af283b" x="220.000005" y="248.624995"/>
<use xlink:href="#glyph-3-10-09af283b" x="229.000006" y="248.624995"/>
<use xlink:href="#glyph-3-4-09af283b" x="238.000006" y="248.624995"/>
<use xlink:href="#glyph-3-3-09af283b" x="247.000006" y="248.624995"/>
<use xlink:href="#glyph-3-11-09af283b" x="256.000006" y="248.624995"/>
<use xlink:href="#glyph-3-4-09af283b" x="265.000006" y="248.624995"/>
<use xlink:href="#glyph-3-12-09af283b" x="274.000007" y="248.624995"/>
<use xlink:href="#glyph-3-13-09af283b" x="283.000007" y="248.624995"/>
<use xlink:href="#glyph-3-14-09af283b" x="292.000007" y="248.624995"/>
<use xlink:href="#glyph-3-12-09af283b" x="301.000007" y="248.624995"/>
<use xlink:href="#glyph-3-15-09af283b" x="310.000008" y="248.624995"/>
<use xlink:href="#glyph-3-7-09af283b" x="319.000008" y="248.624995"/>
<use xlink:href="#glyph-3-12-09af283b" x="328.000008" y="248.624995"/>
<use xlink:href="#glyph-3-5-09af283b" x="337.000008" y="248.624995"/>
<use xlink:href="#glyph-3-4-09af283b" x="346.000008" y="248.624995"/>
<use xlink:href="#glyph-3-15-09af283b" x="355.000009" y="248.624995"/>
<use xlink:href="#glyph-3-16-09af283b" x="364.000009" y="248.624995"/>
<use xlink:href="#glyph-3-17-09af283b" x="373.000009" y="248.624995"/>
<use xlink:href="#glyph-3-2-09af283b" x="382.000009" y="248.624995"/>
<use xlink:href="#glyph-3-18-09af283b" x="391.000009" y="248.624995"/>
<use xlink:href="#glyph-3-6-09af283b" x="400.00001" y="248.624995"/>
<use xlink:href="#glyph-3-4-09af283b" x="409.00001" y="248.624995"/>
<use xlink:href="#glyph-3-1-09af283b" x="418.00001" y="248.624995"/>
<use xlink:href="#glyph-3-17-09af283b" x="427.00001" y="248.624995"/>
<use xlink:href="#glyph-3-7-09af283b" x="436.000011" y="248.624995"/>
<use xlink:href="#glyph-3-12-09af283b" x="445.000011" y="248.624995"/>
<use xlink:href="#glyph-3-4-09af283b" x="454.000011" y="248.624995"/>
<use xlink:href="#glyph-3-11-09af283b" x="463.000011" y="248.624995"/>
<use xlink:href="#glyph-3-3-09af283b" x="472.000011" y="248.624995"/>
<use xlink:href="#glyph-3-1-09af283b" x="481.000012" y="248.624995"/>
<use xlink:href="#glyph-3-4-09af283b" x="490.000012" y="248.624995"/>
<use xlink:href="#glyph-3-17-09af283b" x="499.000012" y="248.624995"/>
<use xlink:href="#glyph-3-4-09af283b" x="508.000012" y="248.624995"/>
<use xlink:href="#glyph-3-19-09af283b" x="517.000013" y="248.624995"/>
<use xlink:href="#glyph-3-1-09af283b" x="526.000013" y="248.624995"/>
<use xlink:href="#glyph-3-3-09af283b" x="535.000013" y="248.624995"/>
<use xlink:href="#glyph-3-9-09af283b" x="544.000013" y="248.624995"/>
<use xlink:href="#glyph-3-14-09af283b" x="553.000013" y="248.624995"/>
</g>
<path fill-rule="nonzero" fill="rgb(78.431374%, 20.784314%, 10.980392%)" fill-opacity="1" stroke-width="0.8" stroke-linecap="butt" stroke-linejoin="miter" stroke="rgb(10.588235%, 16.470589%, 22.745098%)" stroke-opacity="1" stroke-miterlimit="2" d="M 67.109375 411.773438 L 67.148438 411.773438 L 67.148438 406.789062 L 67.109375 406.789062 Z M 67.109375 411.773438 "/>
<path fill="none" stroke-width="0.8" stroke-linecap="butt" stroke-linejoin="miter" stroke="rgb(10.588235%, 16.470589%, 22.745098%)" stroke-opacity="1" stroke-miterlimit="2" d="M 67.148438 411.773438 L 67.1875 411.773438 Z M 67.148438 411.773438 "/>
<path fill="none" stroke-width="0.8" stroke-linecap="butt" stroke-linejoin="miter" stroke="rgb(10.588235%, 16.470589%, 22.745098%)" stroke-opacity="1" stroke-miterlimit="2" d="M 67.1875 411.773438 L 67.226562 411.773438 Z M 67.1875 411.773438 "/>
<path fill="none" stroke-width="0.8" stroke-linecap="butt" stroke-linejoin="miter" stroke="rgb(10.588235%, 16.470589%, 22.745098%)" stroke-opacity="1" stroke-miterlimit="2" d="M 67.226562 411.773438 L 67.265625 411.773438 Z M 67.226562 411.773438 "/>
<path fill-rule="nonzero" fill="rgb(78.431374%, 20.784314%, 10.980392%)" fill-opacity="1" stroke-width="0.8" stroke-linecap="butt" stroke-linejoin="miter" stroke="rgb(10.588235%, 16.470589%, 22.745098%)" stroke-opacity="1" stroke-miterlimit="2" d="M 67.265625 411.773438 L 67.304688 411.773438 L 67.304688 396.820312 L 67.265625 396.820312 Z M 67.265625 411.773438 "/>
<path fill-rule="nonzero" fill="rgb(78.431374%, 20.784314%, 10.980392%)" fill-opacity="1" stroke-width="0.8" stroke-linecap="butt" stroke-linejoin="miter" stroke="rgb(10.588235%, 16.470589%, 22.745098%)" stroke-opacity="1" stroke-miterlimit="2" d="M 67.308594 411.773438 L 67.347656 411.773438 L 67.347656 401.804688 L 67.308594 401.804688 Z M 67.308594 411.773438 "/>
<path fill="none" stroke-width="0.8" stroke-linecap="butt" stroke-linejoin="miter" stroke="rgb(10.588235%, 16.470589%, 22.745098%)" stroke-opacity="1" stroke-miterlimit="2" d="M 67.347656 411.773438 L 67.386719 411.773438 Z M 67.347656 411.773438 "/>
<path fill-rule="nonzero" fill="rgb(78.431374%, 20.784314%, 10.980392%)" fill-opacity="1" stroke-width="0.8" stroke-linecap="butt" stroke-linejoin="miter" stroke="rgb(10.588235%, 16.470589%, 22.745098%)" stroke-opacity="1" stroke-miterlimit="2" d="M 67.386719 411.773438 L 67.425781 411.773438 L 67.425781 401.804688 L 67.386719 401.804688 Z M 67.386719 411.773438 "/>
<path fill-rule="nonzero" fill="rgb(78.431374%, 20.784314%, 10.980392%)" fill-opacity="1" stroke-width="0.8" stroke-linecap="butt" stroke-linejoin="miter" stroke="rgb(10.588235%, 16.470589%, 22.745098%)" stroke-opacity="1" stroke-miterlimit="2" d="M 67.425781 411.773438 L 67.464844 411.773438 L 67.464844 371.898438 L 67.425781 371.898438 Z M 67.425781 411.773438 "/>
<path fill-rule="nonzero" fill="rgb(78.431374%, 20.784314%, 10.980392%)" fill-opacity="1" stroke-width="0.8" stroke-linecap="butt" stroke-linejoin="miter" stroke="rgb(10.588235%, 16.470589%, 22.745098%)" stroke-opacity="1" stroke-miterlimit="2" d="M 67.464844 411.773438 L 67.503906 411.773438 L 67.503906 401.804688 L 67.464844 401.804688 Z M 67.464844 411.773438 "/>
<path fill-rule="nonzero" fill="rgb(78.431374%, 20.784314%, 10.980392%)" fill-opacity="1" stroke-width="0.8" stroke-linecap="butt" stroke-linejoin="miter" stroke="rgb(10.588235%, 16.470589%, 22.745098%)" stroke-opacity="1" stroke-miterlimit="2" d="M 67.507812 411.773438 L 67.546875 411.773438 L 67.546875 361.929688 L 67.507812 361.929688 Z M 67.507812 411.773438 "/>
<path fill-rule="nonzero" fill="rgb(78.431374%, 20.784314%, 10.980392%)" fill-opacity="1" stroke-width="0.8" stroke-linecap="butt" stroke-linejoin="miter" stroke="rgb(10.588235%, 16.470589%, 22.745098%)" stroke-opacity="1" stroke-miterlimit="2" d="M 67.546875 411.773438 L 67.585938 411.773438 L 67.585938 351.960938 L 67.546875 351.960938 Z M 67.546875 411.773438 "/>
<path fill-rule="nonzero" fill="rgb(78.431374%, 20.784314%, 10.980392%)" fill-opacity="1" stroke-width="0.8" stroke-linecap="butt" stroke-linejoin="miter" stroke="rgb(10.588235%, 16.470589%, 22.745098%)" stroke-opacity="1" stroke-miterlimit="2" d="M 67.585938 411.773438 L 67.625 411.773438 L 67.625 356.945312 L 67.585938 356.945312 Z M 67.585938 411.773438 "/>
<path fill-rule="nonzero" fill="rgb(78.431374%, 20.784314%, 10.980392%)" fill-opacity="1" stroke-width="0.8" stroke-linecap="butt" stroke-linejoin="miter" stroke="rgb(10.588235%, 16.470589%, 22.745098%)" stroke-opacity="1" stroke-miterlimit="2" d="M 67.625 411.773438 L 67.664062 411.773438 L 67.664062 332.023438 L 67.625 332.023438 Z M 67.625 411.773438 "/>
<path fill-rule="nonzero" fill="rgb(78.431374%, 20.784314%, 10.980392%)" fill-opacity="1" stroke-width="0.8" stroke-linecap="butt" stroke-linejoin="miter" stroke="rgb(10.588235%, 16.470589%, 22.745098%)" stroke-opacity="1" stroke-miterlimit="2" d="M 67.664062 411.773438 L 67.703125 411.773438 L 67.703125 346.976562 L 67.664062 346.976562 Z M 67.664062 411.773438 "/>
<path fill-rule="nonzero" fill="rgb(78.431374%, 20.784314%, 10.980392%)" fill-opacity="1" stroke-width="0.8" stroke-linecap="butt" stroke-linejoin="miter" stroke="rgb(10.588235%, 16.470589%, 22.745098%)" stroke-opacity="1" stroke-miterlimit="2" d="M 67.703125 411.773438 L 67.742188 411.773438 L 67.742188 337.007812 L 67.703125 337.007812 Z M 67.703125 411.773438 "/>
<path fill-rule="nonzero" fill="rgb(78.431374%, 20.784314%, 10.980392%)" fill-opacity="1" stroke-width="0.8" stroke-linecap="butt" stroke-linejoin="miter" stroke="rgb(10.588235%, 16.470589%, 22.745098%)" stroke-opacity="1" stroke-miterlimit="2" d="M 67.746094 411.773438 L 67.785156 411.773438 L 67.785156 292.148438 L 67.746094 292.148438 Z M 67.746094 411.773438 "/>
<path fill-rule="nonzero" fill="rgb(78.431374%, 20.784314%, 10.980392%)" fill-opacity="1" stroke-width="0.8" stroke-linecap="butt" stroke-linejoin="miter" stroke="rgb(10.588235%, 16.470589%, 22.745098%)" stroke-opacity="1" stroke-miterlimit="2" d="M 67.785156 411.773438 L 67.824219 411.773438 L 67.824219 272.210938 L 67.785156 272.210938 Z M 67.785156 411.773438 "/>
<path fill-rule="nonzero" fill="rgb(78.431374%, 20.784314%, 10.980392%)" fill-opacity="1" stroke-width="0.8" stroke-linecap="butt" stroke-linejoin="miter" stroke="rgb(10.588235%, 16.470589%, 22.745098%)" stroke-opacity="1" stroke-miterlimit="2" d="M 67.824219 411.773438 L 67.863281 411.773438 L 67.863281 282.179688 L 67.824219 282.179688 Z M 67.824219 411.773438 "/>
<path fill-rule="nonzero" fill="rgb(78.431374%, 20.784314%, 10.980392%)" fill-opacity="1" stroke-width="0.8" stroke-linecap="butt" stroke-linejoin="miter" stroke="rgb(10.588235%, 16.470589%, 22.745098%)" stroke-opacity="1" stroke-miterlimit="2" d="M 67.863281 411.773438 L 67.902344 411.773438 L 67.902344 341.992188 L 67.863281 341.992188 Z M 67.863281 411.773438 "/>
<path fill-rule="nonzero" fill="rgb(78.431374%, 20.784314%, 10.980392%)" fill-opacity="1" stroke-width="0.8" stroke-linecap="butt" stroke-linejoin="miter" stroke="rgb(10.588235%, 16.470589%, 22.745098%)" stroke-opacity="1" stroke-miterlimit="2" d="M 67.902344 411.773438 L 67.941406 411.773438 L 67.941406 322.054688 L 67.902344 322.054688 Z M 67.902344 411.773438 "/>
<path fill-rule="nonzero" fill="rgb(78.431374%, 20.784314%, 10.980392%)" fill-opacity="1" stroke-width="0.8" stroke-linecap="butt" stroke-linejoin="miter" stroke="rgb(10.588235%, 16.470589%, 22.745098%)" stroke-opacity="1" stroke-miterlimit="2" d="M 67.945312 411.773438 L 67.984375 411.773438 L 67.984375 267.226562 L 67.945312 267.226562 Z M 67.945312 411.773438 "/>
<path fill-rule="nonzero" fill="rgb(78.431374%, 20.784314%, 10.980392%)" fill-opacity="1" stroke-width="0.8" stroke-linecap="butt" stroke-linejoin="miter" stroke="rgb(10.588235%, 16.470589%, 22.745098%)" stroke-opacity="1" stroke-miterlimit="2" d="M 67.984375 411.773438 L 68.023438 411.773438 L 68.023438 312.085938 L 67.984375 312.085938 Z M 67.984375 411.773438 "/>
<path fill-rule="nonzero" fill="rgb(78.431374%, 20.784314%, 10.980392%)" fill-opacity="1" stroke-width="0.8" stroke-linecap="butt" stroke-linejoin="miter" stroke="rgb(10.588235%, 16.470589%, 22.745098%)" stroke-opacity="1" stroke-miterlimit="2" d="M 68.023438 411.773438 L 68.0625 411.773438 L 68.0625 272.210938 L 68.023438 272.210938 Z M 68.023438 411.773438 "/>
<path fill-rule="nonzero" fill="rgb(78.431374%, 20.784314%, 10.980392%)" fill-opacity="1" stroke-width="0.8" stroke-linecap="butt" stroke-linejoin="miter" stroke="rgb(10.588235%, 16.470589%, 22.745098%)" stroke-opacity="1" stroke-miterlimit="2" d="M 68.0625 411.773438 L 68.101562 411.773438 L 68.101562 302.117188 L 68.0625 302.117188 Z M 68.0625 411.773438 "/>
<path fill-rule="nonzero" fill="rgb(78.431374%, 20.784314%, 10.980392%)" fill-opacity="1" stroke-width="0.8" stroke-linecap="butt" stroke-linejoin="miter" stroke="rgb(10.588235%, 16.470589%, 22.745098%)" stroke-opacity="1" stroke-miterlimit="2" d="M 68.101562 411.773438 L 68.140625 411.773438 L 68.140625 327.039062 L 68.101562 327.039062 Z M 68.101562 411.773438 "/>
<path fill-rule="nonzero" fill="rgb(78.431374%, 20.784314%, 10.980392%)" fill-opacity="1" stroke-width="0.8" stroke-linecap="butt" stroke-linejoin="miter" stroke="rgb(10.588235%, 16.470589%, 22.745098%)" stroke-opacity="1" stroke-miterlimit="2" d="M 68.140625 411.773438 L 68.179688 411.773438 L 68.179688 332.023438 L 68.140625 332.023438 Z M 68.140625 411.773438 "/>
<path fill-rule="nonzero" fill="rgb(78.431374%, 20.784314%, 10.980392%)" fill-opacity="1" stroke-width="0.8" stroke-linecap="butt" stroke-linejoin="miter" stroke="rgb(10.588235%, 16.470589%, 22.745098%)" stroke-opacity="1" stroke-miterlimit="2" d="M 68.183594 411.773438 L 68.222656 411.773438 L 68.222656 292.148438 L 68.183594 292.148438 Z M 68.183594 411.773438 "/>
<path fill-rule="nonzero" fill="rgb(78.431374%, 20.784314%, 10.980392%)" fill-opacity="1" stroke-width="0.8" stroke-linecap="butt" stroke-linejoin="miter" stroke="rgb(10.588235%, 16.470589%, 22.745098%)" stroke-opacity="1" stroke-miterlimit="2" d="M 68.222656 411.773438 L 68.261719 411.773438 L 68.261719 292.148438 L 68.222656 292.148438 Z M 68.222656 411.773438 "/>
<path fill-rule="nonzero" fill="rgb(78.431374%, 20.784314%, 10.980392%)" fill-opacity="1" stroke-width="0.8" stroke-linecap="butt" stroke-linejoin="miter" stroke="rgb(10.588235%, 16.470589%, 22.745098%)" stroke-opacity="1" stroke-miterlimit="2" d="M 68.261719 411.773438 L 68.300781 411.773438 L 68.300781 346.976562 L 68.261719 346.976562 Z M 68.261719 411.773438 "/>
<path fill-rule="nonzero" fill="rgb(78.431374%, 20.784314%, 10.980392%)" fill-opacity="1" stroke-width="0.8" stroke-linecap="butt" stroke-linejoin="miter" stroke="rgb(10.588235%, 16.470589%, 22.745098%)" stroke-opacity="1" stroke-miterlimit="2" d="M 68.300781 411.773438 L 68.339844 411.773438 L 68.339844 307.101562 L 68.300781 307.101562 Z M 68.300781 411.773438 "/>
<path fill-rule="nonzero" fill="rgb(78.431374%, 20.784314%, 10.980392%)" fill-opacity="1" stroke-width="0.8" stroke-linecap="butt" stroke-linejoin="miter" stroke="rgb(10.588235%, 16.470589%, 22.745098%)" stroke-opacity="1" stroke-miterlimit="2" d="M 68.339844 411.773438 L 68.378906 411.773438 L 68.378906 351.960938 L 68.339844 351.960938 Z M 68.339844 411.773438 "/>
<path fill-rule="nonzero" fill="rgb(78.431374%, 20.784314%, 10.980392%)" fill-opacity="1" stroke-width="0.8" stroke-linecap="butt" stroke-linejoin="miter" stroke="rgb(10.588235%, 16.470589%, 22.745098%)" stroke-opacity="1" stroke-miterlimit="2" d="M 68.378906 411.773438 L 68.417969 411.773438 L 68.417969 371.898438 L 68.378906 371.898438 Z M 68.378906 411.773438 "/>
<path fill-rule="nonzero" fill="rgb(78.431374%, 20.784314%, 10.980392%)" fill-opacity="1" stroke-width="0.8" stroke-linecap="butt" stroke-linejoin="miter" stroke="rgb(10.588235%, 16.470589%, 22.745098%)" stroke-opacity="1" stroke-miterlimit="2" d="M 68.421875 411.773438 L 68.460938 411.773438 L 68.460938 322.054688 L 68.421875 322.054688 Z M 68.421875 411.773438 "/>
<path fill-rule="nonzero" fill="rgb(78.431374%, 20.784314%, 10.980392%)" fill-opacity="1" stroke-width="0.8" stroke-linecap="butt" stroke-linejoin="miter" stroke="rgb(10.588235%, 16.470589%, 22.745098%)" stroke-opacity="1" stroke-miterlimit="2" d="M 68.460938 411.773438 L 68.5 411.773438 L 68.5 366.914062 L 68.460938 366.914062 Z M 68.460938 411.773438 "/>
<path fill-rule="nonzero" fill="rgb(78.431374%, 20.784314%, 10.980392%)" fill-opacity="1" stroke-width="0.8" stroke-linecap="butt" stroke-linejoin="miter" stroke="rgb(10.588235%, 16.470589%, 22.745098%)" stroke-opacity="1" stroke-miterlimit="2" d="M 68.5 411.773438 L 68.539062 411.773438 L 68.539062 376.882812 L 68.5 376.882812 Z M 68.5 411.773438 "/>
<path fill-rule="nonzero" fill="rgb(78.431374%, 20.784314%, 10.980392%)" fill-opacity="1" stroke-width="0.8" stroke-linecap="butt" stroke-linejoin="miter" stroke="rgb(10.588235%, 16.470589%, 22.745098%)" stroke-opacity="1" stroke-miterlimit="2" d="M 68.539062 411.773438 L 68.578125 411.773438 L 68.578125 381.867188 L 68.539062 381.867188 Z M 68.539062 411.773438 "/>
<path fill-rule="nonzero" fill="rgb(78.431374%, 20.784314%, 10.980392%)" fill-opacity="1" stroke-width="0.8" stroke-linecap="butt" stroke-linejoin="miter" stroke="rgb(10.588235%, 16.470589%, 22.745098%)" stroke-opacity="1" stroke-miterlimit="2" d="M 68.578125 411.773438 L 68.617188 411.773438 L 68.617188 386.851562 L 68.578125 386.851562 Z M 68.578125 411.773438 "/>
<path fill-rule="nonzero" fill="rgb(78.431374%, 20.784314%, 10.980392%)" fill-opacity="1" stroke-width="0.8" stroke-linecap="butt" stroke-linejoin="miter" stroke="rgb(10.588235%, 16.470589%, 22.745098%)" stroke-opacity="1" stroke-miterlimit="2" d="M 68.621094 411.773438 L 68.660156 411.773438 L 68.660156 386.851562 L 68.621094 386.851562 Z M 68.621094 411.773438 "/>
<path fill-rule="nonzero" fill="rgb(78.431374%, 20.784314%, 10.980392%)" fill-opacity="1" stroke-width="0.8" stroke-linecap="butt" stroke-linejoin="miter" stroke="rgb(10.588235%, 16.470589%, 22.745098%)" stroke-opacity="1" stroke-miterlimit="2" d="M 68.660156 411.773438 L 68.699219 411.773438 L 68.699219 406.789062 L 68.660156 406.789062 Z M 68.660156 411.773438 "/>
<path fill="none" stroke-width="0.8" stroke-linecap="butt" stroke-linejoin="miter" stroke="rgb(10.588235%, 16.470589%, 22.745098%)" stroke-opacity="1" stroke-miterlimit="2" d="M 68.699219 411.773438 L 68.738281 411.773438 Z M 68.699219 411.773438 "/>
<path fill-rule="nonzero" fill="rgb(78.431374%, 20.784314%, 10.980392%)" fill-opacity="1" stroke-width="0.8" stroke-linecap="butt" stroke-linejoin="miter" stroke="rgb(10.588235%, 16.470589%, 22.745098%)" stroke-opacity="1" stroke-miterlimit="2" d="M 68.738281 411.773438 L 68.777344 411.773438 L 68.777344 391.835938 L 68.738281 391.835938 Z M 68.738281 411.773438 "/>
<path fill-rule="nonzero" fill="rgb(78.431374%, 20.784314%, 10.980392%)" fill-opacity="1" stroke-width="0.8" stroke-linecap="butt" stroke-linejoin="miter" stroke="rgb(10.588235%, 16.470589%, 22.745098%)" stroke-opacity="1" stroke-miterlimit="2" d="M 68.777344 411.773438 L 68.816406 411.773438 L 68.816406 401.804688 L 68.777344 401.804688 Z M 68.777344 411.773438 "/>
<path fill-rule="nonzero" fill="rgb(78.431374%, 20.784314%, 10.980392%)" fill-opacity="1" stroke-width="0.8" stroke-linecap="butt" stroke-linejoin="miter" stroke="rgb(10.588235%, 16.470589%, 22.745098%)" stroke-opacity="1" stroke-miterlimit="2" d="M 68.816406 411.773438 L 68.855469 411.773438 L 68.855469 406.789062 L 68.816406 406.789062 Z M 68.816406 411.773438 "/>
<path fill="none" stroke-width="0.8" stroke-linecap="butt" stroke-linejoin="miter" stroke="rgb(10.588235%, 16.470589%, 22.745098%)" stroke-opacity="1" stroke-miterlimit="2" d="M 68.859375 411.773438 L 68.898438 411.773438 Z M 68.859375 411.773438 "/>
<path fill="none" stroke-width="0.8" stroke-linecap="butt" stroke-linejoin="miter" stroke="rgb(10.588235%, 16.470589%, 22.745098%)" stroke-opacity="1" stroke-miterlimit="2" d="M 68.898438 411.773438 L 68.9375 411.773438 Z M 68.898438 411.773438 "/>
<path fill-rule="nonzero" fill="rgb(78.431374%, 20.784314%, 10.980392%)" fill-opacity="1" stroke-width="0.8" stroke-linecap="butt" stroke-linejoin="miter" stroke="rgb(10.588235%, 16.470589%, 22.745098%)" stroke-opacity="1" stroke-miterlimit="2" d="M 68.9375 411.773438 L 68.976562 411.773438 L 68.976562 406.789062 L 68.9375 406.789062 Z M 68.9375 411.773438 "/>
<path fill="none" stroke-width="0.8" stroke-linecap="butt" stroke-linejoin="miter" stroke="rgb(10.588235%, 16.470589%, 22.745098%)" stroke-opacity="1" stroke-miterlimit="2" d="M 68.976562 411.773438 L 69.015625 411.773438 Z M 68.976562 411.773438 "/>
<path fill-rule="nonzero" fill="rgb(78.431374%, 20.784314%, 10.980392%)" fill-opacity="1" stroke-width="0.8" stroke-linecap="butt" stroke-linejoin="miter" stroke="rgb(10.588235%, 16.470589%, 22.745098%)" stroke-opacity="1" stroke-miterlimit="2" d="M 69.015625 411.773438 L 69.054688 411.773438 L 69.054688 406.789062 L 69.015625 406.789062 Z M 69.015625 411.773438 "/>
<path fill-rule="nonzero" fill="rgb(78.431374%, 20.784314%, 10.980392%)" fill-opacity="1" stroke-width="0.8" stroke-linecap="butt" stroke-linejoin="miter" stroke="rgb(10.588235%, 16.470589%, 22.745098%)" stroke-opacity="1" stroke-miterlimit="2" d="M 69.058594 411.773438 L 69.097656 411.773438 L 69.097656 406.789062 L 69.058594 406.789062 Z M 69.058594 411.773438 "/>
<path fill="none" stroke-width="0.9" stroke-linecap="butt" stroke-linejoin="miter" stroke="rgb(10.588235%, 16.470589%, 22.745098%)" stroke-opacity="1" stroke-miterlimit="1.154701" d="M 64.726562 196.550781 L 64.726562 201.550781 "/>
<path fill="none" stroke-width="0.9" stroke-linecap="butt" stroke-linejoin="miter" stroke="rgb(10.588235%, 16.470589%, 22.745098%)" stroke-opacity="1" stroke-miterlimit="1.154701" d="M 312.003906 196.550781 L 312.003906 201.550781 "/>
<path fill="none" stroke-width="0.9" stroke-linecap="butt" stroke-linejoin="miter" stroke="rgb(10.588235%, 16.470589%, 22.745098%)" stroke-opacity="1" stroke-miterlimit="1.154701" d="M 559.285156 196.550781 L 559.285156 201.550781 "/>
<path fill="none" stroke-width="1" stroke-linecap="butt" stroke-linejoin="miter" stroke="rgb(23.529412%, 29.019609%, 36.078432%)" stroke-opacity="1" stroke-miterlimit="1.154701" d="M 188.367188 198.550781 L 188.367188 201.550781 "/>
<path fill="none" stroke-width="1" stroke-linecap="butt" stroke-linejoin="miter" stroke="rgb(23.529412%, 29.019609%, 36.078432%)" stroke-opacity="1" stroke-miterlimit="1.154701" d="M 435.644531 198.550781 L 435.644531 201.550781 "/>
<path fill="none" stroke-width="0.9" stroke-linecap="butt" stroke-linejoin="miter" stroke="rgb(10.588235%, 16.470589%, 22.745098%)" stroke-opacity="1" stroke-miterlimit="1.154701" d="M 44.449219 193.773438 L 39.449219 193.773438 "/>
<path fill="none" stroke-width="0.9" stroke-linecap="butt" stroke-linejoin="miter" stroke="rgb(10.588235%, 16.470589%, 22.745098%)" stroke-opacity="1" stroke-miterlimit="1.154701" d="M 44.449219 135.253906 L 39.449219 135.253906 "/>
<path fill="none" stroke-width="0.9" stroke-linecap="butt" stroke-linejoin="miter" stroke="rgb(10.588235%, 16.470589%, 22.745098%)" stroke-opacity="1" stroke-miterlimit="1.154701" d="M 44.449219 76.730469 L 39.449219 76.730469 "/>
<path fill="none" stroke-width="1" stroke-linecap="butt" stroke-linejoin="miter" stroke="rgb(23.529412%, 29.019609%, 36.078432%)" stroke-opacity="1" stroke-miterlimit="1.154701" d="M 42.449219 164.511719 L 39.449219 164.511719 "/>
<path fill="none" stroke-width="1" stroke-linecap="butt" stroke-linejoin="miter" stroke="rgb(23.529412%, 29.019609%, 36.078432%)" stroke-opacity="1" stroke-miterlimit="1.154701" d="M 42.449219 105.992188 L 39.449219 105.992188 "/>
<path fill="none" stroke-width="1" stroke-linecap="butt" stroke-linejoin="miter" stroke="rgb(23.529412%, 29.019609%, 36.078432%)" stroke-opacity="1" stroke-miterlimit="1.154701" d="M 42.449219 47.472656 L 39.449219 47.472656 "/>
<path fill="none" stroke-width="0.9" stroke-linecap="butt" stroke-linejoin="miter" stroke="rgb(10.588235%, 16.470589%, 22.745098%)" stroke-opacity="1" stroke-miterlimit="1.154701" d="M 64.726562 414.550781 L 64.726562 419.550781 "/>
<path fill="none" stroke-width="0.9" stroke-linecap="butt" stroke-linejoin="miter" stroke="rgb(10.588235%, 16.470589%, 22.745098%)" stroke-opacity="1" stroke-miterlimit="1.154701" d="M 312.003906 414.550781 L 312.003906 419.550781 "/>
<path fill="none" stroke-width="0.9" stroke-linecap="butt" stroke-linejoin="miter" stroke="rgb(10.588235%, 16.470589%, 22.745098%)" stroke-opacity="1" stroke-miterlimit="1.154701" d="M 559.285156 414.550781 L 559.285156 419.550781 "/>
<path fill="none" stroke-width="1" stroke-linecap="butt" stroke-linejoin="miter" stroke="rgb(23.529412%, 29.019609%, 36.078432%)" stroke-opacity="1" stroke-miterlimit="1.154701" d="M 188.367188 416.550781 L 188.367188 419.550781 "/>
<path fill="none" stroke-width="1" stroke-linecap="butt" stroke-linejoin="miter" stroke="rgb(23.529412%, 29.019609%, 36.078432%)" stroke-opacity="1" stroke-miterlimit="1.154701" d="M 435.644531 416.550781 L 435.644531 419.550781 "/>
<path fill="none" stroke-width="0.9" stroke-linecap="butt" stroke-linejoin="miter" stroke="rgb(10.588235%, 16.470589%, 22.745098%)" stroke-opacity="1" stroke-miterlimit="1.154701" d="M 44.449219 411.773438 L 39.449219 411.773438 "/>
<path fill="none" stroke-width="0.9" stroke-linecap="butt" stroke-linejoin="miter" stroke="rgb(10.588235%, 16.470589%, 22.745098%)" stroke-opacity="1" stroke-miterlimit="1.154701" d="M 44.449219 361.929688 L 39.449219 361.929688 "/>
<path fill="none" stroke-width="0.9" stroke-linecap="butt" stroke-linejoin="miter" stroke="rgb(10.588235%, 16.470589%, 22.745098%)" stroke-opacity="1" stroke-miterlimit="1.154701" d="M 44.449219 312.085938 L 39.449219 312.085938 "/>
<path fill="none" stroke-width="0.9" stroke-linecap="butt" stroke-linejoin="miter" stroke="rgb(10.588235%, 16.470589%, 22.745098%)" stroke-opacity="1" stroke-miterlimit="1.154701" d="M 44.449219 262.242188 L 39.449219 262.242188 "/>
<path fill="none" stroke-width="1" stroke-linecap="butt" stroke-linejoin="miter" stroke="rgb(23.529412%, 29.019609%, 36.078432%)" stroke-opacity="1" stroke-miterlimit="1.154701" d="M 42.449219 386.851562 L 39.449219 386.851562 "/>
<path fill="none" stroke-width="1" stroke-linecap="butt" stroke-linejoin="miter" stroke="rgb(23.529412%, 29.019609%, 36.078432%)" stroke-opacity="1" stroke-miterlimit="1.154701" d="M 42.449219 337.007812 L 39.449219 337.007812 "/>
<path fill="none" stroke-width="1" stroke-linecap="butt" stroke-linejoin="miter" stroke="rgb(23.529412%, 29.019609%, 36.078432%)" stroke-opacity="1" stroke-miterlimit="1.154701" d="M 42.449219 287.164062 L 39.449219 287.164062 "/>
<path fill="none" stroke-width="1.1" stroke-linecap="butt" stroke-linejoin="miter" stroke="rgb(10.588235%, 16.470589%, 22.745098%)" stroke-opacity="1" stroke-miterlimit="1.154701" d="M 39.449219 201 L 584.550781 201 "/>
<path fill="none" stroke-width="1.1" stroke-linecap="butt" stroke-linejoin="miter" stroke="rgb(10.588235%, 16.470589%, 22.745098%)" stroke-opacity="1" stroke-miterlimit="1.154701" d="M 40 201.550781 L 40 41.449219 "/>
<path fill="none" stroke-width="1.1" stroke-linecap="butt" stroke-linejoin="miter" stroke="rgb(10.588235%, 16.470589%, 22.745098%)" stroke-opacity="1" stroke-miterlimit="1.154701" d="M 39.449219 42 L 584.550781 42 "/>
<path fill="none" stroke-width="1.1" stroke-linecap="butt" stroke-linejoin="miter" stroke="rgb(10.588235%, 16.470589%, 22.745098%)" stroke-opacity="1" stroke-miterlimit="1.154701" d="M 584 201.550781 L 584 41.449219 "/>
<path fill="none" stroke-width="1.1" stroke-linecap="butt" stroke-linejoin="miter" stroke="rgb(10.588235%, 16.470589%, 22.745098%)" stroke-opacity="1" stroke-miterlimit="1.154701" d="M 39.449219 419 L 584.550781 419 "/>
<path fill="none" stroke-width="1.1" stroke-linecap="butt" stroke-linejoin="miter" stroke="rgb(10.588235%, 16.470589%, 22.745098%)" stroke-opacity="1" stroke-miterlimit="1.154701" d="M 40 419.550781 L 40 259.449219 "/>
<path fill="none" stroke-width="1.1" stroke-linecap="butt" stroke-linejoin="miter" stroke="rgb(10.588235%, 16.470589%, 22.745098%)" stroke-opacity="1" stroke-miterlimit="1.154701" d="M 39.449219 260 L 584.550781 260 "/>
<path fill="none" stroke-width="1.1" stroke-linecap="butt" stroke-linejoin="miter" stroke="rgb(10.588235%, 16.470589%, 22.745098%)" stroke-opacity="1" stroke-miterlimit="1.154701" d="M 584 419.550781 L 584 259.449219 "/>
</svg>
