<?xml version="1.0" encoding="UTF-8"?>
<svg xmlns="http://www.w3.org/2000/svg" xmlns:xlink="http://www.w3.org/1999/xlink" width="600" height="450" viewBox="0 0 600 450">
<defs>
<g>
<g id="glyph-0-0-c64e37e1">
<path d="M 0.90625 -8.703125 L 3.578125 -8.703125 C 5.566406 -8.703125 6.5625 -7.863281 6.5625 -6.1875 C 6.5625 -5.5625 6.425781 -5.054688 6.15625 -4.671875 C 5.882812 -4.296875 5.53125 -4.023438 5.09375 -3.859375 C 4.65625 -3.703125 4.164062 -3.625 3.625 -3.625 L 2.15625 -3.625 L 2.15625 0 L 0.90625 0 Z M 3.171875 -4.703125 C 3.628906 -4.703125 4 -4.734375 4.28125 -4.796875 C 4.5625 -4.859375 4.785156 -4.992188 4.953125 -5.203125 C 5.128906 -5.421875 5.21875 -5.75 5.21875 -6.1875 C 5.21875 -6.75 5.0625 -7.128906 4.75 -7.328125 C 4.4375 -7.523438 4.007812 -7.625 3.46875 -7.625 L 2.15625 -7.625 L 2.15625 -4.703125 Z M 3.171875 -4.703125 "/>
</g>
<g id="glyph-0-1-c64e37e1">
<path d="M 2.046875 -3.609375 C 2.046875 -4.179688 2.03125 -4.59375 2 -4.84375 C 1.976562 -5.09375 1.941406 -5.359375 1.890625 -5.640625 L 0.75 -5.640625 L 0.75 -6.59375 L 2.859375 -6.59375 L 3.015625 -5.4375 C 3.203125 -5.894531 3.460938 -6.222656 3.796875 -6.421875 C 4.140625 -6.628906 4.492188 -6.734375 4.859375 -6.734375 C 5.140625 -6.734375 5.4375 -6.664062 5.75 -6.53125 C 6.070312 -6.394531 6.332031 -6.234375 6.53125 -6.046875 L 5.84375 -5.203125 C 5.726562 -5.316406 5.566406 -5.421875 5.359375 -5.515625 C 5.148438 -5.609375 4.910156 -5.65625 4.640625 -5.65625 C 4.179688 -5.65625 3.832031 -5.429688 3.59375 -4.984375 C 3.363281 -4.535156 3.25 -3.863281 3.25 -2.96875 L 3.25 0 L 2.03125 0 Z M 2.046875 -3.609375 "/>
</g>
<g id="glyph-0-2-c64e37e1">
<path d="M 3.8125 0.109375 C 3.257812 0.109375 2.753906 -0.0234375 2.296875 -0.296875 C 1.847656 -0.566406 1.488281 -0.957031 1.21875 -1.46875 C 0.945312 -1.976562 0.8125 -2.578125 0.8125 -3.265625 C 0.8125 -3.929688 0.9375 -4.523438 1.1875 -5.046875 C 1.4375 -5.578125 1.78125 -5.988281 2.21875 -6.28125 C 2.664062 -6.570312 3.164062 -6.71875 3.71875 -6.71875 C 4.582031 -6.71875 5.238281 -6.390625 5.6875 -5.734375 C 6.144531 -5.085938 6.375 -4.164062 6.375 -2.96875 L 2.046875 -2.96875 C 2.054688 -2.3125 2.21875 -1.8125 2.53125 -1.46875 C 2.84375 -1.132812 3.285156 -0.96875 3.859375 -0.96875 C 4.242188 -0.96875 4.609375 -1.03125 4.953125 -1.15625 C 5.296875 -1.28125 5.550781 -1.410156 5.71875 -1.546875 L 6.25 -0.671875 C 6.09375 -0.535156 5.882812 -0.40625 5.625 -0.28125 C 5.363281 -0.164062 5.070312 -0.0703125 4.75 0 C 4.4375 0.0703125 4.125 0.109375 3.8125 0.109375 Z M 5.25 -3.953125 C 5.25 -4.296875 5.179688 -4.597656 5.046875 -4.859375 C 4.910156 -5.117188 4.726562 -5.320312 4.5 -5.46875 C 4.269531 -5.613281 4.007812 -5.6875 3.71875 -5.6875 C 3.414062 -5.6875 3.140625 -5.613281 2.890625 -5.46875 C 2.648438 -5.320312 2.453125 -5.117188 2.296875 -4.859375 C 2.148438 -4.597656 2.078125 -4.296875 2.078125 -3.953125 Z M 5.25 -3.953125 "/>
</g>
<g id="glyph-0-3-c64e37e1">
<path d="M 3.625 0.0625 C 3.039062 0.0625 2.539062 -0.0351562 2.125 -0.234375 C 1.71875 -0.429688 1.347656 -0.726562 1.015625 -1.125 L 1.71875 -1.875 C 1.9375 -1.664062 2.132812 -1.5 2.3125 -1.375 C 2.488281 -1.25 2.6875 -1.148438 2.90625 -1.078125 C 3.132812 -1.003906 3.394531 -0.96875 3.6875 -0.96875 C 4.039062 -0.96875 4.359375 -1.035156 4.640625 -1.171875 C 4.921875 -1.316406 5.0625 -1.550781 5.0625 -1.875 C 5.0625 -2.050781 5.007812 -2.1875 4.90625 -2.28125 C 4.8125 -2.382812 4.6875 -2.460938 4.53125 -2.515625 C 4.375 -2.578125 4.140625 -2.644531 3.828125 -2.71875 C 3.660156 -2.757812 3.5 -2.800781 3.34375 -2.84375 C 2.875 -2.96875 2.488281 -3.097656 2.1875 -3.234375 C 1.894531 -3.378906 1.65625 -3.570312 1.46875 -3.8125 C 1.28125 -4.0625 1.1875 -4.378906 1.1875 -4.765625 C 1.1875 -5.179688 1.289062 -5.535156 1.5 -5.828125 C 1.71875 -6.117188 2.007812 -6.335938 2.375 -6.484375 C 2.738281 -6.640625 3.15625 -6.71875 3.625 -6.71875 C 4.582031 -6.71875 5.335938 -6.441406 5.890625 -5.890625 L 5.171875 -5.09375 C 4.734375 -5.457031 4.226562 -5.640625 3.65625 -5.640625 C 3.269531 -5.640625 2.953125 -5.5625 2.703125 -5.40625 C 2.460938 -5.257812 2.34375 -5.0625 2.34375 -4.8125 C 2.34375 -4.601562 2.425781 -4.425781 2.59375 -4.28125 C 2.757812 -4.144531 2.960938 -4.035156 3.203125 -3.953125 C 3.441406 -3.878906 3.75 -3.796875 4.125 -3.703125 L 4.34375 -3.640625 C 4.65625 -3.554688 4.9375 -3.457031 5.1875 -3.34375 C 5.4375 -3.238281 5.660156 -3.0625 5.859375 -2.8125 C 6.066406 -2.570312 6.171875 -2.253906 6.171875 -1.859375 C 6.171875 -1.398438 6.050781 -1.023438 5.8125 -0.734375 C 5.582031 -0.453125 5.273438 -0.25 4.890625 -0.125 C 4.515625 0 4.09375 0.0625 3.625 0.0625 Z M 3.625 0.0625 "/>
</g>
<g id="glyph-0-4-c64e37e1">
<path d="M 0.984375 -4.96875 C 0.984375 -5.226562 0.972656 -5.460938 0.953125 -5.671875 C 0.941406 -5.890625 0.921875 -6.195312 0.890625 -6.59375 L 2.03125 -6.59375 L 2.140625 -5.515625 C 2.367188 -5.898438 2.65625 -6.195312 3 -6.40625 C 3.351562 -6.613281 3.75 -6.71875 4.1875 -6.71875 C 4.863281 -6.71875 5.378906 -6.476562 5.734375 -6 C 6.097656 -5.53125 6.28125 -4.867188 6.28125 -4.015625 L 6.28125 0 L 5.0625 0 L 5.0625 -3.53125 C 5.0625 -4.175781 4.96875 -4.695312 4.78125 -5.09375 C 4.59375 -5.488281 4.242188 -5.6875 3.734375 -5.6875 C 3.359375 -5.6875 3.054688 -5.5625 2.828125 -5.3125 C 2.597656 -5.0625 2.429688 -4.742188 2.328125 -4.359375 C 2.234375 -3.972656 2.1875 -3.5625 2.1875 -3.125 L 2.1875 0 L 0.984375 0 Z M 0.984375 -4.96875 "/>
</g>
<g id="glyph-0-5-c64e37e1">
<path d="M 4.5625 0.078125 C 3.925781 0.078125 3.460938 -0.0507812 3.171875 -0.3125 C 2.878906 -0.582031 2.734375 -0.976562 2.734375 -1.5 L 2.734375 -5.609375 L 0.90625 -5.609375 L 0.90625 -6.59375 L 2.734375 -6.59375 L 2.734375 -8.796875 L 3.9375 -8.796875 L 3.9375 -6.59375 L 5.78125 -6.59375 L 5.78125 -5.609375 L 3.9375 -5.609375 L 3.9375 -1.984375 C 3.9375 -1.703125 3.96875 -1.488281 4.03125 -1.34375 C 4.101562 -1.195312 4.210938 -1.09375 4.359375 -1.03125 C 4.503906 -0.976562 4.710938 -0.953125 4.984375 -0.953125 C 5.117188 -0.953125 5.304688 -0.96875 5.546875 -1 C 5.796875 -1.039062 6.007812 -1.082031 6.1875 -1.125 L 6.1875 -0.109375 C 5.988281 -0.0546875 5.722656 -0.0117188 5.390625 0.015625 C 5.066406 0.0546875 4.789062 0.078125 4.5625 0.078125 Z M 4.5625 0.078125 "/>
</g>
<g id="glyph-0-6-c64e37e1">
</g>
<g id="glyph-0-7-c64e37e1">
<path d="M 0.53125 -8.703125 L 1.78125 -8.703125 L 3.609375 -1.59375 L 5.40625 -8.703125 L 6.65625 -8.703125 L 4.234375 0 L 2.921875 0 Z M 0.53125 -8.703125 "/>
</g>
<g id="glyph-0-8-c64e37e1">
<path d="M 2.859375 0.125 C 2.421875 0.125 2.039062 0.0429688 1.71875 -0.109375 C 1.40625 -0.265625 1.164062 -0.484375 1 -0.765625 C 0.832031 -1.046875 0.75 -1.382812 0.75 -1.78125 C 0.75 -2.625 1.078125 -3.203125 1.734375 -3.515625 C 2.398438 -3.828125 3.222656 -3.984375 4.203125 -3.984375 L 4.90625 -3.984375 L 4.90625 -4.296875 C 4.90625 -4.648438 4.8125 -4.972656 4.625 -5.265625 C 4.445312 -5.554688 4.085938 -5.703125 3.546875 -5.703125 C 3.296875 -5.703125 3.0625 -5.664062 2.84375 -5.59375 C 2.632812 -5.53125 2.453125 -5.453125 2.296875 -5.359375 C 2.140625 -5.273438 1.941406 -5.148438 1.703125 -4.984375 L 1.125 -5.796875 C 1.5 -6.066406 1.878906 -6.28125 2.265625 -6.4375 C 2.648438 -6.601562 3.117188 -6.6875 3.671875 -6.6875 C 4.628906 -6.6875 5.273438 -6.445312 5.609375 -5.96875 C 5.941406 -5.5 6.109375 -4.941406 6.109375 -4.296875 L 6.109375 -1.875 C 6.109375 -1.34375 6.144531 -0.71875 6.21875 0 L 5.015625 0 C 5.003906 -0.175781 4.988281 -0.398438 4.96875 -0.671875 L 4.96875 -0.875 C 4.757812 -0.53125 4.46875 -0.273438 4.09375 -0.109375 C 3.71875 0.0429688 3.304688 0.125 2.859375 0.125 Z M 3.15625 -0.796875 C 3.757812 -0.796875 4.203125 -1 4.484375 -1.40625 C 4.765625 -1.8125 4.90625 -2.363281 4.90625 -3.0625 L 4.453125 -3.078125 C 3.859375 -3.078125 3.378906 -3.035156 3.015625 -2.953125 C 2.648438 -2.867188 2.378906 -2.734375 2.203125 -2.546875 C 2.023438 -2.367188 1.9375 -2.132812 1.9375 -1.84375 C 1.9375 -1.476562 2.046875 -1.210938 2.265625 -1.046875 C 2.484375 -0.878906 2.78125 -0.796875 3.15625 -0.796875 Z M 3.15625 -0.796875 "/>
</g>
<g id="glyph-0-9-c64e37e1">
<path d="M 4.921875 0.140625 C 4.171875 0.140625 3.609375 -0.0390625 3.234375 -0.40625 C 2.867188 -0.769531 2.6875 -1.320312 2.6875 -2.0625 L 2.6875 -8.484375 L 0.625 -8.484375 L 0.625 -9.484375 L 3.890625 -9.484375 L 3.890625 -2.375 C 3.890625 -1.894531 3.988281 -1.539062 4.1875 -1.3125 C 4.394531 -1.09375 4.660156 -0.984375 4.984375 -0.984375 C 5.210938 -0.984375 5.414062 -1.035156 5.59375 -1.140625 C 5.769531 -1.253906 5.957031 -1.410156 6.15625 -1.609375 L 6.875 -0.78125 C 6.625 -0.519531 6.335938 -0.300781 6.015625 -0.125 C 5.691406 0.0507812 5.328125 0.140625 4.921875 0.140625 Z M 4.921875 0.140625 "/>
</g>
<g id="glyph-0-10-c64e37e1">
<path d="M 3.03125 0.09375 C 2.332031 0.09375 1.8125 -0.113281 1.46875 -0.53125 C 1.132812 -0.945312 0.96875 -1.539062 0.96875 -2.3125 L 0.96875 -6.59375 L 2.171875 -6.59375 L 2.171875 -2.609375 C 2.171875 -2.234375 2.195312 -1.921875 2.25 -1.671875 C 2.3125 -1.429688 2.429688 -1.234375 2.609375 -1.078125 C 2.785156 -0.929688 3.050781 -0.859375 3.40625 -0.859375 C 3.757812 -0.859375 4.050781 -0.953125 4.28125 -1.140625 C 4.519531 -1.328125 4.691406 -1.570312 4.796875 -1.875 C 4.910156 -2.1875 4.96875 -2.523438 4.96875 -2.890625 L 4.96875 -6.59375 L 6.1875 -6.59375 L 6.1875 -1.421875 C 6.1875 -1.171875 6.195312 -0.859375 6.21875 -0.484375 L 6.234375 0 L 5.0625 0 L 5.015625 -0.796875 C 4.785156 -0.472656 4.507812 -0.242188 4.1875 -0.109375 C 3.863281 0.0234375 3.476562 0.09375 3.03125 0.09375 Z M 3.03125 0.09375 "/>
</g>
<g id="glyph-1-0-c64e37e1">
<path d="M 3.28125 0.109375 C 2.832031 0.109375 2.421875 0.0273438 2.046875 -0.125 C 1.671875 -0.28125 1.375 -0.515625 1.15625 -0.828125 C 0.9375 -1.140625 0.828125 -1.535156 0.828125 -2.015625 L 1.9375 -2.015625 C 1.945312 -1.628906 2.070312 -1.335938 2.3125 -1.140625 C 2.5625 -0.941406 2.863281 -0.84375 3.21875 -0.84375 C 3.507812 -0.84375 3.765625 -0.921875 3.984375 -1.078125 C 4.203125 -1.234375 4.367188 -1.453125 4.484375 -1.734375 C 4.609375 -2.015625 4.671875 -2.328125 4.671875 -2.671875 C 4.671875 -2.992188 4.613281 -3.285156 4.5 -3.546875 C 4.394531 -3.804688 4.238281 -4.007812 4.03125 -4.15625 C 3.832031 -4.300781 3.597656 -4.375 3.328125 -4.375 C 3.003906 -4.375 2.722656 -4.28125 2.484375 -4.09375 C 2.253906 -3.90625 2.097656 -3.648438 2.015625 -3.328125 L 0.90625 -3.328125 L 1.484375 -7.96875 L 5.5625 -7.96875 L 5.5625 -7 L 2.453125 -7 L 2.109375 -4.5625 C 2.316406 -4.820312 2.535156 -5.019531 2.765625 -5.15625 C 3.003906 -5.289062 3.273438 -5.359375 3.578125 -5.359375 C 4.035156 -5.359375 4.429688 -5.238281 4.765625 -5 C 5.109375 -4.757812 5.367188 -4.4375 5.546875 -4.03125 C 5.722656 -3.625 5.8125 -3.164062 5.8125 -2.65625 C 5.8125 -2.113281 5.703125 -1.632812 5.484375 -1.21875 C 5.273438 -0.800781 4.976562 -0.472656 4.59375 -0.234375 C 4.21875 -0.00390625 3.78125 0.109375 3.28125 0.109375 Z M 3.28125 0.109375 "/>
</g>
<g id="glyph-1-1-c64e37e1">
<path d="M 3.296875 0.234375 C 2.960938 0.234375 2.703125 0.144531 2.515625 -0.03125 C 2.335938 -0.21875 2.25 -0.476562 2.25 -0.8125 C 2.25 -1.144531 2.335938 -1.398438 2.515625 -1.578125 C 2.703125 -1.765625 2.960938 -1.859375 3.296875 -1.859375 C 3.640625 -1.859375 3.898438 -1.765625 4.078125 -1.578125 C 4.253906 -1.398438 4.34375 -1.144531 4.34375 -0.8125 C 4.34375 -0.476562 4.25 -0.21875 4.0625 -0.03125 C 3.882812 0.144531 3.628906 0.234375 3.296875 0.234375 Z M 3.296875 0.234375 "/>
</g>
<g id="glyph-1-2-c64e37e1">
<path d="M 3.3125 0.109375 C 2.550781 0.109375 1.972656 -0.0507812 1.578125 -0.375 C 1.191406 -0.707031 0.9375 -1.160156 0.8125 -1.734375 C 0.6875 -2.304688 0.625 -3.066406 0.625 -4.015625 C 0.625 -4.941406 0.6875 -5.691406 0.8125 -6.265625 C 0.945312 -6.835938 1.207031 -7.28125 1.59375 -7.59375 C 1.976562 -7.914062 2.550781 -8.078125 3.3125 -8.078125 C 4.0625 -8.078125 4.628906 -7.921875 5.015625 -7.609375 C 5.410156 -7.296875 5.671875 -6.851562 5.796875 -6.28125 C 5.929688 -5.707031 6 -4.953125 6 -4.015625 C 6 -3.066406 5.929688 -2.304688 5.796875 -1.734375 C 5.671875 -1.160156 5.414062 -0.707031 5.03125 -0.375 C 4.644531 -0.0507812 4.070312 0.109375 3.3125 0.109375 Z M 2.59375 -4.015625 L 3.3125 -4.828125 L 4.015625 -4.015625 L 3.3125 -3.28125 Z M 3.3125 -0.8125 C 3.769531 -0.8125 4.113281 -0.929688 4.34375 -1.171875 C 4.582031 -1.421875 4.738281 -1.765625 4.8125 -2.203125 C 4.882812 -2.648438 4.921875 -3.253906 4.921875 -4.015625 C 4.921875 -4.742188 4.882812 -5.328125 4.8125 -5.765625 C 4.738281 -6.203125 4.585938 -6.539062 4.359375 -6.78125 C 4.128906 -7.03125 3.78125 -7.15625 3.3125 -7.15625 C 2.84375 -7.15625 2.488281 -7.03125 2.25 -6.78125 C 2.019531 -6.539062 1.867188 -6.203125 1.796875 -5.765625 C 1.734375 -5.328125 1.703125 -4.742188 1.703125 -4.015625 C 1.703125 -3.265625 1.738281 -2.664062 1.8125 -2.21875 C 1.882812 -1.769531 2.035156 -1.421875 2.265625 -1.171875 C 2.503906 -0.929688 2.851562 -0.8125 3.3125 -0.8125 Z M 3.3125 -0.8125 "/>
</g>
<g id="glyph-1-3-c64e37e1">
<path d="M 0.828125 -4.65625 C 1.054688 -5.019531 1.347656 -5.300781 1.703125 -5.5 L 3.328125 -3.65625 L 4.9375 -5.5 C 5.269531 -5.28125 5.554688 -5 5.796875 -4.65625 L 3.953125 -3.03125 L 5.71875 -1.3125 C 5.5 -1.007812 5.238281 -0.753906 4.9375 -0.546875 L 3.328125 -2.390625 L 1.703125 -0.546875 C 1.398438 -0.734375 1.128906 -0.988281 0.890625 -1.3125 L 2.671875 -3.03125 Z M 0.828125 -4.65625 "/>
</g>
<g id="glyph-1-4-c64e37e1">
<path d="M 1.015625 -0.9375 L 2.9375 -0.9375 L 2.9375 -6.390625 C 2.613281 -6.078125 2.265625 -5.789062 1.890625 -5.53125 C 1.515625 -5.28125 1.164062 -5.109375 0.84375 -5.015625 L 0.84375 -6.078125 C 1.226562 -6.234375 1.625 -6.492188 2.03125 -6.859375 C 2.4375 -7.234375 2.78125 -7.601562 3.0625 -7.96875 L 4 -7.96875 L 4 -0.9375 L 5.765625 -0.9375 L 5.765625 0 L 1.015625 0 Z M 1.015625 -0.9375 "/>
</g>
<g id="glyph-1-5-c64e37e1">
<path d="M 3.265625 -4.34375 C 2.628906 -4.34375 2.164062 -4.535156 1.875 -4.921875 C 1.59375 -5.304688 1.453125 -5.828125 1.453125 -6.484375 C 1.453125 -7.054688 1.523438 -7.566406 1.671875 -8.015625 C 1.816406 -8.472656 2.035156 -8.832031 2.328125 -9.09375 C 2.628906 -9.363281 2.992188 -9.5 3.421875 -9.5 C 3.722656 -9.5 4 -9.429688 4.25 -9.296875 C 4.5 -9.171875 4.722656 -9.003906 4.921875 -8.796875 L 4.421875 -8.1875 C 4.296875 -8.320312 4.148438 -8.425781 3.984375 -8.5 C 3.816406 -8.582031 3.644531 -8.625 3.46875 -8.625 C 3.113281 -8.625 2.851562 -8.488281 2.6875 -8.21875 C 2.519531 -7.945312 2.421875 -7.578125 2.390625 -7.109375 C 2.609375 -7.460938 2.953125 -7.640625 3.421875 -7.640625 C 3.722656 -7.640625 3.992188 -7.566406 4.234375 -7.421875 C 4.484375 -7.285156 4.675781 -7.09375 4.8125 -6.84375 C 4.945312 -6.59375 5.015625 -6.316406 5.015625 -6.015625 C 5.015625 -5.691406 4.9375 -5.398438 4.78125 -5.140625 C 4.632812 -4.890625 4.425781 -4.691406 4.15625 -4.546875 C 3.882812 -4.410156 3.585938 -4.34375 3.265625 -4.34375 Z M 3.25 -5.140625 C 3.519531 -5.140625 3.726562 -5.21875 3.875 -5.375 C 4.03125 -5.539062 4.109375 -5.753906 4.109375 -6.015625 C 4.109375 -6.273438 4.035156 -6.484375 3.890625 -6.640625 C 3.742188 -6.804688 3.539062 -6.890625 3.28125 -6.890625 C 3.019531 -6.890625 2.804688 -6.800781 2.640625 -6.625 C 2.484375 -6.457031 2.40625 -6.242188 2.40625 -5.984375 C 2.40625 -5.734375 2.476562 -5.53125 2.625 -5.375 C 2.78125 -5.21875 2.988281 -5.140625 3.25 -5.140625 Z M 3.25 -5.140625 "/>
</g>
<g id="glyph-1-6-c64e37e1">
<path d="M 3.765625 -8.46875 L 1.4375 -8.5 L 1.4375 -9.34375 L 4.828125 -9.34375 L 4.828125 -8.578125 L 3.15625 -4.40625 L 2.125 -4.40625 Z M 3.765625 -8.46875 "/>
</g>
<g id="glyph-1-7-c64e37e1">
<path d="M 1.25 -1.53125 C 1.894531 -2.101562 2.4375 -2.609375 2.875 -3.046875 C 3.3125 -3.492188 3.691406 -3.96875 4.015625 -4.46875 C 4.347656 -4.96875 4.515625 -5.429688 4.515625 -5.859375 C 4.515625 -6.109375 4.460938 -6.328125 4.359375 -6.515625 C 4.265625 -6.703125 4.125 -6.847656 3.9375 -6.953125 C 3.75 -7.054688 3.546875 -7.109375 3.328125 -7.109375 C 3.066406 -7.109375 2.835938 -7.050781 2.640625 -6.9375 C 2.441406 -6.820312 2.285156 -6.65625 2.171875 -6.4375 C 2.054688 -6.21875 2 -5.972656 2 -5.703125 L 0.875 -5.703125 C 0.882812 -6.222656 1 -6.660156 1.21875 -7.015625 C 1.4375 -7.367188 1.726562 -7.632812 2.09375 -7.8125 C 2.46875 -7.988281 2.890625 -8.078125 3.359375 -8.078125 C 3.785156 -8.078125 4.171875 -8 4.515625 -7.84375 C 4.867188 -7.695312 5.15625 -7.457031 5.375 -7.125 C 5.59375 -6.800781 5.703125 -6.398438 5.703125 -5.921875 C 5.703125 -5.429688 5.535156 -4.910156 5.203125 -4.359375 C 4.878906 -3.816406 4.5 -3.3125 4.0625 -2.84375 C 3.632812 -2.382812 3.109375 -1.859375 2.484375 -1.265625 L 2.09375 -0.890625 L 5.78125 -0.890625 L 5.78125 0.046875 L 0.796875 0.046875 L 0.796875 -1.140625 Z M 1.25 -1.53125 "/>
</g>
<g id="glyph-1-8-c64e37e1">
<path d="M 1.828125 -2.234375 C 1.828125 -1.929688 1.894531 -1.671875 2.03125 -1.453125 C 2.175781 -1.242188 2.359375 -1.082031 2.578125 -0.96875 C 2.796875 -0.851562 3.019531 -0.796875 3.25 -0.796875 C 3.5 -0.796875 3.738281 -0.851562 3.96875 -0.96875 C 4.207031 -1.082031 4.394531 -1.25 4.53125 -1.46875 C 4.675781 -1.6875 4.75 -1.941406 4.75 -2.234375 C 4.75 -2.617188 4.648438 -2.945312 4.453125 -3.21875 C 4.265625 -3.5 3.984375 -3.71875 3.609375 -3.875 C 3.242188 -4.03125 2.8125 -4.109375 2.3125 -4.109375 L 2.3125 -5 L 4.515625 -7.046875 L 0.953125 -7.046875 L 0.953125 -7.96875 L 5.796875 -7.96875 L 5.796875 -6.828125 L 3.703125 -4.796875 C 4.203125 -4.710938 4.613281 -4.546875 4.9375 -4.296875 C 5.269531 -4.046875 5.515625 -3.742188 5.671875 -3.390625 C 5.828125 -3.035156 5.90625 -2.648438 5.90625 -2.234375 C 5.90625 -1.742188 5.773438 -1.316406 5.515625 -0.953125 C 5.265625 -0.597656 4.929688 -0.332031 4.515625 -0.15625 C 4.109375 0.0195312 3.6875 0.109375 3.25 0.109375 C 2.800781 0.109375 2.382812 0.0234375 2 -0.140625 C 1.613281 -0.304688 1.300781 -0.566406 1.0625 -0.921875 C 0.820312 -1.273438 0.703125 -1.710938 0.703125 -2.234375 Z M 1.828125 -2.234375 "/>
</g>
<g id="glyph-1-9-c64e37e1">
<path d="M 3.828125 -1.6875 L 0.453125 -1.6875 L 0.453125 -2.765625 L 3.53125 -7.96875 L 4.90625 -7.96875 L 4.90625 -2.625 L 6.046875 -2.625 L 6.046875 -1.6875 L 4.90625 -1.6875 L 4.90625 0 L 3.828125 0 Z M 3.828125 -2.625 L 3.828125 -6.65625 L 1.546875 -2.625 Z M 3.828125 -2.625 "/>
</g>
<g id="glyph-1-10-c64e37e1">
<path d="M 3.40625 0.125 C 2.414062 0.125 1.71875 -0.234375 1.3125 -0.953125 C 0.914062 -1.679688 0.71875 -2.648438 0.71875 -3.859375 C 0.71875 -4.628906 0.800781 -5.332031 0.96875 -5.96875 C 1.144531 -6.601562 1.4375 -7.113281 1.84375 -7.5 C 2.25 -7.882812 2.78125 -8.078125 3.4375 -8.078125 C 3.851562 -8.078125 4.222656 -8.003906 4.546875 -7.859375 C 4.867188 -7.710938 5.132812 -7.519531 5.34375 -7.28125 L 4.625 -6.640625 C 4.5 -6.796875 4.335938 -6.914062 4.140625 -7 C 3.941406 -7.09375 3.707031 -7.140625 3.4375 -7.140625 C 2.8125 -7.140625 2.390625 -6.832031 2.171875 -6.21875 C 1.953125 -5.601562 1.835938 -4.847656 1.828125 -3.953125 C 2.210938 -4.796875 2.800781 -5.21875 3.59375 -5.21875 C 4.039062 -5.21875 4.4375 -5.09375 4.78125 -4.84375 C 5.132812 -4.601562 5.40625 -4.273438 5.59375 -3.859375 C 5.789062 -3.441406 5.890625 -2.988281 5.890625 -2.5 C 5.890625 -1.988281 5.785156 -1.535156 5.578125 -1.140625 C 5.367188 -0.742188 5.078125 -0.429688 4.703125 -0.203125 C 4.328125 0.0117188 3.894531 0.125 3.40625 0.125 Z M 3.390625 -0.828125 C 3.835938 -0.828125 4.179688 -0.972656 4.421875 -1.265625 C 4.660156 -1.566406 4.78125 -1.960938 4.78125 -2.453125 C 4.78125 -2.773438 4.726562 -3.066406 4.625 -3.328125 C 4.53125 -3.597656 4.378906 -3.8125 4.171875 -3.96875 C 3.972656 -4.125 3.726562 -4.203125 3.4375 -4.203125 C 3.132812 -4.203125 2.867188 -4.125 2.640625 -3.96875 C 2.421875 -3.8125 2.253906 -3.597656 2.140625 -3.328125 C 2.023438 -3.054688 1.96875 -2.757812 1.96875 -2.4375 C 1.96875 -2.125 2.023438 -1.84375 2.140625 -1.59375 C 2.253906 -1.351562 2.414062 -1.164062 2.625 -1.03125 C 2.84375 -0.894531 3.097656 -0.828125 3.390625 -0.828125 Z M 3.390625 -0.828125 "/>
</g>
<g id="glyph-2-0-c64e37e1">
<path d="M 1.015625 -0.9375 L 2.9375 -0.9375 L 2.9375 -6.390625 C 2.613281 -6.078125 2.265625 -5.789062 1.890625 -5.53125 C 1.515625 -5.28125 1.164062 -5.109375 0.84375 -5.015625 L 0.84375 -6.078125 C 1.226562 -6.234375 1.625 -6.492188 2.03125 -6.859375 C 2.4375 -7.234375 2.78125 -7.601562 3.0625 -7.96875 L 4 -7.96875 L 4 -0.9375 L 5.765625 -0.9375 L 5.765625 0 L 1.015625 0 Z M 1.015625 -0.9375 "/>
</g>
<g id="glyph-3-0-c64e37e1">
<path d="M -3.421875 -1.796875 L -5.3125 -2.15625 L -5.3125 -0.953125 L -6.234375 -1.140625 L -6.234375 -2.328125 L -8.703125 -2.8125 L -8.703125 -3.828125 L -6.234375 -3.34375 L -6.234375 -4.609375 L -8.703125 -5.078125 L -8.703125 -6.09375 L -6.234375 -5.609375 L -6.234375 -6.734375 L -5.3125 -6.515625 L -5.3125 -5.4375 L -3.421875 -5.0625 L -3.421875 -6.1875 L -2.515625 -6.015625 L -2.515625 -4.890625 L 0 -4.40625 L 0 -3.40625 L -2.515625 -3.890625 L -2.515625 -2.625 L 0 -2.140625 L 0 -1.140625 L -2.515625 -1.625 L -2.515625 -0.46875 L -3.421875 -0.640625 Z M -3.421875 -4.0625 L -5.3125 -4.421875 L -5.3125 -3.171875 L -3.421875 -2.796875 Z M -3.421875 -4.0625 "/>
</g>
<g id="glyph-3-1-c64e37e1">
<path d="M 0.0625 -3.625 C 0.0625 -3.039062 -0.0351562 -2.539062 -0.234375 -2.125 C -0.429688 -1.71875 -0.726562 -1.347656 -1.125 -1.015625 L -1.875 -1.71875 C -1.664062 -1.9375 -1.5 -2.132812 -1.375 -2.3125 C -1.25 -2.488281 -1.148438 -2.6875 -1.078125 -2.90625 C -1.003906 -3.132812 -0.96875 -3.394531 -0.96875 -3.6875 C -0.96875 -4.039062 -1.035156 -4.359375 -1.171875 -4.640625 C -1.316406 -4.921875 -1.550781 -5.0625 -1.875 -5.0625 C -2.050781 -5.0625 -2.1875 -5.007812 -2.28125 -4.90625 C -2.382812 -4.8125 -2.460938 -4.6875 -2.515625 -4.53125 C -2.578125 -4.375 -2.644531 -4.140625 -2.71875 -3.828125 C -2.757812 -3.660156 -2.800781 -3.5 -2.84375 -3.34375 C -2.96875 -2.875 -3.097656 -2.488281 -3.234375 -2.1875 C -3.378906 -1.894531 -3.570312 -1.65625 -3.8125 -1.46875 C -4.0625 -1.28125 -4.378906 -1.1875 -4.765625 -1.1875 C -5.179688 -1.1875 -5.535156 -1.289062 -5.828125 -1.5 C -6.117188 -1.71875 -6.335938 -2.007812 -6.484375 -2.375 C -6.640625 -2.738281 -6.71875 -3.15625 -6.71875 -3.625 C -6.71875 -4.582031 -6.441406 -5.335938 -5.890625 -5.890625 L -5.09375 -5.171875 C -5.457031 -4.734375 -5.640625 -4.226562 -5.640625 -3.65625 C -5.640625 -3.269531 -5.5625 -2.953125 -5.40625 -2.703125 C -5.257812 -2.460938 -5.0625 -2.34375 -4.8125 -2.34375 C -4.601562 -2.34375 -4.425781 -2.425781 -4.28125 -2.59375 C -4.144531 -2.757812 -4.035156 -2.960938 -3.953125 -3.203125 C -3.878906 -3.441406 -3.796875 -3.75 -3.703125 -4.125 L -3.640625 -4.34375 C -3.554688 -4.65625 -3.457031 -4.9375 -3.34375 -5.1875 C -3.238281 -5.4375 -3.0625 -5.660156 -2.8125 -5.859375 C -2.570312 -6.066406 -2.253906 -6.171875 -1.859375 -6.171875 C -1.398438 -6.171875 -1.023438 -6.050781 -0.734375 -5.8125 C -0.453125 -5.582031 -0.25 -5.273438 -0.125 -4.890625 C 0 -4.515625 0.0625 -4.09375 0.0625 -3.625 Z M 0.0625 -3.625 "/>
</g>
<g id="glyph-3-2-c64e37e1">
<path d="M -4.96875 -0.984375 C -5.226562 -0.984375 -5.460938 -0.972656 -5.671875 -0.953125 C -5.890625 -0.941406 -6.195312 -0.921875 -6.59375 -0.890625 L -6.59375 -2.03125 L -5.515625 -2.140625 C -5.898438 -2.367188 -6.195312 -2.65625 -6.40625 -3 C -6.613281 -3.351562 -6.71875 -3.75 -6.71875 -4.1875 C -6.71875 -4.863281 -6.476562 -5.378906 -6 -5.734375 C -5.53125 -6.097656 -4.867188 -6.28125 -4.015625 -6.28125 L 0 -6.28125 L 0 -5.0625 L -3.53125 -5.0625 C -4.175781 -5.0625 -4.695312 -4.96875 -5.09375 -4.78125 C -5.488281 -4.59375 -5.6875 -4.242188 -5.6875 -3.734375 C -5.6875 -3.359375 -5.5625 -3.054688 -5.3125 -2.828125 C -5.0625 -2.597656 -4.742188 -2.429688 -4.359375 -2.328125 C -3.972656 -2.234375 -3.5625 -2.1875 -3.125 -2.1875 L 0 -2.1875 L 0 -0.984375 Z M -4.96875 -0.984375 "/>
</g>
<g id="glyph-3-3-c64e37e1">
<path d="M -6.59375 -1.21875 L -6.59375 -4.296875 L -0.96875 -4.296875 L -0.96875 -6.125 L 0 -6.125 L 0 -1.109375 L -0.96875 -1.109375 L -0.96875 -3.078125 L -5.671875 -3.078125 L -5.671875 -1.21875 Z M -7.796875 -3.5625 C -7.796875 -3.25 -7.863281 -3.023438 -8 -2.890625 C -8.132812 -2.753906 -8.351562 -2.6875 -8.65625 -2.6875 C -8.976562 -2.6875 -9.203125 -2.753906 -9.328125 -2.890625 C -9.460938 -3.023438 -9.53125 -3.25 -9.53125 -3.5625 C -9.53125 -3.875 -9.460938 -4.09375 -9.328125 -4.21875 C -9.203125 -4.351562 -8.976562 -4.421875 -8.65625 -4.421875 C -8.351562 -4.421875 -8.132812 -4.351562 -8 -4.21875 C -7.863281 -4.09375 -7.796875 -3.875 -7.796875 -3.5625 Z M -7.796875 -3.5625 "/>
</g>
<g id="glyph-4-0-c64e37e1">
</g>
<g id="glyph-4-1-c64e37e1">
<path d="M 0.109375 -3.8125 C 0.109375 -3.257812 -0.0234375 -2.753906 -0.296875 -2.296875 C -0.566406 -1.847656 -0.957031 -1.488281 -1.46875 -1.21875 C -1.976562 -0.945312 -2.578125 -0.8125 -3.265625 -0.8125 C -3.929688 -0.8125 -4.523438 -0.9375 -5.046875 -1.1875 C -5.578125 -1.4375 -5.988281 -1.78125 -6.28125 -2.21875 C -6.570312 -2.664062 -6.71875 -3.164062 -6.71875 -3.71875 C -6.71875 -4.582031 -6.390625 -5.238281 -5.734375 -5.6875 C -5.085938 -6.144531 -4.164062 -6.375 -2.96875 -6.375 L -2.96875 -2.046875 C -2.3125 -2.054688 -1.8125 -2.21875 -1.46875 -2.53125 C -1.132812 -2.84375 -0.96875 -3.285156 -0.96875 -3.859375 C -0.96875 -4.242188 -1.03125 -4.609375 -1.15625 -4.953125 C -1.28125 -5.296875 -1.410156 -5.550781 -1.546875 -5.71875 L -0.671875 -6.25 C -0.535156 -6.09375 -0.40625 -5.882812 -0.28125 -5.625 C -0.164062 -5.363281 -0.0703125 -5.070312 0 -4.75 C 0.0703125 -4.4375 0.109375 -4.125 0.109375 -3.8125 Z M -3.953125 -5.25 C -4.296875 -5.25 -4.597656 -5.179688 -4.859375 -5.046875 C -5.117188 -4.910156 -5.320312 -4.726562 -5.46875 -4.5 C -5.613281 -4.269531 -5.6875 -4.007812 -5.6875 -3.71875 C -5.6875 -3.414062 -5.613281 -3.140625 -5.46875 -2.890625 C -5.320312 -2.648438 -5.117188 -2.453125 -4.859375 -2.296875 C -4.597656 -2.148438 -4.296875 -2.078125 -3.953125 -2.078125 Z M -3.953125 -5.25 "/>
</g>
<g id="glyph-5-0-c64e37e1">
<path d="M 0.078125 -3.921875 C 0.078125 -3.304688 -0.0507812 -2.757812 -0.3125 -2.28125 C -0.582031 -1.8125 -0.972656 -1.441406 -1.484375 -1.171875 C -1.992188 -0.910156 -2.597656 -0.78125 -3.296875 -0.78125 C -3.972656 -0.78125 -4.566406 -0.914062 -5.078125 -1.1875 C -5.597656 -1.457031 -5.992188 -1.835938 -6.265625 -2.328125 C -6.546875 -2.816406 -6.6875 -3.378906 -6.6875 -4.015625 C -6.6875 -4.523438 -6.585938 -4.960938 -6.390625 -5.328125 C -6.191406 -5.703125 -5.941406 -6.003906 -5.640625 -6.234375 L -4.890625 -5.46875 C -5.109375 -5.25 -5.28125 -5.03125 -5.40625 -4.8125 C -5.539062 -4.601562 -5.609375 -4.34375 -5.609375 -4.03125 C -5.609375 -3.644531 -5.507812 -3.296875 -5.3125 -2.984375 C -5.125 -2.679688 -4.859375 -2.441406 -4.515625 -2.265625 C -4.171875 -2.097656 -3.773438 -2.015625 -3.328125 -2.015625 C -2.867188 -2.015625 -2.460938 -2.097656 -2.109375 -2.265625 C -1.765625 -2.441406 -1.492188 -2.675781 -1.296875 -2.96875 C -1.109375 -3.269531 -1.015625 -3.597656 -1.015625 -3.953125 C -1.015625 -4.265625 -1.09375 -4.550781 -1.25 -4.8125 C -1.414062 -5.082031 -1.617188 -5.332031 -1.859375 -5.5625 L -1.109375 -6.3125 C -0.753906 -6.019531 -0.46875 -5.6875 -0.25 -5.3125 C -0.03125 -4.9375 0.078125 -4.472656 0.078125 -3.921875 Z M 0.078125 -3.921875 "/>
</g>
<g id="glyph-6-0-c64e37e1">
<path d="M 0.125 -2.859375 C 0.125 -2.421875 0.0429688 -2.039062 -0.109375 -1.71875 C -0.265625 -1.40625 -0.484375 -1.164062 -0.765625 -1 C -1.046875 -0.832031 -1.382812 -0.75 -1.78125 -0.75 C -2.625 -0.75 -3.203125 -1.078125 -3.515625 -1.734375 C -3.828125 -2.398438 -3.984375 -3.222656 -3.984375 -4.203125 L -3.984375 -4.90625 L -4.296875 -4.90625 C -4.648438 -4.90625 -4.972656 -4.8125 -5.265625 -4.625 C -5.554688 -4.445312 -5.703125 -4.085938 -5.703125 -3.546875 C -5.703125 -3.296875 -5.664062 -3.0625 -5.59375 -2.84375 C -5.53125 -2.632812 -5.453125 -2.453125 -5.359375 -2.296875 C -5.273438 -2.140625 -5.148438 -1.941406 -4.984375 -1.703125 L -5.796875 -1.125 C -6.066406 -1.5 -6.28125 -1.878906 -6.4375 -2.265625 C -6.601562 -2.648438 -6.6875 -3.117188 -6.6875 -3.671875 C -6.6875 -4.628906 -6.445312 -5.273438 -5.96875 -5.609375 C -5.5 -5.941406 -4.941406 -6.109375 -4.296875 -6.109375 L -1.875 -6.109375 C -1.34375 -6.109375 -0.71875 -6.144531 0 -6.21875 L 0 -5.015625 C -0.175781 -5.003906 -0.398438 -4.988281 -0.671875 -4.96875 L -0.875 -4.96875 C -0.53125 -4.757812 -0.273438 -4.46875 -0.109375 -4.09375 C 0.0429688 -3.71875 0.125 -3.304688 0.125 -2.859375 Z M -0.796875 -3.15625 C -0.796875 -3.757812 -1 -4.203125 -1.40625 -4.484375 C -1.8125 -4.765625 -2.363281 -4.90625 -3.0625 -4.90625 L -3.078125 -4.453125 C -3.078125 -3.859375 -3.035156 -3.378906 -2.953125 -3.015625 C -2.867188 -2.648438 -2.734375 -2.378906 -2.546875 -2.203125 C -2.367188 -2.023438 -2.132812 -1.9375 -1.84375 -1.9375 C -1.476562 -1.9375 -1.210938 -2.046875 -1.046875 -2.265625 C -0.878906 -2.484375 -0.796875 -2.78125 -0.796875 -3.15625 Z M -0.796875 -3.15625 "/>
</g>
<g id="glyph-6-1-c64e37e1">
<path d="M 0.09375 -3.59375 C 0.09375 -3.019531 -0.0390625 -2.519531 -0.3125 -2.09375 C -0.59375 -1.675781 -0.988281 -1.351562 -1.5 -1.125 C -2.007812 -0.90625 -2.609375 -0.796875 -3.296875 -0.796875 C -3.992188 -0.796875 -4.597656 -0.910156 -5.109375 -1.140625 C -5.628906 -1.367188 -6.023438 -1.691406 -6.296875 -2.109375 C -6.578125 -2.535156 -6.71875 -3.035156 -6.71875 -3.609375 C -6.71875 -4.179688 -6.578125 -4.675781 -6.296875 -5.09375 C -6.023438 -5.507812 -5.628906 -5.832031 -5.109375 -6.0625 C -4.597656 -6.289062 -3.992188 -6.40625 -3.296875 -6.40625 C -2.609375 -6.40625 -2.007812 -6.289062 -1.5 -6.0625 C -0.988281 -5.84375 -0.59375 -5.519531 -0.3125 -5.09375 C -0.0390625 -4.675781 0.09375 -4.175781 0.09375 -3.59375 Z M -0.953125 -3.578125 C -0.953125 -3.898438 -1.046875 -4.179688 -1.234375 -4.421875 C -1.421875 -4.660156 -1.691406 -4.84375 -2.046875 -4.96875 C -2.398438 -5.09375 -2.816406 -5.15625 -3.296875 -5.15625 C -3.773438 -5.15625 -4.191406 -5.09375 -4.546875 -4.96875 C -4.910156 -4.84375 -5.1875 -4.660156 -5.375 -4.421875 C -5.570312 -4.179688 -5.671875 -3.898438 -5.671875 -3.578125 C -5.671875 -3.265625 -5.570312 -2.988281 -5.375 -2.75 C -5.1875 -2.519531 -4.910156 -2.34375 -4.546875 -2.21875 C -4.191406 -2.101562 -3.773438 -2.046875 -3.296875 -2.046875 C -2.804688 -2.046875 -2.382812 -2.101562 -2.03125 -2.21875 C -1.6875 -2.34375 -1.421875 -2.519531 -1.234375 -2.75 C -1.046875 -2.988281 -0.953125 -3.265625 -0.953125 -3.578125 Z M -0.953125 -3.578125 "/>
</g>
<g id="glyph-7-0-c64e37e1">
<path d="M -3.609375 -2.046875 C -4.179688 -2.046875 -4.59375 -2.03125 -4.84375 -2 C -5.09375 -1.976562 -5.359375 -1.941406 -5.640625 -1.890625 L -5.640625 -0.75 L -6.59375 -0.75 L -6.59375 -2.859375 L -5.4375 -3.015625 C -5.894531 -3.203125 -6.222656 -3.460938 -6.421875 -3.796875 C -6.628906 -4.140625 -6.734375 -4.492188 -6.734375 -4.859375 C -6.734375 -5.140625 -6.664062 -5.4375 -6.53125 -5.75 C -6.394531 -6.070312 -6.234375 -6.332031 -6.046875 -6.53125 L -5.203125 -5.84375 C -5.316406 -5.726562 -5.421875 -5.566406 -5.515625 -5.359375 C -5.609375 -5.148438 -5.65625 -4.910156 -5.65625 -4.640625 C -5.65625 -4.179688 -5.429688 -3.832031 -4.984375 -3.59375 C -4.535156 -3.363281 -3.863281 -3.25 -2.96875 -3.25 L 0 -3.25 L 0 -2.03125 Z M -3.609375 -2.046875 "/>
</g>
<g id="glyph-7-1-c64e37e1">
<path d="M 0.0625 -3.625 C 0.0625 -3.039062 -0.0351562 -2.539062 -0.234375 -2.125 C -0.429688 -1.71875 -0.726562 -1.347656 -1.125 -1.015625 L -1.875 -1.71875 C -1.664062 -1.9375 -1.5 -2.132812 -1.375 -2.3125 C -1.25 -2.488281 -1.148438 -2.6875 -1.078125 -2.90625 C -1.003906 -3.132812 -0.96875 -3.394531 -0.96875 -3.6875 C -0.96875 -4.039062 -1.035156 -4.359375 -1.171875 -4.640625 C -1.316406 -4.921875 -1.550781 -5.0625 -1.875 -5.0625 C -2.050781 -5.0625 -2.1875 -5.007812 -2.28125 -4.90625 C -2.382812 -4.8125 -2.460938 -4.6875 -2.515625 -4.53125 C -2.578125 -4.375 -2.644531 -4.140625 -2.71875 -3.828125 C -2.757812 -3.660156 -2.800781 -3.5 -2.84375 -3.34375 C -2.96875 -2.875 -3.097656 -2.488281 -3.234375 -2.1875 C -3.378906 -1.894531 -3.570312 -1.65625 -3.8125 -1.46875 C -4.0625 -1.28125 -4.378906 -1.1875 -4.765625 -1.1875 C -5.179688 -1.1875 -5.535156 -1.289062 -5.828125 -1.5 C -6.117188 -1.71875 -6.335938 -2.007812 -6.484375 -2.375 C -6.640625 -2.738281 -6.71875 -3.15625 -6.71875 -3.625 C -6.71875 -4.582031 -6.441406 -5.335938 -5.890625 -5.890625 L -5.09375 -5.171875 C -5.457031 -4.734375 -5.640625 -4.226562 -5.640625 -3.65625 C -5.640625 -3.269531 -5.5625 -2.953125 -5.40625 -2.703125 C -5.257812 -2.460938 -5.0625 -2.34375 -4.8125 -2.34375 C -4.601562 -2.34375 -4.425781 -2.425781 -4.28125 -2.59375 C -4.144531 -2.757812 -4.035156 -2.960938 -3.953125 -3.203125 C -3.878906 -3.441406 -3.796875 -3.75 -3.703125 -4.125 L -3.640625 -4.34375 C -3.554688 -4.65625 -3.457031 -4.9375 -3.34375 -5.1875 C -3.238281 -5.4375 -3.0625 -5.660156 -2.8125 -5.859375 C -2.570312 -6.066406 -2.253906 -6.171875 -1.859375 -6.171875 C -1.398438 -6.171875 -1.023438 -6.050781 -0.734375 -5.8125 C -0.453125 -5.582031 -0.25 -5.273438 -0.125 -4.890625 C 0 -4.515625 0.0625 -4.09375 0.0625 -3.625 Z M 0.0625 -3.625 "/>
</g>
</g>
</defs>
<rect x="-60" y="-45" width="720" height="540" fill="rgb(94.117647%, 92.941177%, 89.019608%)" fill-opacity="1"/>
<path fill-rule="nonzero" fill="rgb(94.117647%, 92.941177%, 89.019608%)" fill-opacity="1" d="M 47 399 L 584 399 L 584 16 L 47 16 Z M 47 399 "/>
<path fill="none" stroke-width="1" stroke-linecap="butt" stroke-linejoin="miter" stroke="rgb(71.372551%, 67.843139%, 56.470591%)" stroke-opacity="0.3" stroke-miterlimit="1.154701" d="M 149.878906 399 L 149.878906 16 "/>
<path fill="none" stroke-width="1" stroke-linecap="butt" stroke-linejoin="miter" stroke="rgb(71.372551%, 67.843139%, 56.470591%)" stroke-opacity="0.3" stroke-miterlimit="1.154701" d="M 274.839844 399 L 274.839844 16 "/>
<path fill="none" stroke-width="1" stroke-linecap="butt" stroke-linejoin="miter" stroke="rgb(71.372551%, 67.843139%, 56.470591%)" stroke-opacity="0.3" stroke-miterlimit="1.154701" d="M 399.804688 399 L 399.804688 16 "/>
<path fill="none" stroke-width="1" stroke-linecap="butt" stroke-linejoin="miter" stroke="rgb(71.372551%, 67.843139%, 56.470591%)" stroke-opacity="0.3" stroke-miterlimit="1.154701" d="M 524.765625 399 L 524.765625 16 "/>
<path fill="none" stroke-width="1" stroke-linecap="butt" stroke-linejoin="miter" stroke="rgb(71.372551%, 67.843139%, 56.470591%)" stroke-opacity="0.12" stroke-miterlimit="1.154701" d="M 87.398438 399 L 87.398438 16 "/>
<path fill="none" stroke-width="1" stroke-linecap="butt" stroke-linejoin="miter" stroke="rgb(71.372551%, 67.843139%, 56.470591%)" stroke-opacity="0.12" stroke-miterlimit="1.154701" d="M 212.359375 399 L 212.359375 16 "/>
<path fill="none" stroke-width="1" stroke-linecap="butt" stroke-linejoin="miter" stroke="rgb(71.372551%, 67.843139%, 56.470591%)" stroke-opacity="0.12" stroke-miterlimit="1.154701" d="M 337.324219 399 L 337.324219 16 "/>
<path fill="none" stroke-width="1" stroke-linecap="butt" stroke-linejoin="miter" stroke="rgb(71.372551%, 67.843139%, 56.470591%)" stroke-opacity="0.12" stroke-miterlimit="1.154701" d="M 462.285156 399 L 462.285156 16 "/>
<path fill="none" stroke-width="1" stroke-linecap="butt" stroke-linejoin="miter" stroke="rgb(71.372551%, 67.843139%, 56.470591%)" stroke-opacity="0.3" stroke-miterlimit="1.154701" d="M 47 381.589844 L 584 381.589844 "/>
<path fill="none" stroke-width="1" stroke-linecap="butt" stroke-linejoin="miter" stroke="rgb(71.372551%, 67.843139%, 56.470591%)" stroke-opacity="0.3" stroke-miterlimit="1.154701" d="M 47 323.5625 L 584 323.5625 "/>
<path fill="none" stroke-width="1" stroke-linecap="butt" stroke-linejoin="miter" stroke="rgb(71.372551%, 67.843139%, 56.470591%)" stroke-opacity="0.3" stroke-miterlimit="1.154701" d="M 47 265.53125 L 584 265.53125 "/>
<path fill="none" stroke-width="1" stroke-linecap="butt" stroke-linejoin="miter" stroke="rgb(71.372551%, 67.843139%, 56.470591%)" stroke-opacity="0.3" stroke-miterlimit="1.154701" d="M 47 207.5 L 584 207.5 "/>
<path fill="none" stroke-width="1" stroke-linecap="butt" stroke-linejoin="miter" stroke="rgb(71.372551%, 67.843139%, 56.470591%)" stroke-opacity="0.3" stroke-miterlimit="1.154701" d="M 47 149.46875 L 584 149.46875 "/>
<path fill="none" stroke-width="1" stroke-linecap="butt" stroke-linejoin="miter" stroke="rgb(71.372551%, 67.843139%, 56.470591%)" stroke-opacity="0.3" stroke-miterlimit="1.154701" d="M 47 91.4375 L 584 91.4375 "/>
<path fill="none" stroke-width="1" stroke-linecap="butt" stroke-linejoin="miter" stroke="rgb(71.372551%, 67.843139%, 56.470591%)" stroke-opacity="0.3" stroke-miterlimit="1.154701" d="M 47 33.410156 L 584 33.410156 "/>
<path fill="none" stroke-width="1" stroke-linecap="butt" stroke-linejoin="miter" stroke="rgb(71.372551%, 67.843139%, 56.470591%)" stroke-opacity="0.12" stroke-miterlimit="1.154701" d="M 47 352.574219 L 584 352.574219 "/>
<path fill="none" stroke-width="1" stroke-linecap="butt" stroke-linejoin="miter" stroke="rgb(71.372551%, 67.843139%, 56.470591%)" stroke-opacity="0.12" stroke-miterlimit="1.154701" d="M 47 294.546875 L 584 294.546875 "/>
<path fill="none" stroke-width="1" stroke-linecap="butt" stroke-linejoin="miter" stroke="rgb(71.372551%, 67.843139%, 56.470591%)" stroke-opacity="0.12" stroke-miterlimit="1.154701" d="M 47 236.515625 L 584 236.515625 "/>
<path fill="none" stroke-width="1" stroke-linecap="butt" stroke-linejoin="miter" stroke="rgb(71.372551%, 67.843139%, 56.470591%)" stroke-opacity="0.12" stroke-miterlimit="1.154701" d="M 47 178.484375 L 584 178.484375 "/>
<path fill="none" stroke-width="1" stroke-linecap="butt" stroke-linejoin="miter" stroke="rgb(71.372551%, 67.843139%, 56.470591%)" stroke-opacity="0.12" stroke-miterlimit="1.154701" d="M 47 120.453125 L 584 120.453125 "/>
<path fill="none" stroke-width="1" stroke-linecap="butt" stroke-linejoin="miter" stroke="rgb(71.372551%, 67.843139%, 56.470591%)" stroke-opacity="0.12" stroke-miterlimit="1.154701" d="M 47 62.425781 L 584 62.425781 "/>
<g fill="rgb(10.588235%, 16.470589%, 22.745098%)" fill-opacity="1">
<use xlink:href="#glyph-0-0-c64e37e1" x="268.700011" y="432.424999"/>
<use xlink:href="#glyph-0-1-c64e37e1" x="275.900012" y="432.424999"/>
<use xlink:href="#glyph-0-2-c64e37e1" x="283.100013" y="432.424999"/>
<use xlink:href="#glyph-0-3-c64e37e1" x="290.300012" y="432.424999"/>
<use xlink:href="#glyph-0-2-c64e37e1" x="297.500013" y="432.424999"/>
<use xlink:href="#glyph-0-4-c64e37e1" x="304.700012" y="432.424999"/>
<use xlink:href="#glyph-0-5-c64e37e1" x="311.900013" y="432.424999"/>
<use xlink:href="#glyph-0-6-c64e37e1" x="319.100014" y="432.424999"/>
<use xlink:href="#glyph-0-7-c64e37e1" x="326.300015" y="432.424999"/>
<use xlink:href="#glyph-0-8-c64e37e1" x="333.500016" y="432.424999"/>
<use xlink:href="#glyph-0-9-c64e37e1" x="340.700013" y="432.424999"/>
<use xlink:href="#glyph-0-10-c64e37e1" x="347.90001" y="432.424999"/>
<use xlink:href="#glyph-0-2-c64e37e1" x="355.100007" y="432.424999"/>
</g>
<g fill="rgb(10.588235%, 16.470589%, 22.745098%)" fill-opacity="1">
<use xlink:href="#glyph-1-0-c64e37e1" x="123.478347" y="412.549997"/>
<use xlink:href="#glyph-1-1-c64e37e1" x="130.078347" y="412.549997"/>
<use xlink:href="#glyph-1-2-c64e37e1" x="136.678348" y="412.549997"/>
<use xlink:href="#glyph-1-2-c64e37e1" x="143.278349" y="412.549997"/>
<use xlink:href="#glyph-1-3-c64e37e1" x="149.878349" y="412.549997"/>
<use xlink:href="#glyph-1-4-c64e37e1" x="156.478348" y="412.549997"/>
<use xlink:href="#glyph-1-2-c64e37e1" x="163.078346" y="412.549997"/>
<use xlink:href="#glyph-1-5-c64e37e1" x="169.678345" y="412.549997"/>
</g>
<g fill="rgb(10.588235%, 16.470589%, 22.745098%)" fill-opacity="1">
<use xlink:href="#glyph-2-0-c64e37e1" x="248.441103" y="412.549997"/>
</g>
<g fill="rgb(10.588235%, 16.470589%, 22.745098%)" fill-opacity="1">
<use xlink:href="#glyph-1-1-c64e37e1" x="255.041104" y="412.549997"/>
<use xlink:href="#glyph-1-2-c64e37e1" x="261.641104" y="412.549997"/>
<use xlink:href="#glyph-1-2-c64e37e1" x="268.241105" y="412.549997"/>
<use xlink:href="#glyph-1-3-c64e37e1" x="274.841105" y="412.549997"/>
<use xlink:href="#glyph-1-4-c64e37e1" x="281.441104" y="412.549997"/>
<use xlink:href="#glyph-1-2-c64e37e1" x="288.041103" y="412.549997"/>
<use xlink:href="#glyph-1-6-c64e37e1" x="294.641101" y="412.549997"/>
</g>
<g fill="rgb(10.588235%, 16.470589%, 22.745098%)" fill-opacity="1">
<use xlink:href="#glyph-1-4-c64e37e1" x="373.403844" y="412.549997"/>
<use xlink:href="#glyph-1-1-c64e37e1" x="380.003845" y="412.549997"/>
<use xlink:href="#glyph-1-0-c64e37e1" x="386.603845" y="412.549997"/>
<use xlink:href="#glyph-1-2-c64e37e1" x="393.203846" y="412.549997"/>
<use xlink:href="#glyph-1-3-c64e37e1" x="399.803847" y="412.549997"/>
<use xlink:href="#glyph-1-4-c64e37e1" x="406.403845" y="412.549997"/>
<use xlink:href="#glyph-1-2-c64e37e1" x="413.003844" y="412.549997"/>
<use xlink:href="#glyph-1-6-c64e37e1" x="419.603842" y="412.549997"/>
</g>
<g fill="rgb(10.588235%, 16.470589%, 22.745098%)" fill-opacity="1">
<use xlink:href="#glyph-1-7-c64e37e1" x="498.366616" y="412.549997"/>
<use xlink:href="#glyph-1-1-c64e37e1" x="504.966616" y="412.549997"/>
<use xlink:href="#glyph-1-2-c64e37e1" x="511.566617" y="412.549997"/>
<use xlink:href="#glyph-1-2-c64e37e1" x="518.166618" y="412.549997"/>
<use xlink:href="#glyph-1-3-c64e37e1" x="524.766618" y="412.549997"/>
<use xlink:href="#glyph-1-4-c64e37e1" x="531.366617" y="412.549997"/>
<use xlink:href="#glyph-1-2-c64e37e1" x="537.966615" y="412.549997"/>
<use xlink:href="#glyph-1-6-c64e37e1" x="544.566614" y="412.549997"/>
</g>
<g fill="rgb(10.588235%, 16.470589%, 22.745098%)" fill-opacity="1">
<use xlink:href="#glyph-3-0-c64e37e1" x="26.599998" y="247.09999"/>
</g>
<g fill="rgb(10.588235%, 16.470589%, 22.745098%)" fill-opacity="1">
<use xlink:href="#glyph-4-0-c64e37e1" x="26.599998" y="239.899989"/>
</g>
<g fill="rgb(10.588235%, 16.470589%, 22.745098%)" fill-opacity="1">
<use xlink:href="#glyph-3-1-c64e37e1" x="26.599999" y="232.69999"/>
</g>
<g fill="rgb(10.588235%, 16.470589%, 22.745098%)" fill-opacity="1">
<use xlink:href="#glyph-5-0-c64e37e1" x="26.599999" y="225.499991"/>
</g>
<g fill="rgb(10.588235%, 16.470589%, 22.745098%)" fill-opacity="1">
<use xlink:href="#glyph-4-1-c64e37e1" x="26.6" y="218.299991"/>
</g>
<g fill="rgb(10.588235%, 16.470589%, 22.745098%)" fill-opacity="1">
<use xlink:href="#glyph-3-2-c64e37e1" x="26.6" y="211.099992"/>
</g>
<g fill="rgb(10.588235%, 16.470589%, 22.745098%)" fill-opacity="1">
<use xlink:href="#glyph-6-0-c64e37e1" x="26.600001" y="203.899992"/>
</g>
<g fill="rgb(10.588235%, 16.470589%, 22.745098%)" fill-opacity="1">
<use xlink:href="#glyph-7-0-c64e37e1" x="26.600001" y="196.699992"/>
</g>
<g fill="rgb(10.588235%, 16.470589%, 22.745098%)" fill-opacity="1">
<use xlink:href="#glyph-3-3-c64e37e1" x="26.600002" y="189.499992"/>
</g>
<g fill="rgb(10.588235%, 16.470589%, 22.745098%)" fill-opacity="1">
<use xlink:href="#glyph-6-1-c64e37e1" x="26.600002" y="182.299991"/>
</g>
<g fill="rgb(10.588235%, 16.470589%, 22.745098%)" fill-opacity="1">
<use xlink:href="#glyph-7-1-c64e37e1" x="26.600002" y="175.099996"/>
</g>
<g fill="rgb(10.588235%, 16.470589%, 22.745098%)" fill-opacity="1">
<use xlink:href="#glyph-1-2-c64e37e1" x="35.300002" y="385.57841"/>
</g>
<g fill="rgb(10.588235%, 16.470589%, 22.745098%)" fill-opacity="1">
<use xlink:href="#glyph-1-4-c64e37e1" x="35.300002" y="327.548105"/>
</g>
<g fill="rgb(10.588235%, 16.470589%, 22.745098%)" fill-opacity="1">
<use xlink:href="#glyph-1-7-c64e37e1" x="35.300002" y="269.5178"/>
</g>
<g fill="rgb(10.588235%, 16.470589%, 22.745098%)" fill-opacity="1">
<use xlink:href="#glyph-1-8-c64e37e1" x="35.300002" y="211.487494"/>
</g>
<g fill="rgb(10.588235%, 16.470589%, 22.745098%)" fill-opacity="1">
<use xlink:href="#glyph-1-9-c64e37e1" x="35.300002" y="153.457189"/>
</g>
<g fill="rgb(10.588235%, 16.470589%, 22.745098%)" fill-opacity="1">
<use xlink:href="#glyph-1-0-c64e37e1" x="35.300002" y="95.426883"/>
</g>
<g fill="rgb(10.588235%, 16.470589%, 22.745098%)" fill-opacity="1">
<use xlink:href="#glyph-1-10-c64e37e1" x="35.300002" y="37.396578"/>
</g>
<path fill-rule="nonzero" fill="rgb(78.431374%, 20.784314%, 10.980392%)" fill-opacity="1" stroke-width="0.8" stroke-linecap="butt" stroke-linejoin="miter" stroke="rgb(10.588235%, 16.470589%, 22.745098%)" stroke-opacity="1" stroke-miterlimit="2" d="M 71.410156 381.589844 L 103.957031 381.589844 L 103.957031 149.46875 L 71.410156 149.46875 Z M 71.410156 381.589844 "/>
<path fill-rule="nonzero" fill="rgb(78.431374%, 20.784314%, 10.980392%)" fill-opacity="1" stroke-width="0.8" stroke-linecap="butt" stroke-linejoin="miter" stroke="rgb(10.588235%, 16.470589%, 22.745098%)" stroke-opacity="1" stroke-miterlimit="2" d="M 103.953125 381.589844 L 136.5 381.589844 L 136.5 323.558594 L 103.953125 323.558594 Z M 103.953125 381.589844 "/>
<path fill-rule="nonzero" fill="rgb(78.431374%, 20.784314%, 10.980392%)" fill-opacity="1" stroke-width="0.8" stroke-linecap="butt" stroke-linejoin="miter" stroke="rgb(10.588235%, 16.470589%, 22.745098%)" stroke-opacity="1" stroke-miterlimit="2" d="M 136.5 381.589844 L 169.046875 381.589844 L 169.046875 33.40625 L 136.5 33.40625 Z M 136.5 381.589844 "/>
<path fill-rule="nonzero" fill="rgb(78.431374%, 20.784314%, 10.980392%)" fill-opacity="1" stroke-width="0.8" stroke-linecap="butt" stroke-linejoin="miter" stroke="rgb(10.588235%, 16.470589%, 22.745098%)" stroke-opacity="1" stroke-miterlimit="2" d="M 169.046875 381.589844 L 201.59375 381.589844 L 201.59375 91.4375 L 169.046875 91.4375 Z M 169.046875 381.589844 "/>
<path fill-rule="nonzero" fill="rgb(78.431374%, 20.784314%, 10.980392%)" fill-opacity="1" stroke-width="0.8" stroke-linecap="butt" stroke-linejoin="miter" stroke="rgb(10.588235%, 16.470589%, 22.745098%)" stroke-opacity="1" stroke-miterlimit="2" d="M 201.589844 381.589844 L 234.136719 381.589844 L 234.136719 207.5 L 201.589844 207.5 Z M 201.589844 381.589844 "/>
<path fill-rule="nonzero" fill="rgb(78.431374%, 20.784314%, 10.980392%)" fill-opacity="1" stroke-width="0.8" stroke-linecap="butt" stroke-linejoin="miter" stroke="rgb(10.588235%, 16.470589%, 22.745098%)" stroke-opacity="1" stroke-miterlimit="2" d="M 234.136719 381.589844 L 266.683594 381.589844 L 266.683594 265.527344 L 234.136719 265.527344 Z M 234.136719 381.589844 "/>
<path fill-rule="nonzero" fill="rgb(78.431374%, 20.784314%, 10.980392%)" fill-opacity="1" stroke-width="0.8" stroke-linecap="butt" stroke-linejoin="miter" stroke="rgb(10.588235%, 16.470589%, 22.745098%)" stroke-opacity="1" stroke-miterlimit="2" d="M 266.683594 381.589844 L 299.230469 381.589844 L 299.230469 207.5 L 266.683594 207.5 Z M 266.683594 381.589844 "/>
<path fill-rule="nonzero" fill="rgb(78.431374%, 20.784314%, 10.980392%)" fill-opacity="1" stroke-width="0.8" stroke-linecap="butt" stroke-linejoin="miter" stroke="rgb(10.588235%, 16.470589%, 22.745098%)" stroke-opacity="1" stroke-miterlimit="2" d="M 299.226562 381.589844 L 331.773438 381.589844 L 331.773438 265.527344 L 299.226562 265.527344 Z M 299.226562 381.589844 "/>
<path fill-rule="nonzero" fill="rgb(78.431374%, 20.784314%, 10.980392%)" fill-opacity="1" stroke-width="0.8" stroke-linecap="butt" stroke-linejoin="miter" stroke="rgb(10.588235%, 16.470589%, 22.745098%)" stroke-opacity="1" stroke-miterlimit="2" d="M 331.773438 381.589844 L 364.320312 381.589844 L 364.320312 33.40625 L 331.773438 33.40625 Z M 331.773438 381.589844 "/>
<path fill-rule="nonzero" fill="rgb(78.431374%, 20.784314%, 10.980392%)" fill-opacity="1" stroke-width="0.8" stroke-linecap="butt" stroke-linejoin="miter" stroke="rgb(10.588235%, 16.470589%, 22.745098%)" stroke-opacity="1" stroke-miterlimit="2" d="M 364.316406 381.589844 L 396.863281 381.589844 L 396.863281 33.40625 L 364.316406 33.40625 Z M 364.316406 381.589844 "/>
<path fill-rule="nonzero" fill="rgb(78.431374%, 20.784314%, 10.980392%)" fill-opacity="1" stroke-width="0.8" stroke-linecap="butt" stroke-linejoin="miter" stroke="rgb(10.588235%, 16.470589%, 22.745098%)" stroke-opacity="1" stroke-miterlimit="2" d="M 396.863281 381.589844 L 429.410156 381.589844 L 429.410156 323.558594 L 396.863281 323.558594 Z M 396.863281 381.589844 "/>
<path fill-rule="nonzero" fill="rgb(78.431374%, 20.784314%, 10.980392%)" fill-opacity="1" stroke-width="0.8" stroke-linecap="butt" stroke-linejoin="miter" stroke="rgb(10.588235%, 16.470589%, 22.745098%)" stroke-opacity="1" stroke-miterlimit="2" d="M 429.410156 381.589844 L 461.957031 381.589844 L 461.957031 265.527344 L 429.410156 265.527344 Z M 429.410156 381.589844 "/>
<path fill-rule="nonzero" fill="rgb(78.431374%, 20.784314%, 10.980392%)" fill-opacity="1" stroke-width="0.8" stroke-linecap="butt" stroke-linejoin="miter" stroke="rgb(10.588235%, 16.470589%, 22.745098%)" stroke-opacity="1" stroke-miterlimit="2" d="M 461.953125 381.589844 L 494.5 381.589844 L 494.5 33.40625 L 461.953125 33.40625 Z M 461.953125 381.589844 "/>
<path fill-rule="nonzero" fill="rgb(78.431374%, 20.784314%, 10.980392%)" fill-opacity="1" stroke-width="0.8" stroke-linecap="butt" stroke-linejoin="miter" stroke="rgb(10.588235%, 16.470589%, 22.745098%)" stroke-opacity="1" stroke-miterlimit="2" d="M 494.5 381.589844 L 527.046875 381.589844 L 527.046875 265.527344 L 494.5 265.527344 Z M 494.5 381.589844 "/>
<path fill-rule="nonzero" fill="rgb(78.431374%, 20.784314%, 10.980392%)" fill-opacity="1" stroke-width="0.8" stroke-linecap="butt" stroke-linejoin="miter" stroke="rgb(10.588235%, 16.470589%, 22.745098%)" stroke-opacity="1" stroke-miterlimit="2" d="M 527.046875 381.589844 L 559.59375 381.589844 L 559.59375 323.558594 L 527.046875 323.558594 Z M 527.046875 381.589844 "/>
<path fill="none" stroke-width="0.9" stroke-linecap="butt" stroke-linejoin="miter" stroke="rgb(10.588235%, 16.470589%, 22.745098%)" stroke-opacity="1" stroke-miterlimit="1.154701" d="M 149.878906 394.550781 L 149.878906 399.550781 "/>
<path fill="none" stroke-width="0.9" stroke-linecap="butt" stroke-linejoin="miter" stroke="rgb(10.588235%, 16.470589%, 22.745098%)" stroke-opacity="1" stroke-miterlimit="1.154701" d="M 274.839844 394.550781 L 274.839844 399.550781 "/>
<path fill="none" stroke-width="0.9" stroke-linecap="butt" stroke-linejoin="miter" stroke="rgb(10.588235%, 16.470589%, 22.745098%)" stroke-opacity="1" stroke-miterlimit="1.154701" d="M 399.804688 394.550781 L 399.804688 399.550781 "/>
<path fill="none" stroke-width="0.9" stroke-linecap="butt" stroke-linejoin="miter" stroke="rgb(10.588235%, 16.470589%, 22.745098%)" stroke-opacity="1" stroke-miterlimit="1.154701" d="M 524.765625 394.550781 L 524.765625 399.550781 "/>
<path fill="none" stroke-width="1" stroke-linecap="butt" stroke-linejoin="miter" stroke="rgb(23.529412%, 29.019609%, 36.078432%)" stroke-opacity="1" stroke-miterlimit="1.154701" d="M 87.398438 396.550781 L 87.398438 399.550781 "/>
<path fill="none" stroke-width="1" stroke-linecap="butt" stroke-linejoin="miter" stroke="rgb(23.529412%, 29.019609%, 36.078432%)" stroke-opacity="1" stroke-miterlimit="1.154701" d="M 212.359375 396.550781 L 212.359375 399.550781 "/>
<path fill="none" stroke-width="1" stroke-linecap="butt" stroke-linejoin="miter" stroke="rgb(23.529412%, 29.019609%, 36.078432%)" stroke-opacity="1" stroke-miterlimit="1.154701" d="M 337.324219 396.550781 L 337.324219 399.550781 "/>
<path fill="none" stroke-width="1" stroke-linecap="butt" stroke-linejoin="miter" stroke="rgb(23.529412%, 29.019609%, 36.078432%)" stroke-opacity="1" stroke-miterlimit="1.154701" d="M 462.285156 396.550781 L 462.285156 399.550781 "/>
<path fill="none" stroke-width="0.9" stroke-linecap="butt" stroke-linejoin="miter" stroke="rgb(10.588235%, 16.470589%, 22.745098%)" stroke-opacity="1" stroke-miterlimit="1.154701" d="M 51.449219 381.589844 L 46.449219 381.589844 "/>
<path fill="none" stroke-width="0.9" stroke-linecap="butt" stroke-linejoin="miter" stroke="rgb(10.588235%, 16.470589%, 22.745098%)" stroke-opacity="1" stroke-miterlimit="1.154701" d="M 51.449219 323.5625 L 46.449219 323.5625 "/>
<path fill="none" stroke-width="0.9" stroke-linecap="butt" stroke-linejoin="miter" stroke="rgb(10.588235%, 16.470589%, 22.745098%)" stroke-opacity="1" stroke-miterlimit="1.154701" d="M 51.449219 265.53125 L 46.449219 265.53125 "/>
<path fill="none" stroke-width="0.9" stroke-linecap="butt" stroke-linejoin="miter" stroke="rgb(10.588235%, 16.470589%, 22.745098%)" stroke-opacity="1" stroke-miterlimit="1.154701" d="M 51.449219 207.5 L 46.449219 207.5 "/>
<path fill="none" stroke-width="0.9" stroke-linecap="butt" stroke-linejoin="miter" stroke="rgb(10.588235%, 16.470589%, 22.745098%)" stroke-opacity="1" stroke-miterlimit="1.154701" d="M 51.449219 149.46875 L 46.449219 149.46875 "/>
<path fill="none" stroke-width="0.9" stroke-linecap="butt" stroke-linejoin="miter" stroke="rgb(10.588235%, 16.470589%, 22.745098%)" stroke-opacity="1" stroke-miterlimit="1.154701" d="M 51.449219 91.4375 L 46.449219 91.4375 "/>
<path fill="none" stroke-width="0.9" stroke-linecap="butt" stroke-linejoin="miter" stroke="rgb(10.588235%, 16.470589%, 22.745098%)" stroke-opacity="1" stroke-miterlimit="1.154701" d="M 51.449219 33.410156 L 46.449219 33.410156 "/>
<path fill="none" stroke-width="1" stroke-linecap="butt" stroke-linejoin="miter" stroke="rgb(23.529412%, 29.019609%, 36.078432%)" stroke-opacity="1" stroke-miterlimit="1.154701" d="M 49.449219 352.574219 L 46.449219 352.574219 "/>
<path fill="none" stroke-width="1" stroke-linecap="butt" stroke-linejoin="miter" stroke="rgb(23.529412%, 29.019609%, 36.078432%)" stroke-opacity="1" stroke-miterlimit="1.154701" d="M 49.449219 294.546875 L 46.449219 294.546875 "/>
<path fill="none" stroke-width="1" stroke-linecap="butt" stroke-linejoin="miter" stroke="rgb(23.529412%, 29.019609%, 36.078432%)" stroke-opacity="1" stroke-miterlimit="1.154701" d="M 49.449219 236.515625 L 46.449219 236.515625 "/>
<path fill="none" stroke-width="1" stroke-linecap="butt" stroke-linejoin="miter" stroke="rgb(23.529412%, 29.019609%, 36.078432%)" stroke-opacity="1" stroke-miterlimit="1.154701" d="M 49.449219 178.484375 L 46.449219 178.484375 "/>
<path fill="none" stroke-width="1" stroke-linecap="butt" stroke-linejoin="miter" stroke="rgb(23.529412%, 29.019609%, 36.078432%)" stroke-opacity="1" stroke-miterlimit="1.154701" d="M 49.449219 120.453125 L 46.449219 120.453125 "/>
<path fill="none" stroke-width="1" stroke-linecap="butt" stroke-linejoin="miter" stroke="rgb(23.529412%, 29.019609%, 36.078432%)" stroke-opacity="1" stroke-miterlimit="1.154701" d="M 49.449219 62.425781 L 46.449219 62.425781 "/>
<path fill="none" stroke-width="1.1" stroke-linecap="butt" stroke-linejoin="miter" stroke="rgb(10.588235%, 16.470589%, 22.745098%)" stroke-opacity="1" stroke-miterlimit="1.154701" d="M 46.449219 399 L 584.550781 399 "/>
<path fill="none" stroke-width="1.1" stroke-linecap="butt" stroke-linejoin="miter" stroke="rgb(10.588235%, 16.470589%, 22.745098%)" stroke-opacity="1" stroke-miterlimit="1.154701" d="M 47 399.550781 L 47 15.449219 "/>
<path fill="none" stroke-width="1.1" stroke-linecap="butt" stroke-linejoin="miter" stroke="rgb(10.588235%, 16.470589%, 22.745098%)" stroke-opacity="1" stroke-miterlimit="1.154701" d="M 46.449219 16 L 584.550781 16 "/>
<path fill="none" stroke-width="1.1" stroke-linecap="butt" stroke-linejoin="miter" stroke="rgb(10.588235%, 16.470589%, 22.745098%)" stroke-opacity="1" stroke-miterlimit="1.154701" d="M 584 399.550781 L 584 15.449219 "/>
</svg>
