<?xml version="1.0" encoding="UTF-8"?>
<svg xmlns="http://www.w3.org/2000/svg" xmlns:xlink="http://www.w3.org/1999/xlink" width="900" height="600" viewBox="0 0 900 600">
<defs>
<g>
<g id="glyph-0-0-ff4d93d4">
<path d="M 2.96875 -7.578125 L 0.515625 -7.578125 L 0.515625 -8.703125 L 6.671875 -8.703125 L 6.671875 -7.578125 L 4.21875 -7.578125 L 4.21875 0 L 2.96875 0 Z M 2.96875 -7.578125 "/>
</g>
<g id="glyph-0-1-ff4d93d4">
<path d="M 1.21875 -6.59375 L 4.296875 -6.59375 L 4.296875 -0.96875 L 6.125 -0.96875 L 6.125 0 L 1.109375 0 L 1.109375 -0.96875 L 3.078125 -0.96875 L 3.078125 -5.671875 L 1.21875 -5.671875 Z M 3.5625 -7.796875 C 3.25 -7.796875 3.023438 -7.863281 2.890625 -8 C 2.753906 -8.132812 2.6875 -8.351562 2.6875 -8.65625 C 2.6875 -8.976562 2.753906 -9.203125 2.890625 -9.328125 C 3.023438 -9.460938 3.25 -9.53125 3.5625 -9.53125 C 3.875 -9.53125 4.09375 -9.460938 4.21875 -9.328125 C 4.351562 -9.203125 4.421875 -8.976562 4.421875 -8.65625 C 4.421875 -8.351562 4.351562 -8.132812 4.21875 -8 C 4.09375 -7.863281 3.875 -7.796875 3.5625 -7.796875 Z M 3.5625 -7.796875 "/>
</g>
<g id="glyph-0-2-ff4d93d4">
<path d="M 0.5625 -5.125 C 0.5625 -5.507812 0.535156 -6 0.484375 -6.59375 L 1.609375 -6.59375 L 1.6875 -5.859375 C 1.800781 -6.140625 1.953125 -6.347656 2.140625 -6.484375 C 2.328125 -6.628906 2.550781 -6.703125 2.8125 -6.703125 C 3.382812 -6.703125 3.726562 -6.335938 3.84375 -5.609375 C 3.9375 -6.015625 4.109375 -6.296875 4.359375 -6.453125 C 4.609375 -6.617188 4.898438 -6.703125 5.234375 -6.703125 C 5.515625 -6.703125 5.765625 -6.625 5.984375 -6.46875 C 6.203125 -6.3125 6.375 -6.082031 6.5 -5.78125 C 6.632812 -5.476562 6.703125 -5.113281 6.703125 -4.6875 L 6.703125 0 L 5.484375 0 L 5.484375 -4.484375 C 5.484375 -4.910156 5.4375 -5.21875 5.34375 -5.40625 C 5.257812 -5.59375 5.117188 -5.6875 4.921875 -5.6875 C 4.484375 -5.6875 4.265625 -5.316406 4.265625 -4.578125 L 4.265625 0 L 3.03125 0 L 3.03125 -4.484375 C 3.03125 -5.285156 2.816406 -5.6875 2.390625 -5.6875 C 2.191406 -5.6875 2.046875 -5.601562 1.953125 -5.4375 C 1.859375 -5.269531 1.8125 -4.984375 1.8125 -4.578125 L 1.8125 0 L 0.5625 0 Z M 0.5625 -5.125 "/>
</g>
<g id="glyph-0-3-ff4d93d4">
<path d="M 3.8125 0.109375 C 3.257812 0.109375 2.753906 -0.0234375 2.296875 -0.296875 C 1.847656 -0.566406 1.488281 -0.957031 1.21875 -1.46875 C 0.945312 -1.976562 0.8125 -2.578125 0.8125 -3.265625 C 0.8125 -3.929688 0.9375 -4.523438 1.1875 -5.046875 C 1.4375 -5.578125 1.78125 -5.988281 2.21875 -6.28125 C 2.664062 -6.570312 3.164062 -6.71875 3.71875 -6.71875 C 4.582031 -6.71875 5.238281 -6.390625 5.6875 -5.734375 C 6.144531 -5.085938 6.375 -4.164062 6.375 -2.96875 L 2.046875 -2.96875 C 2.054688 -2.3125 2.21875 -1.8125 2.53125 -1.46875 C 2.84375 -1.132812 3.285156 -0.96875 3.859375 -0.96875 C 4.242188 -0.96875 4.609375 -1.03125 4.953125 -1.15625 C 5.296875 -1.28125 5.550781 -1.410156 5.71875 -1.546875 L 6.25 -0.671875 C 6.09375 -0.535156 5.882812 -0.40625 5.625 -0.28125 C 5.363281 -0.164062 5.070312 -0.0703125 4.75 0 C 4.4375 0.0703125 4.125 0.109375 3.8125 0.109375 Z M 5.25 -3.953125 C 5.25 -4.296875 5.179688 -4.597656 5.046875 -4.859375 C 4.910156 -5.117188 4.726562 -5.320312 4.5 -5.46875 C 4.269531 -5.613281 4.007812 -5.6875 3.71875 -5.6875 C 3.414062 -5.6875 3.140625 -5.613281 2.890625 -5.46875 C 2.648438 -5.320312 2.453125 -5.117188 2.296875 -4.859375 C 2.148438 -4.597656 2.078125 -4.296875 2.078125 -3.953125 Z M 5.25 -3.953125 "/>
</g>
<g id="glyph-0-4-ff4d93d4">
</g>
<g id="glyph-0-5-ff4d93d4">
<path d="M 4.8125 2.921875 C 4.257812 2.160156 3.796875 1.460938 3.421875 0.828125 C 3.054688 0.191406 2.765625 -0.457031 2.546875 -1.125 C 2.328125 -1.789062 2.21875 -2.476562 2.21875 -3.1875 C 2.21875 -4.300781 2.453125 -5.460938 2.921875 -6.671875 C 3.390625 -7.878906 4.023438 -9.007812 4.828125 -10.0625 L 5.875 -10.0625 C 5.132812 -8.96875 4.5625 -7.851562 4.15625 -6.71875 C 3.75 -5.582031 3.546875 -4.472656 3.546875 -3.390625 C 3.546875 -2.753906 3.644531 -2.066406 3.84375 -1.328125 C 4.050781 -0.597656 4.328125 0.128906 4.671875 0.859375 C 5.023438 1.597656 5.425781 2.285156 5.875 2.921875 Z M 4.8125 2.921875 "/>
</g>
<g id="glyph-0-6-ff4d93d4">
<path d="M 2.953125 -3.515625 L 0.59375 -8.703125 L 1.96875 -8.703125 L 3.625 -4.78125 L 5.28125 -8.703125 L 6.609375 -8.703125 L 4.25 -3.515625 L 4.25 0 L 2.953125 0 Z M 2.953125 -3.515625 "/>
</g>
<g id="glyph-0-7-ff4d93d4">
<path d="M 2.859375 0.125 C 2.421875 0.125 2.039062 0.0429688 1.71875 -0.109375 C 1.40625 -0.265625 1.164062 -0.484375 1 -0.765625 C 0.832031 -1.046875 0.75 -1.382812 0.75 -1.78125 C 0.75 -2.625 1.078125 -3.203125 1.734375 -3.515625 C 2.398438 -3.828125 3.222656 -3.984375 4.203125 -3.984375 L 4.90625 -3.984375 L 4.90625 -4.296875 C 4.90625 -4.648438 4.8125 -4.972656 4.625 -5.265625 C 4.445312 -5.554688 4.085938 -5.703125 3.546875 -5.703125 C 3.296875 -5.703125 3.0625 -5.664062 2.84375 -5.59375 C 2.632812 -5.53125 2.453125 -5.453125 2.296875 -5.359375 C 2.140625 -5.273438 1.941406 -5.148438 1.703125 -4.984375 L 1.125 -5.796875 C 1.5 -6.066406 1.878906 -6.28125 2.265625 -6.4375 C 2.648438 -6.601562 3.117188 -6.6875 3.671875 -6.6875 C 4.628906 -6.6875 5.273438 -6.445312 5.609375 -5.96875 C 5.941406 -5.5 6.109375 -4.941406 6.109375 -4.296875 L 6.109375 -1.875 C 6.109375 -1.34375 6.144531 -0.71875 6.21875 0 L 5.015625 0 C 5.003906 -0.175781 4.988281 -0.398438 4.96875 -0.671875 L 4.96875 -0.875 C 4.757812 -0.53125 4.46875 -0.273438 4.09375 -0.109375 C 3.71875 0.0429688 3.304688 0.125 2.859375 0.125 Z M 3.15625 -0.796875 C 3.757812 -0.796875 4.203125 -1 4.484375 -1.40625 C 4.765625 -1.8125 4.90625 -2.363281 4.90625 -3.0625 L 4.453125 -3.078125 C 3.859375 -3.078125 3.378906 -3.035156 3.015625 -2.953125 C 2.648438 -2.867188 2.378906 -2.734375 2.203125 -2.546875 C 2.023438 -2.367188 1.9375 -2.132812 1.9375 -1.84375 C 1.9375 -1.476562 2.046875 -1.210938 2.265625 -1.046875 C 2.484375 -0.878906 2.78125 -0.796875 3.15625 -0.796875 Z M 3.15625 -0.796875 "/>
</g>
<g id="glyph-0-8-ff4d93d4">
<path d="M 3.625 0.0625 C 3.039062 0.0625 2.539062 -0.0351562 2.125 -0.234375 C 1.71875 -0.429688 1.347656 -0.726562 1.015625 -1.125 L 1.71875 -1.875 C 1.9375 -1.664062 2.132812 -1.5 2.3125 -1.375 C 2.488281 -1.25 2.6875 -1.148438 2.90625 -1.078125 C 3.132812 -1.003906 3.394531 -0.96875 3.6875 -0.96875 C 4.039062 -0.96875 4.359375 -1.035156 4.640625 -1.171875 C 4.921875 -1.316406 5.0625 -1.550781 5.0625 -1.875 C 5.0625 -2.050781 5.007812 -2.1875 4.90625 -2.28125 C 4.8125 -2.382812 4.6875 -2.460938 4.53125 -2.515625 C 4.375 -2.578125 4.140625 -2.644531 3.828125 -2.71875 C 3.660156 -2.757812 3.5 -2.800781 3.34375 -2.84375 C 2.875 -2.96875 2.488281 -3.097656 2.1875 -3.234375 C 1.894531 -3.378906 1.65625 -3.570312 1.46875 -3.8125 C 1.28125 -4.0625 1.1875 -4.378906 1.1875 -4.765625 C 1.1875 -5.179688 1.289062 -5.535156 1.5 -5.828125 C 1.71875 -6.117188 2.007812 -6.335938 2.375 -6.484375 C 2.738281 -6.640625 3.15625 -6.71875 3.625 -6.71875 C 4.582031 -6.71875 5.335938 -6.441406 5.890625 -5.890625 L 5.171875 -5.09375 C 4.734375 -5.457031 4.226562 -5.640625 3.65625 -5.640625 C 3.269531 -5.640625 2.953125 -5.5625 2.703125 -5.40625 C 2.460938 -5.257812 2.34375 -5.0625 2.34375 -4.8125 C 2.34375 -4.601562 2.425781 -4.425781 2.59375 -4.28125 C 2.757812 -4.144531 2.960938 -4.035156 3.203125 -3.953125 C 3.441406 -3.878906 3.75 -3.796875 4.125 -3.703125 L 4.34375 -3.640625 C 4.65625 -3.554688 4.9375 -3.457031 5.1875 -3.34375 C 5.4375 -3.238281 5.660156 -3.0625 5.859375 -2.8125 C 6.066406 -2.570312 6.171875 -2.253906 6.171875 -1.859375 C 6.171875 -1.398438 6.050781 -1.023438 5.8125 -0.734375 C 5.582031 -0.453125 5.273438 -0.25 4.890625 -0.125 C 4.515625 0 4.09375 0.0625 3.625 0.0625 Z M 3.625 0.0625 "/>
</g>
<g id="glyph-0-9-ff4d93d4">
<path d="M 1.640625 2.921875 C 2.085938 2.285156 2.484375 1.597656 2.828125 0.859375 C 3.179688 0.128906 3.457031 -0.597656 3.65625 -1.328125 C 3.863281 -2.066406 3.96875 -2.753906 3.96875 -3.390625 C 3.96875 -4.472656 3.765625 -5.582031 3.359375 -6.71875 C 2.953125 -7.851562 2.378906 -8.96875 1.640625 -10.0625 L 2.6875 -10.0625 C 3.5 -9.007812 4.132812 -7.878906 4.59375 -6.671875 C 5.0625 -5.460938 5.296875 -4.300781 5.296875 -3.1875 C 5.296875 -2.476562 5.1875 -1.789062 4.96875 -1.125 C 4.757812 -0.457031 4.46875 0.191406 4.09375 0.828125 C 3.726562 1.460938 3.265625 2.160156 2.703125 2.921875 Z M 1.640625 2.921875 "/>
</g>
<g id="glyph-1-0-ff4d93d4">
<path d="M 2.046875 -3.609375 C 2.046875 -4.179688 2.03125 -4.59375 2 -4.84375 C 1.976562 -5.09375 1.941406 -5.359375 1.890625 -5.640625 L 0.75 -5.640625 L 0.75 -6.59375 L 2.859375 -6.59375 L 3.015625 -5.4375 C 3.203125 -5.894531 3.460938 -6.222656 3.796875 -6.421875 C 4.140625 -6.628906 4.492188 -6.734375 4.859375 -6.734375 C 5.140625 -6.734375 5.4375 -6.664062 5.75 -6.53125 C 6.070312 -6.394531 6.332031 -6.234375 6.53125 -6.046875 L 5.84375 -5.203125 C 5.726562 -5.316406 5.566406 -5.421875 5.359375 -5.515625 C 5.148438 -5.609375 4.910156 -5.65625 4.640625 -5.65625 C 4.179688 -5.65625 3.832031 -5.429688 3.59375 -4.984375 C 3.363281 -4.535156 3.25 -3.863281 3.25 -2.96875 L 3.25 0 L 2.03125 0 Z M 2.046875 -3.609375 "/>
</g>
<g id="glyph-2-0-ff4d93d4">
<path d="M 3.3125 0.109375 C 2.550781 0.109375 1.972656 -0.0507812 1.578125 -0.375 C 1.191406 -0.707031 0.9375 -1.160156 0.8125 -1.734375 C 0.6875 -2.304688 0.625 -3.066406 0.625 -4.015625 C 0.625 -4.941406 0.6875 -5.691406 0.8125 -6.265625 C 0.945312 -6.835938 1.207031 -7.28125 1.59375 -7.59375 C 1.976562 -7.914062 2.550781 -8.078125 3.3125 -8.078125 C 4.0625 -8.078125 4.628906 -7.921875 5.015625 -7.609375 C 5.410156 -7.296875 5.671875 -6.851562 5.796875 -6.28125 C 5.929688 -5.707031 6 -4.953125 6 -4.015625 C 6 -3.066406 5.929688 -2.304688 5.796875 -1.734375 C 5.671875 -1.160156 5.414062 -0.707031 5.03125 -0.375 C 4.644531 -0.0507812 4.070312 0.109375 3.3125 0.109375 Z M 2.59375 -4.015625 L 3.3125 -4.828125 L 4.015625 -4.015625 L 3.3125 -3.28125 Z M 3.3125 -0.8125 C 3.769531 -0.8125 4.113281 -0.929688 4.34375 -1.171875 C 4.582031 -1.421875 4.738281 -1.765625 4.8125 -2.203125 C 4.882812 -2.648438 4.921875 -3.253906 4.921875 -4.015625 C 4.921875 -4.742188 4.882812 -5.328125 4.8125 -5.765625 C 4.738281 -6.203125 4.585938 -6.539062 4.359375 -6.78125 C 4.128906 -7.03125 3.78125 -7.15625 3.3125 -7.15625 C 2.84375 -7.15625 2.488281 -7.03125 2.25 -6.78125 C 2.019531 -6.539062 1.867188 -6.203125 1.796875 -5.765625 C 1.734375 -5.328125 1.703125 -4.742188 1.703125 -4.015625 C 1.703125 -3.265625 1.738281 -2.664062 1.8125 -2.21875 C 1.882812 -1.769531 2.035156 -1.421875 2.265625 -1.171875 C 2.503906 -0.929688 2.851562 -0.8125 3.3125 -0.8125 Z M 3.3125 -0.8125 "/>
</g>
<g id="glyph-3-0-ff4d93d4">
<path d="M 3.28125 0.109375 C 2.832031 0.109375 2.421875 0.0273438 2.046875 -0.125 C 1.671875 -0.28125 1.375 -0.515625 1.15625 -0.828125 C 0.9375 -1.140625 0.828125 -1.535156 0.828125 -2.015625 L 1.9375 -2.015625 C 1.945312 -1.628906 2.070312 -1.335938 2.3125 -1.140625 C 2.5625 -0.941406 2.863281 -0.84375 3.21875 -0.84375 C 3.507812 -0.84375 3.765625 -0.921875 3.984375 -1.078125 C 4.203125 -1.234375 4.367188 -1.453125 4.484375 -1.734375 C 4.609375 -2.015625 4.671875 -2.328125 4.671875 -2.671875 C 4.671875 -2.992188 4.613281 -3.285156 4.5 -3.546875 C 4.394531 -3.804688 4.238281 -4.007812 4.03125 -4.15625 C 3.832031 -4.300781 3.597656 -4.375 3.328125 -4.375 C 3.003906 -4.375 2.722656 -4.28125 2.484375 -4.09375 C 2.253906 -3.90625 2.097656 -3.648438 2.015625 -3.328125 L 0.90625 -3.328125 L 1.484375 -7.96875 L 5.5625 -7.96875 L 5.5625 -7 L 2.453125 -7 L 2.109375 -4.5625 C 2.316406 -4.820312 2.535156 -5.019531 2.765625 -5.15625 C 3.003906 -5.289062 3.273438 -5.359375 3.578125 -5.359375 C 4.035156 -5.359375 4.429688 -5.238281 4.765625 -5 C 5.109375 -4.757812 5.367188 -4.4375 5.546875 -4.03125 C 5.722656 -3.625 5.8125 -3.164062 5.8125 -2.65625 C 5.8125 -2.113281 5.703125 -1.632812 5.484375 -1.21875 C 5.273438 -0.800781 4.976562 -0.472656 4.59375 -0.234375 C 4.21875 -0.00390625 3.78125 0.109375 3.28125 0.109375 Z M 3.28125 0.109375 "/>
</g>
<g id="glyph-3-1-ff4d93d4">
<path d="M 1.015625 -0.9375 L 2.9375 -0.9375 L 2.9375 -6.390625 C 2.613281 -6.078125 2.265625 -5.789062 1.890625 -5.53125 C 1.515625 -5.28125 1.164062 -5.109375 0.84375 -5.015625 L 0.84375 -6.078125 C 1.226562 -6.234375 1.625 -6.492188 2.03125 -6.859375 C 2.4375 -7.234375 2.78125 -7.601562 3.0625 -7.96875 L 4 -7.96875 L 4 -0.9375 L 5.765625 -0.9375 L 5.765625 0 L 1.015625 0 Z M 1.015625 -0.9375 "/>
</g>
<g id="glyph-3-2-ff4d93d4">
<path d="M 3.3125 0.109375 C 2.550781 0.109375 1.972656 -0.0507812 1.578125 -0.375 C 1.191406 -0.707031 0.9375 -1.160156 0.8125 -1.734375 C 0.6875 -2.304688 0.625 -3.066406 0.625 -4.015625 C 0.625 -4.941406 0.6875 -5.691406 0.8125 -6.265625 C 0.945312 -6.835938 1.207031 -7.28125 1.59375 -7.59375 C 1.976562 -7.914062 2.550781 -8.078125 3.3125 -8.078125 C 4.0625 -8.078125 4.628906 -7.921875 5.015625 -7.609375 C 5.410156 -7.296875 5.671875 -6.851562 5.796875 -6.28125 C 5.929688 -5.707031 6 -4.953125 6 -4.015625 C 6 -3.066406 5.929688 -2.304688 5.796875 -1.734375 C 5.671875 -1.160156 5.414062 -0.707031 5.03125 -0.375 C 4.644531 -0.0507812 4.070312 0.109375 3.3125 0.109375 Z M 2.59375 -4.015625 L 3.3125 -4.828125 L 4.015625 -4.015625 L 3.3125 -3.28125 Z M 3.3125 -0.8125 C 3.769531 -0.8125 4.113281 -0.929688 4.34375 -1.171875 C 4.582031 -1.421875 4.738281 -1.765625 4.8125 -2.203125 C 4.882812 -2.648438 4.921875 -3.253906 4.921875 -4.015625 C 4.921875 -4.742188 4.882812 -5.328125 4.8125 -5.765625 C 4.738281 -6.203125 4.585938 -6.539062 4.359375 -6.78125 C 4.128906 -7.03125 3.78125 -7.15625 3.3125 -7.15625 C 2.84375 -7.15625 2.488281 -7.03125 2.25 -6.78125 C 2.019531 -6.539062 1.867188 -6.203125 1.796875 -5.765625 C 1.734375 -5.328125 1.703125 -4.742188 1.703125 -4.015625 C 1.703125 -3.265625 1.738281 -2.664062 1.8125 -2.21875 C 1.882812 -1.769531 2.035156 -1.421875 2.265625 -1.171875 C 2.503906 -0.929688 2.851562 -0.8125 3.3125 -0.8125 Z M 3.3125 -0.8125 "/>
</g>
<g id="glyph-3-3-ff4d93d4">
<path d="M 1.25 -1.53125 C 1.894531 -2.101562 2.4375 -2.609375 2.875 -3.046875 C 3.3125 -3.492188 3.691406 -3.96875 4.015625 -4.46875 C 4.347656 -4.96875 4.515625 -5.429688 4.515625 -5.859375 C 4.515625 -6.109375 4.460938 -6.328125 4.359375 -6.515625 C 4.265625 -6.703125 4.125 -6.847656 3.9375 -6.953125 C 3.75 -7.054688 3.546875 -7.109375 3.328125 -7.109375 C 3.066406 -7.109375 2.835938 -7.050781 2.640625 -6.9375 C 2.441406 -6.820312 2.285156 -6.65625 2.171875 -6.4375 C 2.054688 -6.21875 2 -5.972656 2 -5.703125 L 0.875 -5.703125 C 0.882812 -6.222656 1 -6.660156 1.21875 -7.015625 C 1.4375 -7.367188 1.726562 -7.632812 2.09375 -7.8125 C 2.46875 -7.988281 2.890625 -8.078125 3.359375 -8.078125 C 3.785156 -8.078125 4.171875 -8 4.515625 -7.84375 C 4.867188 -7.695312 5.15625 -7.457031 5.375 -7.125 C 5.59375 -6.800781 5.703125 -6.398438 5.703125 -5.921875 C 5.703125 -5.429688 5.535156 -4.910156 5.203125 -4.359375 C 4.878906 -3.816406 4.5 -3.3125 4.0625 -2.84375 C 3.632812 -2.382812 3.109375 -1.859375 2.484375 -1.265625 L 2.09375 -0.890625 L 5.78125 -0.890625 L 5.78125 0.046875 L 0.796875 0.046875 L 0.796875 -1.140625 Z M 1.25 -1.53125 "/>
</g>
<g id="glyph-3-4-ff4d93d4">
<path d="M 3.296875 0.234375 C 2.960938 0.234375 2.703125 0.144531 2.515625 -0.03125 C 2.335938 -0.21875 2.25 -0.476562 2.25 -0.8125 C 2.25 -1.144531 2.335938 -1.398438 2.515625 -1.578125 C 2.703125 -1.765625 2.960938 -1.859375 3.296875 -1.859375 C 3.640625 -1.859375 3.898438 -1.765625 4.078125 -1.578125 C 4.253906 -1.398438 4.34375 -1.144531 4.34375 -0.8125 C 4.34375 -0.476562 4.25 -0.21875 4.0625 -0.03125 C 3.882812 0.144531 3.628906 0.234375 3.296875 0.234375 Z M 3.296875 0.234375 "/>
</g>
<g id="glyph-3-5-ff4d93d4">
<path d="M 0.828125 -4.65625 C 1.054688 -5.019531 1.347656 -5.300781 1.703125 -5.5 L 3.328125 -3.65625 L 4.9375 -5.5 C 5.269531 -5.28125 5.554688 -5 5.796875 -4.65625 L 3.953125 -3.03125 L 5.71875 -1.3125 C 5.5 -1.007812 5.238281 -0.753906 4.9375 -0.546875 L 3.328125 -2.390625 L 1.703125 -0.546875 C 1.398438 -0.734375 1.128906 -0.988281 0.890625 -1.3125 L 2.671875 -3.03125 Z M 0.828125 -4.65625 "/>
</g>
<g id="glyph-3-6-ff4d93d4">
<path d="M 3.5 -5.28125 L 1.21875 -5.28125 L 1.21875 -6.3125 L 3.28125 -9.40625 L 4.453125 -9.40625 L 4.453125 -6.09375 L 5.234375 -6.09375 L 5.234375 -5.28125 L 4.453125 -5.28125 L 4.453125 -4.3125 L 3.5 -4.3125 Z M 3.515625 -6.09375 L 3.515625 -8.171875 L 2.15625 -6.09375 Z M 3.515625 -6.09375 "/>
</g>
<g id="glyph-3-7-ff4d93d4">
<path d="M 3.265625 -4.40625 C 2.753906 -4.40625 2.347656 -4.519531 2.046875 -4.75 C 1.753906 -4.976562 1.609375 -5.300781 1.609375 -5.71875 L 2.515625 -5.71875 C 2.523438 -5.570312 2.601562 -5.441406 2.75 -5.328125 C 2.894531 -5.222656 3.078125 -5.171875 3.296875 -5.171875 C 3.472656 -5.171875 3.625 -5.210938 3.75 -5.296875 C 3.882812 -5.390625 3.984375 -5.507812 4.046875 -5.65625 C 4.117188 -5.800781 4.15625 -5.953125 4.15625 -6.109375 C 4.15625 -6.273438 4.113281 -6.421875 4.03125 -6.546875 C 3.957031 -6.679688 3.859375 -6.78125 3.734375 -6.84375 C 3.609375 -6.914062 3.472656 -6.953125 3.328125 -6.953125 C 3.203125 -6.953125 3.070312 -6.921875 2.9375 -6.859375 C 2.800781 -6.804688 2.703125 -6.703125 2.640625 -6.546875 L 1.734375 -6.546875 L 2.046875 -9.40625 L 4.859375 -9.40625 L 4.859375 -8.609375 L 2.828125 -8.609375 L 2.6875 -7.484375 C 2.8125 -7.554688 2.945312 -7.613281 3.09375 -7.65625 C 3.238281 -7.707031 3.382812 -7.734375 3.53125 -7.734375 C 3.800781 -7.734375 4.046875 -7.671875 4.265625 -7.546875 C 4.492188 -7.421875 4.675781 -7.238281 4.8125 -7 C 4.945312 -6.757812 5.015625 -6.484375 5.015625 -6.171875 C 5.015625 -5.828125 4.941406 -5.519531 4.796875 -5.25 C 4.660156 -4.988281 4.460938 -4.78125 4.203125 -4.625 C 3.941406 -4.476562 3.628906 -4.40625 3.265625 -4.40625 Z M 3.265625 -4.40625 "/>
</g>
<g id="glyph-3-8-ff4d93d4">
<path d="M 0.953125 -7.984375 L 2.125 -7.984375 L 2.125 -0.984375 L 5.9375 -0.984375 L 5.9375 0 L 0.953125 0 Z M 0.953125 -7.984375 "/>
</g>
<g id="glyph-3-9-ff4d93d4">
<path d="M 1.109375 -6.046875 L 3.9375 -6.046875 L 3.9375 -0.890625 L 5.609375 -0.890625 L 5.609375 0 L 1.015625 0 L 1.015625 -0.890625 L 2.828125 -0.890625 L 2.828125 -5.203125 L 1.109375 -5.203125 Z M 3.265625 -7.15625 C 2.972656 -7.15625 2.765625 -7.210938 2.640625 -7.328125 C 2.523438 -7.453125 2.46875 -7.65625 2.46875 -7.9375 C 2.46875 -8.226562 2.523438 -8.429688 2.640625 -8.546875 C 2.765625 -8.671875 2.972656 -8.734375 3.265625 -8.734375 C 3.546875 -8.734375 3.742188 -8.671875 3.859375 -8.546875 C 3.984375 -8.429688 4.046875 -8.226562 4.046875 -7.9375 C 4.046875 -7.65625 3.984375 -7.453125 3.859375 -7.328125 C 3.742188 -7.210938 3.546875 -7.15625 3.265625 -7.15625 Z M 3.265625 -7.15625 "/>
</g>
<g id="glyph-3-10-ff4d93d4">
<path d="M 2.625 0.109375 C 2.21875 0.109375 1.867188 0.0390625 1.578125 -0.09375 C 1.285156 -0.238281 1.0625 -0.441406 0.90625 -0.703125 C 0.757812 -0.960938 0.6875 -1.273438 0.6875 -1.640625 C 0.6875 -2.410156 0.988281 -2.9375 1.59375 -3.21875 C 2.207031 -3.507812 2.957031 -3.65625 3.84375 -3.65625 L 4.5 -3.65625 L 4.5 -3.9375 C 4.5 -4.257812 4.414062 -4.550781 4.25 -4.8125 C 4.082031 -5.082031 3.75 -5.21875 3.25 -5.21875 C 3.019531 -5.21875 2.804688 -5.1875 2.609375 -5.125 C 2.421875 -5.070312 2.253906 -5.003906 2.109375 -4.921875 C 1.960938 -4.835938 1.78125 -4.722656 1.5625 -4.578125 L 1.03125 -5.3125 C 1.375 -5.5625 1.71875 -5.757812 2.0625 -5.90625 C 2.414062 -6.050781 2.847656 -6.125 3.359375 -6.125 C 4.242188 -6.125 4.835938 -5.90625 5.140625 -5.46875 C 5.441406 -5.039062 5.59375 -4.53125 5.59375 -3.9375 L 5.59375 -1.71875 C 5.59375 -1.226562 5.628906 -0.65625 5.703125 0 L 4.609375 0 C 4.585938 -0.15625 4.570312 -0.363281 4.5625 -0.625 L 4.546875 -0.796875 C 4.359375 -0.484375 4.09375 -0.253906 3.75 -0.109375 C 3.40625 0.0351562 3.03125 0.109375 2.625 0.109375 Z M 2.90625 -0.734375 C 3.457031 -0.734375 3.859375 -0.914062 4.109375 -1.28125 C 4.367188 -1.65625 4.5 -2.164062 4.5 -2.8125 L 4.078125 -2.828125 C 3.535156 -2.828125 3.097656 -2.785156 2.765625 -2.703125 C 2.429688 -2.628906 2.179688 -2.507812 2.015625 -2.34375 C 1.859375 -2.175781 1.78125 -1.957031 1.78125 -1.6875 C 1.78125 -1.351562 1.878906 -1.109375 2.078125 -0.953125 C 2.273438 -0.804688 2.550781 -0.734375 2.90625 -0.734375 Z M 2.90625 -0.734375 "/>
</g>
<g id="glyph-3-11-ff4d93d4">
<path d="M 3.609375 0.109375 C 3.242188 0.109375 2.929688 0.0429688 2.671875 -0.078125 C 2.421875 -0.203125 2.191406 -0.414062 1.984375 -0.71875 L 1.953125 0 L 0.875 0 C 0.894531 -0.5 0.90625 -0.941406 0.90625 -1.328125 L 0.90625 -8.6875 L 2.03125 -8.6875 L 2.03125 -5.0625 C 2.226562 -5.394531 2.46875 -5.648438 2.75 -5.828125 C 3.03125 -6.003906 3.335938 -6.09375 3.671875 -6.09375 C 4.171875 -6.09375 4.582031 -5.953125 4.90625 -5.671875 C 5.226562 -5.390625 5.460938 -5.003906 5.609375 -4.515625 C 5.753906 -4.035156 5.828125 -3.488281 5.828125 -2.875 C 5.828125 -2.351562 5.742188 -1.863281 5.578125 -1.40625 C 5.410156 -0.957031 5.160156 -0.59375 4.828125 -0.3125 C 4.492188 -0.03125 4.085938 0.109375 3.609375 0.109375 Z M 3.328125 -0.71875 C 3.660156 -0.71875 3.929688 -0.820312 4.140625 -1.03125 C 4.347656 -1.238281 4.492188 -1.5 4.578125 -1.8125 C 4.671875 -2.132812 4.71875 -2.472656 4.71875 -2.828125 C 4.71875 -3.515625 4.613281 -4.070312 4.40625 -4.5 C 4.207031 -4.9375 3.878906 -5.15625 3.421875 -5.15625 C 3.085938 -5.15625 2.8125 -5.050781 2.59375 -4.84375 C 2.375 -4.632812 2.210938 -4.351562 2.109375 -4 C 2.015625 -3.644531 1.96875 -3.25 1.96875 -2.8125 C 1.96875 -2.46875 2.015625 -2.140625 2.109375 -1.828125 C 2.203125 -1.515625 2.347656 -1.25 2.546875 -1.03125 C 2.742188 -0.820312 3.003906 -0.71875 3.328125 -0.71875 Z M 3.328125 -0.71875 "/>
</g>
<g id="glyph-3-12-ff4d93d4">
<path d="M 4.515625 0.125 C 3.828125 0.125 3.3125 -0.0390625 2.96875 -0.375 C 2.632812 -0.707031 2.46875 -1.210938 2.46875 -1.890625 L 2.46875 -7.78125 L 0.578125 -7.78125 L 0.578125 -8.6875 L 3.5625 -8.6875 L 3.5625 -2.171875 C 3.5625 -1.742188 3.65625 -1.425781 3.84375 -1.21875 C 4.03125 -1.007812 4.273438 -0.90625 4.578125 -0.90625 C 4.785156 -0.90625 4.96875 -0.953125 5.125 -1.046875 C 5.289062 -1.148438 5.460938 -1.296875 5.640625 -1.484375 L 6.296875 -0.71875 C 6.078125 -0.476562 5.816406 -0.273438 5.515625 -0.109375 C 5.222656 0.0429688 4.890625 0.125 4.515625 0.125 Z M 4.515625 0.125 "/>
</g>
<g id="glyph-3-13-ff4d93d4">
<path d="M 4.1875 0.078125 C 3.601562 0.078125 3.175781 -0.0390625 2.90625 -0.28125 C 2.644531 -0.53125 2.515625 -0.894531 2.515625 -1.375 L 2.515625 -5.140625 L 0.828125 -5.140625 L 0.828125 -6.046875 L 2.515625 -6.046875 L 2.515625 -8.0625 L 3.609375 -8.0625 L 3.609375 -6.046875 L 5.296875 -6.046875 L 5.296875 -5.140625 L 3.609375 -5.140625 L 3.609375 -1.8125 C 3.609375 -1.5625 3.640625 -1.367188 3.703125 -1.234375 C 3.765625 -1.097656 3.863281 -1.003906 4 -0.953125 C 4.132812 -0.898438 4.328125 -0.875 4.578125 -0.875 C 4.691406 -0.875 4.859375 -0.890625 5.078125 -0.921875 C 5.304688 -0.953125 5.503906 -0.988281 5.671875 -1.03125 L 5.671875 -0.09375 C 5.492188 -0.0507812 5.253906 -0.0117188 4.953125 0.015625 C 4.648438 0.0546875 4.394531 0.078125 4.1875 0.078125 Z M 4.1875 0.078125 "/>
</g>
<g id="glyph-3-14-ff4d93d4">
<path d="M 3.5 0.09375 C 2.988281 0.09375 2.523438 -0.0234375 2.109375 -0.265625 C 1.691406 -0.515625 1.359375 -0.875 1.109375 -1.34375 C 0.867188 -1.8125 0.75 -2.359375 0.75 -2.984375 C 0.75 -3.597656 0.863281 -4.144531 1.09375 -4.625 C 1.320312 -5.113281 1.632812 -5.488281 2.03125 -5.75 C 2.4375 -6.019531 2.898438 -6.15625 3.421875 -6.15625 C 4.210938 -6.15625 4.8125 -5.851562 5.21875 -5.25 C 5.632812 -4.65625 5.84375 -3.8125 5.84375 -2.71875 L 1.875 -2.71875 C 1.882812 -2.113281 2.03125 -1.65625 2.3125 -1.34375 C 2.601562 -1.039062 3.007812 -0.890625 3.53125 -0.890625 C 3.882812 -0.890625 4.21875 -0.941406 4.53125 -1.046875 C 4.851562 -1.160156 5.09375 -1.285156 5.25 -1.421875 L 5.734375 -0.609375 C 5.585938 -0.492188 5.394531 -0.378906 5.15625 -0.265625 C 4.914062 -0.160156 4.648438 -0.0703125 4.359375 0 C 4.066406 0.0625 3.78125 0.09375 3.5 0.09375 Z M 4.8125 -3.625 C 4.8125 -3.9375 4.75 -4.210938 4.625 -4.453125 C 4.5 -4.691406 4.332031 -4.878906 4.125 -5.015625 C 3.914062 -5.148438 3.675781 -5.21875 3.40625 -5.21875 C 3.132812 -5.21875 2.882812 -5.148438 2.65625 -5.015625 C 2.425781 -4.878906 2.242188 -4.691406 2.109375 -4.453125 C 1.972656 -4.210938 1.90625 -3.9375 1.90625 -3.625 Z M 4.8125 -3.625 "/>
</g>
<g id="glyph-3-15-ff4d93d4">
<path d="M 3.328125 0.0625 C 2.785156 0.0625 2.328125 -0.0234375 1.953125 -0.203125 C 1.578125 -0.390625 1.234375 -0.664062 0.921875 -1.03125 L 1.578125 -1.71875 C 1.773438 -1.53125 1.953125 -1.378906 2.109375 -1.265625 C 2.273438 -1.148438 2.457031 -1.054688 2.65625 -0.984375 C 2.863281 -0.921875 3.101562 -0.890625 3.375 -0.890625 C 3.707031 -0.890625 4 -0.953125 4.25 -1.078125 C 4.507812 -1.210938 4.640625 -1.425781 4.640625 -1.71875 C 4.640625 -1.875 4.59375 -2 4.5 -2.09375 C 4.414062 -2.1875 4.300781 -2.257812 4.15625 -2.3125 C 4.007812 -2.363281 3.796875 -2.421875 3.515625 -2.484375 C 3.359375 -2.523438 3.207031 -2.566406 3.0625 -2.609375 C 2.632812 -2.722656 2.28125 -2.84375 2 -2.96875 C 1.726562 -3.09375 1.507812 -3.269531 1.34375 -3.5 C 1.175781 -3.726562 1.09375 -4.019531 1.09375 -4.375 C 1.09375 -4.75 1.1875 -5.070312 1.375 -5.34375 C 1.570312 -5.613281 1.835938 -5.816406 2.171875 -5.953125 C 2.515625 -6.085938 2.894531 -6.15625 3.3125 -6.15625 C 4.195312 -6.15625 4.890625 -5.898438 5.390625 -5.390625 L 4.734375 -4.671875 C 4.335938 -5.003906 3.878906 -5.171875 3.359375 -5.171875 C 2.992188 -5.171875 2.695312 -5.097656 2.46875 -4.953125 C 2.25 -4.816406 2.140625 -4.632812 2.140625 -4.40625 C 2.140625 -4.21875 2.21875 -4.054688 2.375 -3.921875 C 2.53125 -3.796875 2.71875 -3.695312 2.9375 -3.625 C 3.15625 -3.550781 3.4375 -3.472656 3.78125 -3.390625 L 3.984375 -3.34375 C 4.265625 -3.257812 4.519531 -3.164062 4.75 -3.0625 C 4.976562 -2.96875 5.1875 -2.804688 5.375 -2.578125 C 5.5625 -2.359375 5.65625 -2.066406 5.65625 -1.703125 C 5.65625 -1.285156 5.546875 -0.945312 5.328125 -0.6875 C 5.117188 -0.425781 4.835938 -0.234375 4.484375 -0.109375 C 4.140625 0.00390625 3.753906 0.0625 3.328125 0.0625 Z M 3.328125 0.0625 "/>
</g>
<g id="glyph-3-16-ff4d93d4">
<path d="M 2.5625 -7.96875 L 4.046875 -7.96875 L 6.140625 0 L 4.9375 0 L 4.40625 -2.078125 L 2.140625 -2.078125 L 1.625 0 L 0.46875 0 Z M 4.203125 -3.03125 L 3.34375 -6.8125 L 3.25 -6.8125 L 2.40625 -3.03125 Z M 4.203125 -3.03125 "/>
</g>
<g id="glyph-4-0-ff4d93d4">
<path d="M 0.21875 -3.890625 C 0.21875 -2.828125 -0.171875 -2.023438 -0.953125 -1.484375 C -1.734375 -0.953125 -2.832031 -0.6875 -4.25 -0.6875 C -5.195312 -0.6875 -6.007812 -0.8125 -6.6875 -1.0625 C -7.375 -1.3125 -7.898438 -1.679688 -8.265625 -2.171875 C -8.628906 -2.671875 -8.8125 -3.285156 -8.8125 -4.015625 C -8.8125 -4.546875 -8.710938 -5.035156 -8.515625 -5.484375 C -8.316406 -5.929688 -8.015625 -6.296875 -7.609375 -6.578125 L -6.90625 -5.8125 C -7.195312 -5.539062 -7.390625 -5.265625 -7.484375 -4.984375 C -7.585938 -4.710938 -7.640625 -4.398438 -7.640625 -4.046875 C -7.640625 -3.328125 -7.34375 -2.804688 -6.75 -2.484375 C -6.164062 -2.171875 -5.335938 -2.015625 -4.265625 -2.015625 C -3.191406 -2.015625 -2.375 -2.160156 -1.8125 -2.453125 C -1.25 -2.753906 -0.96875 -3.265625 -0.96875 -3.984375 C -0.96875 -4.359375 -1.023438 -4.695312 -1.140625 -5 C -1.265625 -5.300781 -1.46875 -5.570312 -1.75 -5.8125 L -1.03125 -6.53125 C -0.625 -6.207031 -0.3125 -5.828125 -0.09375 -5.390625 C 0.113281 -4.960938 0.21875 -4.460938 0.21875 -3.890625 Z M 0.21875 -3.890625 "/>
</g>
<g id="glyph-4-1-ff4d93d4">
<path d="M -9.484375 -0.953125 L -9.484375 -2.1875 L -5.65625 -2.1875 C -6.007812 -2.4375 -6.269531 -2.734375 -6.4375 -3.078125 C -6.613281 -3.421875 -6.703125 -3.789062 -6.703125 -4.1875 C -6.703125 -4.945312 -6.488281 -5.492188 -6.0625 -5.828125 C -5.644531 -6.160156 -5.03125 -6.328125 -4.21875 -6.328125 L 0 -6.328125 L 0 -5.09375 L -3.671875 -5.09375 C -4.097656 -5.09375 -4.445312 -5.0625 -4.71875 -5 C -4.988281 -4.9375 -5.203125 -4.8125 -5.359375 -4.625 C -5.515625 -4.445312 -5.59375 -4.179688 -5.59375 -3.828125 C -5.59375 -3.273438 -5.34375 -2.863281 -4.84375 -2.59375 C -4.351562 -2.320312 -3.703125 -2.1875 -2.890625 -2.1875 L 0 -2.1875 L 0 -0.953125 Z M -9.484375 -0.953125 "/>
</g>
<g id="glyph-4-2-ff4d93d4">
<path d="M -8.703125 -2.796875 L -8.703125 -4.40625 L 0 -6.703125 L 0 -5.375 L -2.265625 -4.796875 L -2.265625 -2.328125 L 0 -1.765625 L 0 -0.515625 Z M -3.296875 -4.59375 L -7.421875 -3.640625 L -7.421875 -3.546875 L -3.296875 -2.625 Z M -3.296875 -4.59375 "/>
</g>
<g id="glyph-4-3-ff4d93d4">
<path d="M 0.09375 -3.03125 C 0.09375 -2.332031 -0.113281 -1.8125 -0.53125 -1.46875 C -0.945312 -1.132812 -1.539062 -0.96875 -2.3125 -0.96875 L -6.59375 -0.96875 L -6.59375 -2.171875 L -2.609375 -2.171875 C -2.234375 -2.171875 -1.921875 -2.195312 -1.671875 -2.25 C -1.429688 -2.3125 -1.234375 -2.429688 -1.078125 -2.609375 C -0.929688 -2.785156 -0.859375 -3.050781 -0.859375 -3.40625 C -0.859375 -3.757812 -0.953125 -4.050781 -1.140625 -4.28125 C -1.328125 -4.519531 -1.570312 -4.691406 -1.875 -4.796875 C -2.1875 -4.910156 -2.523438 -4.96875 -2.890625 -4.96875 L -6.59375 -4.96875 L -6.59375 -6.1875 L -1.421875 -6.1875 C -1.171875 -6.1875 -0.859375 -6.195312 -0.484375 -6.21875 L 0 -6.234375 L 0 -5.0625 L -0.796875 -5.015625 C -0.472656 -4.785156 -0.242188 -4.507812 -0.109375 -4.1875 C 0.0234375 -3.863281 0.09375 -3.476562 0.09375 -3.03125 Z M 0.09375 -3.03125 "/>
</g>
<g id="glyph-4-4-ff4d93d4">
<path d="M 2.921875 -1.640625 C 2.285156 -2.085938 1.597656 -2.484375 0.859375 -2.828125 C 0.128906 -3.179688 -0.597656 -3.457031 -1.328125 -3.65625 C -2.066406 -3.863281 -2.753906 -3.96875 -3.390625 -3.96875 C -4.472656 -3.96875 -5.582031 -3.765625 -6.71875 -3.359375 C -7.851562 -2.953125 -8.96875 -2.378906 -10.0625 -1.640625 L -10.0625 -2.6875 C -9.007812 -3.5 -7.878906 -4.132812 -6.671875 -4.59375 C -5.460938 -5.0625 -4.300781 -5.296875 -3.1875 -5.296875 C -2.476562 -5.296875 -1.789062 -5.1875 -1.125 -4.96875 C -0.457031 -4.757812 0.191406 -4.46875 0.828125 -4.09375 C 1.460938 -3.726562 2.160156 -3.265625 2.921875 -2.703125 Z M 2.921875 -1.640625 "/>
</g>
<g id="glyph-5-0-ff4d93d4">
<path d="M 0.125 -2.859375 C 0.125 -2.421875 0.0429688 -2.039062 -0.109375 -1.71875 C -0.265625 -1.40625 -0.484375 -1.164062 -0.765625 -1 C -1.046875 -0.832031 -1.382812 -0.75 -1.78125 -0.75 C -2.625 -0.75 -3.203125 -1.078125 -3.515625 -1.734375 C -3.828125 -2.398438 -3.984375 -3.222656 -3.984375 -4.203125 L -3.984375 -4.90625 L -4.296875 -4.90625 C -4.648438 -4.90625 -4.972656 -4.8125 -5.265625 -4.625 C -5.554688 -4.445312 -5.703125 -4.085938 -5.703125 -3.546875 C -5.703125 -3.296875 -5.664062 -3.0625 -5.59375 -2.84375 C -5.53125 -2.632812 -5.453125 -2.453125 -5.359375 -2.296875 C -5.273438 -2.140625 -5.148438 -1.941406 -4.984375 -1.703125 L -5.796875 -1.125 C -6.066406 -1.5 -6.28125 -1.878906 -6.4375 -2.265625 C -6.601562 -2.648438 -6.6875 -3.117188 -6.6875 -3.671875 C -6.6875 -4.628906 -6.445312 -5.273438 -5.96875 -5.609375 C -5.5 -5.941406 -4.941406 -6.109375 -4.296875 -6.109375 L -1.875 -6.109375 C -1.34375 -6.109375 -0.71875 -6.144531 0 -6.21875 L 0 -5.015625 C -0.175781 -5.003906 -0.398438 -4.988281 -0.671875 -4.96875 L -0.875 -4.96875 C -0.53125 -4.757812 -0.273438 -4.46875 -0.109375 -4.09375 C 0.0429688 -3.71875 0.125 -3.304688 0.125 -2.859375 Z M -0.796875 -3.15625 C -0.796875 -3.757812 -1 -4.203125 -1.40625 -4.484375 C -1.8125 -4.765625 -2.363281 -4.90625 -3.0625 -4.90625 L -3.078125 -4.453125 C -3.078125 -3.859375 -3.035156 -3.378906 -2.953125 -3.015625 C -2.867188 -2.648438 -2.734375 -2.378906 -2.546875 -2.203125 C -2.367188 -2.023438 -2.132812 -1.9375 -1.84375 -1.9375 C -1.476562 -1.9375 -1.210938 -2.046875 -1.046875 -2.265625 C -0.878906 -2.484375 -0.796875 -2.78125 -0.796875 -3.15625 Z M -0.796875 -3.15625 "/>
</g>
<g id="glyph-5-1-ff4d93d4">
<path d="M -5.296875 -2.625 L -5.296875 -0.90625 L -6.296875 -0.90625 L -6.296875 -2.640625 L -7.421875 -2.640625 C -8.179688 -2.640625 -8.710938 -2.832031 -9.015625 -3.21875 C -9.328125 -3.613281 -9.484375 -4.179688 -9.484375 -4.921875 C -9.484375 -5.546875 -9.46875 -6 -9.4375 -6.28125 L -8.40625 -6.28125 C -8.4375 -5.832031 -8.453125 -5.472656 -8.453125 -5.203125 C -8.453125 -4.898438 -8.425781 -4.648438 -8.375 -4.453125 C -8.320312 -4.265625 -8.21875 -4.113281 -8.0625 -4 C -7.90625 -3.882812 -7.679688 -3.828125 -7.390625 -3.828125 L -6.296875 -3.828125 L -6.296875 -5.75 L -5.296875 -5.75 L -5.296875 -3.84375 L 0 -3.84375 L 0 -2.625 Z M -5.296875 -2.625 "/>
</g>
<g id="glyph-5-2-ff4d93d4">
<path d="M 0.09375 -3.59375 C 0.09375 -3.019531 -0.0390625 -2.519531 -0.3125 -2.09375 C -0.59375 -1.675781 -0.988281 -1.351562 -1.5 -1.125 C -2.007812 -0.90625 -2.609375 -0.796875 -3.296875 -0.796875 C -3.992188 -0.796875 -4.597656 -0.910156 -5.109375 -1.140625 C -5.628906 -1.367188 -6.023438 -1.691406 -6.296875 -2.109375 C -6.578125 -2.535156 -6.71875 -3.035156 -6.71875 -3.609375 C -6.71875 -4.179688 -6.578125 -4.675781 -6.296875 -5.09375 C -6.023438 -5.507812 -5.628906 -5.832031 -5.109375 -6.0625 C -4.597656 -6.289062 -3.992188 -6.40625 -3.296875 -6.40625 C -2.609375 -6.40625 -2.007812 -6.289062 -1.5 -6.0625 C -0.988281 -5.84375 -0.59375 -5.519531 -0.3125 -5.09375 C -0.0390625 -4.675781 0.09375 -4.175781 0.09375 -3.59375 Z M -0.953125 -3.578125 C -0.953125 -3.898438 -1.046875 -4.179688 -1.234375 -4.421875 C -1.421875 -4.660156 -1.691406 -4.84375 -2.046875 -4.96875 C -2.398438 -5.09375 -2.816406 -5.15625 -3.296875 -5.15625 C -3.773438 -5.15625 -4.191406 -5.09375 -4.546875 -4.96875 C -4.910156 -4.84375 -5.1875 -4.660156 -5.375 -4.421875 C -5.570312 -4.179688 -5.671875 -3.898438 -5.671875 -3.578125 C -5.671875 -3.265625 -5.570312 -2.988281 -5.375 -2.75 C -5.1875 -2.519531 -4.910156 -2.34375 -4.546875 -2.21875 C -4.191406 -2.101562 -3.773438 -2.046875 -3.296875 -2.046875 C -2.804688 -2.046875 -2.382812 -2.101562 -2.03125 -2.21875 C -1.6875 -2.34375 -1.421875 -2.519531 -1.234375 -2.75 C -1.046875 -2.988281 -0.953125 -3.265625 -0.953125 -3.578125 Z M -0.953125 -3.578125 "/>
</g>
<g id="glyph-5-3-ff4d93d4">
<path d="M -6.59375 -0.4375 L -6.59375 -1.671875 L -1.390625 -2.3125 L -1.453125 -2.375 L -5.53125 -3.15625 L -5.53125 -4.046875 L -1.453125 -4.84375 L -1.390625 -4.890625 L -6.59375 -5.59375 L -6.59375 -6.765625 L 0 -5.59375 L 0 -4.4375 L -3.75 -3.59375 L 0 -2.75 L 0 -1.5625 Z M -6.59375 -0.4375 "/>
</g>
<g id="glyph-5-4-ff4d93d4">
<path d="M -5.125 -0.5625 C -5.507812 -0.5625 -6 -0.535156 -6.59375 -0.484375 L -6.59375 -1.609375 L -5.859375 -1.6875 C -6.140625 -1.800781 -6.347656 -1.953125 -6.484375 -2.140625 C -6.628906 -2.328125 -6.703125 -2.550781 -6.703125 -2.8125 C -6.703125 -3.382812 -6.335938 -3.726562 -5.609375 -3.84375 C -6.015625 -3.9375 -6.296875 -4.109375 -6.453125 -4.359375 C -6.617188 -4.609375 -6.703125 -4.898438 -6.703125 -5.234375 C -6.703125 -5.515625 -6.625 -5.765625 -6.46875 -5.984375 C -6.3125 -6.203125 -6.082031 -6.375 -5.78125 -6.5 C -5.476562 -6.632812 -5.113281 -6.703125 -4.6875 -6.703125 L 0 -6.703125 L 0 -5.484375 L -4.484375 -5.484375 C -4.910156 -5.484375 -5.21875 -5.4375 -5.40625 -5.34375 C -5.59375 -5.257812 -5.6875 -5.117188 -5.6875 -4.921875 C -5.6875 -4.484375 -5.316406 -4.265625 -4.578125 -4.265625 L 0 -4.265625 L 0 -3.03125 L -4.484375 -3.03125 C -5.285156 -3.03125 -5.6875 -2.816406 -5.6875 -2.390625 C -5.6875 -2.191406 -5.601562 -2.046875 -5.4375 -1.953125 C -5.269531 -1.859375 -4.984375 -1.8125 -4.578125 -1.8125 L 0 -1.8125 L 0 -0.5625 Z M -5.125 -0.5625 "/>
</g>
<g id="glyph-6-0-ff4d93d4">
<path d="M 0.0625 -3.625 C 0.0625 -3.039062 -0.0351562 -2.539062 -0.234375 -2.125 C -0.429688 -1.71875 -0.726562 -1.347656 -1.125 -1.015625 L -1.875 -1.71875 C -1.664062 -1.9375 -1.5 -2.132812 -1.375 -2.3125 C -1.25 -2.488281 -1.148438 -2.6875 -1.078125 -2.90625 C -1.003906 -3.132812 -0.96875 -3.394531 -0.96875 -3.6875 C -0.96875 -4.039062 -1.035156 -4.359375 -1.171875 -4.640625 C -1.316406 -4.921875 -1.550781 -5.0625 -1.875 -5.0625 C -2.050781 -5.0625 -2.1875 -5.007812 -2.28125 -4.90625 C -2.382812 -4.8125 -2.460938 -4.6875 -2.515625 -4.53125 C -2.578125 -4.375 -2.644531 -4.140625 -2.71875 -3.828125 C -2.757812 -3.660156 -2.800781 -3.5 -2.84375 -3.34375 C -2.96875 -2.875 -3.097656 -2.488281 -3.234375 -2.1875 C -3.378906 -1.894531 -3.570312 -1.65625 -3.8125 -1.46875 C -4.0625 -1.28125 -4.378906 -1.1875 -4.765625 -1.1875 C -5.179688 -1.1875 -5.535156 -1.289062 -5.828125 -1.5 C -6.117188 -1.71875 -6.335938 -2.007812 -6.484375 -2.375 C -6.640625 -2.738281 -6.71875 -3.15625 -6.71875 -3.625 C -6.71875 -4.582031 -6.441406 -5.335938 -5.890625 -5.890625 L -5.09375 -5.171875 C -5.457031 -4.734375 -5.640625 -4.226562 -5.640625 -3.65625 C -5.640625 -3.269531 -5.5625 -2.953125 -5.40625 -2.703125 C -5.257812 -2.460938 -5.0625 -2.34375 -4.8125 -2.34375 C -4.601562 -2.34375 -4.425781 -2.425781 -4.28125 -2.59375 C -4.144531 -2.757812 -4.035156 -2.960938 -3.953125 -3.203125 C -3.878906 -3.441406 -3.796875 -3.75 -3.703125 -4.125 L -3.640625 -4.34375 C -3.554688 -4.65625 -3.457031 -4.9375 -3.34375 -5.1875 C -3.238281 -5.4375 -3.0625 -5.660156 -2.8125 -5.859375 C -2.570312 -6.066406 -2.253906 -6.171875 -1.859375 -6.171875 C -1.398438 -6.171875 -1.023438 -6.050781 -0.734375 -5.8125 C -0.453125 -5.582031 -0.25 -5.273438 -0.125 -4.890625 C 0 -4.515625 0.0625 -4.09375 0.0625 -3.625 Z M 0.0625 -3.625 "/>
</g>
<g id="glyph-6-1-ff4d93d4">
<path d="M 0.140625 -4.921875 C 0.140625 -4.171875 -0.0390625 -3.609375 -0.40625 -3.234375 C -0.769531 -2.867188 -1.320312 -2.6875 -2.0625 -2.6875 L -8.484375 -2.6875 L -8.484375 -0.625 L -9.484375 -0.625 L -9.484375 -3.890625 L -2.375 -3.890625 C -1.894531 -3.890625 -1.539062 -3.988281 -1.3125 -4.1875 C -1.09375 -4.394531 -0.984375 -4.660156 -0.984375 -4.984375 C -0.984375 -5.210938 -1.035156 -5.414062 -1.140625 -5.59375 C -1.253906 -5.769531 -1.410156 -5.957031 -1.609375 -6.15625 L -0.78125 -6.875 C -0.519531 -6.625 -0.300781 -6.335938 -0.125 -6.015625 C 0.0507812 -5.691406 0.140625 -5.328125 0.140625 -4.921875 Z M 0.140625 -4.921875 "/>
</g>
<g id="glyph-6-2-ff4d93d4">
</g>
<g id="glyph-6-3-ff4d93d4">
<path d="M 0.09375 -3.59375 C 0.09375 -3.019531 -0.0390625 -2.519531 -0.3125 -2.09375 C -0.59375 -1.675781 -0.988281 -1.351562 -1.5 -1.125 C -2.007812 -0.90625 -2.609375 -0.796875 -3.296875 -0.796875 C -3.992188 -0.796875 -4.597656 -0.910156 -5.109375 -1.140625 C -5.628906 -1.367188 -6.023438 -1.691406 -6.296875 -2.109375 C -6.578125 -2.535156 -6.71875 -3.035156 -6.71875 -3.609375 C -6.71875 -4.179688 -6.578125 -4.675781 -6.296875 -5.09375 C -6.023438 -5.507812 -5.628906 -5.832031 -5.109375 -6.0625 C -4.597656 -6.289062 -3.992188 -6.40625 -3.296875 -6.40625 C -2.609375 -6.40625 -2.007812 -6.289062 -1.5 -6.0625 C -0.988281 -5.84375 -0.59375 -5.519531 -0.3125 -5.09375 C -0.0390625 -4.675781 0.09375 -4.175781 0.09375 -3.59375 Z M -0.953125 -3.578125 C -0.953125 -3.898438 -1.046875 -4.179688 -1.234375 -4.421875 C -1.421875 -4.660156 -1.691406 -4.84375 -2.046875 -4.96875 C -2.398438 -5.09375 -2.816406 -5.15625 -3.296875 -5.15625 C -3.773438 -5.15625 -4.191406 -5.09375 -4.546875 -4.96875 C -4.910156 -4.84375 -5.1875 -4.660156 -5.375 -4.421875 C -5.570312 -4.179688 -5.671875 -3.898438 -5.671875 -3.578125 C -5.671875 -3.265625 -5.570312 -2.988281 -5.375 -2.75 C -5.1875 -2.519531 -4.910156 -2.34375 -4.546875 -2.21875 C -4.191406 -2.101562 -3.773438 -2.046875 -3.296875 -2.046875 C -2.804688 -2.046875 -2.382812 -2.101562 -2.03125 -2.21875 C -1.6875 -2.34375 -1.421875 -2.519531 -1.234375 -2.75 C -1.046875 -2.988281 -0.953125 -3.265625 -0.953125 -3.578125 Z M -0.953125 -3.578125 "/>
</g>
<g id="glyph-6-4-ff4d93d4">
<path d="M 0.078125 -3.921875 C 0.078125 -3.304688 -0.0507812 -2.757812 -0.3125 -2.28125 C -0.582031 -1.8125 -0.972656 -1.441406 -1.484375 -1.171875 C -1.992188 -0.910156 -2.597656 -0.78125 -3.296875 -0.78125 C -3.972656 -0.78125 -4.566406 -0.914062 -5.078125 -1.1875 C -5.597656 -1.457031 -5.992188 -1.835938 -6.265625 -2.328125 C -6.546875 -2.816406 -6.6875 -3.378906 -6.6875 -4.015625 C -6.6875 -4.523438 -6.585938 -4.960938 -6.390625 -5.328125 C -6.191406 -5.703125 -5.941406 -6.003906 -5.640625 -6.234375 L -4.890625 -5.46875 C -5.109375 -5.25 -5.28125 -5.03125 -5.40625 -4.8125 C -5.539062 -4.601562 -5.609375 -4.34375 -5.609375 -4.03125 C -5.609375 -3.644531 -5.507812 -3.296875 -5.3125 -2.984375 C -5.125 -2.679688 -4.859375 -2.441406 -4.515625 -2.265625 C -4.171875 -2.097656 -3.773438 -2.015625 -3.328125 -2.015625 C -2.867188 -2.015625 -2.460938 -2.097656 -2.109375 -2.265625 C -1.765625 -2.441406 -1.492188 -2.675781 -1.296875 -2.96875 C -1.109375 -3.269531 -1.015625 -3.597656 -1.015625 -3.953125 C -1.015625 -4.265625 -1.09375 -4.550781 -1.25 -4.8125 C -1.414062 -5.082031 -1.617188 -5.332031 -1.859375 -5.5625 L -1.109375 -6.3125 C -0.753906 -6.019531 -0.46875 -5.6875 -0.25 -5.3125 C -0.03125 -4.9375 0.078125 -4.472656 0.078125 -3.921875 Z M 0.078125 -3.921875 "/>
</g>
<g id="glyph-6-5-ff4d93d4">
<path d="M 0.09375 -3.03125 C 0.09375 -2.332031 -0.113281 -1.8125 -0.53125 -1.46875 C -0.945312 -1.132812 -1.539062 -0.96875 -2.3125 -0.96875 L -6.59375 -0.96875 L -6.59375 -2.171875 L -2.609375 -2.171875 C -2.234375 -2.171875 -1.921875 -2.195312 -1.671875 -2.25 C -1.429688 -2.3125 -1.234375 -2.429688 -1.078125 -2.609375 C -0.929688 -2.785156 -0.859375 -3.050781 -0.859375 -3.40625 C -0.859375 -3.757812 -0.953125 -4.050781 -1.140625 -4.28125 C -1.328125 -4.519531 -1.570312 -4.691406 -1.875 -4.796875 C -2.1875 -4.910156 -2.523438 -4.96875 -2.890625 -4.96875 L -6.59375 -4.96875 L -6.59375 -6.1875 L -1.421875 -6.1875 C -1.171875 -6.1875 -0.859375 -6.195312 -0.484375 -6.21875 L 0 -6.234375 L 0 -5.0625 L -0.796875 -5.015625 C -0.472656 -4.785156 -0.242188 -4.507812 -0.109375 -4.1875 C 0.0234375 -3.863281 0.09375 -3.476562 0.09375 -3.03125 Z M 0.09375 -3.03125 "/>
</g>
<g id="glyph-6-6-ff4d93d4">
<path d="M 0.078125 -4.5625 C 0.078125 -3.925781 -0.0507812 -3.460938 -0.3125 -3.171875 C -0.582031 -2.878906 -0.976562 -2.734375 -1.5 -2.734375 L -5.609375 -2.734375 L -5.609375 -0.90625 L -6.59375 -0.90625 L -6.59375 -2.734375 L -8.796875 -2.734375 L -8.796875 -3.9375 L -6.59375 -3.9375 L -6.59375 -5.78125 L -5.609375 -5.78125 L -5.609375 -3.9375 L -1.984375 -3.9375 C -1.703125 -3.9375 -1.488281 -3.96875 -1.34375 -4.03125 C -1.195312 -4.101562 -1.09375 -4.210938 -1.03125 -4.359375 C -0.976562 -4.503906 -0.953125 -4.710938 -0.953125 -4.984375 C -0.953125 -5.117188 -0.96875 -5.304688 -1 -5.546875 C -1.039062 -5.796875 -1.082031 -6.007812 -1.125 -6.1875 L -0.109375 -6.1875 C -0.0546875 -5.988281 -0.0117188 -5.722656 0.015625 -5.390625 C 0.0546875 -5.066406 0.078125 -4.789062 0.078125 -4.5625 Z M 0.078125 -4.5625 "/>
</g>
<g id="glyph-7-0-ff4d93d4">
<path d="M -4.96875 -0.984375 C -5.226562 -0.984375 -5.460938 -0.972656 -5.671875 -0.953125 C -5.890625 -0.941406 -6.195312 -0.921875 -6.59375 -0.890625 L -6.59375 -2.03125 L -5.515625 -2.140625 C -5.898438 -2.367188 -6.195312 -2.65625 -6.40625 -3 C -6.613281 -3.351562 -6.71875 -3.75 -6.71875 -4.1875 C -6.71875 -4.863281 -6.476562 -5.378906 -6 -5.734375 C -5.53125 -6.097656 -4.867188 -6.28125 -4.015625 -6.28125 L 0 -6.28125 L 0 -5.0625 L -3.53125 -5.0625 C -4.175781 -5.0625 -4.695312 -4.96875 -5.09375 -4.78125 C -5.488281 -4.59375 -5.6875 -4.242188 -5.6875 -3.734375 C -5.6875 -3.359375 -5.5625 -3.054688 -5.3125 -2.828125 C -5.0625 -2.597656 -4.742188 -2.429688 -4.359375 -2.328125 C -3.972656 -2.234375 -3.5625 -2.1875 -3.125 -2.1875 L 0 -2.1875 L 0 -0.984375 Z M -4.96875 -0.984375 "/>
</g>
<g id="glyph-7-1-ff4d93d4">
</g>
<g id="glyph-8-0-ff4d93d4">
<path d="M 0.078125 -4.5625 C 0.078125 -3.925781 -0.0507812 -3.460938 -0.3125 -3.171875 C -0.582031 -2.878906 -0.976562 -2.734375 -1.5 -2.734375 L -5.609375 -2.734375 L -5.609375 -0.90625 L -6.59375 -0.90625 L -6.59375 -2.734375 L -8.796875 -2.734375 L -8.796875 -3.9375 L -6.59375 -3.9375 L -6.59375 -5.78125 L -5.609375 -5.78125 L -5.609375 -3.9375 L -1.984375 -3.9375 C -1.703125 -3.9375 -1.488281 -3.96875 -1.34375 -4.03125 C -1.195312 -4.101562 -1.09375 -4.210938 -1.03125 -4.359375 C -0.976562 -4.503906 -0.953125 -4.710938 -0.953125 -4.984375 C -0.953125 -5.117188 -0.96875 -5.304688 -1 -5.546875 C -1.039062 -5.796875 -1.082031 -6.007812 -1.125 -6.1875 L -0.109375 -6.1875 C -0.0546875 -5.988281 -0.0117188 -5.722656 0.015625 -5.390625 C 0.0546875 -5.066406 0.078125 -4.789062 0.078125 -4.5625 Z M 0.078125 -4.5625 "/>
</g>
<g id="glyph-9-0-ff4d93d4">
<path d="M 2.921875 -4.8125 C 2.160156 -4.257812 1.460938 -3.796875 0.828125 -3.421875 C 0.191406 -3.054688 -0.457031 -2.765625 -1.125 -2.546875 C -1.789062 -2.328125 -2.476562 -2.21875 -3.1875 -2.21875 C -4.300781 -2.21875 -5.460938 -2.453125 -6.671875 -2.921875 C -7.878906 -3.390625 -9.007812 -4.023438 -10.0625 -4.828125 L -10.0625 -5.875 C -8.96875 -5.132812 -7.851562 -4.5625 -6.71875 -4.15625 C -5.582031 -3.75 -4.472656 -3.546875 -3.390625 -3.546875 C -2.753906 -3.546875 -2.066406 -3.644531 -1.328125 -3.84375 C -0.597656 -4.050781 0.128906 -4.328125 0.859375 -4.671875 C 1.597656 -5.023438 2.285156 -5.425781 2.921875 -5.875 Z M 2.921875 -4.8125 "/>
</g>
<g id="glyph-9-1-ff4d93d4">
<path d="M 0.140625 -4.921875 C 0.140625 -4.171875 -0.0390625 -3.609375 -0.40625 -3.234375 C -0.769531 -2.867188 -1.320312 -2.6875 -2.0625 -2.6875 L -8.484375 -2.6875 L -8.484375 -0.625 L -9.484375 -0.625 L -9.484375 -3.890625 L -2.375 -3.890625 C -1.894531 -3.890625 -1.539062 -3.988281 -1.3125 -4.1875 C -1.09375 -4.394531 -0.984375 -4.660156 -0.984375 -4.984375 C -0.984375 -5.210938 -1.035156 -5.414062 -1.140625 -5.59375 C -1.253906 -5.769531 -1.410156 -5.957031 -1.609375 -6.15625 L -0.78125 -6.875 C -0.519531 -6.625 -0.300781 -6.335938 -0.125 -6.015625 C 0.0507812 -5.691406 0.140625 -5.328125 0.140625 -4.921875 Z M 0.140625 -4.921875 "/>
</g>
<g id="glyph-9-2-ff4d93d4">
<path d="M 0.125 -2.859375 C 0.125 -2.421875 0.0429688 -2.039062 -0.109375 -1.71875 C -0.265625 -1.40625 -0.484375 -1.164062 -0.765625 -1 C -1.046875 -0.832031 -1.382812 -0.75 -1.78125 -0.75 C -2.625 -0.75 -3.203125 -1.078125 -3.515625 -1.734375 C -3.828125 -2.398438 -3.984375 -3.222656 -3.984375 -4.203125 L -3.984375 -4.90625 L -4.296875 -4.90625 C -4.648438 -4.90625 -4.972656 -4.8125 -5.265625 -4.625 C -5.554688 -4.445312 -5.703125 -4.085938 -5.703125 -3.546875 C -5.703125 -3.296875 -5.664062 -3.0625 -5.59375 -2.84375 C -5.53125 -2.632812 -5.453125 -2.453125 -5.359375 -2.296875 C -5.273438 -2.140625 -5.148438 -1.941406 -4.984375 -1.703125 L -5.796875 -1.125 C -6.066406 -1.5 -6.28125 -1.878906 -6.4375 -2.265625 C -6.601562 -2.648438 -6.6875 -3.117188 -6.6875 -3.671875 C -6.6875 -4.628906 -6.445312 -5.273438 -5.96875 -5.609375 C -5.5 -5.941406 -4.941406 -6.109375 -4.296875 -6.109375 L -1.875 -6.109375 C -1.34375 -6.109375 -0.71875 -6.144531 0 -6.21875 L 0 -5.015625 C -0.175781 -5.003906 -0.398438 -4.988281 -0.671875 -4.96875 L -0.875 -4.96875 C -0.53125 -4.757812 -0.273438 -4.46875 -0.109375 -4.09375 C 0.0429688 -3.71875 0.125 -3.304688 0.125 -2.859375 Z M -0.796875 -3.15625 C -0.796875 -3.757812 -1 -4.203125 -1.40625 -4.484375 C -1.8125 -4.765625 -2.363281 -4.90625 -3.0625 -4.90625 L -3.078125 -4.453125 C -3.078125 -3.859375 -3.035156 -3.378906 -2.953125 -3.015625 C -2.867188 -2.648438 -2.734375 -2.378906 -2.546875 -2.203125 C -2.367188 -2.023438 -2.132812 -1.9375 -1.84375 -1.9375 C -1.476562 -1.9375 -1.210938 -2.046875 -1.046875 -2.265625 C -0.878906 -2.484375 -0.796875 -2.78125 -0.796875 -3.15625 Z M -0.796875 -3.15625 "/>
</g>
<g id="glyph-9-3-ff4d93d4">
<path d="M -6.625 -0.875 L -6.625 -2.21875 L -1.625 -3.609375 L -6.625 -5.046875 L -6.625 -6.328125 L 0 -4.296875 L 0 -2.90625 Z M -6.625 -0.875 "/>
</g>
<g id="glyph-10-0-ff4d93d4">
<path d="M -5.125 -0.5625 C -5.507812 -0.5625 -6 -0.535156 -6.59375 -0.484375 L -6.59375 -1.609375 L -5.859375 -1.6875 C -6.140625 -1.800781 -6.347656 -1.953125 -6.484375 -2.140625 C -6.628906 -2.328125 -6.703125 -2.550781 -6.703125 -2.8125 C -6.703125 -3.382812 -6.335938 -3.726562 -5.609375 -3.84375 C -6.015625 -3.9375 -6.296875 -4.109375 -6.453125 -4.359375 C -6.617188 -4.609375 -6.703125 -4.898438 -6.703125 -5.234375 C -6.703125 -5.515625 -6.625 -5.765625 -6.46875 -5.984375 C -6.3125 -6.203125 -6.082031 -6.375 -5.78125 -6.5 C -5.476562 -6.632812 -5.113281 -6.703125 -4.6875 -6.703125 L 0 -6.703125 L 0 -5.484375 L -4.484375 -5.484375 C -4.910156 -5.484375 -5.21875 -5.4375 -5.40625 -5.34375 C -5.59375 -5.257812 -5.6875 -5.117188 -5.6875 -4.921875 C -5.6875 -4.484375 -5.316406 -4.265625 -4.578125 -4.265625 L 0 -4.265625 L 0 -3.03125 L -4.484375 -3.03125 C -5.285156 -3.03125 -5.6875 -2.816406 -5.6875 -2.390625 C -5.6875 -2.191406 -5.601562 -2.046875 -5.4375 -1.953125 C -5.269531 -1.859375 -4.984375 -1.8125 -4.578125 -1.8125 L 0 -1.8125 L 0 -0.5625 Z M -5.125 -0.5625 "/>
</g>
<g id="glyph-11-0-ff4d93d4">
<path d="M -6.59375 -1.21875 L -6.59375 -4.296875 L -0.96875 -4.296875 L -0.96875 -6.125 L 0 -6.125 L 0 -1.109375 L -0.96875 -1.109375 L -0.96875 -3.078125 L -5.671875 -3.078125 L -5.671875 -1.21875 Z M -7.796875 -3.5625 C -7.796875 -3.25 -7.863281 -3.023438 -8 -2.890625 C -8.132812 -2.753906 -8.351562 -2.6875 -8.65625 -2.6875 C -8.976562 -2.6875 -9.203125 -2.753906 -9.328125 -2.890625 C -9.460938 -3.023438 -9.53125 -3.25 -9.53125 -3.5625 C -9.53125 -3.875 -9.460938 -4.09375 -9.328125 -4.21875 C -9.203125 -4.351562 -8.976562 -4.421875 -8.65625 -4.421875 C -8.351562 -4.421875 -8.132812 -4.351562 -8 -4.21875 C -7.863281 -4.09375 -7.796875 -3.875 -7.796875 -3.5625 Z M -7.796875 -3.5625 "/>
</g>
<g id="glyph-12-0-ff4d93d4">
<path d="M 0.109375 -3.8125 C 0.109375 -3.257812 -0.0234375 -2.753906 -0.296875 -2.296875 C -0.566406 -1.847656 -0.957031 -1.488281 -1.46875 -1.21875 C -1.976562 -0.945312 -2.578125 -0.8125 -3.265625 -0.8125 C -3.929688 -0.8125 -4.523438 -0.9375 -5.046875 -1.1875 C -5.578125 -1.4375 -5.988281 -1.78125 -6.28125 -2.21875 C -6.570312 -2.664062 -6.71875 -3.164062 -6.71875 -3.71875 C -6.71875 -4.582031 -6.390625 -5.238281 -5.734375 -5.6875 C -5.085938 -6.144531 -4.164062 -6.375 -2.96875 -6.375 L -2.96875 -2.046875 C -2.3125 -2.054688 -1.8125 -2.21875 -1.46875 -2.53125 C -1.132812 -2.84375 -0.96875 -3.285156 -0.96875 -3.859375 C -0.96875 -4.242188 -1.03125 -4.609375 -1.15625 -4.953125 C -1.28125 -5.296875 -1.410156 -5.550781 -1.546875 -5.71875 L -0.671875 -6.25 C -0.535156 -6.09375 -0.40625 -5.882812 -0.28125 -5.625 C -0.164062 -5.363281 -0.0703125 -5.070312 0 -4.75 C 0.0703125 -4.4375 0.109375 -4.125 0.109375 -3.8125 Z M -3.953125 -5.25 C -4.296875 -5.25 -4.597656 -5.179688 -4.859375 -5.046875 C -5.117188 -4.910156 -5.320312 -4.726562 -5.46875 -4.5 C -5.613281 -4.269531 -5.6875 -4.007812 -5.6875 -3.71875 C -5.6875 -3.414062 -5.613281 -3.140625 -5.46875 -2.890625 C -5.320312 -2.648438 -5.117188 -2.453125 -4.859375 -2.296875 C -4.597656 -2.148438 -4.296875 -2.078125 -3.953125 -2.078125 Z M -3.953125 -5.25 "/>
</g>
<g id="glyph-13-0-ff4d93d4">
<path d="M 4.875 0.265625 C 3.539062 0.265625 2.535156 -0.21875 1.859375 -1.1875 C 1.191406 -2.15625 0.859375 -3.53125 0.859375 -5.3125 C 0.859375 -6.5 1.015625 -7.519531 1.328125 -8.375 C 1.640625 -9.226562 2.101562 -9.878906 2.71875 -10.328125 C 3.34375 -10.785156 4.113281 -11.015625 5.03125 -11.015625 C 5.675781 -11.015625 6.28125 -10.890625 6.84375 -10.640625 C 7.414062 -10.398438 7.875 -10.023438 8.21875 -9.515625 L 7.28125 -8.625 C 6.925781 -9 6.578125 -9.25 6.234375 -9.375 C 5.890625 -9.5 5.5 -9.5625 5.0625 -9.5625 C 4.15625 -9.5625 3.503906 -9.191406 3.109375 -8.453125 C 2.710938 -7.710938 2.515625 -6.671875 2.515625 -5.328125 C 2.515625 -3.992188 2.695312 -2.972656 3.0625 -2.265625 C 3.4375 -1.554688 4.078125 -1.203125 4.984375 -1.203125 C 5.441406 -1.203125 5.859375 -1.28125 6.234375 -1.4375 C 6.617188 -1.59375 6.960938 -1.84375 7.265625 -2.1875 L 8.15625 -1.296875 C 7.757812 -0.785156 7.289062 -0.394531 6.75 -0.125 C 6.207031 0.132812 5.582031 0.265625 4.875 0.265625 Z M 4.875 0.265625 "/>
</g>
<g id="glyph-13-1-ff4d93d4">
<path d="M 3.78125 0.109375 C 2.914062 0.109375 2.269531 -0.144531 1.84375 -0.65625 C 1.414062 -1.175781 1.203125 -1.921875 1.203125 -2.890625 L 1.203125 -8.25 L 2.71875 -8.25 L 2.71875 -3.265625 C 2.71875 -2.796875 2.753906 -2.40625 2.828125 -2.09375 C 2.898438 -1.789062 3.046875 -1.546875 3.265625 -1.359375 C 3.484375 -1.171875 3.8125 -1.078125 4.25 -1.078125 C 4.695312 -1.078125 5.066406 -1.191406 5.359375 -1.421875 C 5.660156 -1.660156 5.875 -1.972656 6 -2.359375 C 6.132812 -2.742188 6.203125 -3.160156 6.203125 -3.609375 L 6.203125 -8.25 L 7.734375 -8.25 L 7.734375 -1.78125 C 7.734375 -1.46875 7.742188 -1.078125 7.765625 -0.609375 L 7.796875 0 L 6.328125 0 L 6.265625 -1 C 5.984375 -0.59375 5.640625 -0.304688 5.234375 -0.140625 C 4.828125 0.0234375 4.34375 0.109375 3.78125 0.109375 Z M 3.78125 0.109375 "/>
</g>
<g id="glyph-13-2-ff4d93d4">
<path d="M 0.71875 -6.40625 C 0.71875 -6.882812 0.679688 -7.5 0.609375 -8.25 L 2.015625 -8.25 L 2.09375 -7.328125 C 2.238281 -7.679688 2.425781 -7.945312 2.65625 -8.125 C 2.894531 -8.300781 3.1875 -8.390625 3.53125 -8.390625 C 4.238281 -8.390625 4.660156 -7.929688 4.796875 -7.015625 C 4.921875 -7.515625 5.132812 -7.863281 5.4375 -8.0625 C 5.75 -8.269531 6.117188 -8.375 6.546875 -8.375 C 6.890625 -8.375 7.195312 -8.273438 7.46875 -8.078125 C 7.75 -7.890625 7.972656 -7.601562 8.140625 -7.21875 C 8.304688 -6.84375 8.390625 -6.382812 8.390625 -5.84375 L 8.390625 0 L 6.84375 0 L 6.84375 -5.609375 C 6.84375 -6.128906 6.789062 -6.507812 6.6875 -6.75 C 6.582031 -6.988281 6.40625 -7.109375 6.15625 -7.109375 C 5.601562 -7.109375 5.328125 -6.644531 5.328125 -5.71875 L 5.328125 0 L 3.78125 0 L 3.78125 -5.609375 C 3.78125 -6.609375 3.515625 -7.109375 2.984375 -7.109375 C 2.742188 -7.109375 2.5625 -7.003906 2.4375 -6.796875 C 2.320312 -6.585938 2.265625 -6.226562 2.265625 -5.71875 L 2.265625 0 L 0.71875 0 Z M 0.71875 -6.40625 "/>
</g>
<g id="glyph-13-3-ff4d93d4">
<path d="M 6.15625 0.1875 C 5.21875 0.1875 4.515625 -0.0390625 4.046875 -0.5 C 3.585938 -0.957031 3.359375 -1.648438 3.359375 -2.578125 L 3.359375 -10.609375 L 0.78125 -10.609375 L 0.78125 -11.84375 L 4.875 -11.84375 L 4.875 -2.96875 C 4.875 -2.375 5 -1.9375 5.25 -1.65625 C 5.5 -1.375 5.828125 -1.234375 6.234375 -1.234375 C 6.523438 -1.234375 6.773438 -1.300781 6.984375 -1.4375 C 7.203125 -1.570312 7.4375 -1.765625 7.6875 -2.015625 L 8.59375 -0.984375 C 8.28125 -0.648438 7.921875 -0.367188 7.515625 -0.140625 C 7.117188 0.0742188 6.664062 0.1875 6.15625 0.1875 Z M 6.15625 0.1875 "/>
</g>
<g id="glyph-13-4-ff4d93d4">
<path d="M 3.5625 0.15625 C 3.019531 0.15625 2.550781 0.0585938 2.15625 -0.125 C 1.757812 -0.320312 1.457031 -0.597656 1.25 -0.953125 C 1.039062 -1.316406 0.9375 -1.742188 0.9375 -2.234375 C 0.9375 -3.285156 1.347656 -4.003906 2.171875 -4.390625 C 3.003906 -4.785156 4.03125 -4.984375 5.25 -4.984375 L 6.140625 -4.984375 L 6.140625 -5.359375 C 6.140625 -5.804688 6.023438 -6.210938 5.796875 -6.578125 C 5.566406 -6.941406 5.109375 -7.125 4.421875 -7.125 C 4.117188 -7.125 3.832031 -7.082031 3.5625 -7 C 3.300781 -6.914062 3.070312 -6.816406 2.875 -6.703125 C 2.6875 -6.597656 2.441406 -6.441406 2.140625 -6.234375 L 1.40625 -7.25 C 1.863281 -7.59375 2.332031 -7.863281 2.8125 -8.0625 C 3.300781 -8.257812 3.890625 -8.359375 4.578125 -8.359375 C 5.773438 -8.359375 6.582031 -8.0625 7 -7.46875 C 7.414062 -6.875 7.625 -6.175781 7.625 -5.375 L 7.625 -2.34375 C 7.625 -1.675781 7.671875 -0.894531 7.765625 0 L 6.28125 0 C 6.257812 -0.21875 6.238281 -0.5 6.21875 -0.84375 L 6.203125 -1.09375 C 5.941406 -0.65625 5.578125 -0.335938 5.109375 -0.140625 C 4.648438 0.0546875 4.132812 0.15625 3.5625 0.15625 Z M 3.953125 -1 C 4.703125 -1 5.253906 -1.25 5.609375 -1.75 C 5.960938 -2.257812 6.140625 -2.953125 6.140625 -3.828125 L 5.5625 -3.84375 C 4.820312 -3.84375 4.222656 -3.789062 3.765625 -3.6875 C 3.304688 -3.582031 2.96875 -3.414062 2.75 -3.1875 C 2.539062 -2.96875 2.4375 -2.671875 2.4375 -2.296875 C 2.4375 -1.847656 2.570312 -1.519531 2.84375 -1.3125 C 3.113281 -1.101562 3.484375 -1 3.953125 -1 Z M 3.953125 -1 "/>
</g>
<g id="glyph-13-5-ff4d93d4">
<path d="M 5.703125 0.109375 C 4.910156 0.109375 4.332031 -0.0546875 3.96875 -0.390625 C 3.601562 -0.734375 3.421875 -1.226562 3.421875 -1.875 L 3.421875 -7 L 1.125 -7 L 1.125 -8.25 L 3.421875 -8.25 L 3.421875 -10.984375 L 4.921875 -10.984375 L 4.921875 -8.25 L 7.21875 -8.25 L 7.21875 -7 L 4.921875 -7 L 4.921875 -2.46875 C 4.921875 -2.125 4.960938 -1.859375 5.046875 -1.671875 C 5.128906 -1.492188 5.257812 -1.367188 5.4375 -1.296875 C 5.625 -1.222656 5.890625 -1.1875 6.234375 -1.1875 C 6.398438 -1.1875 6.632812 -1.207031 6.9375 -1.25 C 7.238281 -1.300781 7.5 -1.351562 7.71875 -1.40625 L 7.71875 -0.125 C 7.488281 -0.0703125 7.164062 -0.0195312 6.75 0.03125 C 6.34375 0.0820312 5.992188 0.109375 5.703125 0.109375 Z M 5.703125 0.109375 "/>
</g>
<g id="glyph-13-6-ff4d93d4">
<path d="M 1.515625 -8.25 L 5.375 -8.25 L 5.375 -1.21875 L 7.65625 -1.21875 L 7.65625 0 L 1.390625 0 L 1.390625 -1.21875 L 3.859375 -1.21875 L 3.859375 -7.09375 L 1.515625 -7.09375 Z M 4.453125 -9.75 C 4.054688 -9.75 3.773438 -9.832031 3.609375 -10 C 3.453125 -10.164062 3.375 -10.441406 3.375 -10.828125 C 3.375 -11.222656 3.453125 -11.5 3.609375 -11.65625 C 3.773438 -11.820312 4.054688 -11.90625 4.453125 -11.90625 C 4.835938 -11.90625 5.109375 -11.820312 5.265625 -11.65625 C 5.429688 -11.5 5.515625 -11.222656 5.515625 -10.828125 C 5.515625 -10.441406 5.429688 -10.164062 5.265625 -10 C 5.109375 -9.832031 4.835938 -9.75 4.453125 -9.75 Z M 4.453125 -9.75 "/>
</g>
<g id="glyph-13-7-ff4d93d4">
<path d="M 1.09375 -8.265625 L 2.78125 -8.265625 L 4.515625 -2.03125 L 6.3125 -8.265625 L 7.90625 -8.265625 L 5.375 0 L 3.625 0 Z M 1.09375 -8.265625 "/>
</g>
<g id="glyph-13-8-ff4d93d4">
<path d="M 4.765625 0.140625 C 4.078125 0.140625 3.445312 -0.0234375 2.875 -0.359375 C 2.3125 -0.703125 1.859375 -1.191406 1.515625 -1.828125 C 1.179688 -2.472656 1.015625 -3.222656 1.015625 -4.078125 C 1.015625 -4.910156 1.171875 -5.65625 1.484375 -6.3125 C 1.796875 -6.96875 2.226562 -7.476562 2.78125 -7.84375 C 3.332031 -8.207031 3.957031 -8.390625 4.65625 -8.390625 C 5.738281 -8.390625 6.5625 -7.984375 7.125 -7.171875 C 7.6875 -6.359375 7.96875 -5.203125 7.96875 -3.703125 L 2.546875 -3.703125 C 2.566406 -2.878906 2.769531 -2.257812 3.15625 -1.84375 C 3.550781 -1.425781 4.101562 -1.21875 4.8125 -1.21875 C 5.300781 -1.21875 5.757812 -1.289062 6.1875 -1.4375 C 6.625 -1.59375 6.945312 -1.757812 7.15625 -1.9375 L 7.8125 -0.828125 C 7.613281 -0.671875 7.351562 -0.515625 7.03125 -0.359375 C 6.707031 -0.210938 6.34375 -0.09375 5.9375 0 C 5.539062 0.09375 5.148438 0.140625 4.765625 0.140625 Z M 6.5625 -4.953125 C 6.5625 -5.367188 6.476562 -5.738281 6.3125 -6.0625 C 6.144531 -6.394531 5.914062 -6.648438 5.625 -6.828125 C 5.332031 -7.015625 5.003906 -7.109375 4.640625 -7.109375 C 4.273438 -7.109375 3.9375 -7.015625 3.625 -6.828125 C 3.3125 -6.648438 3.0625 -6.398438 2.875 -6.078125 C 2.695312 -5.753906 2.609375 -5.378906 2.609375 -4.953125 Z M 6.5625 -4.953125 "/>
</g>
<g id="glyph-13-9-ff4d93d4">
</g>
<g id="glyph-13-10-ff4d93d4">
<path d="M 3.5 -10.875 L 5.515625 -10.875 L 8.375 0 L 6.734375 0 L 6 -2.828125 L 2.90625 -2.828125 L 2.21875 0 L 0.640625 0 Z M 5.734375 -4.125 L 4.5625 -9.28125 L 4.4375 -9.28125 L 3.28125 -4.125 Z M 5.734375 -4.125 "/>
</g>
<g id="glyph-13-11-ff4d93d4">
<path d="M 4.53125 0.078125 C 3.800781 0.078125 3.175781 -0.0390625 2.65625 -0.28125 C 2.144531 -0.53125 1.679688 -0.90625 1.265625 -1.40625 L 2.140625 -2.34375 C 2.421875 -2.082031 2.671875 -1.875 2.890625 -1.71875 C 3.109375 -1.570312 3.359375 -1.453125 3.640625 -1.359375 C 3.921875 -1.265625 4.242188 -1.21875 4.609375 -1.21875 C 5.054688 -1.21875 5.457031 -1.304688 5.8125 -1.484375 C 6.164062 -1.660156 6.34375 -1.945312 6.34375 -2.34375 C 6.34375 -2.5625 6.28125 -2.734375 6.15625 -2.859375 C 6.03125 -2.984375 5.867188 -3.078125 5.671875 -3.140625 C 5.472656 -3.210938 5.179688 -3.296875 4.796875 -3.390625 C 4.585938 -3.441406 4.378906 -3.5 4.171875 -3.5625 C 3.597656 -3.707031 3.125 -3.867188 2.75 -4.046875 C 2.375 -4.222656 2.066406 -4.460938 1.828125 -4.765625 C 1.597656 -5.078125 1.484375 -5.476562 1.484375 -5.96875 C 1.484375 -6.476562 1.613281 -6.914062 1.875 -7.28125 C 2.144531 -7.65625 2.507812 -7.9375 2.96875 -8.125 C 3.425781 -8.3125 3.941406 -8.40625 4.515625 -8.40625 C 5.722656 -8.40625 6.671875 -8.054688 7.359375 -7.359375 L 6.46875 -6.375 C 5.914062 -6.820312 5.285156 -7.046875 4.578125 -7.046875 C 4.085938 -7.046875 3.6875 -6.953125 3.375 -6.765625 C 3.070312 -6.578125 2.921875 -6.328125 2.921875 -6.015625 C 2.921875 -5.753906 3.023438 -5.535156 3.234375 -5.359375 C 3.453125 -5.179688 3.707031 -5.039062 4 -4.9375 C 4.300781 -4.84375 4.6875 -4.738281 5.15625 -4.625 L 5.4375 -4.546875 C 5.820312 -4.441406 6.171875 -4.316406 6.484375 -4.171875 C 6.796875 -4.035156 7.078125 -3.816406 7.328125 -3.515625 C 7.578125 -3.210938 7.703125 -2.8125 7.703125 -2.3125 C 7.703125 -1.75 7.554688 -1.285156 7.265625 -0.921875 C 6.984375 -0.566406 6.601562 -0.3125 6.125 -0.15625 C 5.65625 0 5.125 0.078125 4.53125 0.078125 Z M 4.53125 0.078125 "/>
</g>
<g id="glyph-13-12-ff4d93d4">
<path d="M 1.296875 -10.890625 L 2.890625 -10.890625 L 2.890625 -1.34375 L 8.09375 -1.34375 L 8.09375 0 L 1.296875 0 Z M 1.296875 -10.890625 "/>
</g>
<g id="glyph-13-13-ff4d93d4">
<path d="M 4.90625 0.15625 C 4.414062 0.15625 4 0.0703125 3.65625 -0.09375 C 3.3125 -0.269531 2.992188 -0.566406 2.703125 -0.984375 L 2.65625 0 L 1.1875 0 C 1.226562 -0.675781 1.25 -1.28125 1.25 -1.8125 L 1.25 -11.84375 L 2.765625 -11.84375 L 2.765625 -6.90625 C 3.035156 -7.363281 3.363281 -7.710938 3.75 -7.953125 C 4.132812 -8.191406 4.554688 -8.3125 5.015625 -8.3125 C 5.679688 -8.3125 6.234375 -8.117188 6.671875 -7.734375 C 7.117188 -7.347656 7.441406 -6.828125 7.640625 -6.171875 C 7.847656 -5.515625 7.953125 -4.769531 7.953125 -3.9375 C 7.953125 -3.21875 7.835938 -2.546875 7.609375 -1.921875 C 7.390625 -1.304688 7.046875 -0.804688 6.578125 -0.421875 C 6.117188 -0.0351562 5.5625 0.15625 4.90625 0.15625 Z M 4.53125 -0.984375 C 4.988281 -0.984375 5.359375 -1.125 5.640625 -1.40625 C 5.921875 -1.6875 6.125 -2.046875 6.25 -2.484375 C 6.375 -2.921875 6.4375 -3.378906 6.4375 -3.859375 C 6.4375 -4.796875 6.296875 -5.554688 6.015625 -6.140625 C 5.742188 -6.734375 5.289062 -7.03125 4.65625 -7.03125 C 4.207031 -7.03125 3.832031 -6.882812 3.53125 -6.59375 C 3.238281 -6.3125 3.023438 -5.925781 2.890625 -5.4375 C 2.753906 -4.957031 2.6875 -4.421875 2.6875 -3.828125 C 2.6875 -3.367188 2.75 -2.921875 2.875 -2.484375 C 3 -2.054688 3.195312 -1.695312 3.46875 -1.40625 C 3.75 -1.125 4.101562 -0.984375 4.53125 -0.984375 Z M 4.53125 -0.984375 "/>
</g>
<g id="glyph-13-14-ff4d93d4">
<path d="M 1.046875 1.34375 C 1.234375 1.40625 1.492188 1.460938 1.828125 1.515625 C 2.171875 1.578125 2.410156 1.609375 2.546875 1.609375 C 2.816406 1.609375 3.050781 1.53125 3.25 1.375 C 3.445312 1.21875 3.59375 1.023438 3.6875 0.796875 C 3.78125 0.578125 3.828125 0.359375 3.828125 0.140625 C 3.828125 -0.0664062 3.738281 -0.457031 3.5625 -1.03125 C 3.394531 -1.613281 3.191406 -2.234375 2.953125 -2.890625 C 2.921875 -2.984375 2.664062 -3.710938 2.1875 -5.078125 C 1.644531 -6.648438 1.273438 -7.707031 1.078125 -8.25 L 2.65625 -8.25 L 4.625 -2.078125 L 6.484375 -8.25 L 7.953125 -8.25 L 6.546875 -3.8125 C 6.441406 -3.507812 6.238281 -2.832031 5.9375 -1.78125 C 5.5625 -0.46875 5.328125 0.3125 5.234375 0.5625 C 4.984375 1.25 4.695312 1.765625 4.375 2.109375 C 4.0625 2.460938 3.765625 2.691406 3.484375 2.796875 C 3.210938 2.898438 2.9375 2.957031 2.65625 2.96875 C 2.550781 2.976562 2.304688 2.945312 1.921875 2.875 C 1.535156 2.8125 1.242188 2.753906 1.046875 2.703125 Z M 1.046875 1.34375 "/>
</g>
<g id="glyph-13-15-ff4d93d4">
<path d="M 1.1875 -11.84375 L 2.734375 -11.84375 L 2.734375 -7.078125 C 3.046875 -7.503906 3.414062 -7.828125 3.84375 -8.046875 C 4.269531 -8.265625 4.734375 -8.375 5.234375 -8.375 C 6.179688 -8.375 6.863281 -8.109375 7.28125 -7.578125 C 7.695312 -7.046875 7.90625 -6.273438 7.90625 -5.265625 L 7.90625 0 L 6.359375 0 L 6.359375 -4.59375 C 6.359375 -5.125 6.320312 -5.554688 6.25 -5.890625 C 6.175781 -6.234375 6.019531 -6.503906 5.78125 -6.703125 C 5.550781 -6.898438 5.21875 -7 4.78125 -7 C 4.09375 -7 3.578125 -6.6875 3.234375 -6.0625 C 2.898438 -5.445312 2.734375 -4.632812 2.734375 -3.625 L 2.734375 0 L 1.1875 0 Z M 1.1875 -11.84375 "/>
</g>
<g id="glyph-13-16-ff4d93d4">
<path d="M 3.28125 -6.609375 L 1.140625 -6.609375 L 1.140625 -7.875 L 3.296875 -7.875 L 3.296875 -9.28125 C 3.296875 -10.226562 3.539062 -10.894531 4.03125 -11.28125 C 4.519531 -11.664062 5.226562 -11.859375 6.15625 -11.859375 C 6.925781 -11.859375 7.492188 -11.84375 7.859375 -11.8125 L 7.859375 -10.5 C 7.285156 -10.539062 6.832031 -10.5625 6.5 -10.5625 C 6.125 -10.5625 5.816406 -10.523438 5.578125 -10.453125 C 5.335938 -10.390625 5.144531 -10.257812 5 -10.0625 C 4.863281 -9.875 4.796875 -9.601562 4.796875 -9.25 L 4.796875 -7.875 L 7.1875 -7.875 L 7.1875 -6.609375 L 4.796875 -6.609375 L 4.796875 0 L 3.28125 0 Z M 3.28125 -6.609375 "/>
</g>
<g id="glyph-13-17-ff4d93d4">
<path d="M 4.5 0.125 C 3.769531 0.125 3.140625 -0.046875 2.609375 -0.390625 C 2.085938 -0.742188 1.6875 -1.238281 1.40625 -1.875 C 1.132812 -2.507812 1 -3.257812 1 -4.125 C 1 -5 1.140625 -5.753906 1.421875 -6.390625 C 1.710938 -7.035156 2.117188 -7.53125 2.640625 -7.875 C 3.171875 -8.226562 3.789062 -8.40625 4.5 -8.40625 C 5.21875 -8.40625 5.835938 -8.226562 6.359375 -7.875 C 6.890625 -7.53125 7.296875 -7.035156 7.578125 -6.390625 C 7.859375 -5.753906 8 -5 8 -4.125 C 8 -3.257812 7.859375 -2.507812 7.578125 -1.875 C 7.304688 -1.238281 6.90625 -0.742188 6.375 -0.390625 C 5.851562 -0.046875 5.226562 0.125 4.5 0.125 Z M 4.46875 -1.1875 C 4.875 -1.1875 5.226562 -1.300781 5.53125 -1.53125 C 5.832031 -1.769531 6.0625 -2.109375 6.21875 -2.546875 C 6.375 -2.992188 6.453125 -3.519531 6.453125 -4.125 C 6.453125 -4.726562 6.367188 -5.253906 6.203125 -5.703125 C 6.046875 -6.148438 5.816406 -6.492188 5.515625 -6.734375 C 5.222656 -6.972656 4.875 -7.09375 4.46875 -7.09375 C 4.070312 -7.09375 3.726562 -6.972656 3.4375 -6.734375 C 3.15625 -6.492188 2.9375 -6.148438 2.78125 -5.703125 C 2.625 -5.253906 2.546875 -4.726562 2.546875 -4.125 C 2.546875 -3.507812 2.617188 -2.984375 2.765625 -2.546875 C 2.921875 -2.109375 3.144531 -1.769531 3.4375 -1.53125 C 3.726562 -1.300781 4.070312 -1.1875 4.46875 -1.1875 Z M 4.46875 -1.1875 "/>
</g>
<g id="glyph-13-18-ff4d93d4">
<path d="M 0.546875 -8.25 L 2.09375 -8.25 L 2.890625 -1.75 L 2.96875 -1.828125 L 3.9375 -6.921875 L 5.0625 -6.921875 L 6.046875 -1.828125 L 6.109375 -1.75 L 6.984375 -8.25 L 8.453125 -8.25 L 7 0 L 5.546875 0 L 4.5 -4.6875 L 3.4375 0 L 1.953125 0 Z M 0.546875 -8.25 "/>
</g>
</g>
</defs>
<rect x="-90" y="-60" width="1080" height="720" fill="rgb(94.117647%, 92.941177%, 89.019608%)" fill-opacity="1"/>
<path fill-rule="nonzero" fill="rgb(94.117647%, 92.941177%, 89.019608%)" fill-opacity="1" d="M 93 549 L 884 549 L 884 42 L 93 42 Z M 93 549 "/>
<path fill="none" stroke-width="1" stroke-linecap="butt" stroke-linejoin="miter" stroke="rgb(71.372551%, 67.843139%, 56.470591%)" stroke-opacity="0.3" stroke-miterlimit="1.154701" d="M 125.945312 549 L 125.945312 42 "/>
<path fill="none" stroke-width="1" stroke-linecap="butt" stroke-linejoin="miter" stroke="rgb(71.372551%, 67.843139%, 56.470591%)" stroke-opacity="0.3" stroke-miterlimit="1.154701" d="M 306.46875 549 L 306.46875 42 "/>
<path fill="none" stroke-width="1" stroke-linecap="butt" stroke-linejoin="miter" stroke="rgb(71.372551%, 67.843139%, 56.470591%)" stroke-opacity="0.3" stroke-miterlimit="1.154701" d="M 486.996094 549 L 486.996094 42 "/>
<path fill="none" stroke-width="1" stroke-linecap="butt" stroke-linejoin="miter" stroke="rgb(71.372551%, 67.843139%, 56.470591%)" stroke-opacity="0.3" stroke-miterlimit="1.154701" d="M 667.519531 549 L 667.519531 42 "/>
<path fill="none" stroke-width="1" stroke-linecap="butt" stroke-linejoin="miter" stroke="rgb(71.372551%, 67.843139%, 56.470591%)" stroke-opacity="0.3" stroke-miterlimit="1.154701" d="M 848.046875 549 L 848.046875 42 "/>
<path fill="none" stroke-width="1" stroke-linecap="butt" stroke-linejoin="miter" stroke="rgb(71.372551%, 67.843139%, 56.470591%)" stroke-opacity="0.12" stroke-miterlimit="1.154701" d="M 216.207031 549 L 216.207031 42 "/>
<path fill="none" stroke-width="1" stroke-linecap="butt" stroke-linejoin="miter" stroke="rgb(71.372551%, 67.843139%, 56.470591%)" stroke-opacity="0.12" stroke-miterlimit="1.154701" d="M 396.734375 549 L 396.734375 42 "/>
<path fill="none" stroke-width="1" stroke-linecap="butt" stroke-linejoin="miter" stroke="rgb(71.372551%, 67.843139%, 56.470591%)" stroke-opacity="0.12" stroke-miterlimit="1.154701" d="M 577.257812 549 L 577.257812 42 "/>
<path fill="none" stroke-width="1" stroke-linecap="butt" stroke-linejoin="miter" stroke="rgb(71.372551%, 67.843139%, 56.470591%)" stroke-opacity="0.12" stroke-miterlimit="1.154701" d="M 757.78125 549 L 757.78125 42 "/>
<path fill="none" stroke-width="1" stroke-linecap="butt" stroke-linejoin="miter" stroke="rgb(71.372551%, 67.843139%, 56.470591%)" stroke-opacity="0.3" stroke-miterlimit="1.154701" d="M 93 527.3125 L 884 527.3125 "/>
<path fill="none" stroke-width="1" stroke-linecap="butt" stroke-linejoin="miter" stroke="rgb(71.372551%, 67.843139%, 56.470591%)" stroke-opacity="0.3" stroke-miterlimit="1.154701" d="M 93 380.242188 L 884 380.242188 "/>
<path fill="none" stroke-width="1" stroke-linecap="butt" stroke-linejoin="miter" stroke="rgb(71.372551%, 67.843139%, 56.470591%)" stroke-opacity="0.3" stroke-miterlimit="1.154701" d="M 93 233.167969 L 884 233.167969 "/>
<path fill="none" stroke-width="1" stroke-linecap="butt" stroke-linejoin="miter" stroke="rgb(71.372551%, 67.843139%, 56.470591%)" stroke-opacity="0.3" stroke-miterlimit="1.154701" d="M 93 86.09375 L 884 86.09375 "/>
<path fill="none" stroke-width="1" stroke-linecap="butt" stroke-linejoin="miter" stroke="rgb(71.372551%, 67.843139%, 56.470591%)" stroke-opacity="0.12" stroke-miterlimit="1.154701" d="M 93 453.777344 L 884 453.777344 "/>
<path fill="none" stroke-width="1" stroke-linecap="butt" stroke-linejoin="miter" stroke="rgb(71.372551%, 67.843139%, 56.470591%)" stroke-opacity="0.12" stroke-miterlimit="1.154701" d="M 93 306.703125 L 884 306.703125 "/>
<path fill="none" stroke-width="1" stroke-linecap="butt" stroke-linejoin="miter" stroke="rgb(71.372551%, 67.843139%, 56.470591%)" stroke-opacity="0.12" stroke-miterlimit="1.154701" d="M 93 159.632812 L 884 159.632812 "/>
<g fill="rgb(10.588235%, 16.470589%, 22.745098%)" fill-opacity="1">
<use xlink:href="#glyph-0-0-ff4d93d4" x="445.300014" y="582.424999"/>
<use xlink:href="#glyph-0-1-ff4d93d4" x="452.500015" y="582.424999"/>
<use xlink:href="#glyph-0-2-ff4d93d4" x="459.700016" y="582.424999"/>
<use xlink:href="#glyph-0-3-ff4d93d4" x="466.900015" y="582.424999"/>
<use xlink:href="#glyph-0-4-ff4d93d4" x="474.100016" y="582.424999"/>
<use xlink:href="#glyph-0-5-ff4d93d4" x="481.300015" y="582.424999"/>
<use xlink:href="#glyph-0-6-ff4d93d4" x="488.500016" y="582.424999"/>
<use xlink:href="#glyph-0-3-ff4d93d4" x="495.700017" y="582.424999"/>
<use xlink:href="#glyph-0-7-ff4d93d4" x="502.900018" y="582.424999"/>
</g>
<g fill="rgb(10.588235%, 16.470589%, 22.745098%)" fill-opacity="1">
<use xlink:href="#glyph-1-0-ff4d93d4" x="510.100018" y="582.424999"/>
</g>
<g fill="rgb(10.588235%, 16.470589%, 22.745098%)" fill-opacity="1">
<use xlink:href="#glyph-0-8-ff4d93d4" x="517.300016" y="582.424999"/>
<use xlink:href="#glyph-0-9-ff4d93d4" x="524.500013" y="582.424999"/>
</g>
<g fill="rgb(10.588235%, 16.470589%, 22.745098%)" fill-opacity="1">
<use xlink:href="#glyph-2-0-ff4d93d4" x="122.645804" y="562.549997"/>
</g>
<g fill="rgb(10.588235%, 16.470589%, 22.745098%)" fill-opacity="1">
<use xlink:href="#glyph-3-0-ff4d93d4" x="303.17071" y="562.549997"/>
</g>
<g fill="rgb(10.588235%, 16.470589%, 22.745098%)" fill-opacity="1">
<use xlink:href="#glyph-3-1-ff4d93d4" x="480.395647" y="562.549997"/>
<use xlink:href="#glyph-3-2-ff4d93d4" x="486.995648" y="562.549997"/>
</g>
<g fill="rgb(10.588235%, 16.470589%, 22.745098%)" fill-opacity="1">
<use xlink:href="#glyph-3-1-ff4d93d4" x="660.920584" y="562.549997"/>
<use xlink:href="#glyph-3-0-ff4d93d4" x="667.520585" y="562.549997"/>
</g>
<g fill="rgb(10.588235%, 16.470589%, 22.745098%)" fill-opacity="1">
<use xlink:href="#glyph-3-3-ff4d93d4" x="841.445491" y="562.549997"/>
<use xlink:href="#glyph-3-2-ff4d93d4" x="848.045492" y="562.549997"/>
</g>
<g fill="rgb(10.588235%, 16.470589%, 22.745098%)" fill-opacity="1">
<use xlink:href="#glyph-4-0-ff4d93d4" x="26.400001" y="396.29996"/>
</g>
<g fill="rgb(10.588235%, 16.470589%, 22.745098%)" fill-opacity="1">
<use xlink:href="#glyph-5-0-ff4d93d4" x="26.400002" y="389.099963"/>
</g>
<g fill="rgb(10.588235%, 16.470589%, 22.745098%)" fill-opacity="1">
<use xlink:href="#glyph-6-0-ff4d93d4" x="26.400002" y="381.899958"/>
</g>
<g fill="rgb(10.588235%, 16.470589%, 22.745098%)" fill-opacity="1">
<use xlink:href="#glyph-4-1-ff4d93d4" x="26.400002" y="374.699961"/>
</g>
<g fill="rgb(10.588235%, 16.470589%, 22.745098%)" fill-opacity="1">
<use xlink:href="#glyph-5-1-ff4d93d4" x="26.400003" y="367.499956"/>
</g>
<g fill="rgb(10.588235%, 16.470589%, 22.745098%)" fill-opacity="1">
<use xlink:href="#glyph-6-1-ff4d93d4" x="26.400003" y="360.299959"/>
</g>
<g fill="rgb(10.588235%, 16.470589%, 22.745098%)" fill-opacity="1">
<use xlink:href="#glyph-5-2-ff4d93d4" x="26.400004" y="353.099962"/>
<use xlink:href="#glyph-5-3-ff4d93d4" x="26.400004" y="345.899961"/>
</g>
<g fill="rgb(10.588235%, 16.470589%, 22.745098%)" fill-opacity="1">
<use xlink:href="#glyph-6-2-ff4d93d4" x="26.400005" y="338.69996"/>
</g>
<g fill="rgb(10.588235%, 16.470589%, 22.745098%)" fill-opacity="1">
<use xlink:href="#glyph-4-2-ff4d93d4" x="26.400005" y="331.499959"/>
</g>
<g fill="rgb(10.588235%, 16.470589%, 22.745098%)" fill-opacity="1">
<use xlink:href="#glyph-5-4-ff4d93d4" x="26.400006" y="324.299964"/>
</g>
<g fill="rgb(10.588235%, 16.470589%, 22.745098%)" fill-opacity="1">
<use xlink:href="#glyph-6-3-ff4d93d4" x="26.400006" y="317.099967"/>
</g>
<g fill="rgb(10.588235%, 16.470589%, 22.745098%)" fill-opacity="1">
<use xlink:href="#glyph-4-3-ff4d93d4" x="26.400006" y="309.899971"/>
</g>
<g fill="rgb(10.588235%, 16.470589%, 22.745098%)" fill-opacity="1">
<use xlink:href="#glyph-7-0-ff4d93d4" x="26.400007" y="302.699974"/>
</g>
<g fill="rgb(10.588235%, 16.470589%, 22.745098%)" fill-opacity="1">
<use xlink:href="#glyph-8-0-ff4d93d4" x="26.400007" y="295.499977"/>
</g>
<g fill="rgb(10.588235%, 16.470589%, 22.745098%)" fill-opacity="1">
<use xlink:href="#glyph-7-1-ff4d93d4" x="26.400008" y="288.299981"/>
</g>
<g fill="rgb(10.588235%, 16.470589%, 22.745098%)" fill-opacity="1">
<use xlink:href="#glyph-9-0-ff4d93d4" x="26.400008" y="281.099984"/>
</g>
<g fill="rgb(10.588235%, 16.470589%, 22.745098%)" fill-opacity="1">
<use xlink:href="#glyph-6-4-ff4d93d4" x="26.400008" y="273.899988"/>
</g>
<g fill="rgb(10.588235%, 16.470589%, 22.745098%)" fill-opacity="1">
<use xlink:href="#glyph-4-3-ff4d93d4" x="26.400009" y="266.699991"/>
</g>
<g fill="rgb(10.588235%, 16.470589%, 22.745098%)" fill-opacity="1">
<use xlink:href="#glyph-10-0-ff4d93d4" x="26.400009" y="259.499996"/>
</g>
<g fill="rgb(10.588235%, 16.470589%, 22.745098%)" fill-opacity="1">
<use xlink:href="#glyph-6-5-ff4d93d4" x="26.40001" y="252.299998"/>
</g>
<g fill="rgb(10.588235%, 16.470589%, 22.745098%)" fill-opacity="1">
<use xlink:href="#glyph-9-1-ff4d93d4" x="26.40001" y="245.100001"/>
<use xlink:href="#glyph-9-2-ff4d93d4" x="26.400011" y="237.900004"/>
</g>
<g fill="rgb(10.588235%, 16.470589%, 22.745098%)" fill-opacity="1">
<use xlink:href="#glyph-6-6-ff4d93d4" x="26.400011" y="230.700011"/>
</g>
<g fill="rgb(10.588235%, 16.470589%, 22.745098%)" fill-opacity="1">
<use xlink:href="#glyph-11-0-ff4d93d4" x="26.400011" y="223.500014"/>
</g>
<g fill="rgb(10.588235%, 16.470589%, 22.745098%)" fill-opacity="1">
<use xlink:href="#glyph-9-3-ff4d93d4" x="26.400012" y="216.300017"/>
</g>
<g fill="rgb(10.588235%, 16.470589%, 22.745098%)" fill-opacity="1">
<use xlink:href="#glyph-12-0-ff4d93d4" x="26.400012" y="209.10002"/>
</g>
<g fill="rgb(10.588235%, 16.470589%, 22.745098%)" fill-opacity="1">
<use xlink:href="#glyph-4-4-ff4d93d4" x="26.400013" y="201.900022"/>
</g>
<g fill="rgb(10.588235%, 16.470589%, 22.745098%)" fill-opacity="1">
<use xlink:href="#glyph-3-2-ff4d93d4" x="81.300003" y="531.301623"/>
</g>
<g fill="rgb(10.588235%, 16.470589%, 22.745098%)" fill-opacity="1">
<use xlink:href="#glyph-3-0-ff4d93d4" x="35.100007" y="384.228782"/>
<use xlink:href="#glyph-3-4-ff4d93d4" x="41.700006" y="384.228782"/>
<use xlink:href="#glyph-3-2-ff4d93d4" x="48.300008" y="384.228782"/>
<use xlink:href="#glyph-3-2-ff4d93d4" x="54.90001" y="384.228782"/>
<use xlink:href="#glyph-3-5-ff4d93d4" x="61.500009" y="384.228782"/>
<use xlink:href="#glyph-3-1-ff4d93d4" x="68.100008" y="384.228782"/>
<use xlink:href="#glyph-3-2-ff4d93d4" x="74.700006" y="384.228782"/>
<use xlink:href="#glyph-3-6-ff4d93d4" x="81.300005" y="384.228782"/>
</g>
<g fill="rgb(10.588235%, 16.470589%, 22.745098%)" fill-opacity="1">
<use xlink:href="#glyph-3-1-ff4d93d4" x="35.100007" y="237.155948"/>
<use xlink:href="#glyph-3-4-ff4d93d4" x="41.700006" y="237.155948"/>
<use xlink:href="#glyph-3-2-ff4d93d4" x="48.300008" y="237.155948"/>
<use xlink:href="#glyph-3-2-ff4d93d4" x="54.90001" y="237.155948"/>
<use xlink:href="#glyph-3-5-ff4d93d4" x="61.500009" y="237.155948"/>
<use xlink:href="#glyph-3-1-ff4d93d4" x="68.100008" y="237.155948"/>
<use xlink:href="#glyph-3-2-ff4d93d4" x="74.700006" y="237.155948"/>
<use xlink:href="#glyph-3-7-ff4d93d4" x="81.300005" y="237.155948"/>
</g>
<g fill="rgb(10.588235%, 16.470589%, 22.745098%)" fill-opacity="1">
<use xlink:href="#glyph-3-1-ff4d93d4" x="35.100007" y="90.083069"/>
<use xlink:href="#glyph-3-4-ff4d93d4" x="41.700006" y="90.083069"/>
<use xlink:href="#glyph-3-0-ff4d93d4" x="48.300008" y="90.083069"/>
<use xlink:href="#glyph-3-2-ff4d93d4" x="54.90001" y="90.083069"/>
<use xlink:href="#glyph-3-5-ff4d93d4" x="61.500009" y="90.083069"/>
<use xlink:href="#glyph-3-1-ff4d93d4" x="68.100008" y="90.083069"/>
<use xlink:href="#glyph-3-2-ff4d93d4" x="74.700006" y="90.083069"/>
<use xlink:href="#glyph-3-7-ff4d93d4" x="81.300005" y="90.083069"/>
</g>
<g fill="rgb(10.588235%, 16.470589%, 22.745098%)" fill-opacity="1">
<use xlink:href="#glyph-13-0-ff4d93d4" x="93.000002" y="30.624986"/>
<use xlink:href="#glyph-13-1-ff4d93d4" x="102.000002" y="30.624986"/>
<use xlink:href="#glyph-13-2-ff4d93d4" x="111.000003" y="30.624986"/>
<use xlink:href="#glyph-13-1-ff4d93d4" x="120.000003" y="30.624986"/>
<use xlink:href="#glyph-13-3-ff4d93d4" x="129.000003" y="30.624986"/>
<use xlink:href="#glyph-13-4-ff4d93d4" x="138.000003" y="30.624986"/>
<use xlink:href="#glyph-13-5-ff4d93d4" x="147.000004" y="30.624986"/>
<use xlink:href="#glyph-13-6-ff4d93d4" x="156.000004" y="30.624986"/>
<use xlink:href="#glyph-13-7-ff4d93d4" x="165.000004" y="30.624986"/>
<use xlink:href="#glyph-13-8-ff4d93d4" x="174.000004" y="30.624986"/>
<use xlink:href="#glyph-13-9-ff4d93d4" x="183.000004" y="30.624986"/>
<use xlink:href="#glyph-13-10-ff4d93d4" x="192.000005" y="30.624986"/>
<use xlink:href="#glyph-13-11-ff4d93d4" x="201.000005" y="30.624986"/>
<use xlink:href="#glyph-13-11-ff4d93d4" x="210.000005" y="30.624986"/>
<use xlink:href="#glyph-13-8-ff4d93d4" x="219.000005" y="30.624986"/>
<use xlink:href="#glyph-13-5-ff4d93d4" x="228.000006" y="30.624986"/>
<use xlink:href="#glyph-13-9-ff4d93d4" x="237.000006" y="30.624986"/>
<use xlink:href="#glyph-13-7-ff4d93d4" x="246.000006" y="30.624986"/>
<use xlink:href="#glyph-13-11-ff4d93d4" x="255.000006" y="30.624986"/>
<use xlink:href="#glyph-13-9-ff4d93d4" x="264.000006" y="30.624986"/>
<use xlink:href="#glyph-13-12-ff4d93d4" x="273.000007" y="30.624986"/>
<use xlink:href="#glyph-13-6-ff4d93d4" x="282.000007" y="30.624986"/>
<use xlink:href="#glyph-13-4-ff4d93d4" x="291.000007" y="30.624986"/>
<use xlink:href="#glyph-13-13-ff4d93d4" x="300.000007" y="30.624986"/>
<use xlink:href="#glyph-13-6-ff4d93d4" x="309.000007" y="30.624986"/>
<use xlink:href="#glyph-13-3-ff4d93d4" x="318.000008" y="30.624986"/>
<use xlink:href="#glyph-13-6-ff4d93d4" x="327.000008" y="30.624986"/>
<use xlink:href="#glyph-13-5-ff4d93d4" x="336.000008" y="30.624986"/>
<use xlink:href="#glyph-13-14-ff4d93d4" x="345.000008" y="30.624986"/>
<use xlink:href="#glyph-13-9-ff4d93d4" x="354.000009" y="30.624986"/>
<use xlink:href="#glyph-13-0-ff4d93d4" x="363.000009" y="30.624986"/>
<use xlink:href="#glyph-13-4-ff4d93d4" x="372.000009" y="30.624986"/>
<use xlink:href="#glyph-13-11-ff4d93d4" x="381.000009" y="30.624986"/>
<use xlink:href="#glyph-13-15-ff4d93d4" x="390.000009" y="30.624986"/>
<use xlink:href="#glyph-13-16-ff4d93d4" x="399.00001" y="30.624986"/>
<use xlink:href="#glyph-13-3-ff4d93d4" x="408.00001" y="30.624986"/>
<use xlink:href="#glyph-13-17-ff4d93d4" x="417.00001" y="30.624986"/>
<use xlink:href="#glyph-13-18-ff4d93d4" x="426.00001" y="30.624986"/>
<use xlink:href="#glyph-13-11-ff4d93d4" x="435.000011" y="30.624986"/>
</g>
<path fill="none" stroke-width="1.8" stroke-linecap="butt" stroke-linejoin="miter" stroke="rgb(78.431374%, 20.784314%, 10.980392%)" stroke-opacity="1" stroke-miterlimit="2" d="M 128.953125 525.953125 L 131.964844 524.566406 L 134.972656 523.148438 L 137.980469 521.703125 L 140.988281 520.226562 L 144 518.714844 L 147.007812 517.171875 L 150.015625 515.597656 L 153.023438 513.992188 L 156.035156 512.351562 L 159.042969 510.683594 L 162.050781 494.785156 L 165.058594 493.183594 L 168.066406 491.5625 L 171.078125 489.933594 L 174.085938 488.296875 L 177.09375 486.648438 L 180.101562 484.996094 L 183.113281 483.339844 L 186.121094 481.679688 L 189.128906 480.015625 L 192.136719 478.34375 L 195.148438 476.667969 L 198.15625 461.902344 L 201.164062 460.273438 L 204.171875 458.621094 L 207.183594 456.945312 L 210.191406 455.242188 L 213.199219 453.503906 L 216.207031 451.734375 L 219.21875 449.925781 L 222.226562 448.082031 L 225.234375 446.195312 L 228.242188 444.265625 L 231.253906 442.292969 L 234.261719 427.050781 L 237.269531 425.0625 L 240.277344 423.039062 L 243.285156 420.976562 L 246.296875 418.882812 L 249.304688 416.753906 L 252.3125 414.59375 L 255.320312 412.410156 L 258.332031 410.195312 L 261.339844 407.953125 L 264.347656 405.691406 L 267.355469 403.40625 L 270.367188 389.453125 L 273.375 387.296875 L 276.382812 385.132812 L 279.390625 382.957031 L 282.402344 380.773438 L 288.417969 376.390625 L 291.425781 374.191406 L 294.4375 371.992188 L 297.445312 369.792969 L 303.460938 365.402344 L 306.472656 353.402344 L 309.480469 351.402344 L 312.488281 349.40625 L 315.496094 347.414062 L 318.503906 345.425781 L 321.515625 343.445312 L 324.523438 341.46875 L 327.53125 339.5 L 330.539062 337.535156 L 333.550781 335.578125 L 336.558594 333.628906 L 339.566406 331.6875 L 342.574219 321.535156 L 345.585938 319.777344 L 348.59375 318.03125 L 351.601562 316.289062 L 354.609375 314.558594 L 357.621094 312.835938 L 360.628906 311.125 L 363.636719 309.425781 L 366.644531 307.734375 L 369.65625 306.054688 L 372.664062 304.386719 L 375.671875 302.726562 L 378.679688 293.972656 L 381.6875 292.488281 L 384.699219 291.011719 L 387.707031 289.550781 L 390.714844 288.101562 L 393.722656 286.664062 L 396.734375 285.234375 L 399.742188 283.820312 L 402.75 282.421875 L 405.757812 281.03125 L 408.769531 279.65625 L 411.777344 278.292969 L 414.785156 270.898438 L 417.792969 269.6875 L 420.804688 268.488281 L 423.8125 267.300781 L 426.820312 266.128906 L 429.828125 264.964844 L 432.839844 263.816406 L 435.847656 262.675781 L 438.855469 261.550781 L 441.863281 260.4375 L 444.875 259.339844 L 447.882812 258.25 L 450.890625 251.660156 L 453.898438 250.703125 L 456.90625 249.757812 L 459.917969 248.828125 L 462.925781 247.902344 L 465.933594 246.992188 L 468.941406 246.09375 L 471.953125 245.203125 L 474.960938 244.324219 L 477.96875 243.457031 L 480.976562 242.601562 L 483.988281 241.753906 L 486.996094 235.792969 L 490.003906 235.050781 L 493.011719 234.316406 L 496.023438 233.589844 L 499.03125 232.871094 L 502.039062 232.160156 L 505.046875 231.460938 L 508.058594 230.765625 L 511.066406 230.082031 L 514.074219 229.402344 L 517.082031 228.734375 L 520.09375 228.070312 L 523.101562 222.152344 L 526.109375 221.570312 L 529.117188 220.996094 L 532.125 220.425781 L 535.136719 219.859375 L 538.144531 219.300781 L 541.152344 218.75 L 544.160156 218.203125 L 547.171875 217.660156 L 550.179688 217.125 L 553.1875 216.59375 L 556.195312 216.066406 L 559.207031 209.839844 L 565.222656 208.925781 L 568.230469 208.476562 L 571.242188 208.03125 L 577.257812 207.148438 L 580.265625 206.714844 L 583.277344 206.285156 L 586.285156 205.855469 L 592.300781 205.011719 L 595.3125 198.363281 L 598.320312 198.003906 L 601.328125 197.640625 L 607.34375 196.929688 L 610.355469 196.578125 L 616.371094 195.882812 L 619.378906 195.539062 L 622.390625 195.199219 L 628.40625 194.519531 L 631.414062 187.363281 L 634.425781 187.078125 L 640.441406 186.507812 L 643.449219 186.226562 L 646.460938 185.945312 L 652.476562 185.390625 L 655.484375 185.117188 L 658.496094 184.84375 L 664.511719 184.296875 L 667.519531 176.34375 L 670.53125 176.121094 L 673.539062 175.894531 L 679.554688 175.449219 L 682.5625 175.230469 L 685.574219 175.007812 L 694.597656 174.351562 L 697.609375 174.136719 L 700.617188 173.921875 L 703.625 165.417969 L 706.632812 165.246094 L 709.644531 165.070312 L 712.652344 164.898438 L 715.660156 164.722656 L 718.667969 164.550781 L 721.679688 164.378906 L 730.703125 163.863281 L 733.714844 163.695312 L 736.722656 163.523438 L 739.730469 154.59375 L 742.738281 154.460938 L 745.75 154.332031 L 748.757812 154.199219 L 751.765625 154.070312 L 754.773438 153.9375 L 757.78125 153.808594 L 760.792969 153.675781 L 763.800781 153.546875 L 769.816406 153.28125 L 772.828125 153.152344 L 775.835938 143.757812 L 778.84375 143.667969 L 781.851562 143.574219 L 784.863281 143.484375 L 787.871094 143.390625 L 790.878906 143.300781 L 793.886719 143.207031 L 796.898438 143.117188 L 805.921875 142.835938 L 808.933594 142.742188 L 811.941406 132.746094 L 814.949219 132.695312 L 817.957031 132.648438 L 820.964844 132.597656 L 823.976562 132.546875 L 826.984375 132.496094 L 829.992188 132.449219 L 833 132.398438 L 836.011719 132.34375 L 845.035156 132.191406 L 848.046875 122.027344 "/>
<path fill="none" stroke-width="1.8" stroke-linecap="butt" stroke-linejoin="miter" stroke="rgb(12.156863%, 30.588236%, 47.450981%)" stroke-opacity="1" stroke-miterlimit="2" d="M 134.972656 524.425781 L 144 521.535156 L 153.023438 518.648438 L 162.050781 515.757812 L 171.078125 512.871094 L 180.101562 509.980469 L 189.128906 507.089844 L 198.15625 504.203125 L 207.183594 501.3125 L 216.207031 498.425781 L 225.234375 495.535156 L 234.261719 472.664062 L 243.285156 469.875 L 261.339844 464.296875 L 270.367188 344.058594 L 279.390625 341.96875 L 288.417969 339.882812 L 297.445312 337.792969 L 306.472656 335.707031 L 315.496094 333.617188 L 324.523438 331.53125 L 333.550781 329.441406 L 342.574219 327.355469 L 351.601562 325.265625 L 360.628906 323.179688 L 369.65625 321.089844 L 378.679688 319.003906 L 387.707031 316.914062 L 396.734375 314.828125 L 405.757812 312.738281 L 414.785156 310.652344 L 423.8125 308.5625 L 432.839844 306.476562 L 441.863281 304.386719 L 450.890625 302.300781 L 459.917969 300.210938 L 468.941406 298.125 L 477.96875 296.035156 L 486.996094 254.800781 L 496.023438 253.175781 L 505.046875 251.546875 L 523.101562 248.296875 L 532.125 246.667969 L 550.179688 243.417969 L 559.207031 241.789062 L 568.230469 240.164062 L 586.285156 236.914062 L 595.3125 235.285156 L 604.335938 233.660156 L 613.363281 232.035156 L 622.390625 230.40625 L 631.414062 228.78125 L 640.441406 227.15625 L 649.46875 225.527344 L 658.496094 223.902344 L 667.519531 222.277344 L 676.546875 220.652344 L 685.574219 219.023438 L 694.597656 217.398438 L 703.625 215.773438 L 712.652344 214.144531 L 721.679688 212.519531 L 730.703125 210.894531 L 739.730469 209.265625 L 748.757812 207.640625 L 757.78125 206.015625 L 766.808594 204.390625 L 775.835938 202.761719 L 784.863281 201.136719 L 793.886719 199.511719 L 802.914062 197.882812 L 811.941406 196.257812 L 820.964844 194.632812 L 829.992188 193.003906 L 839.019531 191.378906 L 848.046875 65.046875 "/>
<path fill-rule="nonzero" fill="rgb(90.196079%, 88.627452%, 83.529413%)" fill-opacity="1" stroke-width="0.9" stroke-linecap="butt" stroke-linejoin="miter" stroke="rgb(10.588235%, 16.470589%, 22.745098%)" stroke-opacity="1" stroke-miterlimit="2" d="M 762 543 L 878 543 L 878 498 L 762 498 Z M 762 543 "/>
<path fill="none" stroke-width="0.9" stroke-linecap="butt" stroke-linejoin="miter" stroke="rgb(10.588235%, 16.470589%, 22.745098%)" stroke-opacity="1" stroke-miterlimit="1.154701" d="M 125.945312 544.550781 L 125.945312 549.550781 "/>
<path fill="none" stroke-width="0.9" stroke-linecap="butt" stroke-linejoin="miter" stroke="rgb(10.588235%, 16.470589%, 22.745098%)" stroke-opacity="1" stroke-miterlimit="1.154701" d="M 306.46875 544.550781 L 306.46875 549.550781 "/>
<path fill="none" stroke-width="0.9" stroke-linecap="butt" stroke-linejoin="miter" stroke="rgb(10.588235%, 16.470589%, 22.745098%)" stroke-opacity="1" stroke-miterlimit="1.154701" d="M 486.996094 544.550781 L 486.996094 549.550781 "/>
<path fill="none" stroke-width="0.9" stroke-linecap="butt" stroke-linejoin="miter" stroke="rgb(10.588235%, 16.470589%, 22.745098%)" stroke-opacity="1" stroke-miterlimit="1.154701" d="M 667.519531 544.550781 L 667.519531 549.550781 "/>
<path fill="none" stroke-width="0.9" stroke-linecap="butt" stroke-linejoin="miter" stroke="rgb(10.588235%, 16.470589%, 22.745098%)" stroke-opacity="1" stroke-miterlimit="1.154701" d="M 848.046875 544.550781 L 848.046875 549.550781 "/>
<path fill="none" stroke-width="1" stroke-linecap="butt" stroke-linejoin="miter" stroke="rgb(23.529412%, 29.019609%, 36.078432%)" stroke-opacity="1" stroke-miterlimit="1.154701" d="M 216.207031 546.550781 L 216.207031 549.550781 "/>
<path fill="none" stroke-width="1" stroke-linecap="butt" stroke-linejoin="miter" stroke="rgb(23.529412%, 29.019609%, 36.078432%)" stroke-opacity="1" stroke-miterlimit="1.154701" d="M 396.734375 546.550781 L 396.734375 549.550781 "/>
<path fill="none" stroke-width="1" stroke-linecap="butt" stroke-linejoin="miter" stroke="rgb(23.529412%, 29.019609%, 36.078432%)" stroke-opacity="1" stroke-miterlimit="1.154701" d="M 577.257812 546.550781 L 577.257812 549.550781 "/>
<path fill="none" stroke-width="1" stroke-linecap="butt" stroke-linejoin="miter" stroke="rgb(23.529412%, 29.019609%, 36.078432%)" stroke-opacity="1" stroke-miterlimit="1.154701" d="M 757.78125 546.550781 L 757.78125 549.550781 "/>
<path fill="none" stroke-width="0.9" stroke-linecap="butt" stroke-linejoin="miter" stroke="rgb(10.588235%, 16.470589%, 22.745098%)" stroke-opacity="1" stroke-miterlimit="1.154701" d="M 97.449219 527.3125 L 92.449219 527.3125 "/>
<path fill="none" stroke-width="0.9" stroke-linecap="butt" stroke-linejoin="miter" stroke="rgb(10.588235%, 16.470589%, 22.745098%)" stroke-opacity="1" stroke-miterlimit="1.154701" d="M 97.449219 380.242188 L 92.449219 380.242188 "/>
<path fill="none" stroke-width="0.9" stroke-linecap="butt" stroke-linejoin="miter" stroke="rgb(10.588235%, 16.470589%, 22.745098%)" stroke-opacity="1" stroke-miterlimit="1.154701" d="M 97.449219 233.167969 L 92.449219 233.167969 "/>
<path fill="none" stroke-width="0.9" stroke-linecap="butt" stroke-linejoin="miter" stroke="rgb(10.588235%, 16.470589%, 22.745098%)" stroke-opacity="1" stroke-miterlimit="1.154701" d="M 97.449219 86.09375 L 92.449219 86.09375 "/>
<path fill="none" stroke-width="1" stroke-linecap="butt" stroke-linejoin="miter" stroke="rgb(23.529412%, 29.019609%, 36.078432%)" stroke-opacity="1" stroke-miterlimit="1.154701" d="M 95.449219 453.777344 L 92.449219 453.777344 "/>
<path fill="none" stroke-width="1" stroke-linecap="butt" stroke-linejoin="miter" stroke="rgb(23.529412%, 29.019609%, 36.078432%)" stroke-opacity="1" stroke-miterlimit="1.154701" d="M 95.449219 306.703125 L 92.449219 306.703125 "/>
<path fill="none" stroke-width="1" stroke-linecap="butt" stroke-linejoin="miter" stroke="rgb(23.529412%, 29.019609%, 36.078432%)" stroke-opacity="1" stroke-miterlimit="1.154701" d="M 95.449219 159.632812 L 92.449219 159.632812 "/>
<path fill="none" stroke-width="1.8" stroke-linecap="butt" stroke-linejoin="miter" stroke="rgb(78.431374%, 20.784314%, 10.980392%)" stroke-opacity="1" stroke-miterlimit="2" d="M 772.199219 512.539062 L 790.199219 512.539062 "/>
<path fill="none" stroke-width="1.8" stroke-linecap="butt" stroke-linejoin="miter" stroke="rgb(12.156863%, 30.588236%, 47.450981%)" stroke-opacity="1" stroke-miterlimit="2" d="M 772.199219 528.460938 L 790.199219 528.460938 "/>
<g fill="rgb(10.588235%, 16.470589%, 22.745098%)" fill-opacity="1">
<use xlink:href="#glyph-3-8-ff4d93d4" x="795.200024" y="516.524996"/>
<use xlink:href="#glyph-3-9-ff4d93d4" x="801.800024" y="516.524996"/>
<use xlink:href="#glyph-3-10-ff4d93d4" x="808.400025" y="516.524996"/>
<use xlink:href="#glyph-3-11-ff4d93d4" x="815.000025" y="516.524996"/>
<use xlink:href="#glyph-3-9-ff4d93d4" x="821.600026" y="516.524996"/>
<use xlink:href="#glyph-3-12-ff4d93d4" x="828.200025" y="516.524996"/>
<use xlink:href="#glyph-3-9-ff4d93d4" x="834.800023" y="516.524996"/>
<use xlink:href="#glyph-3-13-ff4d93d4" x="841.400022" y="516.524996"/>
<use xlink:href="#glyph-3-9-ff4d93d4" x="848.000021" y="516.524996"/>
<use xlink:href="#glyph-3-14-ff4d93d4" x="854.600019" y="516.524996"/>
<use xlink:href="#glyph-3-15-ff4d93d4" x="861.200018" y="516.524996"/>
</g>
<g fill="rgb(10.588235%, 16.470589%, 22.745098%)" fill-opacity="1">
<use xlink:href="#glyph-3-16-ff4d93d4" x="795.20002" y="532.45"/>
<use xlink:href="#glyph-3-15-ff4d93d4" x="801.800021" y="532.45"/>
<use xlink:href="#glyph-3-15-ff4d93d4" x="808.400021" y="532.45"/>
<use xlink:href="#glyph-3-14-ff4d93d4" x="815.000022" y="532.45"/>
<use xlink:href="#glyph-3-13-ff4d93d4" x="821.600022" y="532.45"/>
<use xlink:href="#glyph-3-15-ff4d93d4" x="828.200021" y="532.45"/>
</g>
<path fill="none" stroke-width="1.1" stroke-linecap="butt" stroke-linejoin="miter" stroke="rgb(10.588235%, 16.470589%, 22.745098%)" stroke-opacity="1" stroke-miterlimit="1.154701" d="M 92.449219 549 L 884.550781 549 "/>
<path fill="none" stroke-width="1.1" stroke-linecap="butt" stroke-linejoin="miter" stroke="rgb(10.588235%, 16.470589%, 22.745098%)" stroke-opacity="1" stroke-miterlimit="1.154701" d="M 93 549.550781 L 93 41.449219 "/>
<path fill="none" stroke-width="1.1" stroke-linecap="butt" stroke-linejoin="miter" stroke="rgb(10.588235%, 16.470589%, 22.745098%)" stroke-opacity="1" stroke-miterlimit="1.154701" d="M 92.449219 42 L 884.550781 42 "/>
<path fill="none" stroke-width="1.1" stroke-linecap="butt" stroke-linejoin="miter" stroke="rgb(10.588235%, 16.470589%, 22.745098%)" stroke-opacity="1" stroke-miterlimit="1.154701" d="M 884 549.550781 L 884 41.449219 "/>
</svg>
